<?xml version="1.0" encoding="UTF-8"?>
<svg id="OBJECTS" xmlns="http://www.w3.org/2000/svg" viewBox="0 0 421.64 380.2">
  <g>
    <path d="M141.62,26.81c3.08,3.27-1.38,8.37-3.56,10.7-2.39,2.56-14.42,8.68-14.7,1.6-.06-1.58.7-3.08,1.57-4.4,2.83-4.28,7.18-8.11,12.36-8.86,1.52-.22,3.27-.15,4.32.97Z" style="fill: #322e2b;"/>
    <path d="M141.09,27.34c2.52,2.83-1.17,7.01-3.06,9.1-1.61,1.78-3.77,2.97-5.95,3.91-1.27.55-2.61,1.01-3.98,1.22-.98.15-2.21.22-3.06-.38-1.15-.81-1.06-2.57-.68-3.74.69-2.14,2.35-4.12,3.89-5.72,1.71-1.79,3.74-3.34,6.04-4.29,1.9-.78,5.11-1.76,6.8-.11.69.67,1.75-.39,1.06-1.06-1.77-1.72-4.5-1.42-6.69-.81-2.42.67-4.61,1.96-6.53,3.57s-3.67,3.65-4.99,5.83c-1.12,1.84-1.89,4.25-.85,6.31,1.42,2.78,5.25,2.07,7.64,1.29,2.73-.9,5.79-2.31,7.83-4.39,2.75-2.8,6.98-7.99,3.59-11.79-.64-.72-1.7.34-1.06,1.06Z" style="fill: #322e2b;"/>
  </g>
  <g>
    <path d="M164.51,100.28c1.28,3.21,2.65,6.47,2.86,9.92.26,4.35-1.34,8.56-2.54,12.74s-2,8.81-.22,12.79c1.12,2.5,3.17,4.54,4.02,7.14.94,2.88.28,6-.23,8.98-.51,2.98-.82,6.25.7,8.87s5.59,3.88,7.63,1.64c1.46-1.6,1.24-4.04,1.22-6.21-.04-4.21,1.04-8.43,3.1-12.11,1.35-2.41,3.1-4.58,4.39-7.02,1.29-2.44,2.09-5.32,1.33-7.97-1.61-5.66-9.48-8.29-9.95-14.15-.35-4.34,3.74-8.56,2.18-12.63-1.42-3.69-6.65-4.67-8.21-8.3-1.12-2.61.08-5.56.53-8.36.48-2.95-.89-7.88-4.41-5.85-2.82,1.62-3.62,6.15-4.3,9.06-.96,4.04.4,7.7,1.91,11.47Z" style="fill: #322e2b;"/>
    <path d="M163.78,100.48c1.47,3.67,3.02,7.4,2.84,11.43s-1.67,7.69-2.7,11.47c-.94,3.46-1.58,7.19-.68,10.73s3.88,5.98,4.8,9.45c.99,3.72-.53,7.57-.78,11.29-.2,3.07.43,6.47,3.14,8.3,2.07,1.4,5.17,1.67,6.93-.36,2.16-2.49,1.16-6.45,1.48-9.46.42-3.88,1.87-7.49,3.98-10.75s4.34-6.14,4.88-9.89c.43-2.96-.57-5.57-2.45-7.81-1.68-2-3.79-3.58-5.51-5.54-1.93-2.21-2.6-4.61-1.78-7.47s2.59-5.7,2.04-8.78c-.48-2.71-2.75-4.31-4.87-5.77-1.08-.75-2.21-1.51-3.02-2.57-1.12-1.47-1.16-3.27-.87-5.02.47-2.82,1.44-5.49.44-8.32-.74-2.09-2.51-3.54-4.73-2.52-2.51,1.15-3.61,4.04-4.3,6.52-.89,3.2-1.45,6.29-.71,9.59.43,1.88,1.13,3.69,1.85,5.48.35.89,1.8.5,1.45-.4-1.36-3.4-2.73-7.02-1.99-10.73.5-2.47,1.03-5.25,2.44-7.38.59-.89,1.67-2.03,2.85-1.94.9.07,1.42,1.02,1.69,1.78.99,2.76-.16,5.42-.54,8.18-.4,2.91.47,5.34,2.73,7.2,1.84,1.52,4.37,2.61,5.58,4.76,1.48,2.62-.16,5.67-1.06,8.19s-1.29,5.11-.1,7.61c2.06,4.32,7.25,6.36,8.99,10.87,1.29,3.35-.27,6.9-2.04,9.75s-3.86,5.67-5.07,8.95-1.55,6.65-1.51,10.13c.02,1.48.03,3.21-1.02,4.38-.85.96-2.21,1.1-3.39.78-3.28-.88-4.18-4.26-4.06-7.29.14-3.46,1.38-6.84,1.06-10.33s-2.4-5.71-4-8.55c-1.8-3.21-1.71-6.91-.98-10.42s2.08-6.85,2.81-10.37.59-6.94-.47-10.38c-.55-1.77-1.25-3.48-1.94-5.2-.35-.89-1.81-.5-1.45.4Z" style="fill: #322e2b;"/>
  </g>
  <g>
    <path d="M150.05,65.51c-1.43-2.55-3.03-5.05-5.21-7-2.18-1.94-5.02-3.29-7.94-3.17-1.24.05-2.5.39-3.49,1.14-.99.75-1.68,1.95-1.62,3.2.07,1.42,1.08,2.67,2.32,3.37,1.24.7,2.68.95,4.09,1.14,3.87.51,7.79.64,11.69.39" style="fill: #22b573;"/>
    <path d="M150.7,65.13c-2.95-5.24-7.71-11.33-14.51-10.47-2.66.34-5.43,2.3-5.13,5.28.33,3.16,3.62,4.47,6.34,4.89,4.13.63,8.33.76,12.49.5.96-.06.97-1.56,0-1.5-3.01.19-6.03.16-9.04-.1-2.49-.22-6.04-.26-7.7-2.48-.76-1.01-.81-2.27-.1-3.33.76-1.13,2.1-1.67,3.41-1.8,2.67-.28,5.34.86,7.38,2.52,2.39,1.95,4.05,4.58,5.55,7.24.47.84,1.77.09,1.3-.76h0Z" style="fill: #22b573;"/>
  </g>
  <g>
    <path d="M150.61,59.3c1.11-3.44,2.95-6.64,5.37-9.34,1.3-1.45,3.25-2.86,5.05-2.1,1.53.64,2.1,2.66,1.6,4.24-.5,1.58-1.79,2.78-3.14,3.76-2.72,1.98-5.86,3.38-9.15,4.07" style="fill: #22b573;"/>
    <path d="M151.34,59.5c.72-2.19,1.72-4.27,3-6.19.66-.99,1.38-1.93,2.18-2.82.7-.78,1.54-1.55,2.54-1.91.92-.33,1.93-.19,2.51.65.49.69.61,1.63.41,2.44-.51,2.09-2.66,3.5-4.37,4.56-2.3,1.42-4.82,2.41-7.46,2.98-.94.2-.54,1.65.4,1.45,2.76-.59,5.42-1.65,7.81-3.13,2.07-1.28,4.51-3.01,5.08-5.53.48-2.13-.59-4.69-2.93-5.04-2.7-.4-4.85,2.11-6.32,4.01-1.89,2.45-3.34,5.21-4.3,8.15-.3.92,1.15,1.31,1.45.4h0Z" style="fill: #22b573;"/>
  </g>
  <g>
    <path d="M148.96,82.64c-.55-2.07-1.12-4.2-2.37-5.94-1.26-1.74-3.37-3.03-5.49-2.69-2.12.34-3.83,2.76-2.95,4.72.51,1.13,1.68,1.81,2.79,2.36,2.63,1.3,5.41,2.33,8.26,3.05" style="fill: #22b573;"/>
    <path d="M149.68,82.44c-.62-2.35-1.29-4.77-2.88-6.67-1.38-1.65-3.54-2.81-5.73-2.51-1.96.28-3.65,1.97-3.88,3.95-.26,2.23,1.59,3.64,3.38,4.53,2.69,1.34,5.53,2.38,8.44,3.12.94.24,1.33-1.21.4-1.45-2.15-.55-4.27-1.26-6.31-2.15-.92-.4-1.85-.81-2.71-1.33-.7-.42-1.44-.99-1.65-1.82-.37-1.41.83-2.9,2.14-3.29,1.75-.52,3.57.54,4.7,1.81,1.52,1.7,2.09,4.06,2.66,6.21.25.93,1.69.54,1.45-.4h0Z" style="fill: #22b573;"/>
  </g>
  <g>
    <path d="M152.28,90.81c-.83-4.95.58-10.24,3.77-14.12.62-.75,1.32-1.47,2.22-1.86s2.01-.37,2.76.25c.91.75,1.02,2.09.87,3.26-.34,2.74-1.67,5.3-3.42,7.43-1.76,2.14-3.93,3.89-6.16,5.52" style="fill: #22b573;"/>
    <path d="M153,90.61c-.76-4.72.57-9.81,3.66-13.49.73-.87,1.69-1.84,2.92-1.79,1.38.06,1.68,1.39,1.62,2.54-.13,2.45-1.33,4.83-2.77,6.76-1.77,2.38-4.11,4.27-6.48,6.02-.77.57-.02,1.87.76,1.3,2.52-1.85,4.95-3.83,6.85-6.34,1.74-2.29,3.22-5.28,3.15-8.22-.03-1.23-.47-2.52-1.6-3.15s-2.59-.46-3.69.2c-1.2.71-2.11,1.91-2.89,3.04s-1.46,2.46-1.98,3.79c-1.2,3.1-1.51,6.47-.99,9.74.15.95,1.6.55,1.45-.4h0Z" style="fill: #22b573;"/>
  </g>
  <g>
    <path d="M155.63,103.69c-1.36-3.11-3.54-5.87-6.25-7.91-1-.75-2.12-1.43-3.36-1.52-1.24-.09-2.62.55-3,1.74-.39,1.19.3,2.46,1.09,3.44,2.78,3.42,7.2,5.45,11.6,5.31" style="fill: #22b573;"/>
    <path d="M156.28,103.31c-1.04-2.34-2.51-4.49-4.33-6.29-1.64-1.63-3.96-3.69-6.45-3.51-1.1.08-2.2.59-2.83,1.52-.69,1.01-.6,2.27-.12,3.35.99,2.18,3.19,3.96,5.23,5.12,2.41,1.37,5.16,2.07,7.93,2.01.96-.02.97-1.52,0-1.5-4.07.09-8.07-1.64-10.75-4.72-.65-.75-1.49-1.82-1.27-2.89.18-.87,1.09-1.33,1.9-1.39,2.02-.15,3.98,1.76,5.3,3.07,1.73,1.72,3.1,3.76,4.09,5.99.39.88,1.68.12,1.3-.76h0Z" style="fill: #22b573;"/>
  </g>
  <g>
    <path d="M158.25,115.81c1.07-3.72,3.63-6.99,6.98-8.93.87-.51,1.82-.93,2.83-.98,1.01-.05,2.08.33,2.65,1.16.62.91.52,2.14.15,3.17-.88,2.49-3.12,4.34-5.62,5.19-2.5.85-5.23.79-7.82.34" style="fill: #22b573;"/>
    <path d="M158.97,116.01c.59-2,1.6-3.87,2.97-5.44s3.24-3.19,5.29-3.78c.92-.26,2.11-.23,2.77.57s.4,2.05.03,2.94c-.78,1.87-2.42,3.28-4.25,4.1-2.54,1.14-5.48,1.08-8.17.63-.94-.16-1.35,1.28-.4,1.45,2.94.5,6.06.57,8.87-.58,2.24-.92,4.25-2.58,5.24-4.83.5-1.13.8-2.46.38-3.67s-1.48-1.97-2.69-2.19c-2.58-.46-5.19,1.45-6.98,3.11-2.13,1.97-3.69,4.52-4.51,7.3-.27.93,1.17,1.32,1.45.4h0Z" style="fill: #22b573;"/>
  </g>
  <g>
    <path d="M155.77,130.07c-.18-3.62-1.02-7.21-2.47-10.54-.61-1.4-1.52-2.91-3.02-3.22-1.26-.25-2.57.5-3.25,1.59-.68,1.09-.8,2.45-.65,3.73.5,4.33,4.28,8.06,8.61,8.51" style="fill: #322e2b;"/>
    <path d="M156.52,130.07c-.17-3.1-.77-6.18-1.84-9.09-.78-2.13-1.88-5.11-4.5-5.43-2.83-.35-4.54,2.47-4.61,4.95s.93,4.82,2.48,6.66c1.75,2.09,4.23,3.43,6.93,3.74.96.11.95-1.39,0-1.5-3.83-.44-7.11-3.62-7.8-7.39-.34-1.84.15-5.14,2.69-4.99,2.05.12,2.94,3.16,3.48,4.71.95,2.69,1.5,5.49,1.66,8.34.05.96,1.55.97,1.5,0h0Z" style="fill: #322e2b;"/>
  </g>
  <g>
    <path d="M168.94,137.03c-2.8,3.89-8.67,5.95-13.22,6.75,1.32-4.75,3-8.75,7.35-11.59,1.03-.67,2.16-1.24,3.38-1.33s2.54.38,3.2,1.42c.91,1.44.28,3.37-.71,4.75Z" style="fill: #22b573;"/>
    <path d="M168.3,136.65c-2.86,3.89-8.22,5.59-12.77,6.4l.92.92c1.03-3.69,2.43-7.31,5.37-9.9,1.48-1.31,3.7-2.93,5.79-2.36,2.47.68,1.79,3.35.68,4.94-.55.79.75,1.54,1.3.76,1.07-1.53,1.78-3.68.77-5.42s-3.06-2.14-4.82-1.75c-1.97.44-3.79,1.8-5.23,3.18-1.29,1.24-2.34,2.72-3.16,4.31-.95,1.85-1.6,3.84-2.15,5.84-.16.59.38,1.02.92.92,5-.9,10.54-2.85,13.67-7.09.57-.78-.73-1.53-1.3-.76Z" style="fill: #22b573;"/>
  </g>
  <g>
    <path d="M207.64,72.67c-2.36-3.85-7.71.64-9.03,3.03-1.65,2.98-2.18,6.68-2.35,10.04-.28,5.49.01,11.43-3.1,15.96-3.64,5.32-11.37,7.71-12.93,13.97-1.16,4.62,1.69,9.32,1.61,14.09-.13,8.13-8.44,14.03-9.7,22.06-.32,2.04-.14,4.23.92,6,1.06,1.77,3.1,3.03,5.15,2.78,2.27-.28,3.99-2.24,4.97-4.31.98-2.07,1.44-4.36,2.51-6.39,2.4-4.59,7.37-7.1,11.67-9.98,4.31-2.88,8.57-7.2,8.11-12.36-.41-4.7-4.71-8.7-4.08-13.38.71-5.23,7.11-7.98,8.53-13.06,1.87-6.69-5.74-13.31-3.93-20.01.39-1.44,1.19-2.72,1.7-4.12.52-1.39.72-3.04-.06-4.31Z" style="fill: #22b573;"/>
    <path d="M208.29,72.3c-1.74-2.67-4.79-2.01-7.06-.39-2.72,1.94-4.17,4.63-4.93,7.86-1.79,7.54.77,16.8-4.95,23.02-4.24,4.61-11.57,7.35-12.11,14.44-.32,4.18,1.82,8.08,1.86,12.23.04,3.58-1.69,6.81-3.54,9.76s-3.85,5.72-5.14,8.92-1.91,7.64.43,10.69,6.39,3.34,9.07.63c2.89-2.92,3-7.33,5.3-10.61s5.6-5.11,8.74-7.11,6.3-4.26,8.39-7.46,2.37-6.84.93-10.39c-1.29-3.18-3.88-6.58-3.02-10.19.75-3.14,3.55-5.29,5.57-7.62s3.46-5.12,3.07-8.37c-.4-3.45-2.21-6.5-3.4-9.7-.59-1.58-1.07-3.23-1.03-4.93.05-1.99,1.04-3.64,1.78-5.44s.98-3.64.04-5.33c-.47-.85-1.76-.09-1.3.76,1.07,1.95-.17,4.09-.97,5.89-.68,1.52-1.11,3.06-1.04,4.74.14,3.23,1.69,6.18,2.91,9.1s2.28,6.05.99,9.06c-1.17,2.75-3.67,4.68-5.55,6.92s-3.14,4.96-2.58,8.04c.64,3.47,3.04,6.31,3.8,9.73.84,3.76-1.21,7.19-3.82,9.74s-5.82,4.25-8.8,6.28c-2.81,1.91-5.52,4.16-7.05,7.27s-1.97,8.13-5.67,9.74c-1.77.77-3.72.05-4.96-1.35-1.37-1.55-1.67-3.77-1.45-5.76.36-3.32,2.12-6.32,3.87-9.09s3.61-5.39,4.82-8.41c1.33-3.35,1.23-6.65.43-10.12-.85-3.65-2.11-7.52-.13-11.05,1.48-2.64,4.08-4.46,6.43-6.28s4.9-3.91,6.37-6.71c1.73-3.29,2.09-7.07,2.25-10.72.18-3.95.13-7.95,1.42-11.74.92-2.68,2.86-5.23,5.64-6.18,1.23-.42,2.35-.24,3.09.9.53.81,1.82.05,1.3-.76Z" style="fill: #22b573;"/>
  </g>
  <path d="M199.93,80.74c1.86,5.16,2.16,10.79.93,16.14-.61,2.67-1.58,5.25-2.91,7.64s-3.04,4.46-4.9,6.46c-1.73,1.88-3.55,3.81-4.62,6.16-1.19,2.62-.99,5.22-.3,7.96.39,1.54.84,3.08.84,4.68,0,1.38-.33,2.74-.88,3.99-1.12,2.55-2.98,4.71-4.84,6.75-3.96,4.36-9.19,10.03-6.97,16.45.31.91,1.76.52,1.45-.4-2.07-5.96,3.16-11.19,6.79-15.21,1.81-2,3.6-4.12,4.75-6.58s1.44-5.1.87-7.81c-.63-2.96-1.73-5.79-.54-8.77.99-2.48,2.94-4.45,4.72-6.38,3.66-3.97,6.43-8.44,7.79-13.71,1.51-5.84,1.32-12.1-.73-17.78-.32-.9-1.77-.51-1.45.4h0Z" style="fill: #322e2b;"/>
  <g>
    <path d="M109.92,160.23c3.54.23,5.65-2.71,8.61-4.02.87-.38,9.04-2.78,9.38-1.38-.72-3.01-.34-5.08-2.63-7.65-2.11-2.37-5.07-4.01-8.26-4.26-5.12-.4-10.02,2.36-15.15,2.38-3.39.01-6.78-1.18-10.13-.64-4.58.73-7.99,4.45-11.21,7.79s-7.18,6.73-11.81,6.48c1.41,3.76,5.5,6.08,9.52,6.18s7.88-1.7,11.05-4.17c3.18-2.48,6.46-5.88,10.46-5.35,3.73.5,6.42,4.38,10.18,4.62Z" style="fill: #322e2b;"/>
    <path d="M109.92,160.98c2.24.09,4.09-.95,5.87-2.19,1.42-.99,2.55-1.77,4.04-2.22s2.89-.81,4.36-1.1c.7-.14,1.41-.26,2.13-.3.25-.01.54.04.79,0,.29-.04.21.24.08-.13.3.91,1.66.55,1.45-.4-.46-1.98-.5-4.06-1.4-5.92s-2.71-3.55-4.52-4.67c-1.91-1.18-4.1-1.85-6.34-1.91-2.47-.07-4.9.53-7.28,1.14s-4.99,1.32-7.57,1.28-5.34-.8-8.04-.78c-4.76.04-8.45,3.03-11.64,6.26-3.58,3.62-7.52,8.37-13.12,8.16-.45-.02-.9.5-.72.95,2.45,6.22,9.87,7.9,15.69,5.81,3.3-1.19,5.91-3.3,8.6-5.47,2.52-2.03,5.52-4.04,8.85-2.73,3.09,1.21,5.33,3.93,8.79,4.23.96.08.96-1.42,0-1.5-2.83-.25-4.95-2.53-7.39-3.74-2.67-1.32-5.4-1.11-7.98.33-2.76,1.54-4.93,3.93-7.6,5.61-2.85,1.79-6.25,3.02-9.65,2.63s-6.61-2.38-7.86-5.57l-.72.95c4.58.17,8.4-2.76,11.49-5.83s5.9-6.68,10.08-8.06c2.47-.82,5.01-.47,7.54-.11s4.86.48,7.34.05c4.69-.82,9.5-3.12,14.29-1.56,2.39.78,4.76,2.45,6.1,4.6,1.17,1.88,1.15,4.17,1.64,6.26l1.45-.4c-.41-1.23-2.1-1.02-3.11-.9-1.71.21-3.39.62-5.04,1.08-1.41.39-2.68.84-3.93,1.64-2.09,1.34-3.98,3.14-6.63,3.03-.97-.04-.96,1.46,0,1.5Z" style="fill: #322e2b;"/>
  </g>
  <g>
    <path d="M131.51,148.98c1.33.31,17.14,1.23,17.14,1.65,0-.21,0-.43,0-.64-2.93-1.31-4.68-4.15-7.62-5.6-2.67-1.33-5.62-2.04-8.58-2.44-1.11-.15-2.26-.25-3.35.04-1.09.29-2.11,1.05-2.43,2.13-.36,1.23.3,2.59,1.3,3.4,1,.81,2.28,1.18,3.53,1.47Z" style="fill: #22b573;"/>
    <path d="M131.31,149.7c1.03.22,2.12.25,3.17.33,1.87.16,3.74.29,5.61.44s3.73.29,5.59.47c.64.06,1.28.12,1.91.21.15.02.35.06.52.08.5.07-.03.11-.19-.4.24.8,1.48.67,1.47-.2,0-.21,0-.43,0-.64,0-.25-.14-.54-.37-.65-2.73-1.28-4.51-3.84-7.09-5.32-2.86-1.64-6.24-2.4-9.48-2.82-2.49-.32-6.17.02-6.59,3.18s2.9,4.72,5.45,5.32c.94.22,1.34-1.22.4-1.45-1.19-.28-2.49-.6-3.41-1.46s-1.38-2.24-.45-3.25,2.35-1.06,3.6-.96c1.41.11,2.83.38,4.2.7,2.6.61,5.18,1.53,7.26,3.25,1.74,1.44,3.28,3.12,5.36,4.1l-.37-.65c0,.21,0,.43,0,.64l1.47-.2c-.22-.72-1.23-.71-1.83-.79-1.22-.16-2.45-.26-3.67-.36-3.13-.27-6.26-.48-9.39-.74-.61-.05-1.22-.1-1.84-.16-.45-.04-.62-.05-.93-.12-.94-.21-1.34,1.24-.4,1.45Z" style="fill: #22b573;"/>
  </g>
  <g>
    <path d="M147.53,117.77c2.63,3.51,2.04,8.16.9,12.11-1.11,3.83-1.42,7.77-2.37,11.69-.06.24-.15.52-.39.59-.3.09-.56-.22-.71-.49-3.21-5.74-3.73-14.89-3.28-21.3.12-1.73.64-3.83,2.31-4.29,1.34-.37,2.71.59,3.55,1.7Z" style="fill: #22b573;"/>
    <path d="M146.88,118.15c2.16,2.98,2.01,6.7,1.19,10.13-.45,1.88-.98,3.71-1.33,5.62-.38,2.07-.69,4.16-1.13,6.23-.05.24-.1.48-.16.71-.02.09-.17.81,0,.49l.13-.04c-.08-.15-.16-.3-.24-.45-.08-.15-.16-.31-.23-.46-.36-.74-.66-1.51-.93-2.3-.52-1.53-.9-3.1-1.18-4.69-.6-3.35-.79-6.77-.72-10.17.03-1.58-.03-3.32.5-4.83.28-.8.8-1.6,1.73-1.65,1.03-.06,1.89.82,2.48,1.56s1.65-.31,1.06-1.06c-1.13-1.43-3.07-2.6-4.89-1.65-1.47.77-1.99,2.52-2.18,4.05-.5,3.9-.27,8.03.23,11.92.27,2.07.66,4.13,1.27,6.13.26.84.56,1.68.9,2.49.33.77.68,1.84,1.32,2.4,2.08,1.8,2.54-3.01,2.72-4.02.45-2.48.8-4.99,1.42-7.43,1.16-4.59,2.33-9.56-.69-13.73-.56-.77-1.86-.03-1.3.76Z" style="fill: #22b573;"/>
  </g>
  <g>
    <path d="M131.08,131.65c-3.95-2.71-9.03-2.94-13.82-3.07-1.3-.04-2.64-.07-3.84.44-1.2.5-2.2,1.7-2.06,2.99.11.98.86,1.81,1.75,2.25.89.44,1.9.56,2.89.63,5.2.36,10.47-.52,15.28-2.53" style="fill: #22b573;"/>
    <path d="M131.46,131c-2.5-1.67-5.39-2.44-8.34-2.81-1.59-.2-3.18-.28-4.78-.34s-3.16-.19-4.65.27c-2.43.75-4.12,3.52-2.27,5.73.94,1.12,2.35,1.53,3.75,1.69,1.73.2,3.5.2,5.24.08,3.8-.24,7.54-1.11,11.06-2.57.88-.36.49-1.81-.4-1.45-3.29,1.36-6.77,2.23-10.33,2.49-1.79.13-3.63.16-5.41-.04-1.44-.16-3.93-1.09-3.07-3.01.74-1.64,2.79-1.76,4.35-1.75s3.22.09,4.81.21c3.26.26,6.51.93,9.28,2.77.8.54,1.56-.76.76-1.3h0Z" style="fill: #22b573;"/>
  </g>
  <g>
    <path d="M128.9,110.65c-.79,5.82-3.82,11.01-3.68,16.98-2.36-2.54-3.07-7.56-3.62-10.9-.53-3.24-.39-6.67.98-9.65.59-1.28,1.58-2.58,2.99-2.72,1.36-.14,2.62.94,3.12,2.22.5,1.28.4,2.7.21,4.06Z" style="fill: #22b573;"/>
    <path d="M128.17,110.45c-.83,5.83-3.79,11.2-3.71,17.18l1.28-.53c-1.54-1.71-2.17-4.09-2.66-6.29-.53-2.39-1.02-4.9-1.03-7.36,0-1.46.15-2.92.56-4.33.35-1.22.86-2.63,1.87-3.47,1.17-.98,2.61-.42,3.31.82s.52,2.82.35,4.18c-.12.95,1.38.95,1.5,0,.31-2.38.19-5.23-2.16-6.58-2.15-1.24-4.27.23-5.32,2.15-2.52,4.61-1.59,10.23-.5,15.12.54,2.42,1.32,4.93,3.01,6.82.44.49,1.29.1,1.28-.53-.08-5.83,2.84-11.09,3.66-16.78.13-.94-1.31-1.35-1.45-.4Z" style="fill: #22b573;"/>
  </g>
  <g>
    <g>
      <path d="M403.22,319.17s.01-.1.02-.15c.22-1.53.35-3.22-.52-4.5-.69-1.03-1.88-1.58-3.02-2.07-2.75-1.2-5.53-2.33-8.34-3.4-.42,1.19-5.28,11.77-5.46,11.74,2.61.5,5.23,1.01,7.84,1.51.74.14,1.53.31,2.04.86.68.73.65,1.84.62,2.84-.05,2.05.11,4.1.49,6.12.17.92.6,2.03,1.53,2.11,2.47.23,2.53-4.25,2.75-5.75.48-3.13,1.55-6.15,2.02-9.31Z" style="fill: #fff;"/>
      <path d="M403.94,319.37c.19-1.32.37-2.71-.02-4.02-.41-1.38-1.42-2.34-2.66-3-3.06-1.62-6.46-2.8-9.69-4.03-.4-.15-.8.17-.92.52-.74,2.07-1.78,4.07-2.7,6.06-.56,1.22-1.13,2.44-1.72,3.65-.2.41-.4.82-.6,1.22-.07.13-.17.27-.22.42-.11.31-.07,0,.31-.14-.64.22-.78,1.3,0,1.45,1.66.32,3.33.64,4.99.96.83.16,1.66.32,2.5.48.67.13,1.58.2,2.07.74s.42,1.38.41,2.03c-.01.82-.02,1.63.02,2.44.07,1.52.19,3.15.6,4.62.28.99.86,1.97,1.95,2.17.8.14,1.6-.17,2.14-.76,1.17-1.25,1.29-3.28,1.46-4.89.36-3.37,1.57-6.59,2.1-9.93.15-.94-1.3-1.35-1.45-.4-.47,2.97-1.43,5.83-1.94,8.79-.27,1.56-.21,3.28-.86,4.75-.25.55-.83,1.34-1.5.81-.41-.33-.51-1.09-.6-1.58-.15-.82-.26-1.65-.34-2.49-.13-1.46,0-2.91-.1-4.36-.07-1.05-.4-2.04-1.31-2.64-1.21-.82-3-.88-4.4-1.15-1.78-.34-3.57-.69-5.35-1.03v1.45c.64-.22.93-1.21,1.2-1.75.62-1.27,1.22-2.55,1.81-3.83,1.02-2.2,2.16-4.4,2.98-6.69l-.92.52c2.79,1.06,5.56,2.18,8.29,3.38,1.09.48,2.31,1.02,2.85,2.16s.36,2.47.19,3.66c-.14.94,1.31,1.35,1.45.4Z" style="fill: #322e2b;"/>
    </g>
    <g>
      <path d="M378.33,293.33c-.3-1.54-4.02-20.08-3.31-20.15-14.05.7-28.1,1.4-42.15,2.09.68,4.45.9,9.12,1.07,13.65.6,15.77,3.43,31.65,8.81,46.56.26.72,12.06-.75,13.17-.83-.65.05.03-43.21.44-47.65,2.54,6.2,5.08,12.41,7.62,18.61,1.07,2.62,2.16,5.27,3.88,7.51,4.85,6.33,13.75,5.41,20.61,7.8,2.31-3.37,4.12-7.08,5.35-10.98-5.46-2.47-11.36-5.35-13.87-10.79-.85-1.84-1.24-3.84-1.63-5.83Z" style="fill: #322e2b;"/>
      <path d="M379.05,293.14c-1.11-5.69-2.3-11.38-3.12-17.12-.09-.6-.17-1.19-.22-1.8-.02-.2-.03-.4-.03-.61,0-.06.03-.16,0-.21-.03-.08.02.12-.01.1,0-.02,0-.03.01-.04.07-.22-.09-.07-.46.44.79-.22.67-1.52-.2-1.47-14.05.7-28.1,1.4-42.15,2.09-.53.03-.8.46-.72.95.96,6.37.9,12.82,1.36,19.23s1.25,12.41,2.42,18.54c1.17,6.18,2.72,12.29,4.67,18.27.22.67.44,1.34.67,2.01.25.72.43,1.59.8,2.25.21.39.5.51.92.59,1.18.22,2.49.04,3.67-.05,3.1-.22,6.18-.66,9.27-.92.97-.08.95-1.39,0-1.5-.24-.03.77.5.68.49,0,0-.02-.08-.02-.08.01-.01-.02-.1-.02-.11-.02.25,0,.06,0-.03-.03-.33-.05-.65-.06-.98-.05-1.12-.06-2.24-.08-3.36-.04-3.53-.02-7.06,0-10.59.06-8.25.18-16.5.4-24.74.06-2.49.06-5.01.29-7.49l-1.47.2c1.57,3.85,3.15,7.7,4.72,11.55,1.48,3.62,2.84,7.32,4.52,10.85,1.37,2.87,3.18,5.47,5.92,7.18,2.4,1.49,5.18,2.23,7.93,2.78,3.19.64,6.45,1.04,9.54,2.1.33.11.67-.08.85-.34,2.34-3.44,4.16-7.19,5.42-11.15.09-.29-.06-.72-.34-.85-3.4-1.54-6.89-3.14-9.74-5.58-1.36-1.16-2.55-2.51-3.42-4.08-1.11-2.01-1.55-4.28-1.99-6.5-.18-.95-1.63-.55-1.45.4.44,2.27.92,4.56,2.01,6.62.89,1.69,2.15,3.18,3.58,4.44,2.99,2.64,6.65,4.37,10.25,6l-.34-.85c-1.23,3.84-3,7.46-5.27,10.8l.85-.34c-5.17-1.77-10.96-1.6-15.91-4.06-2.82-1.41-4.71-3.66-6.15-6.43-1.74-3.37-3.02-7-4.45-10.51-1.69-4.14-3.38-8.27-5.08-12.41-.32-.78-1.39-.68-1.47.2-.2,2.19-.2,4.41-.26,6.61-.11,3.98-.19,7.96-.25,11.94-.14,8.11-.27,16.22-.17,24.33.01,1.23.03,2.45.1,3.68.04.71-.02,1.74.9,1.84v-1.5c-2.53.21-5.05.56-7.58.78-1.41.12-2.83.25-4.25.25-.31,0-.84.07-1.01-.08.3.25.2-.02.15-.24-.08-.34-.24-.67-.35-1-.27-.78-.53-1.56-.79-2.34-3.78-11.56-6.08-23.59-7.02-35.7-.53-6.84-.46-13.71-1.48-20.5l-.72.95c14.05-.7,28.1-1.4,42.15-2.09l-.2-1.47c-.89.25-.64,1.53-.57,2.2.16,1.49.41,2.98.65,4.46.62,3.7,1.32,7.39,2.04,11.08.22,1.11.44,2.22.65,3.33.18.95,1.63.55,1.45-.4Z" style="fill: #322e2b;"/>
    </g>
    <g>
      <path d="M355.17,347.52c2.56-3.13,1.4-10.1,1.23-13.86-4.24.78-8.54,1.2-12.84,1.26-.43,1.59.28,3.24.86,4.78.58,1.54,1,3.39.08,4.76-.36.54-.89.94-1.43,1.29-.41.27-11,6.32-6.92,7.21.46.1.95,0,1.41-.1,4.42-.99,8.95-1.45,13.27-2.85,1.61-.52,3.26-1.19,4.33-2.49Z" style="fill: #fff;"/>
      <path d="M355.7,348.05c1.51-1.93,1.81-4.45,1.86-6.83.04-2.53-.28-5.04-.4-7.56-.02-.52-.46-.81-.95-.72-4.18.76-8.4,1.17-12.65,1.23-.32,0-.65.23-.72.55-.49,2.17.55,4,1.15,6.02.29.97.52,2.15.02,3.09-.31.58-.86.99-1.41,1.33-1.49.94-3,1.83-4.43,2.86-1.23.89-3.5,2.27-3.68,3.97-.09.8.45,1.38,1.19,1.62.82.26,1.63.08,2.44-.1,1.28-.27,2.57-.51,3.86-.75,2.58-.46,5.17-.91,7.69-1.61,2.18-.61,4.5-1.34,6.03-3.1.63-.73-.43-1.79-1.06-1.06-1.29,1.48-3.19,2.08-5.02,2.61-2.12.61-4.29,1.03-6.45,1.43-1,.18-1.99.36-2.99.54-1.1.21-2.29.61-3.41.66-.24.01-.54-.12-.74-.09-.04,0-.16-.11-.07-.04.1.08-.02.16.02.07.06-.1.05-.16.14-.3.85-1.48,2.77-2.56,4.15-3.47,1.12-.75,2.33-1.39,3.43-2.16,1.58-1.1,2.29-2.61,2.04-4.54-.29-2.2-1.95-4.32-1.44-6.59l-.72.55c4.38-.07,8.74-.5,13.04-1.28l-.95-.72c.11,2.26.38,4.51.4,6.78.02,2.14-.03,4.78-1.42,6.55-.59.75.46,1.82,1.06,1.06Z" style="fill: #322e2b;"/>
    </g>
    <g>
      <path d="M370.95,240.23c-.18-6.1-2.03-12.35-4.68-17.75-2.77-5.66-6.34-10.66-9.11-16.36-.33-.69-.73-1.43-1.44-1.71-.76-.3-1.6.04-2.35.37-4.08,1.82-8.16,3.64-12.24,5.46-.65.29-1.34.62-1.68,1.24-.88,1.61,1.83,4.4,2.41,5.95.93,2.48,1.93,4.94,3.01,7.36,1.96,4.4,4.18,8.68,6.63,12.82,1.78,3.01,2.99,6.04,7.03,5.77,4.13-.28,8.27-.56,12.4-.84.03-.77.04-1.54.02-2.31Z" style="fill: #f7931e;"/>
      <path d="M371.7,240.23c-.27-7.89-3.05-15.31-6.9-22.12-1.98-3.51-4.16-6.92-6.04-10.49-.67-1.28-1.23-3.21-2.66-3.86-1.65-.75-3.69.63-5.15,1.28-1.93.86-3.85,1.72-5.78,2.58-.96.43-1.93.86-2.89,1.29-.9.4-1.91.74-2.7,1.33-2.39,1.81-.06,4.67,1.06,6.49.93,1.51,1.41,3.31,2.08,4.94.77,1.88,1.59,3.74,2.45,5.58,1.72,3.67,3.63,7.24,5.68,10.74,1.5,2.56,2.94,5.62,6.22,6.08.97.14,1.94.02,2.91-.04,1.22-.08,2.43-.16,3.65-.25,2.43-.16,4.86-.33,7.3-.49.42-.03.73-.32.75-.75.03-.77.03-1.54.02-2.31-.02-.96-1.52-.97-1.5,0,.02.77.01,1.54-.02,2.31l.75-.75c-3.83.26-7.66.52-11.49.78-1.42.1-2.78.17-3.99-.7-1.01-.72-1.68-1.84-2.3-2.89-3.63-6.2-6.94-12.53-9.59-19.21-.54-1.35-.97-2.74-1.74-3.97-.61-.97-1.45-1.98-1.73-3.12-.37-1.53,2.07-2.07,3.12-2.54,1.76-.78,3.51-1.57,5.27-2.35s3.5-1.59,5.27-2.35c.86-.37,1.72-.62,2.33.28.49.72.82,1.59,1.22,2.36,1.65,3.17,3.54,6.21,5.34,9.3,4.1,7.04,7.27,14.61,7.56,22.87.03.96,1.53.97,1.5,0Z" style="fill: #f7931e;"/>
    </g>
    <g>
      <path d="M325.17,179.49c1.28,3.39,2.52,6.79,3.83,10.18,3.29,8.47,7.49,16.58,12.52,24.15.56.87,13.67-5.23,14.98-5.78-4.61-11.41-9.23-22.81-13.84-34.22-3.63-8.97-6.6-19.67-14.22-26.2-2.05-1.75-2.22-.25-1.79,1.7.43,1.95,1.22,3.83,2.33,5.49-.74-1.04-1.48-2.07-2.22-3.11-.26-.37-.53-.74-.91-.98-1.77-1.15-1.97,1.19-1.8,2.27.3,1.93,1.46,3.1,2.04,4.81-.63-1.84-1.73-3.53-3.16-4.85-.27-.25-.62-.51-.99-.42-.53.12-.63.82-.6,1.36.13,2.44.75,4.86,1.8,7.06-.39-1.33-.78-2.67-1.51-3.85-.96-1.55-4.13-3.3-3.66.01.82,5.76,2.85,11.28,5,16.66.76,1.91,1.49,3.81,2.21,5.72Z" style="fill: #fff;"/>
      <path d="M324.45,179.69c1.89,5.01,3.68,10.07,5.81,14.99s4.47,9.47,7.13,13.97c.61,1.04,1.24,2.07,1.89,3.09.34.53.68,1.07,1.03,1.6.22.33.42.79.73,1.05.58.48,1.44.2,2.08.01,2.49-.71,4.89-1.81,7.26-2.84,2.18-.94,4.32-1.95,6.5-2.88.27-.12.46-.57.34-.85-4.68-11.58-9.42-23.13-14.05-34.73-3.47-8.7-6.21-18.38-13.16-25.07-.75-.72-1.72-1.81-2.82-1.93-.81-.08-1.32.5-1.45,1.25-.2,1.16.21,2.51.56,3.6.47,1.49,1.16,2.91,2.01,4.22l1.3-.76c-.81-1.13-4.09-7-5.95-3.99-1.54,2.5.86,5.31,1.68,7.55.33.9,1.77.52,1.45-.4-.53-1.49-1.28-2.85-2.29-4.06-.74-.89-2.17-2.53-3.38-1.38-1,.94-.48,2.92-.28,4.08.3,1.77.88,3.46,1.64,5.09.36.78,1.61.23,1.37-.58-.57-1.96-1.17-4.1-2.87-5.39-.94-.72-2.58-1.44-3.46-.22-.49.68-.38,1.58-.27,2.35.22,1.49.52,2.98.88,4.44.7,2.82,1.62,5.59,2.64,8.31,1.18,3.17,2.47,6.29,3.66,9.46.34.89,1.79.51,1.45-.4-2.17-5.77-4.7-11.44-6.22-17.43-.37-1.46-.69-2.94-.91-4.44-.09-.6-.41-1.64.43-1.39,2.07.61,2.7,3.34,3.21,5.1l1.37-.58c-.95-2.04-1.69-4.41-1.7-6.68,0-.08-.04-.48.03-.52.16-.1.65.48.72.55.35.36.68.74.97,1.14.66.9,1.18,1.89,1.55,2.95l1.45-.4c-.67-1.84-2.27-3.6-2.04-5.66.02-.18.05-.64.22-.75.27-.17.83.52.96.68.85,1.05,1.59,2.22,2.38,3.32.55.77,1.83.06,1.3-.76-.69-1.07-1.28-2.19-1.71-3.39-.39-1.11-.53-2.17-.71-3.3v-.14c.1-.2.04-.2-.16,0,.09.09.29.14.4.22.47.3.89.72,1.29,1.1.82.77,1.59,1.6,2.31,2.46,2.75,3.32,4.72,7.24,6.4,11.18s3.13,8.12,4.76,12.15c2.14,5.3,4.29,10.6,6.43,15.9,2.38,5.88,4.75,11.75,7.13,17.63l.34-.85c-4.09,1.74-8.07,3.73-12.27,5.2-.41.14-.83.28-1.25.4-.2.05-.79.15-.8.17-.05.06.08.02.01,0,.39.05.23.21.06-.15-.24-.5-.64-.98-.94-1.45-.71-1.11-1.41-2.24-2.08-3.38-2.47-4.15-4.7-8.44-6.68-12.85-2.35-5.24-4.27-10.67-6.29-16.05-.34-.9-1.79-.51-1.45.4Z" style="fill: #322e2b;"/>
    </g>
    <g>
      <path d="M366.42,200.03c-2.16-2.16-5.13-3.7-8.17-3.44-3.71.32-6.66,3.17-9.15,5.94-2.73,3.04-5.33,6.2-7.79,9.47-1.44,1.91-2.89,4.03-2.9,6.43-.03,4.17,4.04,8.41,7.98,9.16-.79,4.11-1.11,8.31-.93,12.49,1.49.25,18.77,1.38,18.77.54-.24-2.13-.47-4.29-.11-6.4.36-2.11,1.4-4.2,3.2-5.35,2.05,1.02,4.64.85,6.53-.44.95-.64,1.78-1.83,1.31-2.88-.39-.9-1.52-1.2-2.5-1.21-.98,0-2,.16-2.9-.22,1.9-2.86,4.62-6.41,4.68-10.02.08-4.87-4.77-10.83-8.02-14.09Z" style="fill: #fff;"/>
      <path d="M366.96,199.5c-2.58-2.52-6.1-4.23-9.76-3.51s-6.22,3.36-8.52,5.91c-2.82,3.12-5.49,6.37-8.01,9.73-2.16,2.88-3.84,6.1-2.45,9.71,1.29,3.36,4.42,6.23,7.98,6.97l-.52-.92c-.79,4.19-1.12,8.43-.96,12.69.01.3.22.67.55.72,3.38.54,6.92.56,10.34.71,2.05.09,4.1.18,6.15.15.79,0,2.64.21,3.12-.65.17-.3.09-.61.05-.94-.06-.59-.12-1.19-.17-1.78-.09-1.21-.12-2.43.05-3.63.28-2.01,1.17-3.99,2.89-5.15h-.76c2.73,1.28,6.83,1.01,8.6-1.76.76-1.19.63-2.75-.61-3.56-1.54-1-3.35-.22-4.97-.8l.45,1.1c2.73-4.08,5.88-8.37,4.3-13.52-1.36-4.41-4.55-8.27-7.75-11.5-.68-.69-1.74.37-1.06,1.06,2.97,2.99,5.95,6.53,7.29,10.59.7,2.13.61,4.17-.24,6.24-.94,2.3-2.46,4.32-3.83,6.37-.29.43.02.95.45,1.1,1.12.4,2.2.17,3.35.26,1.21.1,2.12.89,1.21,2.07-1.33,1.71-4.2,1.96-6.08,1.2-.56-.23-.79-.35-1.33,0-.36.23-.69.53-.99.83-.69.71-1.23,1.56-1.63,2.47-.93,2.14-1.01,4.5-.83,6.79.03.36.06.71.1,1.07l.04.36c-.07.38.02.46.27.23.11,0,.18-.06.1-.09-.17-.06-.44.07-.71.08-.99.06-1.99.05-2.98.03-2.75-.04-5.5-.18-8.24-.35-1.37-.08-2.74-.17-4.11-.28-.46-.04-.92-.07-1.38-.11-.16-.02-.33-.03-.49-.05-.05,0-.13-.03-.19-.02-.15.02.16.03-.02,0l.55.72c-.16-4.12.13-8.24.9-12.29.07-.38-.1-.83-.52-.92-2.84-.59-5.31-2.68-6.61-5.23-.71-1.39-1.02-2.98-.64-4.52.4-1.61,1.37-3.03,2.35-4.35,2.17-2.94,4.5-5.77,6.91-8.52,2.06-2.34,4.23-4.9,7.14-6.21,3.65-1.65,7.46-.13,10.17,2.53.69.68,1.75-.38,1.06-1.06Z" style="fill: #322e2b;"/>
    </g>
    <path d="M351.14,207.51c-1.01.49-2.03.98-3.04,1.47-.93.45-1.96.84-2.81,1.44s-1.47,1.47-1.36,2.51.98,1.76,1.99,1.9c1.22.17,2.48-.4,3.62-.74.92-.28.53-1.73-.4-1.45-.57.17-1.14.35-1.71.52-.45.13-.97.28-1.4.18-.28-.07-.55-.21-.61-.5-.07-.34.17-.7.41-.93.33-.32.75-.52,1.16-.72.52-.26,1.05-.51,1.58-.76,1.11-.54,2.23-1.08,3.34-1.62.36-.18.46-.7.27-1.03-.22-.37-.66-.45-1.03-.27h0Z" style="fill: #322e2b;"/>
    <path d="M357.69,212.92c1.29,0,1.29-2,0-2s-1.29,2,0,2h0Z" style="fill: #322e2b;"/>
    <path d="M349.7,206.32c1.29,0,1.29-2,0-2s-1.29,2,0,2h0Z" style="fill: #322e2b;"/>
    <path d="M343.54,217.58c1.21,1.82,3.22,2.96,5.4,3.08.39.02.77-.36.75-.75-.02-.42-.33-.73-.75-.75-.11,0-.22-.01-.33-.02-.05,0-.16-.02-.05,0-.05,0-.1-.01-.14-.02-.23-.04-.45-.09-.67-.16-.1-.03-.21-.06-.31-.1-.06-.02-.11-.04-.17-.06-.01,0-.14-.06-.08-.03.07.03-.1-.04-.11-.05-.04-.02-.09-.04-.13-.06-.11-.05-.22-.11-.32-.17-.19-.11-.37-.23-.55-.35-.04-.03-.08-.06-.12-.09.09.07-.03-.03-.05-.04-.08-.07-.17-.14-.25-.21-.17-.16-.33-.32-.48-.49-.03-.04-.06-.07-.09-.11-.03-.03-.1-.13-.04-.05-.07-.1-.14-.2-.21-.3-.22-.33-.67-.5-1.03-.27-.33.21-.5.68-.27,1.03h0Z" style="fill: #322e2b;"/>
    <g>
      <path d="M353.55,194.66c.48,1.54,2.31,2.59,3.83,2.04-1.03,1.74-.93,4.08.23,5.73,1.16,1.65,3.33,2.53,5.32,2.14-.65,2.03-.17,4.38,1.21,6.01,1.38,1.62,3.63,2.47,5.74,2.15-1.47,3.49-2.06,7.35-1.72,11.12,2.53.82,5.44-.41,7.02-2.54,1.58-2.14,1.96-4.99,1.5-7.61-.45-2.62-1.66-5.05-3.01-7.34-2.3-3.89-5.06-7.48-7.93-10.95-1.96-2.37-3.41-4.92-6.7-5.31-2.75-.33-6.67.78-5.5,4.56Z" style="fill: #322e2b;"/>
      <path d="M352.83,194.86c.69,1.93,2.73,3.18,4.75,2.56l-.85-1.1c-1.16,2.1-1.08,4.77.4,6.71s3.74,2.64,6,2.27l-.92-.92c-1.42,4.87,2.59,9.75,7.68,9.11l-.72-.95c-1.47,3.58-2.07,7.46-1.74,11.32.03.34.21.62.55.72,3.86,1.15,7.62-1.43,8.98-5,1.6-4.19.09-8.71-1.97-12.44-2.31-4.19-5.24-8.03-8.27-11.72-2.28-2.78-4.29-5.94-8.24-6.11-1.54-.07-3.25.24-4.48,1.21-1.37,1.08-1.62,2.73-1.16,4.34.26.93,1.71.53,1.45-.4-.35-1.24-.15-2.35,1.02-3.02.97-.56,2.17-.7,3.28-.63,3.27.19,4.99,3.12,6.87,5.4,2.57,3.12,5.03,6.34,7.14,9.79,1.96,3.2,3.82,6.79,3.5,10.66s-3.55,7.71-7.71,6.47l.55.72c-.31-3.75.26-7.44,1.69-10.92.17-.42-.27-1.01-.72-.95-4.1.52-7.4-3.18-6.23-7.21.17-.6-.38-1.01-.92-.92-3.8.62-6.53-3.46-4.7-6.77.31-.55-.2-1.3-.85-1.1-1.21.37-2.48-.33-2.91-1.52-.32-.9-1.77-.51-1.45.4Z" style="fill: #322e2b;"/>
    </g>
    <g>
      <path d="M289.79,187.58c-.81,7.78-.53,15.49-.13,23.28.18,3.56.73,7.03,1.32,10.54.57,3.41.69,6.87,1.62,10.23.87,3.12,2.33,6.14,4.65,8.39,2.78,2.7,7.28,4.57,11.02,5.39.6.13,7,1.79,7.06,1.63,1.76-5.15,3.35-10.35,4.75-15.61-3.7-1.82-7.09-3.22-9.5-6.72-2.01-2.91-3.14-6.35-3.9-9.77-2.32-10.39-.91-20.9-2.15-31.34-.08-.64-.29-1.43-.92-1.55-.68-.13-1.17.64-1.39,1.3-.63,1.87-.89,3.87-.74,5.85-.1-1.91-.21-3.81-.31-5.72-.04-.69-.1-1.44-.6-1.92-.67-.64-1.86-.41-2.48.28-.62.69-.79,1.68-.8,2.61,0,.93.12,1.87-.03,2.78-.46-1.36.34-3.12-.67-4.14-.94-.95-2.7-.22-3.24,1-.53,1.22-.22,2.63.09,3.92-.03-.69-.06-1.41-.36-2.04-.3-.63-.94-1.14-1.63-1.07-1.13.12-1.54,1.54-1.66,2.67Z" style="fill: #fff;"/>
      <path d="M289.04,187.58c-.75,7.31-.55,14.66-.2,21.98.17,3.56.6,7.07,1.17,10.59s.79,7.02,1.56,10.46c.65,2.93,1.81,5.81,3.63,8.21s4.19,4.01,6.82,5.25c3.65,1.71,7.73,2.55,11.65,3.44.52.12,1.31.43,1.84.27.61-.18.71-1.05.88-1.56.33-.97.65-1.95.97-2.93,1.25-3.85,2.39-7.74,3.44-11.65.08-.3-.05-.7-.34-.85-3.52-1.73-7.17-3.34-9.42-6.72-2.46-3.7-3.57-8.2-4.25-12.55-.75-4.82-.82-9.71-.88-14.57-.03-2.35-.06-4.69-.16-7.04-.09-2.22-.14-4.53-.54-6.72-.3-1.65-2.03-2.65-3.21-1.06-.66.89-.89,2.16-1.08,3.23-.22,1.28-.29,2.56-.21,3.85.06.96,1.55.97,1.5,0-.11-1.95-.18-3.9-.32-5.85-.09-1.28-.51-2.62-1.95-2.88-1.26-.22-2.44.58-2.97,1.68-.77,1.59-.28,3.39-.48,5.08l1.47-.2c-.34-1.22.16-2.53-.36-3.72-.45-1.03-1.48-1.55-2.58-1.36-3.06.53-2.88,3.95-2.32,6.26.2.81,1.51.65,1.47-.2-.07-1.64-.62-3.97-2.74-3.85-1.72.1-2.24,2.02-2.41,3.42-.12.96,1.39.95,1.5,0,.06-.54.23-1.75.89-1.91,1.14-.27,1.23,1.68,1.26,2.34l1.47-.2c-.31-1.29-.91-4.37,1.28-4.41.88-.01.94.95.93,1.63-.01.81-.07,1.6.15,2.4.24.87,1.37.6,1.47-.2.15-1.17-.09-2.36.08-3.53.11-.75.92-2.43,1.95-1.62.66.52.44,2.45.48,3.17.07,1.31.14,2.62.21,3.93h1.5c-.07-1.09-.05-2.19.13-3.28.07-.46.17-.92.29-1.37.1-.39.25-1.33.62-1.59.6-.42.64,1.73.67,2.07.11,1.14.19,2.28.25,3.42.24,4.39.19,8.78.32,13.17s.44,8.71,1.34,12.97c.81,3.85,2.06,7.81,4.45,10.99s5.94,4.79,9.41,6.49l-.34-.85c-1.41,5.26-2.99,10.46-4.75,15.61l.34-.45c.26-.18.48-.05.06-.14-.26-.05-.52-.11-.78-.17-.71-.16-1.42-.33-2.12-.5-1.16-.28-2.32-.59-3.48-.86-4.26-1.01-8.73-2.72-11.68-6.12-3.52-4.06-4.21-9.43-4.85-14.55-.35-2.83-.9-5.62-1.26-8.45s-.49-5.62-.61-8.45c-.28-6.53-.36-13.07.31-19.58.1-.96-1.4-.95-1.5,0Z" style="fill: #322e2b;"/>
    </g>
    <g>
      <path d="M373.6,274.64c.56-.1,1.12-.22,1.67-.34-1.34-11.57-1.57-24.04-4.5-35.3-.95-3.64-5.4-4.46-8.67-4.91-10.8-1.49-21.65-1.06-32.47-2.47-4.99-.65-9.9-1.55-14.67-3.1-1.58-.51-5.01,16.12-5.3,17.77.1-.39,17.21,4.19,19.32,3.93.35,8.73,1.91,17.58,3.76,26.1,3.27.02,6.52-.26,9.78-.18,3.43.08,6.86.07,10.29-.03,6.83-.2,14.08-.21,20.8-1.46Z" style="fill: #f7931e;"/>
      <path d="M373.8,275.37c.56-.11,1.11-.22,1.67-.34.29-.06.59-.41.55-.72-1.09-9.54-1.44-19.17-3.07-28.65-.39-2.29-.82-4.62-1.46-6.85-.43-1.51-1.39-2.7-2.71-3.53-3.06-1.92-7.25-2.07-10.74-2.41-10.22-1.01-20.53-.79-30.71-2.32-2.47-.37-4.94-.82-7.37-1.4-1.16-.28-2.31-.58-3.45-.92-.59-.18-1.32-.61-1.95-.42-.59.18-.93.83-1.18,1.34-.41.85-.72,1.76-1.01,2.66-1.49,4.64-2.6,9.49-3.45,14.29-.14.81.9,1.34,1.37.58-.08.13-.53.38-.53.35,0,0,.11,0,.12,0,.09.07-.04,0,.06,0,.09.01.17.03.26.04.47.09.94.19,1.41.29,1.43.31,2.86.65,4.29.99,3.26.77,6.53,1.57,9.82,2.2,1.02.2,2.19.52,3.24.42l-.75-.75c.37,8.87,1.91,17.64,3.79,26.3.07.32.41.55.72.55,3.51,0,7.01-.24,10.52-.17s6.95.02,10.42-.08c6.73-.19,13.49-.25,20.13-1.46.95-.17.55-1.62-.4-1.45-6.62,1.21-13.37,1.23-20.08,1.42-3.42.1-6.84.13-10.26.06s-6.89.18-10.34.17l.72.55c-1.85-8.54-3.37-17.17-3.73-25.9-.02-.37-.33-.79-.75-.75-.9.09-1.89-.18-2.77-.35-1.65-.32-3.3-.68-4.94-1.06-3.22-.73-6.43-1.55-9.67-2.23-.68-.14-2.11-.69-2.59.08l1.37.58c.7-3.95,1.64-7.88,2.7-11.74.48-1.74.87-3.85,1.89-5.37.14-.21.2-.14.03-.14-.22,0-.31-.09-.08.06s.61.19.85.27c.63.19,1.26.37,1.89.54,2.24.61,4.51,1.09,6.8,1.49,9.53,1.66,19.16,1.74,28.78,2.38,2.46.16,4.92.38,7.37.68,1.7.21,3.42.43,5.07.92,1.36.4,2.79,1.03,3.67,2.19.54.72.73,1.57.94,2.43.27,1.1.52,2.22.74,3.33,2.04,10.14,2.31,20.53,3.49,30.79l.55-.72c-.55.12-1.11.23-1.67.34-.95.18-.55,1.63.4,1.45Z" style="fill: #f7931e;"/>
    </g>
    <path d="M364.67,285.78c-2.66,1.23-5.31,2.47-7.97,3.7-.37.17-.46.7-.27,1.03.22.38.66.44,1.03.27,2.66-1.23,5.31-2.47,7.97-3.7.37-.17.46-.7.27-1.03-.22-.38-.66-.44-1.03-.27h0Z" style="fill: #fff;"/>
    <path d="M361.55,292.82c.82.27,1.64.55,2.45.82.37.12.84-.14.92-.52.09-.41-.13-.79-.52-.92-.82-.27-1.64-.55-2.45-.82-.37-.12-.84.14-.92.52-.09.41.13.79.52.92h0Z" style="fill: #fff;"/>
    <path d="M357.05,195.29c1.09-.14,2.18-.27,3.27-.41.21-.03.38-.07.53-.22.13-.13.23-.34.22-.53-.02-.36-.33-.8-.75-.75-1.09.14-2.18.27-3.27.41-.21.03-.38.07-.53.22-.13.13-.23.34-.22.53.02.36.33.8.75.75h0Z" style="fill: #fff;"/>
    <path d="M360.12,199.07c.82-.02,1.64-.03,2.45-.05.39,0,.77-.34.75-.75s-.33-.76-.75-.75c-.82.02-1.64.03-2.45.05-.39,0-.77.34-.75.75s.33.76.75.75h0Z" style="fill: #fff;"/>
    <path d="M364.21,204.08c.68-.07,1.36-.14,2.05-.2.2-.02.38-.07.53-.22.13-.13.23-.34.22-.53s-.07-.4-.22-.53c-.14-.13-.34-.24-.53-.22-.68.07-1.36.14-2.05.2-.2.02-.38.07-.53.22-.13.13-.23.34-.22.53s.07.4.22.53c.14.13.34.24.53.22h0Z" style="fill: #fff;"/>
    <path d="M367.47,208.14c.41-.07.82-.14,1.23-.2.1-.02.18-.07.26-.13.08-.05.15-.12.19-.21.09-.16.13-.4.08-.58s-.17-.36-.34-.45l-.18-.08c-.13-.04-.27-.04-.4,0-.41.07-.82.14-1.23.2-.1.02-.18.07-.26.13-.08.05-.15.12-.19.21-.09.16-.13.4-.08.58s.17.36.34.45l.18.08c.13.04.27.04.4,0h0Z" style="fill: #fff;"/>
    <path d="M371.78,212.67h1.23c.19,0,.39-.08.53-.22s.23-.34.22-.53-.07-.4-.22-.53-.33-.22-.53-.22h-1.23c-.19,0-.39.08-.53.22s-.23.34-.22.53.07.4.22.53.33.22.53.22h0Z" style="fill: #fff;"/>
    <g>
      <path d="M353.09,343.32c-1.98.51-3.99.92-6.01,1.24-.47-1.22-.62-3.27-2.17-3.49.19,1.12.27,2.4-.4,3.39-.36.54-.89.94-1.43,1.29-.41.27-11,6.32-6.92,7.21.46.1.95,0,1.41-.1,3.33-.74,6.73-1.18,10.05-1.97,3.23-.76,6.56-1.31,9.57-2.8-.06-1.98.05-3.93-.3-5.87-1.26.41-2.52.77-3.8,1.1Z" style="fill: #322e2b;"/>
      <path d="M352.89,342.59c-1.99.5-3.99.92-6.01,1.24l.92.52c-.56-1.54-.78-3.62-2.69-4.02-.6-.12-1.02.35-.92.92.15.93.23,1.99-.32,2.81-.31.46-.8.8-1.26,1.09-.49.31-1,.6-1.49.91-1.65,1.03-3.3,2.11-4.78,3.38-.89.77-2.6,2.35-1.52,3.62.72.84,2,.71,2.96.52,2.15-.43,4.31-.83,6.47-1.23,2.29-.42,4.56-.95,6.83-1.47s4.43-1.14,6.5-2.14c.23-.11.38-.4.37-.65-.05-2.03.01-4.06-.33-6.07-.07-.39-.57-.64-.92-.52-1.26.4-2.52.77-3.8,1.1-.93.24-.54,1.69.4,1.45,1.28-.33,2.54-.7,3.8-1.1l-.92-.52c.32,1.87.23,3.78.27,5.67l.37-.65c-3.4,1.65-7.32,2.32-10.99,3.08-2.03.42-4.08.75-6.11,1.14-.95.18-1.97.53-2.94.57-.3.01-.8-.12-.82-.13.11.08-.03.12.08-.1.14-.28.36-.52.57-.75.58-.61,1.24-1.14,1.91-1.64,1.35-1.01,2.77-1.91,4.22-2.78.62-.37,1.23-.74,1.76-1.23,1.36-1.26,1.42-3.02,1.14-4.74l-.92.92c1.2.25,1.29,2.01,1.64,2.97.15.41.49.59.92.52,2.02-.32,4.03-.74,6.01-1.24.94-.24.54-1.68-.4-1.45Z" style="fill: #322e2b;"/>
    </g>
    <g>
      <path d="M403.24,319.02c.22-1.53.35-3.22-.52-4.5-.69-1.03-1.88-1.58-3.02-2.07-.04-.02-.09-.04-.13-.06.31.15-.68,8.1-.72,8.76-.24-.82-1.11-1.4-1.95-1.3-1.17.13-1.97,1.66-2.41,2.57.44.16.97.38,1.3.74.68.73.65,1.84.62,2.84-.05,2.05.11,4.1.49,6.12.17.92.6,2.03,1.53,2.11,2.47.23,2.53-4.25,2.75-5.75.48-3.13,1.55-6.15,2.02-9.31,0-.05.01-.1.02-.15Z" style="fill: #322e2b;"/>
      <path d="M403.96,319.22c.22-1.61.39-3.36-.44-4.83s-2.32-2.12-3.75-2.72c-.71-.3-1.24.77-.73,1.25-.29-.28-.08-.42-.16-.23-.04.08,0,.28,0,.37,0,.36-.04.72-.06,1.08-.07.91-.16,1.82-.25,2.72-.15,1.43-.36,2.86-.46,4.29l1.47-.2c-.48-1.28-1.8-2.19-3.19-1.75-1.27.4-2,1.73-2.54,2.84-.23.46-.03.93.45,1.1.88.33,1.28.79,1.37,1.74.06.73-.01,1.47,0,2.19.02,1.74.17,3.52.53,5.23.22,1.04.7,2.27,1.84,2.59.89.25,1.82-.1,2.42-.77,1.21-1.37,1.25-3.5,1.45-5.21.4-3.29,1.59-6.42,2.08-9.7.14-.94-1.31-1.35-1.45-.4-.45,3.08-1.49,6.04-1.99,9.11-.26,1.58-.15,3.46-.99,4.89-.53.91-1.36.82-1.73-.19-.52-1.42-.57-3.14-.63-4.64-.06-1.33.19-2.81-.17-4.1-.33-1.18-1.22-1.77-2.32-2.18l.45,1.1c.29-.59.59-1.22,1.05-1.7.6-.63,1.58-.7,1.94.26.3.79,1.41.67,1.47-.2.11-1.62.36-3.24.52-4.86.09-.93.19-1.87.24-2.8.03-.49.14-1.25-.26-1.63l-.73,1.25c1.06.45,2.26.99,2.85,2.03s.46,2.49.29,3.68c-.13.94,1.31,1.35,1.45.4Z" style="fill: #322e2b;"/>
    </g>
  </g>
  <g>
    <path d="M325.57,141.98c-6.36,4.55-13.21,8.12-20.17,11.63-3.19,1.61-6.47,2.84-9.82,4.06-3.25,1.19-6.31,2.8-9.69,3.65-3.14.79-6.49,1.01-9.59.11-3.72-1.08-7.57-4.07-10.14-6.91-.41-.46-5.02-5.2-4.91-5.33,3.6-4.08,7.34-8.03,11.22-11.85,3.41,2.31,6.31,4.57,10.54,4.93,3.52.31,7.07-.41,10.42-1.44,10.18-3.12,18.62-9.54,28.3-13.63.59-.25,1.38-.46,1.8.04.45.53.02,1.33-.44,1.85-1.31,1.48-2.93,2.69-4.72,3.54,1.71-.85,3.42-1.71,5.13-2.56.61-.31,1.3-.62,1.96-.43.89.26,1.28,1.41.98,2.3-.29.88-1.07,1.52-1.87,1.98-.8.47-1.68.82-2.41,1.4,1.4-.28,2.55-1.84,3.93-1.47,1.29.35,1.53,2.24.73,3.31-.8,1.07-2.17,1.49-3.45,1.86.62-.32,1.25-.65,1.94-.7.69-.05,1.46.25,1.74.89.46,1.04-.57,2.1-1.5,2.76Z" style="fill: #fff;"/>
    <path d="M325.19,141.34c-4.44,3.17-9.16,5.9-13.97,8.45s-9.69,4.91-14.83,6.8-10.07,4.65-15.65,4.69c-5.29.03-9.86-2.92-13.43-6.62-.94-.97-1.86-1.97-2.79-2.95-.58-.61-1.16-1.22-1.73-1.85-.21-.23-.42-.45-.62-.69-.33-.38-.12-.34-.16.03l-.22.53c3.6-4.08,7.34-8.03,11.22-11.85l-.91.12c3.13,2.13,6.24,4.39,10.08,4.94,4.16.59,8.46-.37,12.4-1.67,7.74-2.55,14.63-6.99,21.83-10.7,1.01-.52,2.02-1.02,3.05-1.51.49-.23.98-.46,1.47-.68.42-.19,1.17-.67,1.63-.64.86.05-.17,1.04-.42,1.3-.36.37-.74.73-1.14,1.06-.91.76-1.93,1.38-3,1.9l.76,1.3c1.12-.56,2.24-1.12,3.36-1.68.72-.36,2.62-1.73,3.39-1.08.89.76-.21,2.01-.83,2.46-.91.65-1.98,1.03-2.88,1.7-.65.49-.3,1.59.58,1.37.8-.2,1.45-.64,2.15-1.05.63-.37,1.57-.78,1.92.14.75,1.94-1.94,2.78-3.27,3.16l.58,1.37c.64-.33,1.61-.91,2.31-.43.94.64-.34,1.68-.89,2.1-.76.57-.02,1.87.76,1.3,1.22-.91,2.72-2.52,1.58-4.09s-3.13-.88-4.52-.16c-.76.39-.23,1.6.58,1.37,2.26-.65,5.23-2.11,4.32-5-.32-1.01-1.2-1.71-2.27-1.69-1.4.02-2.36,1.23-3.65,1.55l.58,1.37c1.27-.96,2.92-1.4,3.96-2.67.82-1,1.08-2.41.32-3.53-.83-1.22-2.26-1.04-3.44-.49-1.82.84-3.6,1.79-5.39,2.69-.87.43-.11,1.72.76,1.3,1.87-.91,3.74-2.21,5.04-3.86.96-1.22.87-3.28-1.09-3.22-.88.03-1.75.53-2.54.88-.99.44-1.96.9-2.93,1.38-2.03,1-4.03,2.08-6.01,3.17-3.78,2.08-7.54,4.21-11.47,5.99-4.25,1.93-8.88,3.61-13.57,3.93-2.57.18-5.1-.1-7.46-1.19-2.1-.97-3.97-2.36-5.88-3.65-.27-.19-.68-.11-.91.12-2.53,2.49-5,5.04-7.41,7.64-1.17,1.26-2.32,2.53-3.46,3.81-.61.69-.71,1.07-.14,1.77,1.06,1.29,2.27,2.47,3.42,3.68,1.4,1.47,2.77,2.97,4.34,4.26,2.36,1.94,5.07,3.65,8.07,4.36,3.29.78,6.77.45,9.99-.47s6.33-2.48,9.52-3.65,6.42-2.42,9.49-3.96c6.94-3.48,13.84-7.12,20.17-11.63.78-.56.03-1.86-.76-1.3Z" style="fill: #322e2b;"/>
  </g>
  <g>
    <path d="M254.02,162.86c1.33-4.61,2.24-9.37,3.8-13.85,1.4.7,2.75,1.11,4.18,1.71,1.46.61,1.52,1.03,2.8-.09.75-.65,1.46-1.35,2.16-2.05,2.88-2.88,5.44-6.08,7.63-9.52-6.71-6.71-13.42-13.42-20.14-20.13-2.05-2.05-4.17-4.14-6.85-5.25-2.41-.99-5.07-1.1-7.68-1.07-3.74.03-7.39.15-10.95,1.27-3.56,1.13-6.9,1.35-9.92,3.86-3.86,3.2-5.56,8.24-7.09,13.01-3.82,11.92-6.32,23.8-8.81,36.04,7.64.04,15.27-.26,22.94-.43,9.03,0,18.07-.45,27.07-.78.3-.9.58-1.8.84-2.71Z" style="fill: #f7931e;"/>
    <path d="M254.74,163.06c1.31-4.61,2.24-9.32,3.8-13.85l-1.1.45c1,.48,2.03.88,3.06,1.27.84.32,1.68.83,2.55,1.07,1.53.42,2.91-1.38,3.85-2.31,3.15-3.1,5.95-6.53,8.33-10.25.18-.28.11-.68-.12-.91-6.14-6.14-12.28-12.27-18.41-18.41-2.55-2.55-5.08-5.46-8.43-6.96-3.55-1.59-7.68-1.39-11.48-1.23-1.9.08-3.8.25-5.66.63s-3.76,1.02-5.63,1.5c-3.39.87-6.41,2.18-8.72,4.9-2.17,2.55-3.5,5.65-4.59,8.78-1.32,3.78-2.45,7.64-3.5,11.5-2.47,9.03-4.37,18.19-6.24,27.36-.1.47.21.95.72.95,6.48.03,12.95-.18,19.42-.35s12.99-.2,19.48-.44c3.7-.14,7.41-.29,11.11-.43.35-.01.62-.23.72-.55.3-.9.58-1.8.84-2.71s-1.18-1.33-1.45-.4-.54,1.81-.84,2.71l.72-.55c-12.97.49-25.94.78-38.92,1.09-3.7.09-7.39.15-11.09.13l.72.95c1.59-7.82,3.21-15.63,5.18-23.36.98-3.85,2.05-7.67,3.24-11.46,1.02-3.26,2.03-6.58,3.74-9.56s4.2-5.34,7.55-6.45c1.58-.53,3.23-.86,4.83-1.32,1.86-.54,3.69-1.01,5.62-1.22s3.81-.24,5.71-.26,3.85,0,5.72.44c3.6.84,6.18,3.39,8.71,5.93,6.62,6.62,13.25,13.25,19.87,19.87l-.12-.91c-2.08,3.24-4.46,6.25-7.15,9-.62.63-1.25,1.26-1.9,1.86-.44.41-.95,1.1-1.58.95-.69-.17-1.42-.63-2.08-.89-1.02-.39-2.04-.77-3.02-1.25-.45-.22-.94-.03-1.1.45-1.56,4.53-2.49,9.25-3.8,13.85-.27.93,1.18,1.33,1.45.4Z" style="fill: #f7931e;"/>
  </g>
  <g>
    <path d="M274.15,149.74c-51.97.64-103.6,2.03-155.41,5.64-2.41,3.88-4.1,8.13-4.62,12.74-1.58,14.03-1.97,28.31-2.9,42.46-1.14,17.37-5.41,36.21-19.19,46.84-2.67,2.06-5.96,5.61-3.72,8.13,1.06,1.19,2.85,1.29,4.44,1.26,5.26-.08,10.52-.54,15.72-1.37.16-.03-.2,18.09-.29,20.25-.29,7.43,2.47,14.81,7.63,20.19,6.02,6.27,14.57,9.63,23.17,10.9,8.6,1.27,17.35.63,26.02,0-2.61.19-.81,33.77-.72,36.24,34.71-1.4,69.43-2.8,104.14-4.21-.66-16.78-.21-33.61,1.34-50.33,1.5-16.13,2.8-34.26,7.93-49.71,4.63-13.96,8.12-26.57,8.32-41.72.21-15.13-2-30.3-6.61-44.72-1.39-4.33-3.01-8.64-5.26-12.58Z" style="fill: #fff;"/>
    <path d="M274.15,148.99c-21.27.26-42.54.65-63.8,1.27-21.11.61-42.21,1.45-63.3,2.61-5.34.29-10.68.61-16.02.94-2.61.16-5.22.33-7.82.51-1.37.09-2.74.17-4.1.28-.44.04-.73.04-1.02.4-.4.49-.69,1.14-.99,1.69-2.23,4.05-3.4,8.31-3.89,12.89-.56,5.27-.96,10.55-1.3,15.83-.63,9.97-.84,19.99-1.84,29.93-.81,8.03-2.36,16.09-5.43,23.59-1.48,3.62-3.36,7.1-5.66,10.26-1.17,1.6-2.46,3.11-3.86,4.51s-2.96,2.59-4.46,3.87c-2.26,1.93-5.67,5.88-2.71,8.7,1.46,1.39,3.65,1.32,5.52,1.28,2.57-.06,5.14-.2,7.7-.44s5-.55,7.48-.95l-.58-.08c-.43-.26-.34-.85-.34-.3,0,.26,0,.52.01.77,0,.76,0,1.52,0,2.28-.02,2.27-.06,4.53-.1,6.79-.07,3.9-.32,7.83-.24,11.72.16,7.36,3.24,14.53,8.5,19.69,5.31,5.21,12.37,8.32,19.57,9.85,9.71,2.06,19.71,1.34,29.52.61v-1.5c-1.52.18-1.62,2.51-1.76,3.66-.33,2.66-.36,5.36-.39,8.04-.06,6.53.16,13.07.43,19.6.08,1.9.18,3.79.25,5.69.01.39.33.77.75.75,13.55-.55,27.1-1.09,40.64-1.64,13.55-.55,27.1-1.09,40.64-1.64,7.62-.31,15.23-.62,22.85-.92.39-.02.77-.33.75-.75-.55-14.07-.33-28.16.68-42.21.46-6.49,1.09-12.96,1.71-19.44.62-6.45,1.33-12.9,2.39-19.3,1.02-6.23,2.36-12.42,4.32-18.43s3.91-12.12,5.39-18.32c3.03-12.73,3.72-25.69,2.56-38.7-.6-6.71-1.67-13.39-3.22-19.94s-3.36-12.82-6.05-18.84c-.65-1.45-1.36-2.87-2.15-4.26-.47-.84-1.77-.09-1.3.76,3.23,5.72,5.24,12.09,6.95,18.41s3.06,13.23,3.86,19.97c1.54,13.07,1.34,26.28-1.41,39.17-1.31,6.13-3.08,12.15-5.01,18.11s-3.62,11.98-4.78,18.18c-2.32,12.48-3.33,25.2-4.39,37.83-1.17,13.9-1.58,27.87-1.22,41.82.04,1.73.1,3.46.17,5.18l.75-.75c-13.55.55-27.1,1.09-40.64,1.64-13.55.55-27.1,1.09-40.64,1.64-7.62.31-15.23.62-22.85.92l.75.75c-.15-4.28-.38-8.55-.51-12.83-.18-6.15-.39-12.36.04-18.51.07-1.05.16-2.1.37-3.13.04-.19.08-.39.14-.58.02-.08.16-.45.09-.3.05-.11.12-.3.13-.25,0,.04-.12.09-.29.11.93-.11.98-1.57,0-1.5-9.52.7-19.24,1.45-28.67-.47-7.85-1.59-15.6-5.07-20.92-11.22-2.66-3.08-4.58-6.79-5.62-10.72-.78-2.96-.92-5.92-.84-8.97.12-4.6.21-9.2.27-13.81.02-1.66.09-3.33.02-4.99-.03-.66-.18-1.17-.98-1.13-1.26.07-2.55.39-3.8.54s-2.43.28-3.65.39c-2.44.22-4.88.35-7.33.41-1.64.04-4.21.25-5-1.6-.68-1.59.8-3.38,1.81-4.46,1.27-1.36,2.81-2.41,4.19-3.63,11.12-9.83,15.28-25.09,16.91-39.33,1.03-9.01,1.23-18.13,1.75-27.18.28-4.93.6-9.85,1.03-14.77.4-4.59.68-9.21,2.32-13.56.76-2.02,1.76-3.93,2.89-5.77l-.65.37c20.22-1.41,40.45-2.48,60.7-3.3s40.35-1.39,60.54-1.79c11.39-.23,22.78-.4,34.17-.55.96-.01.97-1.51,0-1.5Z" style="fill: #322e2b;"/>
  </g>
  <g>
    <path d="M263.63,86c3,.56,5.95,2.14,7.45,4.79,1.83,3.25,1.15,7.29.27,10.91-.96,3.97-2.1,7.91-3.41,11.78-.77,2.27-1.7,4.66-3.66,6.03-1.84,1.28-4.29,1.4-6.46.84-.44-.11-6.19-2.72-6.04-3.02-1.53,3.07-1.86,7.33-4.84,9.48-2.39,1.72-5.91,1.36-8.23-.46-2.32-1.82-3.52-4.81-3.63-7.76-.11-2.83.8-5.25,1.63-7.89.36-1.13.7-2.16,1.21-3.26.21-.46,1.15-3.29,1.56-3.39-1.74.41-3.71-.64-4.34-2.32s.14-3.76,1.72-4.61c1.57-.85,3.74-.36,4.8,1.09.76-2.14,1.69-4.21,2.78-6.2.77-1.4,1.71-3.71,3.05-4.66,3.97-2.82,11.63-2.19,16.15-1.35Z" style="fill: #fff;"/>
    <path d="M263.43,86.72c3.52.69,6.84,2.72,7.77,6.39s-.43,8.03-1.42,11.71c-.58,2.15-1.21,4.28-1.88,6.4-.58,1.81-1.11,3.69-2.05,5.36s-2.28,2.82-4.15,3.2c-1.29.26-2.81.2-4.03-.29-1.01-.41-1.99-.88-2.96-1.35-.55-.26-1.09-.53-1.63-.82-.18-.1-.36-.23-.55-.31-.05-.02-.11-.1-.16-.1-.05-.04-.05-.03.01.01-.15-.15-.1-.01.15.42.08-.74-1.08-1.03-1.4-.38-1.09,2.25-1.53,4.77-2.72,6.97-1.38,2.53-3.95,3.76-6.78,3.03s-4.73-3.25-5.46-6.02c-.84-3.22.06-6.31,1.04-9.39.47-1.47,1.03-2.89,1.58-4.32.21-.55.68-2.36,1.05-2.53.81-.39.21-1.52-.58-1.37-2.32.45-4.26-1.83-3.37-4.03s3.8-2.35,5.22-.55c.38.48,1.08.14,1.25-.33.94-2.59,2.19-5,3.44-7.44.5-.97,1.02-2.05,1.84-2.79.76-.68,1.79-1.09,2.75-1.39,4.13-1.27,8.84-.83,13.03-.06.94.17,1.35-1.27.4-1.45-4.58-.84-9.81-1.36-14.29.21-.98.34-1.97.79-2.77,1.47-.91.76-1.52,1.86-2.07,2.89-1.4,2.66-2.75,5.33-3.78,8.16l1.25-.33c-2.17-2.75-6.55-2.02-7.74,1.24s1.86,6.5,5.23,5.85l-.58-1.37c-.77.37-1.11,1.77-1.39,2.49-.49,1.27-1.02,2.45-1.46,3.78-1.17,3.51-2.4,7.09-1.71,10.83.57,3.08,2.39,6.1,5.33,7.42,2.78,1.25,6.16.97,8.38-1.25,2.42-2.41,2.74-6.01,4.18-8.96l-1.4-.38c-.09.81,1.39,1.35,1.93,1.62,1.13.58,2.28,1.11,3.44,1.62,2.9,1.28,6.5,1.21,8.97-.97,1.51-1.33,2.35-3.24,3.01-5.1.83-2.31,1.54-4.66,2.22-7.02s1.35-4.82,1.86-7.27c.43-2.12.71-4.3.39-6.46-.7-4.69-4.57-7.6-9.02-8.48-.94-.19-1.35,1.26-.4,1.45Z" style="fill: #322e2b;"/>
  </g>
  <g>
    <path d="M315.7,173c6.75-1.09,13.37-2.96,20.06-4.37l-3.88-16.55c3.03-.52,6.12-1.25,8.64-3.02,2.52-1.77,4.36-4.8,3.92-7.85-.31-2.17-1.74-4.07-3.53-5.34-4.15-2.95-9.68-2.24-13.39,1.09-.93-4.59-1.87-9.18-2.8-13.77-.11-.55-.26-1.15-.72-1.47-.49-.33-1.15-.21-1.73-.08-3.66.84-7.32,1.7-10.99,2.54-2.78.64-5.53.5-8.36.97,1.19-3.42.63-7.51-1.82-10.17-2.45-2.66-6.83-3.5-9.87-1.55-2.35,1.51-3.6,4.33-3.86,7.11-.26,2.78.35,5.56,1,8.28-5.06.63-10.03,1.95-14.73,3.93,1.58,5.56,2.73,11.23,3.45,16.96-1.95-1.74-5.08-1.7-7.32-.35-2.24,1.35-3.68,3.76-4.41,6.27-.91,3.1-.69,6.86,1.69,9.03,1.67,1.52,4.11,1.97,6.36,1.69,2.25-.27,4.36-1.18,6.44-2.08,1.29,5.27,2.96,10.44,5.02,15.46,6.58-1.63,13.16-3.26,19.74-4.89-1.59-2.54-3.21-5.16-3.79-8.1-.58-2.94.09-6.33,2.42-8.2,3.22-2.59,8.42-1.16,10.9,2.14,2.48,3.31,2.75,7.8,2.08,11.89" style="fill: #29abe2;"/>
    <path d="M315.9,173.72c6.76-1.11,13.37-2.95,20.06-4.37.41-.09.61-.55.52-.92-1.29-5.52-2.59-11.03-3.88-16.55l-.52.92c5.42-.94,12.14-3.24,13.08-9.55.84-5.66-4.81-9.94-10.02-9.99-3.03-.03-5.9,1.19-8.16,3.16l1.25.33c-.69-3.38-1.38-6.76-2.06-10.15-.3-1.47-.41-3.18-1.01-4.55-.52-1.18-1.62-1.42-2.8-1.2-3.31.61-6.59,1.52-9.87,2.28-1.68.39-3.32.68-5.03.82-1.59.13-3.17.23-4.74.47l.92.92c1.62-4.85-.03-10.83-4.98-12.97-2.25-.98-4.9-1.06-7.13.02s-3.83,3.45-4.51,5.87c-.99,3.54-.21,7.26.62,10.75l.72-.95c-5.14.65-10.14,1.96-14.92,3.95-.37.16-.65.49-.52.92,1.55,5.5,2.7,11.1,3.42,16.77l1.28-.53c-2-1.68-4.77-1.96-7.17-.99-2.57,1.04-4.32,3.35-5.34,5.86-2,4.92-1.05,11.67,4.99,12.91,3.54.73,6.92-.67,10.12-2.04l-1.1-.45c1.3,5.27,2.97,10.44,5.02,15.46.16.38.49.63.92.52,6.58-1.63,13.16-3.26,19.74-4.89.46-.11.7-.7.45-1.1-1.57-2.51-3.2-5.1-3.74-8.05-.45-2.45.04-5.33,1.95-7.07,1.7-1.56,4.17-1.66,6.26-.94,2.34.8,4.07,2.6,5.03,4.85,1.22,2.85,1.22,6.11.74,9.12-.15.94,1.3,1.35,1.45.4.91-5.71-.01-12.83-5.94-15.47-2.34-1.04-5.17-1.22-7.44.11-2.49,1.46-3.65,4.36-3.7,7.15-.06,3.94,2.08,7.44,4.09,10.67l.45-1.1c-6.58,1.63-13.16,3.26-19.74,4.89l.92.52c-2.05-5.03-3.72-10.19-5.02-15.46-.13-.52-.68-.63-1.1-.45-3,1.3-6.37,2.72-9.68,1.71-2.91-.89-4.21-3.59-4.18-6.47s1.13-5.75,3.1-7.73,5.49-2.87,7.84-.89c.43.36,1.37.18,1.28-.53-.74-5.8-1.89-11.53-3.48-17.16l-.52.92c4.65-1.93,9.53-3.26,14.53-3.9.49-.06.85-.43.72-.95-.8-3.37-1.59-6.96-.5-10.36.87-2.71,3-4.96,5.96-5.14,2.76-.17,5.45,1.2,6.9,3.55,1.52,2.48,1.66,5.56.75,8.27-.2.6.4,1,.92.92,2.9-.45,5.84-.39,8.71-1.05s5.91-1.37,8.86-2.05c.69-.16,1.37-.36,2.07-.47.93-.15,1.07.33,1.23,1.09.35,1.56.64,3.14.96,4.71.61,3.02,1.23,6.04,1.84,9.06.12.59.86.68,1.25.33,2.23-1.95,5.21-3.02,8.19-2.66s5.75,2.17,6.98,4.86c1.33,2.92-.05,6.1-2.31,8.11-2.51,2.23-6,2.99-9.22,3.55-.41.07-.61.56-.52.92,1.29,5.52,2.59,11.03,3.88,16.55l.52-.92c-6.7,1.42-13.3,3.26-20.06,4.37-.95.16-.55,1.6.4,1.45h0Z" style="fill: #29abe2;"/>
  </g>
  <path d="M264.64,103.09c.17,1.15.35,2.29.52,3.44.09.57.17,1.15.26,1.72.07.48.16.98.08,1.46-.13.76-.79,1.22-1.38.55-.3-.34-.44-.79-.58-1.22-.17-.53-.34-1.07-.51-1.61-.29-.92-1.74-.53-1.45.4.38,1.2.64,2.74,1.61,3.63,1.04.94,2.54.8,3.34-.37s.42-2.68.22-3.98c-.22-1.47-.45-2.95-.67-4.42-.06-.4-.57-.62-.92-.52-.43.12-.58.52-.52.92h0Z" style="fill: #322e2b;"/>
  <path d="M258.77,100.92c1.29,0,1.29-2,0-2s-1.29,2,0,2h0Z" style="fill: #322e2b;"/>
  <path d="M268.72,103.78c1.29,0,1.29-2,0-2s-1.29,2,0,2h0Z" style="fill: #322e2b;"/>
  <path d="M262.04,113.29c-.22,0-.43,0-.65-.02-.06,0-.13-.01-.19-.02.08.01.01,0-.03,0-.11-.02-.23-.04-.34-.07-.21-.05-.42-.11-.63-.18-.11-.04-.22-.08-.32-.12-.12-.05.08.04-.03-.01-.06-.03-.12-.05-.17-.08-.2-.09-.39-.2-.57-.32-.1-.06-.19-.12-.29-.19-.04-.03-.08-.06-.12-.09-.02-.02-.09-.07-.03-.02-.18-.14-.35-.3-.51-.46-.07-.07-.14-.15-.21-.22-.04-.05-.08-.1-.12-.15-.01-.01-.11-.14-.05-.06-.25-.32-.65-.49-1.03-.27-.32.18-.52.7-.27,1.03,1.32,1.73,3.37,2.79,5.57,2.76.39,0,.77-.34.75-.75s-.33-.76-.75-.75h0Z" style="fill: #322e2b;"/>
  <g>
    <path d="M246.35,96.01c3.13-2.84,5.9-6.3,8.72-9.32,3.2,3.18,6.97,5.78,11.05,7.68,2.04.95,4.17,1.73,6.35,2.31,1.85.49,3.76,1.37,5.7.87,1.1-.28,2.12-1.16,2.2-2.29.07-.92-.48-1.75-1.02-2.5-2.15-2.94-4.86-5.16-7.78-7.3-3.05-2.24-6.55-4.63-10.41-5.06-2.62-.29-5.56.64-6.89,2.92-.07.12-3.22.07-3.6.13-1.29.19-2.56.54-3.76,1.05-2.16.91-3.76,2.89-4.79,4.96-.97,1.95-2.14,5.44-1.97,7.63.06.81.57,1.66,1.36,1.84.71.16,1.42-.23,2.01-.64.98-.69,1.91-1.45,2.81-2.27Z" style="fill: #322e2b;"/>
    <path d="M246.88,96.54c3.15-2.88,5.82-6.21,8.72-9.32h-1.06c2.65,2.61,5.65,4.85,8.91,6.64s6.79,2.93,10.38,4.01c1.65.49,3.48.91,5.13.2,1.36-.59,2.35-1.88,2.13-3.4s-1.57-3-2.59-4.16c-1.18-1.33-2.49-2.53-3.87-3.65-4.71-3.82-11.83-9.49-18.24-6.39-.64.31-1.24.72-1.75,1.21-.23.23-.44.47-.63.73-.16.21-.45.37.01.22.11-.04-.1.01-.14,0-.42-.11-1.04.03-1.47.03-.5,0-1,0-1.49.02-3.12.19-6.14,1.68-8.04,4.16-1.07,1.4-1.81,2.99-2.4,4.65s-1.08,3.4-1.08,5.15c0,1.44.8,3.06,2.43,3.08,1,.01,1.85-.6,2.62-1.17.84-.63,1.65-1.3,2.44-2.01.72-.65-.34-1.7-1.06-1.06-.57.51-1.16,1.02-1.76,1.49s-1.61,1.44-2.41,1.18c-1.23-.4-.7-2.62-.51-3.52.54-2.58,1.55-5.32,3.3-7.34s4.43-3.08,7.05-3.12c.82-.01,1.65.02,2.46-.05,1.02-.08,1.22-.93,1.94-1.56,2.16-1.88,5.3-1.68,7.83-.81,2.89.99,5.43,2.83,7.86,4.64s4.77,3.76,6.66,6.14c.91,1.15,2.2,2.85.52,3.95-1.39.91-3.24.33-4.69-.11-3.47-1.05-6.81-2.12-10.01-3.89s-5.94-3.84-8.46-6.32c-.28-.28-.78-.3-1.06,0-2.9,3.11-5.58,6.44-8.72,9.32-.71.65.35,1.71,1.06,1.06Z" style="fill: #322e2b;"/>
  </g>
  <g>
    <path d="M284.39,173.95c-7.64,1.69-15.34,2.27-23.12,2.76-3.56.22-7.07.06-10.62-.12-3.46-.18-6.9.09-10.35-.46-3.2-.51-6.36-1.62-8.86-3.67-3-2.46-5.36-6.72-6.6-10.34-.2-.58-2.57-6.75-2.42-6.83,4.91-2.33,9.91-4.5,14.98-6.49,2.23,3.47,4,6.68,7.75,8.68,3.12,1.67,6.67,2.4,10.15,2.77,10.59,1.13,20.87-1.45,31.38-1.4.65,0,1.45.13,1.64.74.2.66-.51,1.23-1.14,1.53-1.79.84-3.75,1.32-5.73,1.4,1.91-.11,3.81-.23,5.72-.34.68-.04,1.44-.06,1.97.38.71.59.62,1.8,0,2.5-.62.7-1.58.98-2.5,1.09-.92.11-1.87.09-2.76.34,1.4.3,3.06-.69,4.19.2,1.05.82.52,2.66-.63,3.33-1.15.67-2.58.52-3.9.35.69-.05,1.41-.1,2.06.12.66.23,1.24.81,1.25,1.5,0,1.14-1.35,1.71-2.47,1.95Z" style="fill: #fff;"/>
    <path d="M284.19,173.22c-6.58,1.44-13.29,2.09-20,2.54-3.42.23-6.81.35-10.24.22s-6.6-.17-9.9-.28c-3.1-.11-6.23-.59-9.06-1.92-2.62-1.23-4.67-3.16-6.28-5.55-2.23-3.3-3.47-7.12-4.82-10.83-.23-.63-.36-1.5-.71-2.08-.19-.32.01.51-.06.45.08.07,1.2-.56,1.31-.62.82-.38,1.65-.76,2.47-1.13,3.52-1.59,7.09-3.09,10.68-4.51l-.85-.34c1.86,2.91,3.65,5.93,6.49,8,3.18,2.31,7.25,3.23,11.07,3.72,8.66,1.1,17.3-.41,25.94-1.04,1.25-.09,2.49-.16,3.74-.2.66-.02,1.31-.04,1.97-.04.38,0,1.05-.13,1.41.08.52.3-.23.63-.56.79-.53.27-1.1.47-1.66.64-1.2.38-2.43.59-3.69.65v1.5c1.31-.08,2.62-.16,3.93-.23.79-.05,2.65-.49,3.29.14.92.92-.66,1.9-1.4,2.1-1.17.32-2.41.21-3.59.5-.68.16-.75,1.33,0,1.45.8.13,1.52.02,2.32-.08.74-.1,1.9-.2,1.88.85-.04,2.13-2.97,1.81-4.35,1.64v1.5c.67-.05,2.73-.21,2.54.99-.12.72-1.32.98-1.9,1.12-.94.22-.54,1.67.4,1.45,1.38-.33,3.12-1.12,3-2.8-.14-2.05-2.44-2.37-4.04-2.25-.98.07-.94,1.38,0,1.5,2.32.29,5.56.06,5.83-2.92.09-1.03-.41-1.98-1.36-2.41-1.29-.57-2.6.19-3.92-.02v1.45c1.59-.38,3.34-.12,4.81-.99,1.09-.65,1.78-1.95,1.4-3.22-.4-1.34-1.75-1.64-2.99-1.59-1.95.08-3.9.23-5.85.35-.96.06-.97,1.55,0,1.5,2.09-.1,4.23-.55,6.1-1.5,1.32-.67,2.32-2.51.59-3.39-.71-.36-1.6-.29-2.37-.28-1.25.01-2.5.06-3.75.13-2.38.13-4.74.35-7.11.59-4.61.46-9.23.96-13.88.97s-9.32-.39-13.6-2.07c-2.16-.85-4.04-2.09-5.59-3.82s-2.62-3.61-3.82-5.48c-.16-.26-.53-.47-.85-.34-3.32,1.31-6.62,2.68-9.88,4.14-1.6.71-3.2,1.44-4.78,2.19-.81.38-.97.73-.73,1.54.48,1.62,1.14,3.21,1.73,4.8.69,1.86,1.35,3.72,2.26,5.5,1.33,2.59,3.06,5.12,5.37,6.94s5.24,2.97,8.18,3.53c3.39.65,6.82.47,10.24.58,3.66.11,7.3.39,10.96.21,8.05-.39,16.17-1.11,24.05-2.83.94-.21.54-1.65-.4-1.45Z" style="fill: #322e2b;"/>
  </g>
  <g>
    <path d="M215.46,135.12c.99,3.83,2.2,7.58,3.43,11.34,1.03,3.15,1.73,6.5,2.97,9.56,5.82-1.6,11.19-3.24,16.67-5.94.25-.12-7.49-21.51-8.16-23.46" style="fill: #f7931e;"/>
    <path d="M214.73,135.32c.94,3.59,2.06,7.13,3.21,10.65s1.87,6.92,3.19,10.24c.15.38.5.64.92.52,5.09-1.4,10.14-2.94,14.96-5.12,1.01-.46,2.51-.72,2.18-2.06-.16-.66-.4-1.3-.62-1.94-1.74-5.21-3.62-10.39-5.48-15.56-.67-1.88-1.36-3.76-2.01-5.65-.31-.91-1.76-.52-1.45.4,1.4,4.06,2.89,8.09,4.33,12.14.89,2.51,1.78,5.02,2.64,7.53.29.85.58,1.7.86,2.55.08.26.16.53.25.79.02.07.03.17.06.23.01.03,0,.08.02.1.12.16-.39-1.03.03-.59-.1-.11-3.52,1.58-3.92,1.74-1.3.53-2.62,1.01-3.95,1.47-2.74.94-5.52,1.74-8.3,2.5l.92.52c-1.32-3.33-2.08-6.84-3.19-10.24s-2.27-7.06-3.21-10.65c-.24-.93-1.69-.54-1.45.4h0Z" style="fill: #f7931e;"/>
  </g>
  <path d="M215.42,146.68c.37.22.73.46,1.09.7.17.12.34.24.51.36.09.07.18.13.27.2.04.03.08.06.12.09.11.08-.13-.11.05.04.68.53,1.33,1.1,1.94,1.71.28.28.79.3,1.06,0s.3-.77,0-1.06c-1.29-1.27-2.73-2.4-4.28-3.34-.34-.2-.84-.08-1.03.27s-.09.81.27,1.03h0Z" style="fill: #322e2b;"/>
  <path d="M232.67,153.5c.23,1.41,1.69,2.55,3.11,2.41,1.5-.14,2.74-1.47,2.71-3,0-.39-.34-.77-.75-.75s-.76.33-.75.75c0,.06,0,.12,0,.18,0,.17.03-.11,0,.04-.03.12-.06.23-.1.35-.05.16.06-.09-.02.04-.03.05-.06.11-.09.16s-.07.1-.1.15c.09-.14,0,0-.04.04-.08.09-.17.17-.26.26.13-.11-.01,0-.04.03-.05.03-.1.07-.16.1s-.11.06-.16.08c.16-.07,0,0-.05.01-.06.02-.12.03-.18.05-.04,0-.08.02-.12.02.09-.01.1-.01.05,0-.06,0-.12,0-.18,0-.02,0-.22-.02-.11,0s-.09-.02-.11-.02c-.06-.01-.12-.03-.18-.05-.02,0-.2-.08-.11-.04s-.08-.05-.1-.06c-.05-.03-.11-.06-.16-.09-.02-.01-.17-.13-.1-.07s-.07-.07-.09-.08c-.04-.04-.09-.09-.13-.13-.02-.02-.04-.05-.06-.07.05.06.06.07.02.03-.03-.05-.07-.1-.1-.15s-.06-.11-.09-.16c-.01-.03-.03-.05-.04-.08.03.08.04.09.02.04-.03-.13-.08-.25-.1-.38-.06-.39-.57-.64-.92-.52-.42.14-.59.51-.52.92h0Z" style="fill: #322e2b;"/>
  <path d="M259.27,137.95c-.36,4.89-1.24,9.72-2.63,14.43-.27.93,1.17,1.32,1.45.4,1.43-4.83,2.32-9.8,2.69-14.83.07-.96-1.43-.96-1.5,0h0Z" style="fill: #322e2b;"/>
  <path d="M131.59,212.75c-3.73,3.57-4.11,10.52.4,13.67,3.67,2.57,8.94,1.24,12.45-.95,3.11-1.94,5.46-4.8,7.62-7.72.57-.78-.73-1.53-1.3-.76-2.94,3.98-6.46,7.86-11.46,9.01-3.69.85-7.59-.24-8.77-4.18-.86-2.87-.02-5.95,2.14-8.01.7-.67-.36-1.73-1.06-1.06h0Z" style="fill: #322e2b;"/>
  <path d="M216.82,140.11c1.87,6.22,3.73,12.43,5.6,18.65.28.92,1.72.53,1.45-.4-1.87-6.22-3.73-12.43-5.6-18.65-.28-.92-1.72-.53-1.45.4h0Z" style="fill: #322e2b;"/>
  <path d="M232.8,133.76c1.65,6.32,3.82,12.48,6.46,18.44.39.88,1.68.12,1.3-.76-2.59-5.85-4.7-11.9-6.31-18.08-.24-.93-1.69-.54-1.45.4h0Z" style="fill: #322e2b;"/>
  <path d="M277.11,93.29c-.09.08-.19.16-.27.24.02-.02.13-.09.04-.03-.03.02-.06.04-.09.07-.05.03-.1.07-.15.1-.1.06-.21.12-.32.17-.03.01-.06.02-.08.04-.09.04.14-.06.05-.02-.06.02-.13.05-.19.07-.11.04-.23.07-.35.1-.06.01-.12.02-.18.03-.1.02.04,0,.06,0-.03,0-.06,0-.09.01-.26.03-.51.02-.77-.01-.18-.02-.41.1-.53.22-.13.13-.23.34-.22.53s.07.4.22.53c.16.14.32.19.53.22,1.23.16,2.51-.32,3.39-1.18.28-.28.3-.79,0-1.06s-.76-.29-1.06,0h0Z" style="fill: #fff;"/>
  <path d="M273.64,91.23c-1.27.18-2.55.36-3.82.54-.39.06-.64.57-.52.92.14.43.5.58.92.52,1.27-.18,2.55-.36,3.82-.54.39-.06.64-.57.52-.92-.14-.43-.5-.58-.92-.52h0Z" style="fill: #fff;"/>
  <path d="M269.19,88.42l-2.73.14c-.39.02-.77.33-.75.75.02.39.33.77.75.75l2.73-.14c.39-.02.77-.33.75-.75-.02-.39-.33-.77-.75-.75h0Z" style="fill: #fff;"/>
  <path d="M265.51,85.87c-1.14-.04-2.27-.08-3.41-.12-.39-.01-.77.35-.75.75.02.42.33.74.75.75,1.14.04,2.27.08,3.41.12.39.01.77-.35.75-.75-.02-.42-.33-.74-.75-.75h0Z" style="fill: #fff;"/>
  <path d="M261.12,84.04c-.32-.14-.64-.27-.95-.41-.09-.05-.18-.08-.28-.09-.1-.02-.2-.02-.3.01-.1.02-.18.07-.26.13-.08.05-.15.12-.19.21-.09.17-.14.38-.08.58l.08.18c.07.11.16.2.27.27.32.14.64.27.95.41.09.05.18.08.28.09.1.02.2.02.3-.01.1-.02.18-.07.26-.13.08-.05.15-.12.19-.21.09-.17.14-.38.08-.58l-.08-.18c-.07-.11-.16-.2-.27-.27h0Z" style="fill: #fff;"/>
  <path d="M150.55,153.91c-.48-7.45-5.36-13.63-11.07-18.05-6.51-5.04-14.24-8.31-20.54-13.65-3.27-2.77-6.15-6.09-7.8-10.08-.36-.88-1.81-.49-1.45.4,6.27,15.2,24.79,17.98,34.53,29.97,2.64,3.26,4.55,7.19,4.82,11.42.06.96,1.56.97,1.5,0h0Z" style="fill: #322e2b;"/>
  <g>
    <path d="M110.42,95.85c.25,4.48-5.81,7.42-7.04,2.07-.46-2.01.31-4.6.97-6.48.2-.56.45-1.15.96-1.46,1.01-.61,2.26.24,3.02,1.15,1.13,1.34,1.99,2.97,2.09,4.72Z" style="fill: #322e2b;"/>
    <path d="M109.67,95.85c.06,1.32-.44,2.49-1.41,3.36-.06.06-.13.11-.2.17.08-.07-.06.04-.08.06-.13.09-.26.17-.4.25-.06.03-.12.07-.19.1-.04.02-.23.1-.11.05-.14.05-.28.1-.42.14-.06.02-.13.03-.2.04-.14.03-.03,0-.06.01-.15.02-.3.02-.45.02-.03,0-.21-.02-.12,0s-.09-.02-.12-.02c-.06-.01-.12-.03-.19-.05-.04-.01-.24-.09-.18-.06-.17-.07-.41-.24-.54-.37-.25-.24-.35-.39-.52-.73-.41-.78-.52-1.74-.48-2.65.06-1.14.35-2.26.68-3.34.15-.49.3-.99.49-1.46.14-.34.35-.76.75-.82.45-.08.94.25,1.27.52.46.38.83.86,1.16,1.35.7,1.03,1.23,2.19,1.31,3.45.03.4.33.75.75.75.39,0,.78-.34.75-.75-.09-1.39-.56-2.7-1.3-3.88s-1.6-2.25-2.87-2.75c-.62-.25-1.31-.26-1.92.04s-.99.85-1.25,1.45c-.52,1.2-.89,2.52-1.13,3.8-.39,2.08-.37,4.81,1.44,6.28,1.29,1.04,3.04.93,4.4.07,1.69-1.06,2.71-3.01,2.62-5-.04-.96-1.54-.97-1.5,0Z" style="fill: #322e2b;"/>
  </g>
  <g>
    <path d="M114.24,106.91c.54-3.63.2-7.36-.92-10.86-.4-1.23-2.75-7.08-4.15-3.55l-2.07,5.25c-1.23-1.84-2.56-3.61-4-5.29-.55-.65-1.35-1.34-2.14-1.04-.72.28-.9,1.21-.94,1.99-.23,4.75.39,10.56,3.02,14.63,1.03,1.6,2.42,3.06,4.2,3.75,1.78.69,3.99.48,5.34-.86,1.05-1.04,1.45-2.56,1.67-4.02Z" style="fill: #29abe2;"/>
    <path d="M114.96,107.11c.67-4.75.14-10-2.24-14.25-.58-1.03-1.7-2.76-3.12-2.08-.82.39-1.11,1.4-1.42,2.17l-1.81,4.59,1.37-.18c-1.04-1.55-2.15-3.05-3.33-4.5-.84-1.03-1.98-2.61-3.52-2.2-1.35.36-1.58,1.83-1.63,3.02-.07,1.54-.03,3.09.1,4.62.27,3.1.93,6.24,2.39,9.02,1.35,2.57,3.59,5.09,6.61,5.53,1.51.22,3.12-.08,4.34-1.04,1.45-1.14,1.99-2.95,2.27-4.71.15-.94-1.3-1.35-1.45-.4-.25,1.58-.67,3.37-2.18,4.22-1.29.73-2.95.62-4.25-.01-2.81-1.37-4.41-4.53-5.26-7.38s-1.16-6.07-1.09-9.15c.01-.55-.1-1.51.24-1.98.62-.86,1.65.65,2.05,1.12,1.23,1.47,2.36,3.01,3.43,4.6.38.57,1.13.42,1.37-.18l1.43-3.61c.23-.58.42-1.19.7-1.75.07-.13.17-.42.34-.47-.14.05.04.02.17.14.19.19.37.38.52.6.38.53.68,1.12.95,1.71,1.73,3.71,2.17,8.11,1.6,12.13-.13.94,1.31,1.35,1.45.4Z" style="fill: #29abe2;"/>
  </g>
  <path d="M106.35,93.09c-1.85,3.96-3.04,8.15-3.56,12.49-.11.96,1.39.95,1.5,0,.48-4.06,1.62-8.03,3.35-11.73.41-.87-.89-1.63-1.3-.76h0Z" style="fill: #322e2b;"/>
  <path d="M124.44,112.18c-1.43,5.13-1.46,10.55-.1,15.7.25.93,1.69.54,1.45-.4-1.29-4.89-1.26-10.03.1-14.9.26-.93-1.19-1.33-1.45-.4h0Z" style="fill: #322e2b;"/>
  <path d="M117.42,132.13c4.85.03,9.69.06,14.54.09.97,0,.97-1.49,0-1.5-4.85-.03-9.69-.06-14.54-.09-.97,0-.97,1.49,0,1.5h0Z" style="fill: #322e2b;"/>
  <path d="M143.92,126.93c-.72,5.4-.42,10.89.87,16.19.23.94,1.67.54,1.45-.4-1.25-5.17-1.52-10.51-.81-15.79.13-.95-1.37-.94-1.5,0h0Z" style="fill: #322e2b;"/>
  <path d="M134.62,147.14c4.75.07,9.38,1.46,13.4,4,.82.52,1.57-.78.76-1.3-4.24-2.67-9.15-4.12-14.16-4.2-.97-.02-.97,1.48,0,1.5h0Z" style="fill: #322e2b;"/>
  <g>
    <path d="M107.07,179.25c.92-3.18,1.93-9.85,5.19-11.59,3.41-1.81,7.54.15,10.39-3.67,1.29-1.73,1.58-4,2.47-5.97.88-1.97,2.91-3.83,4.98-3.21-.47-.14-2.27-3.76-2.93-4.38-1.43-1.37-3.39-2.64-5.37-3.02-3.92-.75-8.95.2-12.33,2.3-7.25,4.52-10.31,11.99-14.79,18.77-2.62,3.96-6.4,7-10.13,9.94-3.73,2.95-7.53,5.94-10.23,9.85s-4.18,8.96-2.75,13.49c1.81-4.79,7.71-6.51,12.83-6.75,5.12-.24,10.64.24,14.95-2.53,4.39-2.82,6.25-8.21,7.71-13.23Z" style="fill: #22b573;"/>
    <path d="M107.8,179.45c.56-1.95.95-3.94,1.57-5.88.58-1.82,1.38-4.12,3.12-5.17,1.94-1.17,4.42-.82,6.55-1.28,2.48-.53,4.26-2.21,5.24-4.52.65-1.53.94-3.24,1.75-4.7.76-1.36,2.19-2.78,3.88-2.35.79.2,1.37-.99.58-1.37-.41-.2-.99-1.52-1.29-2.02-.45-.76-.87-1.6-1.49-2.25-2.12-2.24-5.1-3.37-8.13-3.48s-6.23.55-9.01,1.85-5.07,3.32-7.03,5.53c-4.02,4.52-6.47,10.08-9.95,14.97-4.04,5.67-10.26,9.24-15.29,13.91s-9.66,11.91-7.43,19.28c.23.76,1.18.66,1.45,0,2.26-5.7,9.71-6.17,14.9-6.28,3.27-.07,6.66-.11,9.78-1.22,2.87-1.02,5.18-2.94,6.86-5.47,1.92-2.88,2.99-6.24,3.95-9.54.27-.93-1.18-1.33-1.45-.4-1.74,5.98-4.16,12.43-10.77,14.28-6.04,1.68-12.51,0-18.44,2.38-2.8,1.12-5.15,2.99-6.28,5.85h1.45c-1.96-6.49,1.83-12.77,6.34-17.15s10.27-7.82,14.51-12.7c3.79-4.36,6.1-9.82,9.51-14.46s8.29-8.61,14.4-9.24c3.46-.35,7.1.27,9.57,2.96.65.71,1.08,1.67,1.57,2.49.36.61.82,1.68,1.5,2.01l.58-1.37c-2.87-.72-5.11,1.73-6.08,4.16-1.12,2.79-1.58,6.22-4.89,7.24-2.29.71-4.76.31-6.99,1.31-2.03.91-3.12,2.93-3.9,4.91-.94,2.38-1.39,4.9-2.09,7.34-.27.93,1.18,1.33,1.45.4Z" style="fill: #22b573;"/>
  </g>
  <path d="M131.67,154.61c-2.79-2.98-7.17-4.71-11.24-4.6-1.99.05-3.98.58-5.59,1.79-2.09,1.56-2.86,3.86-3.66,6.24-.46,1.37-1.04,2.63-2.06,3.67-.86.88-1.9,1.56-2.95,2.18-2.04,1.2-4.22,2.19-6.02,3.75s-2.82,3.71-3.34,6.05-.63,4.88-1.47,7.18c-.5,1.36-1.33,2.56-2.58,3.33-1.46.9-3.17,1.24-4.81,1.68-2.64.72-5.46,2.01-6.31,4.84-.28.93,1.17,1.32,1.45.4.77-2.56,3.71-3.38,6-3.99,2.48-.65,4.95-1.42,6.52-3.59,2.8-3.84,1.47-9.18,4.03-13.11s7.74-4.6,10.77-7.93c1.93-2.12,2.12-4.92,3.45-7.34.95-1.74,2.56-2.9,4.48-3.38,4.22-1.06,9.33.75,12.26,3.89.66.71,1.72-.36,1.06-1.06h0Z" style="fill: #322e2b;"/>
  <path d="M138.38,41.82c6.26,2.94,9.48,9.6,10.5,16.15,1.27,8.14-.31,16.38.13,24.55.21,3.88.92,7.65,2.31,11.29s3.18,7.08,4.25,10.8c2.28,7.92.77,16.27-.3,24.26s-1.68,16.82,2.04,24.43c.42.87,1.72.11,1.3-.76-3.41-6.98-2.93-15.04-1.98-22.53,1.01-7.97,2.6-16.13.82-24.12-.85-3.81-2.57-7.33-4.05-10.92-1.57-3.8-2.56-7.65-2.84-11.75-.55-8.19.99-16.4-.07-24.57-.95-7.27-4.38-14.85-11.35-18.12-.87-.41-1.63.89-.76,1.3h0Z" style="fill: #322e2b;"/>
  <g>
    <path d="M136.39,43.12c4.61-2.37,8.04-6.65,10.13-11.39.54-1.21,1-2.53.79-3.84-.21-1.31-1.3-2.57-2.63-2.51-1.67.07-2.6,1.99-2.83,3.65-.24,1.66-.24,3.53-1.42,4.72-.19-1.6-.42-3.28-1.41-4.55-.9-1.15-2.35-2.41-3.75-1.19-.67.58-.99,1.46-1.18,2.33-.54,2.41-.25,4.94.74,7.2-.82-1.13-2.51-3.71-3.9-4.2-2.08-.72-4.4,1.22-4.62,3.28-.19,1.78,1.02,3.61,2.72,4.17-1.28-.79-2.61-1.59-4.1-1.76-1.49-.16-3.19.51-3.71,1.92-2.39,6.49,13.34,3.11,15.18,2.16Z" style="fill: #f7931e;"/>
    <path d="M136.77,43.77c4.43-2.32,7.8-6.27,9.97-10.73,1.03-2.13,2.16-4.84.59-7-1.27-1.74-3.61-1.84-4.97-.17-.73.9-1.09,2.03-1.25,3.16-.2,1.42-.18,3.07-1.2,4.19l1.28.53c-.22-1.79-.48-3.62-1.63-5.08-.96-1.21-2.54-2.45-4.13-1.65s-2.09,2.82-2.28,4.48c-.23,2.13.13,4.27.96,6.24l1.37-.58c-1.78-2.47-4.22-6.32-7.72-4.02s-2.58,7,1.07,8.38c.82.31,1.28-.94.58-1.37-1.5-.92-3.16-1.91-4.98-1.88-1.4.02-2.89.64-3.64,1.87-.83,1.37-.78,3.22.52,4.26s3.23,1.18,4.84,1.19c2.04.02,4.09-.24,6.09-.61,1.5-.27,3.16-.53,4.54-1.22.86-.43.11-1.72-.76-1.3-.07.03-.06.04-.28.11-.23.08-.47.15-.7.22-.61.18-1.23.33-1.85.46-1.57.34-3.16.6-4.77.73s-3.17.2-4.69-.15c-.88-.2-1.96-.59-2.01-1.63-.05-1.17.81-2.07,1.89-2.35,1.81-.47,3.56.67,5.03,1.57l.58-1.37c-2.78-1.04-2.87-5.04.03-6,2.25-.75,3.86,2.36,4.92,3.85.45.63,1.73.27,1.37-.58-.56-1.33-.92-2.73-.97-4.18-.04-1.31.04-2.97.78-4.11,1-1.55,2.44-.33,3.2.76s.97,2.59,1.13,3.93c.07.59.8,1.06,1.28.53,1.78-1.95,1.03-4.55,2.11-6.76.52-1.07,1.64-1.9,2.72-.96,1.18,1.03.86,2.75.38,4.04-1.81,4.93-5.5,9.43-10.17,11.87-.86.45-.1,1.74.76,1.3Z" style="fill: #f7931e;"/>
  </g>
  <path d="M137.29,61.14c4.66-.16,9.22,1.74,12.38,5.17.66.71,1.72-.35,1.06-1.06-3.42-3.7-8.41-5.78-13.44-5.61-.96.03-.97,1.53,0,1.5h0Z" style="fill: #322e2b;"/>
  <path d="M158.02,50.47c-4.27,1.94-7.5,5.96-8.51,10.54-.21.94,1.24,1.34,1.45.4.93-4.24,3.87-7.84,7.82-9.64.37-.17.45-.7.27-1.03-.22-.38-.66-.44-1.03-.27h0Z" style="fill: #322e2b;"/>
  <path d="M142.68,78.65c3.36,1.27,5.93,4.27,6.76,7.74.23.94,1.67.54,1.45-.4-.96-4.01-3.96-7.33-7.81-8.79-.38-.14-.82.16-.92.52-.12.42.14.78.52.92h0Z" style="fill: #322e2b;"/>
  <path d="M156.81,80.5c-3.66,2.48-5.85,6.86-5.53,11.28.07.96,1.57.96,1.5,0-.28-3.88,1.55-7.79,4.78-9.98.79-.54.05-1.84-.76-1.3h0Z" style="fill: #322e2b;"/>
  <path d="M148.25,99.24c3.38.65,6.23,3.24,7.15,6.57.26.93,1.7.53,1.45-.4-1.05-3.8-4.32-6.87-8.2-7.61-.4-.08-.81.11-.92.52-.1.37.12.85.52.92h0Z" style="fill: #322e2b;"/>
  <path d="M166.42,109.49c-4.04.91-7.59,3.65-9.49,7.32-.44.86.85,1.62,1.3.76,1.73-3.36,4.91-5.8,8.59-6.63.94-.21.54-1.66-.4-1.45h0Z" style="fill: #322e2b;"/>
  <path d="M164.46,134.4c-5.29,2.07-8.97,7.41-8.89,13.12.01.96,1.51.97,1.5,0-.07-4.99,3.12-9.85,7.79-11.67.89-.35.5-1.8-.4-1.45h0Z" style="fill: #322e2b;"/>
  <g>
    <path d="M105.84,52.15c-.02-1.26-.04-2.51-.05-3.77-3.36.09-6.71.11-10.05.13,0-4.69.05-8.98.05-9.79-1.26.02-2.51.04-3.77.05.08,3.27.11,6.51.13,9.76-3.25.02-6.51.05-9.78.14,0,1.29,0,2.58,0,3.86,0-.31,4.64-.41,9.81-.44.02,3.36.05,6.71.14,10.09,1.29,0,2.58,0,3.86,0-.31,0-.42-4.82-.44-10.1,4.81,0,9.27.05,10.1.05Z" style="fill: #322e2b;"/>
    <path d="M106.59,52.15c-.02-1.26-.04-2.51-.05-3.77,0-.4-.34-.76-.75-.75-3.35.08-6.7.11-10.05.13l.75.75c0-3.26.05-6.52.05-9.79,0-.4-.34-.76-.75-.75-1.26.02-2.51.04-3.77.05-.4,0-.76.34-.75.75.08,3.25.11,6.51.13,9.76l.75-.75c-3.26.02-6.52.05-9.78.14-.41.01-.75.33-.75.75,0,1.29,0,2.58,0,3.86,0,.88,1.19.97,1.47.2-.08.23-.53.33-.29.41.05.02.2-.05.25-.04.2.01.43-.04.63-.06.73-.06,1.46-.08,2.2-.11,2.1-.07,4.21-.09,6.31-.1l-.75-.75c.02,3.36.05,6.73.14,10.09.01.41.33.75.75.75,1.29,0,2.58,0,3.86,0,.88,0,.97-1.19.2-1.47.74.27.37.59.37.05,0-.23-.05-.48-.06-.71-.05-.74-.08-1.48-.1-2.23-.07-2.16-.08-4.33-.1-6.49l-.75.75c3.37,0,6.73.05,10.1.05.97,0,.97-1.5,0-1.5-3.37,0-6.73-.05-10.1-.05-.4,0-.75.34-.75.75.01,2.55.02,5.11.14,7.66.04.84-.17,2.8.85,3.17l.2-1.47c-1.29,0-2.58,0-3.86,0l.75.75c-.09-3.36-.12-6.72-.14-10.09,0-.4-.34-.75-.75-.75-2.49.01-4.98.02-7.46.14-.84.04-2.71-.16-3.08.85l1.47.2c0-1.29,0-2.58,0-3.86l-.75.75c3.26-.09,6.52-.12,9.78-.14.4,0,.75-.34.75-.75-.02-3.25-.05-6.51-.13-9.76l-.75.75c1.26-.02,2.51-.04,3.77-.05l-.75-.75c0,3.26-.05,6.52-.05,9.79,0,.4.34.75.75.75,3.35-.02,6.7-.05,10.05-.13l-.75-.75c.02,1.26.04,2.51.05,3.77.01.96,1.51.97,1.5,0Z" style="fill: #322e2b;"/>
  </g>
  <g>
    <path d="M245.26,62.89c-.02-1.26-.04-2.51-.05-3.77-3.36.09-6.71.11-10.05.13,0-4.69.05-8.98.05-9.79-1.26.02-2.51.04-3.77.05.08,3.27.11,6.51.13,9.76-3.25.02-6.51.05-9.78.14,0,1.29,0,2.58,0,3.86,0-.31,4.64-.41,9.81-.44.02,3.36.05,6.71.14,10.09,1.29,0,2.58,0,3.86,0-.31,0-.42-4.82-.44-10.1,4.81,0,9.27.05,10.1.05Z" style="fill: #f7931e;"/>
    <path d="M246.01,62.89c-.02-1.26-.04-2.51-.05-3.77,0-.4-.34-.76-.75-.75-3.35.08-6.7.11-10.05.13l.75.75c0-3.26.05-6.52.05-9.79,0-.4-.34-.76-.75-.75-1.26.02-2.51.04-3.77.05-.4,0-.76.34-.75.75.08,3.25.11,6.51.13,9.76l.75-.75c-3.26.02-6.52.05-9.78.14-.41.01-.75.33-.75.75,0,1.29,0,2.58,0,3.86,0,.88,1.19.97,1.47.2-.08.23-.53.33-.29.41.05.02.2-.05.25-.04.2.01.43-.04.63-.06.73-.06,1.46-.08,2.2-.11,2.1-.07,4.21-.09,6.31-.1l-.75-.75c.02,3.36.05,6.73.14,10.09.01.41.33.75.75.75,1.29,0,2.58,0,3.86,0,.88,0,.97-1.19.2-1.47.74.27.37.59.37.05,0-.23-.05-.48-.06-.71-.05-.74-.08-1.48-.1-2.23-.07-2.16-.08-4.33-.1-6.49l-.75.75c3.37,0,6.73.05,10.1.05.97,0,.97-1.5,0-1.5-3.37,0-6.73-.05-10.1-.05-.4,0-.75.34-.75.75.01,2.55.02,5.11.14,7.66.04.84-.17,2.8.85,3.17l.2-1.47c-1.29,0-2.58,0-3.86,0l.75.75c-.09-3.36-.12-6.72-.14-10.09,0-.4-.34-.75-.75-.75-2.49.01-4.98.02-7.46.14-.83.04-2.71-.16-3.08.85l1.47.2c0-1.29,0-2.58,0-3.86l-.75.75c3.26-.09,6.52-.12,9.78-.14.4,0,.75-.34.75-.75-.02-3.25-.05-6.51-.13-9.76l-.75.75c1.26-.02,2.51-.04,3.77-.05l-.75-.75c0,3.26-.05,6.52-.05,9.79,0,.4.34.75.75.75,3.35-.02,6.7-.05,10.05-.13l-.75-.75c.02,1.26.04,2.51.05,3.77.01.96,1.51.97,1.5,0Z" style="fill: #f7931e;"/>
  </g>
  <g>
    <path d="M77.26,131.23c2.9-.24,5.53-2.65,4.87-6.35-.48-2.7-3.07-4.86-5.81-4.85-4.72.02-6.86,5.38-4.03,9.02,1.3,1.67,3.19,2.33,4.97,2.18Z" style="fill: #f7931e;"/>
    <path d="M77.26,131.98c2.55-.24,4.87-1.86,5.53-4.42.73-2.84-.63-5.82-3.1-7.32-2.25-1.37-5.21-1.28-7.26.42-1.78,1.47-2.48,3.93-2,6.15.67,3.15,3.63,5.39,6.83,5.17.96-.07.96-1.57,0-1.5-2.27.16-4.39-1.14-5.17-3.31-.58-1.6-.35-3.48.75-4.8,1.25-1.5,3.33-1.94,5.14-1.3,2.15.76,3.59,2.88,3.5,5.16s-1.97,4.04-4.22,4.25c-.95.09-.96,1.59,0,1.5Z" style="fill: #f7931e;"/>
  </g>
  <g>
    <path d="M189.81,59.56c-.24-1.35-1.53-2.43-2.9-2.43-2.36,0-3.43,2.69-2.02,4.51.65.84,1.59,1.17,2.48,1.09,1.45-.12,2.76-1.32,2.44-3.17" style="fill: #f7931e;"/>
    <path d="M190.53,59.36c-.3-1.58-1.71-2.76-3.27-2.95-1.33-.16-2.68.53-3.32,1.71s-.57,2.61.16,3.71c.89,1.35,2.59,2.02,4.15,1.5.76-.25,1.41-.73,1.85-1.39.5-.76.58-1.68.44-2.57-.07-.4-.56-.62-.92-.52-.42.12-.59.52-.52.92.01.09.02.2.02.35,0,.07,0,.13,0,.2,0,.23.03-.11-.01.11-.02.12-.05.24-.09.36-.02.04-.03.09-.05.14.06-.13-.07.11-.08.14-.03.05-.06.1-.09.15-.02.03-.11.14-.03.04-.07.09-.15.17-.24.25-.01.01-.18.15-.06.06-.04.03-.07.05-.11.08-.11.08-.23.14-.36.2-.19.1.13-.03-.07.03-.05.02-.11.04-.16.05-.12.04-.24.06-.37.08.03,0,.14,0,0,0-.08,0-.16.01-.24.01-.05,0-.11,0-.16,0-.05,0-.11,0-.16-.01.07,0,.06,0-.04,0-.54-.12-.94-.33-1.3-.78.07.08-.07-.1-.07-.09-.03-.05-.06-.1-.09-.15-.06-.11-.12-.22-.17-.33.06.14-.05-.15-.06-.19s-.02-.08-.03-.13c0-.03-.05-.31-.03-.12-.03-.21-.02-.42,0-.63s-.04.15,0-.05c0-.04.02-.08.03-.12.03-.12.07-.24.11-.35.06-.19-.07.13.02-.05.02-.04.05-.09.07-.14.05-.1.12-.19.18-.28-.1.14.08-.09.12-.13.03-.03.06-.06.09-.09.03-.02.23-.18.09-.08.09-.06.17-.12.26-.17.06-.03.11-.06.17-.09-.03.01-.13.04,0,0,.11-.03.21-.07.32-.09.07-.02.13-.03.2-.04-.16.02.05,0,.08,0,.15,0,.31,0,.46.01-.14-.02.11.03.11.03.08.02.15.04.23.06.15.05.16.05.33.14.07.04.14.08.2.12,0,0,.2.13.1.07.26.2.46.43.59.64.17.27.24.44.31.8.08.4.55.63.92.52.42-.11.6-.52.52-.92h0Z" style="fill: #f7931e;"/>
  </g>
  <g>
    <path d="M79.38,89.4c-.24-1.35-1.53-2.43-2.9-2.43-2.36,0-3.43,2.69-2.02,4.51.65.84,1.59,1.17,2.48,1.09,1.45-.12,2.76-1.32,2.44-3.17" style="fill: #29abe2;"/>
    <path d="M80.1,89.2c-.3-1.58-1.71-2.76-3.27-2.95-1.33-.16-2.68.53-3.32,1.71s-.57,2.61.16,3.71c.89,1.35,2.59,2.02,4.15,1.5.76-.25,1.41-.73,1.85-1.39.51-.76.58-1.68.44-2.57-.07-.4-.56-.62-.92-.52-.42.12-.59.52-.52.92.01.09.02.2.02.35,0,.07,0,.13,0,.2,0,.23.03-.11-.01.11-.02.12-.05.24-.09.36-.02.04-.03.09-.05.14.06-.13-.07.11-.08.14-.03.05-.06.1-.09.15-.02.03-.11.14-.03.04-.07.09-.15.17-.24.25-.01.01-.18.15-.06.06-.04.03-.07.05-.11.08-.11.08-.23.14-.36.2-.19.1.13-.03-.07.03-.05.02-.11.04-.16.05-.12.04-.24.06-.37.08.03,0,.14,0,0,0-.08,0-.16.01-.24.01-.05,0-.11,0-.16,0-.05,0-.11,0-.16-.01.07,0,.06,0-.04,0-.54-.12-.94-.33-1.3-.78.07.08-.07-.1-.07-.09-.03-.05-.06-.1-.09-.15-.06-.11-.12-.22-.17-.33.06.14-.05-.15-.06-.19s-.02-.08-.03-.13c0-.03-.05-.31-.03-.12-.03-.21-.02-.42,0-.63s-.04.15,0-.05c0-.04.02-.08.03-.12.03-.12.07-.24.11-.35.06-.19-.07.13.02-.05.02-.04.05-.09.07-.14.05-.1.12-.19.18-.28-.1.14.08-.09.12-.13.03-.03.06-.06.09-.09.03-.02.23-.18.09-.08.09-.06.17-.12.26-.17.06-.03.11-.06.17-.09-.03.01-.13.04,0,0,.11-.03.21-.07.32-.09.07-.02.13-.03.2-.04-.16.02.05,0,.08,0,.15,0,.31,0,.46.01-.14-.02.11.03.11.03.08.02.15.04.23.06.15.05.16.05.33.14.07.04.14.08.2.12,0,0,.2.13.1.07.26.2.46.43.59.64.17.27.24.44.31.8.08.4.55.63.92.52.42-.11.6-.52.52-.92h0Z" style="fill: #29abe2;"/>
  </g>
  <g>
    <path d="M248.6,31.34c2.9-.24,5.53-2.65,4.87-6.35-.48-2.7-3.07-4.86-5.81-4.85-4.72.02-6.86,5.38-4.03,9.02,1.3,1.67,3.19,2.33,4.97,2.18Z" style="fill: #29abe2;"/>
    <path d="M248.6,32.09c2.55-.24,4.87-1.86,5.53-4.42.73-2.84-.63-5.82-3.1-7.32-2.25-1.37-5.21-1.28-7.26.42-1.78,1.47-2.48,3.93-2,6.15.67,3.15,3.63,5.39,6.83,5.17.96-.07.96-1.57,0-1.5-2.27.16-4.39-1.14-5.17-3.31-.58-1.6-.35-3.48.75-4.8,1.25-1.5,3.33-1.94,5.14-1.3,2.15.76,3.59,2.88,3.5,5.16s-1.97,4.04-4.22,4.25c-.95.09-.96,1.59,0,1.5Z" style="fill: #29abe2;"/>
  </g>
  <g>
    <path d="M58.9,181.41c-.02-1.26-.04-2.51-.05-3.77-3.36.09-6.71.11-10.05.13,0-4.69.05-8.98.05-9.79-1.26.02-2.51.04-3.77.05.08,3.27.11,6.51.13,9.76-3.25.02-6.51.05-9.78.14,0,1.29,0,2.58,0,3.86,0-.31,4.64-.41,9.81-.44.02,3.36.05,6.71.14,10.09,1.29,0,2.58,0,3.86,0-.31,0-.42-4.82-.44-10.1,4.81,0,9.27.05,10.1.05Z" style="fill: #22b573;"/>
    <path d="M59.65,181.41c-.02-1.26-.04-2.51-.05-3.77,0-.4-.34-.76-.75-.75-3.35.08-6.7.11-10.05.13l.75.75c0-3.26.05-6.52.05-9.79,0-.4-.34-.76-.75-.75-1.26.02-2.51.04-3.77.05-.4,0-.76.34-.75.75.08,3.25.11,6.51.13,9.76l.75-.75c-3.26.02-6.52.05-9.78.14-.41.01-.75.33-.75.75,0,1.29,0,2.58,0,3.86,0,.88,1.19.97,1.47.2-.08.23-.53.33-.29.41.05.02.2-.05.25-.04.2.01.43-.04.63-.06.73-.06,1.46-.08,2.2-.11,2.1-.07,4.21-.09,6.31-.1l-.75-.75c.02,3.36.05,6.73.14,10.09.01.41.33.75.75.75,1.29,0,2.58,0,3.86,0,.88,0,.97-1.19.2-1.47.74.27.37.59.37.05,0-.23-.05-.48-.06-.71-.05-.74-.08-1.48-.1-2.23-.07-2.16-.08-4.33-.1-6.49l-.75.75c3.37,0,6.73.05,10.1.05.97,0,.97-1.5,0-1.5-3.37,0-6.73-.05-10.1-.05-.4,0-.75.34-.75.75.01,2.55.02,5.11.14,7.66.04.84-.17,2.8.85,3.17l.2-1.47c-1.29,0-2.58,0-3.86,0l.75.75c-.09-3.36-.12-6.72-.14-10.09,0-.4-.34-.75-.75-.75-2.49.01-4.98.02-7.46.14-.83.04-2.71-.16-3.08.85l1.47.2c0-1.29,0-2.58,0-3.86l-.75.75c3.26-.09,6.52-.12,9.78-.14.4,0,.75-.34.75-.75-.02-3.25-.05-6.51-.13-9.76l-.75.75c1.26-.02,2.51-.04,3.77-.05l-.75-.75c0,3.26-.05,6.52-.05,9.79,0,.4.34.75.75.75,3.35-.02,6.7-.05,10.05-.13l-.75-.75c.02,1.26.04,2.51.05,3.77.01.96,1.51.97,1.5,0Z" style="fill: #22b573;"/>
  </g>
  <g>
    <g>
      <path d="M60.85,77.59c-2.64.13-3.13-3.44-2.89-5.36-.6,1.35-1.25,2.77-2.44,3.65-1.19.88-3.1.97-4-.21-.67-.88-.56-2.16-.02-3.12s1.41-1.68,2.27-2.37c-1.08-.22-2.2.06-3.3.12-1.1.06-2.36-.17-2.98-1.08-.9-1.32.18-3.24,1.67-3.8s3.15-.18,4.7.21c-1.54-2.18-3.95-2.55-3.67-5.8.05-.58.23-1.19.7-1.53.67-.48,1.62-.19,2.33.23,1.39.81,2.52,2.06,3.2,3.52-.67-1.34-2.12-9.05,1.26-7.98.53.17.87.67,1.13,1.15.9,1.63,1.43,3.46,1.56,5.32.49-1.38,1.02-2.82,2.07-3.84,1.05-1.02,2.8-1.49,4.01-.67,1.03.71,1.36,2.13,1.12,3.36-.24,1.23-.95,2.31-1.64,3.35.92-1.15,2.78-1.39,3.97-.52,1.19.87,1.51,2.72.7,3.94-.82,1.23-2.65,1.63-3.91.87,1.43.4,2.51,1.84,2.46,3.32s-1.23,2.86-2.69,3.12-3.05-.65-3.56-2.04c.31,1.21.62,2.46.39,3.68-.24,1.22-1.19,2.4-2.44,2.46Z" style="fill: #29abe2;"/>
      <path d="M60.85,76.84c-2.16.02-2.32-3.04-2.14-4.61.08-.73-1.1-1.04-1.4-.38-.76,1.7-1.97,4.4-4.31,3.89-1.17-.26-1.4-1.5-1.02-2.5.41-1.08,1.44-1.85,2.31-2.55.42-.34.2-1.17-.33-1.25-1.24-.2-2.39.06-3.63.1-.94.03-2.39-.19-2.43-1.4-.03-.99.87-1.84,1.75-2.1,1.3-.39,2.72,0,4,.31.58.14,1.26-.54.85-1.1-.61-.84-1.36-1.49-2.12-2.18-.67-.6-1.27-1.24-1.43-2.15-.09-.54-.13-1.32.18-1.78.48-.69,1.39-.16,1.94.18,1.19.75,2.08,1.85,2.69,3.1.43.87,1.71.11,1.3-.76-.7-1.46-.95-3.88-.74-5.57.07-.55.2-1.49.94-1.37.87.14,1.38,1.78,1.64,2.48.39,1.07.63,2.19.72,3.33.07.85,1.18,1.01,1.47.2.64-1.79,1.94-5.05,4.48-4.3,1.03.3,1.41,1.49,1.32,2.46-.12,1.29-.91,2.42-1.61,3.47-.47.71.61,1.55,1.18.91,1.17-1.32,3.42-.98,3.79.87s-1.6,3.11-3.18,2.25l-.58,1.37c1.71.55,2.5,2.61,1.34,4.06s-3.48,1.15-4.2-.58c-.36-.86-1.69-.57-1.45.4.39,1.51,1.1,4.92-1.33,5.19-.95.11-.96,1.61,0,1.5,1.36-.15,2.39-.98,2.91-2.24.66-1.56.26-3.28-.14-4.85l-1.45.4c1.13,2.69,4.68,3.58,6.69,1.27s.82-5.69-1.98-6.6c-.81-.26-1.33.97-.58,1.37,2.64,1.42,5.93-.65,5.43-3.7s-4.33-4.04-6.34-1.77l1.18.91c.93-1.41,1.91-2.98,1.81-4.74-.08-1.41-.81-2.81-2.19-3.32s-2.9-.04-4,.84c-1.36,1.1-1.99,2.83-2.56,4.42l1.47.2c-.11-1.38-.38-2.74-.89-4.03-.4-1.03-.91-2.4-1.93-2.98-1.22-.7-2.6-.17-3.14,1.08s-.44,2.86-.27,4.22c.15,1.2.34,2.49.87,3.6l1.3-.76c-.78-1.59-2.03-3.01-3.6-3.85-1.44-.77-3.28-.69-3.86,1.08-.44,1.34-.19,2.97.64,4.1s2.12,1.87,2.97,3.02l.85-1.1c-1.67-.41-3.52-.84-5.19-.17-1.24.49-2.23,1.65-2.42,2.99s.58,2.49,1.79,2.99c1.75.73,3.53-.1,5.33.19l-.33-1.25c-1.23,1-2.51,2.12-2.85,3.75-.29,1.42.23,2.93,1.58,3.58,1.2.58,2.72.35,3.82-.37,1.4-.93,2.15-2.5,2.81-3.98l-1.4-.38c-.28,2.49.53,6.14,3.64,6.11.96,0,.97-1.51,0-1.5Z" style="fill: #29abe2;"/>
    </g>
    <g>
      <path d="M54.76,69.47c1.07,2,3.47,3.23,5.71,2.86,1.46-.24,2.76-1.09,3.8-2.15,1.15-1.18,2.02-2.67,2.22-4.3.48-3.8-2.81-5.41-6.2-5.07-4.18.42-7.74,4.52-5.53,8.67Z" style="fill: #322e2b;"/>
      <path d="M54.11,69.85c1.43,2.57,4.62,3.94,7.44,2.98s5.32-3.89,5.68-6.95c.3-2.6-1.19-4.75-3.66-5.52s-5.47-.24-7.56,1.39c-2.53,1.97-3.39,5.21-1.9,8.1.44.86,1.74.1,1.3-.76-1.04-2.01-.55-4.22,1.06-5.77,1.51-1.44,3.68-2.05,5.73-1.75,1.8.26,3.48,1.35,3.58,3.32.13,2.45-1.58,4.82-3.63,6.02-2.38,1.4-5.39.61-6.74-1.82-.47-.84-1.76-.09-1.3.76Z" style="fill: #322e2b;"/>
    </g>
    <path d="M61.64,63.88c.97,0,.97-1.5,0-1.5s-.97,1.5,0,1.5h0Z" style="fill: #fff;"/>
    <path d="M58.16,62.92h-.13c-.1,0-.2.02-.29.06-.09.03-.17.08-.24.16-.07.07-.12.15-.16.24-.05.09-.07.19-.06.29l.03.2c.04.13.1.24.19.33l.15.12c.12.07.24.1.38.1h.13c.1,0,.2-.02.29-.06.09-.03.17-.08.24-.16.07-.07.12-.15.16-.24.05-.09.07-.19.06-.29l-.03-.2c-.04-.13-.1-.24-.19-.33l-.15-.12c-.12-.07-.24-.1-.38-.1h0Z" style="fill: #fff;"/>
    <path d="M56.82,68.3c.97,0,.97-1.5,0-1.5s-.97,1.5,0,1.5h0Z" style="fill: #fff;"/>
    <path d="M60.04,70.58c.97,0,.97-1.5,0-1.5s-.97,1.5,0,1.5h0Z" style="fill: #fff;"/>
    <path d="M63.65,67.5c.97,0,.97-1.5,0-1.5s-.97,1.5,0,1.5h0Z" style="fill: #fff;"/>
    <path d="M60.44,66.83c.97,0,.97-1.5,0-1.5s-.97,1.5,0,1.5h0Z" style="fill: #fff;"/>
  </g>
  <g>
    <g>
      <path d="M277.96,62.27c-2.64.13-3.13-3.44-2.89-5.36-.6,1.35-1.25,2.77-2.44,3.65-1.19.88-3.1.97-4-.21-.67-.88-.56-2.16-.02-3.12.53-.96,1.41-1.68,2.27-2.37-1.08-.22-2.2.06-3.3.12-1.1.06-2.36-.17-2.98-1.08-.9-1.32.18-3.24,1.67-3.8,1.49-.56,3.15-.18,4.7.21-1.54-2.18-3.95-2.55-3.67-5.8.05-.58.23-1.19.7-1.53.67-.48,1.62-.19,2.33.23,1.39.81,2.52,2.06,3.2,3.52-.67-1.34-2.12-9.05,1.26-7.98.53.17.87.67,1.13,1.15.9,1.63,1.43,3.46,1.56,5.32.49-1.38,1.02-2.82,2.07-3.84s2.8-1.49,4.01-.67c1.03.71,1.36,2.13,1.12,3.36-.24,1.23-.95,2.31-1.64,3.35.92-1.15,2.78-1.39,3.97-.52,1.19.87,1.51,2.72.7,3.94-.82,1.23-2.65,1.63-3.91.87,1.43.4,2.51,1.84,2.46,3.32-.05,1.49-1.23,2.86-2.69,3.12-1.46.26-3.05-.65-3.56-2.04.31,1.21.62,2.46.39,3.68-.24,1.22-1.19,2.4-2.44,2.46Z" style="fill: #f7931e;"/>
      <path d="M277.96,61.52c-2.16.02-2.32-3.04-2.14-4.61.08-.73-1.1-1.04-1.4-.38-.76,1.7-1.97,4.4-4.31,3.89-1.17-.26-1.4-1.5-1.02-2.5.41-1.08,1.44-1.85,2.31-2.55.42-.34.2-1.17-.33-1.25-1.24-.2-2.39.06-3.63.1-.94.03-2.39-.19-2.43-1.4-.03-.99.87-1.84,1.75-2.1,1.3-.39,2.72,0,4,.31.58.14,1.26-.54.85-1.1-.61-.84-1.36-1.49-2.12-2.18-.67-.6-1.27-1.24-1.43-2.15-.09-.54-.13-1.32.18-1.78.48-.69,1.39-.16,1.94.18,1.19.75,2.08,1.85,2.69,3.1.43.87,1.71.11,1.3-.76-.7-1.46-.95-3.88-.74-5.57.07-.55.2-1.49.94-1.37.87.14,1.38,1.78,1.64,2.48.39,1.07.63,2.19.72,3.33.07.85,1.18,1.01,1.47.2.64-1.79,1.94-5.05,4.48-4.3,1.03.3,1.41,1.49,1.32,2.46-.12,1.29-.91,2.42-1.61,3.47-.47.71.61,1.55,1.18.91,1.17-1.32,3.42-.98,3.79.87s-1.6,3.11-3.18,2.25l-.58,1.37c1.71.55,2.5,2.61,1.34,4.06s-3.48,1.15-4.2-.58c-.36-.86-1.69-.57-1.45.4.39,1.51,1.1,4.92-1.33,5.19-.95.11-.96,1.61,0,1.5,1.36-.15,2.39-.98,2.91-2.24.66-1.56.26-3.28-.14-4.85l-1.45.4c1.13,2.69,4.68,3.58,6.69,1.27s.82-5.69-1.98-6.6c-.81-.26-1.33.97-.58,1.37,2.64,1.42,5.93-.65,5.43-3.7s-4.33-4.04-6.34-1.77l1.18.91c.93-1.41,1.91-2.98,1.81-4.74-.08-1.41-.81-2.81-2.19-3.32s-2.9-.04-4,.84c-1.36,1.1-1.99,2.83-2.56,4.42l1.47.2c-.11-1.38-.38-2.74-.89-4.03-.4-1.03-.91-2.4-1.93-2.98-1.22-.7-2.6-.17-3.14,1.08s-.44,2.86-.27,4.22c.15,1.2.34,2.49.87,3.6l1.3-.76c-.78-1.59-2.03-3.01-3.6-3.85-1.44-.77-3.28-.69-3.86,1.08-.44,1.34-.19,2.97.64,4.1s2.12,1.87,2.97,3.02l.85-1.1c-1.67-.41-3.52-.84-5.19-.17-1.24.49-2.23,1.65-2.42,2.99s.58,2.49,1.79,2.99c1.75.73,3.53-.1,5.33.19l-.33-1.25c-1.23,1-2.51,2.12-2.85,3.75-.29,1.42.23,2.93,1.58,3.58,1.2.58,2.72.35,3.82-.37,1.4-.93,2.15-2.5,2.81-3.98l-1.4-.38c-.28,2.49.53,6.14,3.64,6.11.96,0,.97-1.51,0-1.5Z" style="fill: #f7931e;"/>
    </g>
    <g>
      <path d="M271.87,54.16c1.07,2,3.47,3.23,5.71,2.86,1.46-.24,2.76-1.09,3.8-2.15,1.15-1.18,2.02-2.67,2.22-4.3.48-3.8-2.81-5.41-6.2-5.07-4.18.42-7.74,4.52-5.53,8.67Z" style="fill: #322e2b;"/>
      <path d="M271.22,54.53c1.43,2.57,4.62,3.94,7.44,2.98s5.32-3.89,5.68-6.95c.3-2.6-1.19-4.75-3.66-5.52s-5.47-.24-7.56,1.39c-2.53,1.97-3.39,5.21-1.9,8.1.44.86,1.74.1,1.3-.76-1.04-2.01-.55-4.22,1.06-5.77,1.51-1.44,3.68-2.05,5.73-1.75,1.8.26,3.48,1.35,3.58,3.32.13,2.45-1.58,4.82-3.63,6.02-2.38,1.4-5.39.61-6.74-1.82-.47-.84-1.76-.09-1.3.76Z" style="fill: #322e2b;"/>
    </g>
    <path d="M278.75,48.57c.97,0,.97-1.5,0-1.5s-.97,1.5,0,1.5h0Z" style="fill: #fff;"/>
    <path d="M275.27,47.6h-.13c-.1,0-.2.02-.29.06-.09.03-.17.08-.24.16-.07.07-.12.15-.16.24-.05.09-.07.19-.06.29l.03.2c.04.13.1.24.19.33l.15.12c.12.07.24.1.38.1h.13c.1,0,.2-.02.29-.06.09-.03.17-.08.24-.16.07-.07.12-.15.16-.24.05-.09.07-.19.06-.29l-.03-.2c-.04-.13-.1-.24-.19-.33l-.15-.12c-.12-.07-.24-.1-.38-.1h0Z" style="fill: #fff;"/>
    <path d="M273.93,52.98c.97,0,.97-1.5,0-1.5s-.97,1.5,0,1.5h0Z" style="fill: #fff;"/>
    <path d="M277.15,55.26c.97,0,.97-1.5,0-1.5s-.97,1.5,0,1.5h0Z" style="fill: #fff;"/>
    <path d="M280.76,52.18c.97,0,.97-1.5,0-1.5s-.97,1.5,0,1.5h0Z" style="fill: #fff;"/>
    <path d="M277.55,51.51c.97,0,.97-1.5,0-1.5s-.97,1.5,0,1.5h0Z" style="fill: #fff;"/>
  </g>
  <g>
    <path d="M85.56,224.15c2.9-.24,5.53-2.65,4.87-6.35-.48-2.7-3.07-4.86-5.81-4.85-4.72.02-6.86,5.38-4.03,9.02,1.3,1.67,3.19,2.33,4.97,2.18Z" style="fill: #29abe2;"/>
    <path d="M85.56,224.9c2.55-.24,4.87-1.86,5.53-4.42.73-2.84-.63-5.82-3.1-7.32-2.25-1.37-5.21-1.28-7.26.42-1.78,1.47-2.48,3.93-2,6.15.67,3.15,3.63,5.39,6.83,5.17.96-.07.96-1.57,0-1.5-2.27.16-4.39-1.14-5.17-3.31-.58-1.6-.35-3.48.75-4.8,1.25-1.5,3.33-1.94,5.14-1.3,2.15.76,3.59,2.88,3.5,5.16s-1.97,4.04-4.22,4.25c-.95.09-.96,1.59,0,1.5Z" style="fill: #29abe2;"/>
  </g>
  <g>
    <path d="M297.03,80.77c-.24-1.35-1.53-2.43-2.9-2.43-2.36,0-3.43,2.69-2.02,4.51.65.84,1.59,1.17,2.48,1.09,1.45-.12,2.76-1.32,2.44-3.17" style="fill: #322e2b;"/>
    <path d="M297.75,80.57c-.3-1.58-1.71-2.76-3.27-2.95-1.33-.16-2.68.53-3.32,1.71s-.57,2.61.16,3.71c.89,1.35,2.59,2.02,4.15,1.5.76-.25,1.41-.73,1.85-1.39.51-.76.58-1.68.44-2.57-.07-.4-.56-.62-.92-.52-.42.12-.59.52-.52.92.01.09.02.2.02.35,0,.07,0,.13,0,.2,0,.23.03-.11-.01.11-.02.12-.05.24-.09.36-.02.04-.03.09-.05.14.06-.13-.07.11-.08.14-.03.05-.06.1-.09.15-.02.03-.11.14-.03.04-.07.09-.15.17-.24.25-.01.01-.18.15-.06.06-.04.03-.07.05-.11.08-.11.08-.23.14-.36.2-.19.1.13-.03-.07.03-.05.02-.11.04-.16.05-.12.04-.24.06-.37.08.03,0,.14,0,0,0-.08,0-.16.01-.24.01-.05,0-.11,0-.16,0-.05,0-.11,0-.16-.01.07,0,.06,0-.04,0-.54-.12-.94-.33-1.3-.78.07.08-.07-.1-.07-.09-.03-.05-.06-.1-.09-.15-.06-.11-.12-.22-.17-.33.06.14-.05-.15-.06-.19s-.02-.08-.03-.13c0-.03-.05-.31-.03-.12-.03-.21-.02-.42,0-.63s-.04.15,0-.05c0-.04.02-.08.03-.12.03-.12.07-.24.11-.35.06-.19-.07.13.02-.05.02-.04.05-.09.07-.14.05-.1.12-.19.18-.28-.1.14.08-.09.12-.13.03-.03.06-.06.09-.09.03-.02.23-.18.09-.08.09-.06.17-.12.26-.17.06-.03.11-.06.17-.09-.03.01-.13.04,0,0,.11-.03.21-.07.32-.09.07-.02.13-.03.2-.04-.16.02.05,0,.08,0,.15,0,.31,0,.46.01-.14-.02.11.03.11.03.08.02.15.04.23.06.15.05.16.05.33.14.07.04.14.08.2.12,0,0,.2.13.1.07.26.2.46.43.59.64.17.27.24.44.31.8.08.4.55.63.92.52.42-.11.6-.52.52-.92h0Z" style="fill: #322e2b;"/>
  </g>
  <g>
    <path d="M46.45,129.37c-5.41.55-10.85.85-16.29.9-3.3.03-8.85.5-11.56-1.83-3.06-2.63-2.56-7.99.69-10.2,2.18-1.49,5.29-1.45,7.44.08-.45-3.1.32-6.46,2.46-8.76,2.14-2.29,5.72-3.29,8.58-2.02,2.86,1.28,4.52,4.98,3.2,7.82,1.41-.63,3.2-.24,4.22.92,1.02,1.16,1.17,2.99.36,4.31,1.73-1.12,4.01-1.5,5.9-.67,1.89.83,3.2,2.99,2.75,5-.7,3.12-4.57,4.13-7.75,4.45Z" style="fill: #fff;"/>
    <path d="M46.45,128.62c-6.77.68-13.64,1.06-20.45.95-2.43-.04-5.51-.17-7.29-2.07-1.65-1.76-1.8-4.59-.71-6.68,1.6-3.06,5.58-3.74,8.36-1.86.44.29,1.2-.09,1.13-.65-.59-4.46,1.4-9.42,6.19-10.44,2.01-.43,4.15.09,5.55,1.65,1.3,1.44,1.9,3.63,1.11,5.46-.22.52.16,1.38.85,1.1,2.61-1.05,5.16,1.58,3.73,4.13-.36.64.37,1.43,1.03,1.03,1.54-.95,3.5-1.39,5.22-.63,1.53.68,2.67,2.41,2.33,4.12-.6,2.94-4.56,3.64-7.03,3.9-.95.1-.96,1.6,0,1.5,3.43-.37,8.57-1.63,8.59-5.99,0-2.06-1.36-4.01-3.21-4.86-2.16-.99-4.69-.54-6.66.67l1.03,1.03c.93-1.64.81-3.78-.47-5.21s-3.27-1.79-4.95-1.12l.85,1.1c.98-2.26.57-4.79-.9-6.75s-3.96-2.97-6.45-2.72c-5.93.61-9,6.55-8.28,12.04l1.13-.65c-2.7-1.83-6.54-1.69-8.98.54-2,1.83-2.75,4.85-2.08,7.44,1.68,6.49,10.11,5.43,15.22,5.36s10.13-.38,15.17-.89c.95-.1.96-1.6,0-1.5Z" style="fill: #322e2b;"/>
  </g>
  <g>
    <path d="M208.66,32.31c-5.38.55-10.79.85-16.2.89-3.28.03-8.81.49-11.5-1.82-3.05-2.62-2.55-7.95.68-10.15,2.17-1.48,5.27-1.45,7.41.08-.45-3.09.32-6.43,2.45-8.71s5.69-3.27,8.54-2.01c2.85,1.27,4.5,4.95,3.19,7.78,1.4-.63,3.19-.24,4.2.92,1.01,1.15,1.16,2.98.35,4.28,1.72-1.11,3.99-1.49,5.87-.67,1.88.82,3.18,2.98,2.73,4.98-.7,3.1-4.55,4.1-7.71,4.43Z" style="fill: #fff;"/>
    <path d="M208.66,31.56c-6.73.68-13.55,1.05-20.31.95-2.39-.04-5.43-.15-7.21-1.98s-1.87-4.65-.75-6.77c1.6-3.01,5.55-3.65,8.28-1.8.44.29,1.2-.09,1.13-.65-.59-4.44,1.4-9.38,6.16-10.39,2-.42,4.13.1,5.51,1.64,1.29,1.44,1.89,3.6,1.1,5.43-.22.52.16,1.38.85,1.1,2.59-1.04,5.13,1.57,3.71,4.1-.36.64.37,1.43,1.03,1.03,1.53-.94,3.48-1.39,5.19-.63,1.52.67,2.66,2.4,2.31,4.09-.59,2.93-4.54,3.61-6.99,3.88-.95.1-.96,1.6,0,1.5,3.42-.37,8.53-1.63,8.55-5.96,0-2.05-1.35-3.99-3.19-4.84-2.15-.99-4.66-.54-6.63.67l1.03,1.03c.92-1.64.81-3.76-.47-5.19s-3.26-1.78-4.93-1.11l.85,1.1c.98-2.25.57-4.77-.9-6.72s-3.93-2.95-6.39-2.71c-5.92.58-8.99,6.52-8.27,11.99l1.13-.65c-2.66-1.81-6.43-1.68-8.87.47-2.06,1.82-2.83,4.9-2.13,7.52,1.73,6.47,10.21,5.37,15.32,5.29s9.96-.38,14.91-.88c.95-.1.96-1.6,0-1.5Z" style="fill: #322e2b;"/>
  </g>
  <g>
    <path d="M324.25,100.31c5.38.55,10.79.85,16.2.89,3.28.03,8.81.49,11.5-1.82,3.05-2.62,2.55-7.95-.68-10.15-2.17-1.48-5.27-1.45-7.41.08.45-3.09-.32-6.43-2.45-8.71-2.13-2.28-5.69-3.28-8.54-2.01-2.85,1.27-4.5,4.95-3.19,7.78-1.4-.63-3.19-.24-4.2.92s-1.16,2.98-.35,4.28c-1.72-1.11-3.99-1.49-5.87-.67s-3.18,2.98-2.73,4.98c.7,3.1,4.55,4.1,7.71,4.43Z" style="fill: #fff;"/>
    <path d="M324.25,101.06c4.41.44,8.83.73,13.25.84,3.29.08,6.7.33,9.98-.09,2.8-.36,5.48-1.45,6.67-4.2,1.08-2.51.65-5.6-1.08-7.73-2.3-2.83-6.62-3.23-9.58-1.22l1.13.65c.72-5.47-2.36-11.4-8.27-11.99-2.47-.24-4.89.72-6.39,2.71s-1.88,4.47-.9,6.72l.85-1.1c-1.67-.67-3.71-.24-4.93,1.11-1.28,1.43-1.39,3.56-.47,5.19l1.03-1.03c-1.93-1.19-4.4-1.65-6.54-.71-1.88.83-3.31,2.79-3.28,4.88.05,4.34,5.11,5.6,8.55,5.96.96.1.95-1.4,0-1.5-2.45-.26-6.39-.95-6.99-3.88-.33-1.63.71-3.3,2.15-4.02,1.73-.87,3.78-.41,5.36.56.65.4,1.39-.39,1.03-1.03-1.42-2.53,1.11-5.14,3.71-4.1.69.28,1.07-.58.85-1.1-.77-1.78-.22-3.91,1.02-5.33,1.39-1.61,3.54-2.16,5.59-1.73,4.77.99,6.75,5.96,6.16,10.39-.07.56.69.94,1.13.65,2.41-1.64,5.93-1.4,7.78,1,1.46,1.9,1.66,4.77.36,6.8-1.42,2.22-4.34,2.59-6.76,2.71-2.88.14-5.8,0-8.68-.09-4.24-.12-8.48-.4-12.7-.83-.96-.1-.95,1.4,0,1.5Z" style="fill: #322e2b;"/>
  </g>
</svg>