<?xml version="1.0" encoding="UTF-8"?>
<svg xmlns="http://www.w3.org/2000/svg" viewBox="0 0 2222.8 2053.58">
  <g style="isolation: isolate;">
    <g id="_Ñëîé_1" data-name="Ñëîé 1">
      <g>
        <g>
          <g>
            <path d="M833.71,1296.5c-22.2-.25-44.24-1.1-65.51-2.52l.66-9.91c21.09,1.41,42.94,2.25,64.96,2.5l-.11,9.94ZM899.24,1295.59l-.38-9.93c21.28-.82,43.12-2.16,64.94-3.98l.83,9.9c-21.96,1.84-43.96,3.19-65.38,4.01ZM702.92,1287.6c-22.23-2.91-44.01-6.56-64.74-10.85l2.01-9.73c20.49,4.24,42.03,7.85,64.01,10.73l-1.29,9.85ZM1029.76,1284.72l-1.25-9.86c21.24-2.68,42.91-5.85,64.4-9.42l1.63,9.8c-21.62,3.59-43.42,6.79-64.79,9.48ZM1158.91,1263.3l-2-9.73c21.02-4.31,42.4-9.09,63.54-14.21l2.34,9.66c-21.25,5.15-42.75,9.96-63.88,14.29ZM574.47,1260.64c-21.74-6.58-42.56-14.11-61.87-22.39l3.92-9.13c18.98,8.14,39.44,15.55,60.83,22.02l-2.88,9.51ZM1286.14,1232.48l-2.67-9.57c20.74-5.79,41.74-12.05,62.44-18.59l2.99,9.47c-20.8,6.58-41.91,12.87-62.76,18.69ZM453.93,1208.18c-19.61-11.98-37.48-25.21-53.11-39.33l6.66-7.37c15.17,13.71,32.54,26.57,51.63,38.22l-5.18,8.48ZM1410.98,1193.01l-3.31-9.37c20.44-7.22,40.98-14.87,61.04-22.72l3.62,9.25c-20.16,7.9-40.8,15.58-61.35,22.84ZM1532.87,1145.24l-3.94-9.12c19.98-8.64,39.93-17.69,59.3-26.9l4.27,8.97c-19.48,9.26-39.54,18.36-59.63,27.05ZM357.06,1119.08c-12.65-18.57-22.61-38.55-29.62-59.4l9.42-3.16c6.71,19.99,16.27,39.15,28.41,56.97l-8.21,5.6ZM1651.1,1088.98l-4.6-8.81c19.36-10.11,38.58-20.63,57.11-31.25l4.94,8.62c-18.65,10.69-37.98,21.26-57.45,31.44ZM1764.7,1023.8l-5.3-8.41c18.54-11.69,36.8-23.77,54.26-35.91l5.67,8.16c-17.59,12.23-35.97,24.39-54.64,36.16ZM315.19,994.38c-.21-4.23-.32-8.54-.32-12.81,0-17.32,1.74-35.23,5.18-53.25l9.76,1.86c-3.32,17.4-5.01,34.69-5.01,51.39,0,4.1.1,8.24.3,12.31l-9.92.49ZM1872.22,948.92l-6.07-7.87c17.44-13.46,34.39-27.29,50.37-41.1l6.5,7.52c-16.12,13.94-33.22,27.88-50.8,41.45ZM347.93,868.6l-9.24-3.64c7.69-19.52,17.34-39.49,28.68-59.35l8.63,4.93c-11.1,19.45-20.55,38.98-28.07,58.06ZM1971.3,863.06l-6.96-7.09c15.82-15.53,30.85-31.38,44.65-47.11l7.47,6.55c-13.97,15.91-29.16,31.94-45.16,47.65ZM2057.63,764.2l-8.02-5.86c13.18-18.05,25.06-36.29,35.3-54.21l8.63,4.93c-10.43,18.24-22.51,36.79-35.9,55.14ZM411.28,756.31l-8.03-5.86c12.43-17.04,26.28-34.27,41.15-51.23l7.47,6.55c-14.68,16.73-28.33,33.74-40.59,50.53ZM496.51,658.65l-6.96-7.09c15.18-14.91,31.42-29.85,48.27-44.42l6.5,7.52c-16.69,14.43-32.78,29.24-47.81,44ZM2122.25,649.73l-9.24-3.65c8.21-20.79,14.32-41.51,18.17-61.58l9.76,1.87c-3.96,20.68-10.25,42-18.69,63.36ZM594.67,573.54l-6.07-7.87c16.93-13.07,34.72-26.1,52.87-38.73l5.67,8.16c-18.01,12.53-35.67,25.46-52.47,38.44ZM2135.95,520.8c-1.05-21.55-4.97-42.62-11.67-62.64l9.23-3.73.1.3c7.08,21.16,11.18,43.13,12.27,65.59l-9.92.48ZM701.4,499.18l-5.3-8.41c18.17-11.46,37.06-22.82,56.14-33.75l4.94,8.62c-18.95,10.87-37.72,22.15-55.78,33.54ZM814.29,434.38l-4.6-8.81c19.09-9.97,38.81-19.8,58.6-29.22l4.27,8.97c-19.68,9.36-39.29,19.14-58.27,29.05ZM2095.62,400.7c-11.62-17.01-25.84-33.14-42.26-47.96l6.65-7.38c17.01,15.34,31.75,32.07,43.81,49.73l-8.21,5.61ZM931.86,378.42l-3.95-9.12c19.84-8.58,40.21-16.97,60.53-24.94l3.63,9.25c-20.22,7.92-40.48,16.27-60.21,24.81ZM1053.11,330.88l-3.31-9.37c10.37-3.67,20.91-7.29,31.34-10.78,10.16-3.4,20.5-6.77,30.74-10.01l3,9.47c-10.19,3.22-20.48,6.57-30.59,9.96-10.37,3.47-20.86,7.08-31.18,10.73ZM2001.7,314.57c-17.51-10.67-36.83-20.56-57.43-29.38l3.91-9.13c21.03,9.01,40.77,19.11,58.69,30.03l-5.17,8.48ZM1177.31,291.59l-2.67-9.57c21.03-5.88,42.33-11.44,63.33-16.54l2.34,9.65c-20.89,5.07-42.09,10.6-63,16.45ZM1883.42,263.2c-19.92-6.01-41.06-11.35-62.85-15.85l2.01-9.73c22.08,4.57,43.51,9.97,63.71,16.07l-2.87,9.51ZM1303.85,260.92l-2-9.73c21.41-4.39,43.07-8.42,64.37-11.96l1.63,9.8c-21.18,3.53-42.71,7.53-64.01,11.89ZM1432.25,239.59l-1.25-9.86c21.83-2.76,43.74-5.07,65.13-6.86l.83,9.9c-21.25,1.79-43.03,4.08-64.72,6.82ZM1756.55,236.64c-20.86-2.72-42.61-4.85-64.66-6.31l.66-9.91c22.25,1.48,44.22,3.62,65.29,6.37l-1.29,9.85ZM1561.91,228.77l-.38-9.93c17.28-.67,34.58-1.01,51.43-1.01h.19c4.65,0,9.29.03,13.9.08l-.11,9.94c-4.63-.05-9.31-.12-13.96-.08-16.73,0-33.91.34-51.07,1Z" style="fill: #f0f0f0;"/>
            <path d="M1363.25,1769.39h-.09c-6.91,0-13.85-.05-20.82-.14l.14-9.94c6.95.1,13.84.05,20.78.14,21.14,0,42.39-.46,63.17-1.37l.43,9.93c-20.91.92-42.31,1.38-63.6,1.38ZM1257.9,1765.78c-27.77-1.88-56.08-4.53-84.13-7.88l1.18-9.86c27.88,3.32,56.02,5.96,83.63,7.83l-.67,9.91ZM1511.19,1761.72l-1.05-9.88c28.18-3,56.14-6.93,83.1-11.68l1.72,9.78c-27.18,4.79-55.37,8.75-83.78,11.77ZM1090.15,1745.85c-27.51-4.65-55.41-10.05-82.94-16.06l2.12-9.71c27.37,5.97,55.12,11.34,82.47,15.97l-1.66,9.8ZM1677.7,1732.14l-2.47-9.63c27.6-7.08,54.59-15.25,80.22-24.27l3.3,9.37c-25.9,9.12-53.17,17.37-81.05,24.53ZM925.12,1709.89c-13.65-3.64-27.49-7.51-41.13-11.48-13.4-3.9-26.85-7.99-40-12.15l2.99-9.47c13.07,4.13,26.46,8.2,39.78,12.08,13.57,3.95,27.33,7.79,40.91,11.42l-2.56,9.6ZM1837.18,1675.54l-4.24-8.99c25.89-12.2,50.58-25.67,73.41-40.02l5.29,8.41c-23.16,14.56-48.21,28.22-74.46,40.6ZM764.03,1658.97c-26.47-9.72-52.92-20.15-78.62-30.99l3.86-9.15c25.56,10.78,51.86,21.15,78.18,30.82l-3.43,9.33ZM608.36,1593.24c-25.5-12.26-50.81-25.23-75.23-38.54l4.76-8.72c24.27,13.23,49.42,26.12,74.78,38.31l-4.3,8.96ZM1980.16,1584.84l-6.45-7.56c21.68-18.48,41.41-38.37,58.64-59.12l7.65,6.35c-17.59,21.18-37.72,41.49-59.84,60.34ZM460.02,1512.27c-24.17-14.92-47.94-30.54-70.67-46.43l5.7-8.14c22.57,15.79,46.18,31.3,70.19,46.12l-5.22,8.45ZM2087.72,1454.11l-8.74-4.72c13.2-24.45,23.81-50.27,31.53-76.75l.36-1.25,9.55,2.75-.38,1.29c-7.91,27.13-18.79,53.61-32.32,78.68ZM321.57,1415.26c-22.35-17.81-44.01-36.28-64.36-54.91l6.71-7.33c20.19,18.48,41.67,36.8,63.85,54.46l-6.19,7.77ZM196.96,1300.91c-19.69-21-38.27-42.6-55.22-64.19l7.81-6.14c16.78,21.37,35.17,42.74,54.66,63.53l-7.25,6.8ZM2135.17,1290.26l-9.91-.68c.63-9.21.95-18.6.95-27.9,0-18.13-1.21-36.69-3.61-55.16l9.85-1.28c2.45,18.89,3.69,37.88,3.69,56.44,0,9.53-.33,19.14-.98,28.58ZM92.76,1167.57c-15.5-24.51-29.32-49.47-41.06-74.19l8.98-4.26c11.57,24.36,25.19,48.97,40.48,73.15l-8.4,5.31ZM2104.69,1125.23c-7.96-25.71-18.24-51.84-30.53-77.66l8.97-4.27c12.5,26.25,22.95,52.83,31.05,78.99l-9.49,2.94ZM20.75,1014.35c-8.56-27.76-14.67-55.68-18.17-82.99l9.85-1.26c3.42,26.74,9.42,54.11,17.81,81.32l-9.5,2.93ZM2033.62,974.46c-14.48-22.85-30.78-45.83-48.44-68.29l7.81-6.14c17.87,22.72,34.36,45.97,49.02,69.11l-8.39,5.32ZM9.91,847.04l-9.91-.7c2-28.45,7.01-56.66,14.88-83.85l9.54,2.77c-7.68,26.51-12.57,54.03-14.52,81.78ZM1930.47,842.68c-18.67-19.89-38.77-39.7-59.74-58.87l6.7-7.34c21.16,19.34,41.44,39.33,60.29,59.4l-7.24,6.8ZM1806.85,729.38c-21.48-17.09-44.13-33.98-67.31-50.18l5.69-8.14c23.35,16.32,46.17,33.33,67.81,50.55l-6.19,7.78ZM55.83,688.45l-8.75-4.71c13.19-24.53,29.22-48.23,47.62-70.47l7.65,6.34c-17.99,21.73-33.64,44.89-46.52,68.84ZM1669.33,633.11c-23.5-14.49-47.95-28.66-72.67-42.13l4.75-8.73c24.88,13.55,49.49,27.82,73.14,42.4l-5.21,8.46ZM160.91,560.41l-6.46-7.55c20.83-17.8,43.86-34.68,68.46-50.19l5.3,8.41c-24.2,15.25-46.85,31.85-67.31,49.33ZM1521.87,552.7c-24.98-11.99-50.76-23.6-76.62-34.51l3.86-9.16c26.01,10.96,51.94,22.64,77.06,34.71l-4.3,8.96ZM1367.05,487.41c-26.07-9.57-52.84-18.69-79.55-27.12l2.99-9.48c26.85,8.47,53.76,17.65,79.98,27.27l-3.42,9.33ZM301.59,470.99l-4.24-8.98c24.77-11.71,51.15-22.52,78.4-32.14l3.31,9.37c-26.93,9.51-53,20.19-77.47,31.75ZM1206.81,436.81c-27.05-7.21-54.52-13.85-81.65-19.76l2.12-9.71c27.28,5.94,54.9,12.63,82.1,19.87l-2.56,9.6ZM459.25,414.92l-2.47-9.62c26.66-6.86,54.5-12.87,82.73-17.86l1.73,9.78c-27.98,4.95-55.56,10.9-81.98,17.7ZM1042.68,401.11c-27.65-4.67-55.63-8.69-83.14-11.96l1.17-9.87c27.68,3.29,55.81,7.34,83.62,12.03l-1.65,9.8ZM624.33,385.5l-1.05-9.88c27.51-2.94,55.89-5.07,84.33-6.32l.44,9.93c-28.24,1.25-56.41,3.36-83.72,6.28ZM875.9,381.36c-28.09-1.89-56.32-3.04-83.92-3.4l.13-9.94c27.77.37,56.18,1.52,84.45,3.43l-.67,9.91Z" style="fill: #f0f0f0;"/>
          </g>
          <path d="M506.23,1302.09c-412.79,92.75-372.71,194.6-410.86,272.99-38.15,78.39-164.54,204.25,76.31,296.32,240.85,92.07,353.44-62.9,456.91-19.99,103.47,42.91-37.78,123.46,121.08,186.92,158.86,63.46,337.76-91.54,443.85-91.54s601.91,100.15,774.88,0c172.98-100.15,77-247.79,123.8-309.9,46.79-62.11,149.33-76.03,125.49-195.45-23.85-119.42-442.44-173.01-918.72-195.1-476.28-22.09-752.72,46.77-792.72,55.75Z" style="fill: #f0f0f0;"/>
        </g>
        <circle cx="1805.13" cy="471.59" r="47.29" style="fill: #e5e5e5;"/>
        <circle cx="1391.06" cy="163.75" r="20.21" style="fill: #e5e5e5;"/>
        <circle cx="2126.97" cy="924.44" r="33.81" transform="translate(873.77 2875.87) rotate(-80.78)" style="fill: #e5e5e5;"/>
        <circle cx="205.43" cy="705.6" r="33.81" style="fill: #e5e5e5;"/>
        <circle cx="1627.89" cy="460.57" r="14.09" style="fill: #e5e5e5;"/>
        <circle cx="191.34" cy="1119.61" r="14.09" style="fill: #e5e5e5;"/>
        <circle cx="499.01" cy="280.36" r="14.09" transform="translate(112.1 702.15) rotate(-76.8)" style="fill: #e5e5e5;"/>
        <circle cx="1813.04" cy="1128.97" r="14.09" style="fill: #e5e5e5;"/>
        <circle cx="1914.53" cy="714.62" r="14.09" transform="translate(-127.74 787.06) rotate(-22.5)" style="fill: #e5e5e5;"/>
        <g>
          <path d="M2061.87,561.1c-19.86,0-39.26-5.92-56.05-17.33-22.13-15.03-37.08-37.77-42.1-64.04-5.02-26.27.49-52.93,15.52-75.06,31.02-45.67,93.42-57.6,139.1-26.58,45.68,31.02,57.61,93.42,26.58,139.1h0c-15.02,22.13-37.77,37.08-64.04,42.1-6.33,1.21-12.7,1.81-19,1.81ZM2062.21,372.26c-28.43,0-56.37,13.6-73.52,38.84-13.31,19.6-18.19,43.21-13.74,66.49,4.45,23.27,17.69,43.42,37.3,56.73,19.6,13.32,43.23,18.2,66.48,13.74,23.28-4.45,43.42-17.69,56.73-37.29,27.47-40.46,16.91-95.74-23.55-123.22-15.23-10.34-32.55-15.29-49.7-15.29Z" style="fill: #e5e5e5;"/>
          <path d="M1987.81,606.82c-7.26,0-14.35-2.17-20.5-6.34-8.09-5.5-13.56-13.81-15.4-23.42-1.83-9.61.18-19.36,5.68-27.45l25.29-37.24,9.46,6.42-25.29,37.24c-7.8,11.49-4.8,27.18,6.69,34.98,5.56,3.78,12.26,5.16,18.88,3.9,6.61-1.26,12.33-5.02,16.11-10.59l25.3-37.24,9.46,6.42-25.29,37.24c-5.49,8.09-13.81,13.56-23.42,15.4-2.32.44-4.64.66-6.95.66Z" style="fill: #e5e5e5;"/>
          <path d="M2024.51,547.62l-5-2.77c2.94-5.3,22.27-39.61,41.07-60.38-1.94-.99-3.96-2.14-6.06-3.48-3.31-2.11-6.25-4.48-8.85-7-12.04,28-36.71,60.68-38.16,62.59l-4.56-3.46c9.46-12.45,29.18-41.14,38.48-63.76-9.7-11.95-12.28-25.73-8.34-32.15,1.97-3.21,6.18-5.38,12.1-1.9,3.51,2.08,5.73,5.35,6.59,9.74,1.2,6.13-.49,14.28-3.81,23.2,2.65,2.82,5.83,5.52,9.61,7.93,2.53,1.62,4.9,2.92,7.12,3.95,6.51-6.49,12.81-10.94,18.17-11.54,3.62-.39,6.8.82,9.23,3.54,2.84,3.18,2.62,7.99-.54,11.71-4.12,4.86-12.89,7.75-25.51,3.04-15.65,17.04-33.8,46.82-41.54,60.75ZM2070.48,482.34c9.03,2.7,14.56.33,16.73-2.22,1.07-1.25,1.67-3.03.64-4.19-1.2-1.35-2.53-1.88-4.33-1.67-3.66.41-8.15,3.43-13.04,8.08ZM2039.54,439.23c-.99,0-1.36.61-1.57.95-2.14,3.48-.94,13.25,5.82,22.89,2.24-6.69,3.25-12.57,2.39-16.94-.54-2.76-1.81-4.69-3.89-5.92-1.24-.74-2.12-.99-2.75-.99Z" style="fill: #e5e5e5;"/>
          <path d="M2133.1,359.21c-.55,0-1.11-.16-1.61-.49-1.3-.89-1.64-2.66-.76-3.97l17.43-25.67c.89-1.32,2.66-1.64,3.98-.76,1.3.89,1.64,2.66.76,3.97l-17.43,25.67c-.55.82-1.46,1.25-2.37,1.25Z" style="fill: #e5e5e5;"/>
          <g>
            <path d="M2189.46,442.25c-1.35,0-2.54-.96-2.8-2.33-.3-1.55.72-3.05,2.27-3.34l30.48-5.82c1.55-.27,3.05.72,3.34,2.27.3,1.55-.72,3.05-2.27,3.34l-30.48,5.82c-.18.03-.36.05-.54.05Z" style="fill: #e5e5e5;"/>
            <path d="M2195.55,554.42c-.55,0-1.11-.16-1.61-.49l-25.67-17.43c-1.3-.89-1.64-2.66-.76-3.97.89-1.31,2.66-1.64,3.98-.76l25.67,17.43c1.3.89,1.64,2.66.76,3.97-.55.82-1.46,1.25-2.37,1.25Z" style="fill: #e5e5e5;"/>
            <path d="M2094.85,620.62c-1.34,0-2.54-.96-2.8-2.32l-5.83-30.48c-.3-1.55.72-3.05,2.27-3.35,1.51-.26,3.05.72,3.34,2.27l5.83,30.48c.3,1.55-.72,3.05-2.27,3.35-.18.03-.36.05-.54.05Z" style="fill: #e5e5e5;"/>
            <g>
              <path d="M2035.13,337.44c-1.34,0-2.54-.96-2.8-2.32l-5.83-30.48c-.3-1.55.72-3.05,2.27-3.35,1.54-.28,3.05.72,3.34,2.27l5.83,30.48c.3,1.55-.72,3.05-2.27,3.35-.18.03-.36.05-.54.05Z" style="fill: #e5e5e5;"/>
              <path d="M1954.29,390.58c-.55,0-1.11-.16-1.6-.49l-25.67-17.43c-1.31-.89-1.65-2.66-.76-3.97.89-1.32,2.67-1.65,3.97-.76l25.67,17.43c1.31.89,1.65,2.66.76,3.97-.55.82-1.46,1.25-2.37,1.25Z" style="fill: #e5e5e5;"/>
              <path d="M1904.22,491.15c-1.35,0-2.54-.96-2.8-2.33-.3-1.55.72-3.05,2.27-3.34l30.48-5.82c1.53-.27,3.05.72,3.34,2.27.3,1.55-.72,3.05-2.27,3.34l-30.48,5.82c-.18.03-.36.05-.54.05Z" style="fill: #e5e5e5;"/>
            </g>
          </g>
        </g>
        <path d="M128.59,1062.78c-.56,0-.99-.07-1.3-.2-3.89-1.72-18.81-26.75-44.32-74.4-39.25-73.29-37.26-78.38-36.07-81.41,3.17-8.07,30.88-23.83,50.94-34.37-7.8-9.53-21.15-28.87-17.18-45.83,2.24-9.58,9.42-16.62,21.33-20.9,9.1-3.26,17.58-2.69,25.22,1.74,13.96,8.07,21.16,27.36,24.27,38.45,20.3-12.95,43.34-26.08,51.12-24.38,12.43,2.7,42.33,72.09,41.66,78.99l-.46,4.73-4.74.41c-11.25.98-30.43,5.79-33.97,14.52-2.24,5.51,2.49,12.68,6.84,17.73,2.81,3.25,5.23,3.74,6.81,3.83,7.33.39,16.67-8.13,22.21-13.23,3.1-2.86,4.97-4.58,6.92-5.43,1.11-.49,4.06-1.36,7.34,1.24,8.59,6.78,32.94,59.49,31.39,67.96-.6,3.28-3.21,5.43-12.68,10.45-13.77,7.3-129.37,60.11-145.31,60.11ZM57.99,910.44c3.58,15.81,61.58,123.17,73.86,140.71,19.03-5.66,127.01-51.28,143.12-62.15-2.41-9.8-17.74-43.53-24.85-53.43-.47.43-.97.89-1.42,1.31-6.89,6.33-18.6,16.91-30.61,16.24-5.65-.32-10.64-2.94-14.81-7.78-9.38-10.86-12.33-20.8-8.78-29.52,5.6-13.74,25.93-18.91,36.86-20.72-5.64-15.56-25.05-56.38-31.64-62.39-5.74.9-29.55,14.53-48.8,27.14l-7.23,4.73-1.53-8.51c-1.5-8.32-8.14-31.51-20.7-38.76-4.66-2.69-9.75-2.98-15.6-.87-8.14,2.93-12.74,7.09-14.06,12.74-3.23,13.76,12.82,34.25,19.28,40.99l5.31,5.54-6.82,3.51c-21.77,11.18-46.79,25.83-51.57,31.24ZM276.44,987.86h0Z" style="fill: #e5e5e5;"/>
        <path d="M2148.99,1232.2c2.38,1.87,4.53,3.95,6.42,6.18,14.48-20.85,22.43-44.48,24.16-68.32-12.46,2.51-25.92-.27-36.71-8.75-19.56-15.38-22.95-43.72-7.56-63.28,5.68-7.22,13.12-12.24,21.25-14.93-7.83-11.64-17.57-22.27-29.2-31.42-11.63-9.15-24.26-16.11-37.42-20.97-.7,8.53-3.82,16.95-9.5,24.17-15.38,19.56-43.72,22.95-63.28,7.56-10.79-8.48-16.66-20.91-17.16-33.61-22.76,7.29-43.86,20.59-60.7,39.58,2.61,1.31,5.13,2.91,7.52,4.79,19.56,15.38,22.96,43.71,7.56,63.28-12.07,15.34-32.12,20.74-49.64,14.92-1.8,29.09,5.64,58.42,21.76,83.36,15.9-15.83,41.49-17.67,59.58-3.43,18.1,14.23,22.34,39.53,10.7,58.71,28.04,9.79,58.29,10.11,86.14,1.5-9.79-15.65-9.27-36.42,2.8-51.76,15.4-19.58,43.72-22.95,63.28-7.56ZM2017.79,1190.98c-17.14-13.48-20.11-38.28-6.63-55.43,13.48-17.13,38.3-20.1,55.43-6.63,17.15,13.49,20.1,38.3,6.63,55.43-13.49,17.15-38.28,20.11-55.43,6.63Z" style="fill: none; stroke: #e5e5e5; stroke-miterlimit: 10; stroke-width: 11.44px;"/>
        <path d="M824.72,287.17c-.23,0-.44,0-.66,0-4.67-.11-8.01-1.29-10.21-3.61-1.48-1.57-5.15-5.47-5.07-24.38-12.47-.15-25.03-2.39-36.89-6.59-8.37,18.2-14.51,20.28-18.79,20.16-6-.13-16.09-4.93-22.9-8.99-17.03-10.17-16.89-16.76-16.84-18.93.04-2.12.16-7.45,13.66-20.88-8.82-9-16.03-19.28-21.51-30.68-18.48,6.71-24.38,4.13-27.42,1-5.92-6.22-17.98-38.75-8.43-47.91,2.61-2.45,7.75-5.13,24.35-5.13h.04c.12-12.29,2.23-24.41,6.32-36.13-21.4-9.68-21.26-16.53-21.21-19.23.25-8.53,14.67-39.8,27.79-39.8.06,0,.12,0,.18,0,2.16.05,7.6.16,21.38,14.16,9.51-9.5,20.42-17.13,32.57-22.78-6.86-15.24-6.53-21-5.38-24.31,4.47-12.54,39.05-14.92,47.09-12.09,4.13,1.44,8.95,5.73,10.43,25.46,12.62.28,24.96,2.62,36.81,6.97,6.66-17.75,11.45-20.09,13.37-21.02,11.79-5.57,38.3,17.34,41.86,24.81,1.88,3.9,2.24,10.32-10.62,25.32,8.7,9.08,15.79,19.45,21.16,30.93,15.16-6.82,20.93-6.49,24.27-5.33h0c12.49,4.36,14.91,39.01,12.09,47.08-1.45,4.14-5.75,8.92-25.46,10.39-.29,12.86-2.72,25.43-7.24,37.5,16.85,6.48,19.09,11.14,19.99,13,5.6,11.67-17.26,38.24-24.74,41.83-3.92,1.88-10.28,2.28-24.86-10.19-8.63,8.13-18.37,14.8-29.05,19.92,6.74,18.5,4.13,24.4.96,27.44-5.86,5.63-25.63,12-37.02,12ZM822.04,275.49c5.17,1.9,26.54-4.25,31.45-8.29.31-1.58-.1-7.53-5.3-20.32l-2.13-5.23,5.21-2.19c12.95-5.46,24.47-13.35,34.24-23.46l3.88-4.02,4.11,3.79c9.78,9.02,15.06,11.44,16.63,11.7,5.52-3.21,18.8-21.05,18.85-26.51-1.24-1.4-6.41-4.75-18.91-9.03l-5.86-2,2.47-5.68c6.06-13.94,8.94-28.69,8.57-43.84l-.14-5.64,5.63-.21c15.37-.59,19.82-2.89,20.75-3.51,1.6-6.22-1.61-28.2-5.41-32.05-1.8-.16-8.15,1.24-20.67,7.35l-5.5,2.69-2.31-5.67c-5.67-13.91-14-26.15-24.78-36.37l-4.09-3.88,3.82-4.14c10.43-11.33,11.94-16.09,12.15-17.17-3.24-5.55-20.99-18.77-26.49-18.88-1.31,1.22-4.85,6.42-9.37,19.89l-1.97,5.88-5.7-2.44c-13.75-5.87-28.27-8.68-43.24-8.29l-5.64.14-.22-5.64c-.59-15.44-2.92-19.84-3.53-20.74-6.2-1.64-28.16,1.59-32.07,5.41-.04,1.22.35,6.31,7.4,20.72l2.7,5.52-5.69,2.3c-14.68,5.92-27.51,14.91-38.15,26.71l-4.21,4.67-4.25-4.63c-9.8-10.67-15.35-14.29-17.22-14.85-4.91,2.23-15.74,21.69-16.45,28.1,1.16,1.78,7.07,6.09,19.18,11.03l5.27,2.15-2.12,5.28c-5.53,13.73-8.01,28.09-7.37,42.67l.27,6.17-6.17-.2c-13.91-.46-20.21.87-21.92,1.76-1.85,5.14,4.24,26.43,8.26,31.44,1.6.3,7.57-.12,20.34-5.28l5.21-2.11,2.2,5.18c5.85,13.79,14.38,25.9,25.36,35.99l4.56,4.19-4.54,4.21c-10.22,9.48-13.73,14.88-14.29,16.72,2.3,4.97,21.8,15.79,28.11,16.41,1.37-.91,5.3-5.44,10.57-18.18l2.18-5.26,5.27,2.16c13.73,5.63,28.75,8.25,43.39,7.64l6.2-.27-.24,6.21c-.57,14.26.92,20.34,1.71,21.9ZM853.43,267.45h0ZM853.83,266.91s0,0,0,0h0ZM753.36,261.32h.03-.03ZM685.74,185.92h0ZM941.71,130.89h0ZM894.94,42.21s0,0,0,.01c0,0,0-.01,0-.01ZM894.76,41.55h0ZM799,11.86s0,0,.01,0c0,0,0,0-.01,0ZM810.42,225.29c-38.01,0-72.31-26.5-80.65-65.12-4.61-21.5-.55-43.52,11.41-62.03,11.97-18.51,30.39-31.25,51.88-35.85,44.39-9.58,88.34,18.78,97.94,63.23,9.52,44.43-18.87,88.36-63.28,97.94h-.01c-5.79,1.24-11.58,1.84-17.29,1.84ZM810.44,71.86c-4.94,0-9.95.52-14.97,1.6-18.51,3.97-34.37,14.93-44.68,30.88-10.31,15.95-13.8,34.92-9.83,53.42,8.26,38.26,46.14,62.69,84.36,54.51,38.26-8.26,62.7-46.1,54.51-84.36-7.18-33.25-36.68-56.05-69.38-56.05Z" style="fill: #e5e5e5;"/>
        <ellipse cx="471.41" cy="1795.96" rx="165.06" ry="27.18" style="fill: #dbd7d7;"/>
        <path d="M770.11,1959.09c-8.29-3.23-16.04-8.86-20.51-14.35-3.73-4.59-5.29-9.08-4.5-12.99,2.06-10.19,82.58-57.61,130.23-66.61,19.9-3.75,33.09-.85,39.2,8.64,3.33,5.17,4.16,10.91,2.48,17.05-6.88,25.08-55.54,49.61-57.61,50.64-1.76.88-3.9.17-4.78-1.6-.88-1.76-.16-3.9,1.6-4.78.48-.24,47.88-24.12,53.92-46.15,1.14-4.17.62-7.86-1.6-11.31-3.19-4.95-9.87-7.29-19.83-6.94-43.41,1.53-130.82,53.35-136.66,62.71-.19,1.7.92,4.17,3.08,6.83,5.61,6.9,17.89,14.38,27.94,14.45,10.38.07,68.7-34.8,85.73-55.28,3.76-4.53,3.57-6.21,3.57-6.23-3.29-4.96-36.17,6.83-70.32,25.39-1.73.94-3.89.3-4.83-1.43-.94-1.73-.3-3.89,1.43-4.83,21.01-11.42,70.84-36.52,79.73-22.92,1.68,2.56,1.49,5.76-.56,9.52-10.49,19.25-79.39,63.01-94.8,62.91-4.19-.03-8.63-1.05-12.92-2.72ZM751.95,1933.58h0Z" style="fill: #424443;"/>
        <g>
          <path d="M1675.24,1827.92c73.56-3.4,112.67-43.79,112.67-43.79,0,0,34.44,28.91,77.38,21.9,42.94-7.02,1.28,57.19-63.35,65.69-64.63,8.5-126.71-43.79-126.71-43.79Z" style="fill: #fff;"/>
          <path d="M1786.21,1872.65c59.1-11.56,57.83-82.15,57.83-82.15,0,0,26.36,1.28,43.37-6.38,17.01-7.65,31.89-28.06,31.89-28.06,0,0-5.4,58.17-53.57,91.84-39.54,27.64-79.51,24.75-79.51,24.75Z" style="fill: #fee4ad;"/>
        </g>
        <path d="M1034.71,1758.37l-34.01-334.41s-199.29,112.09-339.27,40.73c-139.98-71.36-57.64-425.43-57.64-425.43,0,0-131.75,9.61-144.1-10.98-12.35-20.59,41.17-118.37,98.81-162.62,57.64-44.26,98.81-60.73,98.81-60.73,0,0-3.52-347.56,220.95-479.29,230.34-135.18,557.99-116.29,746.56,87.83,158.51,171.58,186.64,447.39,54.89,609.32-131.75,161.94-205.85,241.53-208.6,296.43-2.74,54.89,57.64,439.15,57.64,439.15h-494.05Z" style="fill: #bbefec;"/>
        <path d="M1538.78,1766.94h-511.83l-33.51-329.45c-45.12,22.96-211.27,98.37-335.92,34.83-131.55-67.06-77.71-361.14-64.57-423.75-45.46,2.81-128.17,4.88-140.62-15.89-16.28-27.12,43.16-129.47,100.94-173.84,46.63-35.81,82.43-53.63,95.51-59.57.91-46.21,14.95-357.7,225.12-481.04,116.17-68.17,256.12-98.17,394.14-84.46,143.74,14.28,272.68,76.03,363.07,173.87,78.34,84.8,127.53,196.06,138.53,313.3,11.11,118.46-18.47,227.58-83.28,307.26-22,27.04-42.4,51.79-61.12,74.51-92.48,112.22-143.42,174.04-145.56,216.93-2.67,53.39,56.94,433.56,57.54,437.39l1.56,9.91ZM1042.45,1749.79h476.28c-9.64-61.89-58.72-380.18-56.18-431,2.42-48.57,54.65-111.94,149.45-226.99,18.7-22.69,39.08-47.42,61.05-74.43,128.58-158.04,104.12-426.35-54.53-598.09-176.95-191.54-493.34-228.62-735.92-86.26-217.52,127.66-216.75,468.39-216.71,471.81l.05,5.86-5.44,2.19c-.4.16-40.92,16.68-96.78,59.57-60.15,46.19-104.39,138.55-96.68,151.41,6.65,8.57,69,11.72,136.12,6.84l11.61-.85-2.64,11.34c-.81,3.48-79.23,348.34,53.18,415.85,134.24,68.42,329.21-39.47,331.17-40.56l11.41-6.41,34.56,339.72Z" style="fill: #5ebab3;"/>
        <g>
          <path d="M1634.86,835.51c-.31,4.22-.74,8.31-1.3,12.41-11.66,93.44-69.18,168.71-160.46,198.93-4.1,1.36-8.19,2.67-12.41,3.79-54.79,15.26-120.81,14.83-195.58-6.45-36.86-10.49-70.86-24.76-102.19-41.94h-.06c-5.21-2.85-10.3-5.77-15.39-8.87-64.9-38.72-117.39-90.15-158.04-146.25-2.98-4.1-5.9-8.25-8.75-12.41-.68-.99-1.3-1.92-1.99-2.92-4.28-6.33-8.44-12.72-12.41-19.11-40.52-64.9-66.14-133.65-77.99-194.52-.87-4.22-1.61-8.31-2.3-12.41-9.99-60.06-6.14-111.38,10.55-142.34,15.7-29.16,39.77-52.12,69.74-69.06,4.03-2.3,8.13-4.47,12.41-6.45,60.5-29.35,141.59-36.11,226.6-20.6,4.1.75,8.25,1.55,12.41,2.42,83.33,17.31,169.51,55.9,242.98,115.78,4.16,3.35,8.31,6.83,12.41,10.42,28.42,24.57,54.73,52.43,77.93,83.64,6.45,8.69,12.53,17.44,18.18,26.18,2.73,4.1,5.34,8.25,7.88,12.41,45.3,74.58,63.16,150.22,57.77,217.35Z" style="fill: #5ebab3;"/>
          <g>
            <path d="M1283.98,745.79c-1.3,8.56-5.52,15.33-12.6,20.1-15.2,10.3-40.33,7.94-52.93,5.83v206l-6.14.06c-19.23.31-49.2,5.27-52.24,15.14-.37,1.24-.62,4.22,2.79,9.31-5.21-2.85-10.3-5.77-15.39-8.87.06-1.36.31-2.79.74-4.1,5.83-18.86,41.76-22.83,57.83-23.7v-209.23l7.63,1.86c9.68,2.3,37.54,6.33,50.82-2.61,4.1-2.79,6.45-6.58,7.2-11.66,2.48-16.57-.12-28.11-7.69-34.25-13.28-10.86-40.89-4.16-50.32-.68l-8.38,3.04v-161.51c-11.23,3.54-31.4,7.14-49.95-2.73-13.78-7.32-23.08-20.72-25.01-35.93-1.61-12.84,2.54-24.88,11.48-32.95,20.79-18.92,46.85-14.46,63.47-7.01v-104.61c4.1.75,8.25,1.55,12.41,2.42v124.41l-9.68-6.58c-1.36-.93-33.26-21.84-57.89.56-5.83,5.34-8.56,13.47-7.51,22.28,1.43,10.98,8.5,21.16,18.55,26.49,21.47,11.35,47.34-.74,47.65-.87l8.87-4.28v163.06c13.03-3.41,38.35-7.57,54.11,5.27,11.23,9.06,15.33,24.45,12.16,45.73Z" style="fill: #bbefec;"/>
            <path d="M1534.1,989.7c.06,12.1-5.58,22.15-15.88,28.36-12.1,7.32-30.09,8.69-45.11,4.09v24.69c-4.1,1.36-8.19,2.67-12.41,3.79v-48.09l9.12,4.9c12.29,6.58,31.09,6.51,42.01,0,6.58-3.97,9.87-9.93,9.87-17.68-.06-9.31-2.79-15.7-8.31-19.67-8.81-6.33-25.44-6.27-44.49.12l-8.19,2.73v-195.2c-10.49,2.67-29.1,5.89-45.98.99-12.66-3.66-21.96-14.15-24.26-27.36-2.61-14.46,3.66-29.1,16.2-38.35,17.81-13.03,41.39-8.19,54.04-4.03v-223.5c4.16,3.35,8.31,6.83,12.41,10.42v231.94l-8.87-4.22c-.31-.12-31.21-14.58-50.26-.56-8.81,6.45-13.09,16.26-11.29,26.18,1.49,8.62,7.32,15.2,15.51,17.56,20.79,6.02,46.29-3.1,46.6-3.23l8.31-3.04v195.45c14.08-3.66,33.69-5.9,47.47,3.97,6.08,4.41,13.4,13.09,13.53,29.72Z" style="fill: #bbefec;"/>
            <path d="M1577.1,618.16h-197.69l1.8-7.63c.06-.25,5.89-25.94.12-44.74-2.92-9.37-10.98-17.62-20.54-20.97-6.89-2.48-17.74-3.6-30.4,4.9-27.55,18.49-7.07,57.64-6.2,59.32l4.9,9.12h-440.79c-.87-4.22-1.61-8.31-2.3-12.41h423.11c-7.32-19.36-10.73-49.51,14.33-66.33,13.22-8.87,27.98-11.11,41.51-6.33,13.34,4.72,24.14,15.82,28.23,28.98,4.71,15.39,3.04,33.63,1.49,43.68h174.54c2.73,4.1,5.34,8.25,7.88,12.41Z" style="fill: #bbefec;"/>
            <path d="M1634.86,835.51c-.31,4.22-.74,8.31-1.3,12.41h-43.93l2.36-7.94c2.05-6.76,5.59-26.62-2.11-37.54-3.72-5.34-9.74-8.13-18.3-8.56-7.94-.5-13.46,1.49-16.94,5.89-8.25,10.36-4.16,32.58-1.92,40.21l2.36,7.94h-194.58l6.76-9.74c.37-.5,9.43-14.46-.37-32.27-4.03-7.38-10.36-12.16-18.3-13.84-9.68-2.05-20.85.81-29.78,7.63-14.33,10.86-2.67,38.41-2.54,38.72l3.85,8.69h-194.21c1.61,10.98,2.67,31.09-7.88,44.49-6.76,8.5-16.81,12.84-29.97,12.84h-.99c-13.71-.25-24.08-4.9-30.78-13.9-9.8-13.34-8.44-32.7-6.58-43.43h-60.25c-2.98-4.1-5.9-8.25-8.75-12.41h84.94l-2.3,7.94c-.06.25-7.45,26.49,2.98,40.52,4.28,5.83,11.11,8.69,20.97,8.87,9.62.25,16.51-2.48,20.97-8.13,10.98-13.9,4.16-41.2,4.1-41.45l-1.99-7.76h191.48c-3.35-11.85-6.33-32.95,9.43-44.92,11.73-8.94,26.68-12.66,39.84-9.87,11.42,2.42,20.85,9.56,26.68,20.04,7.94,14.46,6.64,27.3,4.1,35.55h157.1c-2.05-11.04-3.91-31.02,5.89-43.43,6.08-7.69,15.2-11.23,27.3-10.61,12.47.68,21.84,5.34,27.86,13.84,8.75,12.47,7.45,30.09,5.65,40.21h29.16Z" style="fill: #bbefec;"/>
            <path d="M1035.98,742.75c-15.26,13.09-43.43,10.11-57.27,7.57v81.47c-4.28-6.33-8.44-12.72-12.41-19.11v-78.06l7.76,1.99c10.73,2.73,41.32,7.45,53.8-3.29,4.47-3.78,6.27-9.43,5.52-17.25-1.3-12.72-5.46-20.91-12.47-24.39-13.78-6.76-37.23,4.41-45.11,9.31l-9.49,5.89v-164.24c-13.77,5.03-32.76,4.65-46.6-1.74-13.65-6.33-21.59-17.74-22.28-32.14-.62-12.91,4.28-23.39,14.15-30.22,14.52-10.11,37.23-10.3,54.73-5.4v-78.8c4.03-2.3,8.13-4.47,12.41-6.45v103.31l-8.62-3.66c-14.83-6.33-38.72-7.69-51.44,1.18-6.33,4.41-9.25,10.8-8.81,19.42.43,9.87,5.52,17.06,15.08,21.47,14.71,6.83,35.24,4.53,43.81-2.11l9.99-7.69v165.61c11.73-5.52,32.08-12.53,47.65-4.84,11.11,5.46,17.62,17,19.36,34.25,1.12,11.98-2.11,21.41-9.74,27.92Z" style="fill: #bbefec;"/>
          </g>
        </g>
        <g>
          <path d="M1727.3,1758.37c-4.54,0-8.41-3.46-8.83-8.07l-58.52-642.34c-.44-4.88,3.15-9.2,8.03-9.64,4.87-.48,9.2,3.15,9.65,8.03l58.52,642.34c.44,4.88-3.15,9.2-8.03,9.64-.27.03-.55.04-.82.04Z" style="fill: #5c4b43;"/>
          <path d="M1577.55,1758.37c-4.54,0-8.41-3.46-8.83-8.07l-58.52-642.34c-.44-4.88,3.15-9.2,8.03-9.64,4.9-.48,9.2,3.15,9.65,8.03l58.52,642.34c.44,4.88-3.15,9.2-8.03,9.64-.27.03-.55.04-.82.04Z" style="fill: #5c4b43;"/>
          <path d="M1684.17,1281.61h-149.75c-2.94,0-5.33-2.39-5.33-5.33s2.38-5.33,5.33-5.33h149.75c2.94,0,5.33,2.39,5.33,5.33s-2.38,5.33-5.33,5.33Z" style="fill: #5c4b43;"/>
          <path d="M1672.34,1180.26h-149.75c-2.94,0-5.33-2.39-5.33-5.33s2.38-5.33,5.33-5.33h149.75c2.94,0,5.33,2.39,5.33,5.33s-2.38,5.33-5.33,5.33Z" style="fill: #5c4b43;"/>
          <path d="M1693.04,1382.97h-149.75c-2.94,0-5.33-2.39-5.33-5.33s2.38-5.33,5.33-5.33h149.75c2.94,0,5.33,2.39,5.33,5.33s-2.38,5.33-5.33,5.33Z" style="fill: #5c4b43;"/>
          <path d="M1701.6,1484.33h-149.75c-2.94,0-5.33-2.39-5.33-5.33s2.38-5.33,5.33-5.33h149.75c2.94,0,5.33,2.39,5.33,5.33s-2.38,5.33-5.33,5.33Z" style="fill: #5c4b43;"/>
          <path d="M1708.44,1585.68h-149.75c-2.94,0-5.33-2.39-5.33-5.33s2.38-5.33,5.33-5.33h149.75c2.94,0,5.33,2.39,5.33,5.33s-2.38,5.33-5.33,5.33Z" style="fill: #5c4b43;"/>
          <path d="M1719.5,1687.04h-149.75c-2.94,0-5.33-2.39-5.33-5.33s2.38-5.33,5.33-5.33h149.75c2.94,0,5.33,2.39,5.33,5.33s-2.38,5.33-5.33,5.33Z" style="fill: #5c4b43;"/>
        </g>
        <path d="M1604.18,1635c2.22-7.46-22.96-115.66-34.72-120.71-11.75-5.06-88.98,26.49-88.98,26.49,0,0,1.35-87.63-53.23-79.18-69.03,10.68-13.91,95.95-13.91,95.95,0,0-85.32,24.75-92.68,36.34-7.36,11.59,66.95,242.22,73.14,246.53,6.19,4.3,243.95-46.15,247.56-55.38,3.61-9.23-19.76-105.76-27.98-103.9-8.22,1.86-49.97,39.26-68.08,7.64-36.66-63.98,58.88-53.77,58.88-53.77Z" style="fill: #fe87a0;"/>
        <g>
          <g>
            <g>
              <path d="M814.07,1632.81h263.83v94.18h-263.83c-25.99,0-47.09-21.1-47.09-47.09h0c0-25.99,21.1-47.09,47.09-47.09Z" style="fill: #ec321e;"/>
              <g>
                <path d="M1203.04,1641.84v76.12h5.16v9.03h-154.17c-26.01,0-47.09-21.08-47.09-47.09,0-13,5.26-24.77,13.79-33.3,8.53-8.53,20.29-13.79,33.3-13.79h154.17v9.03h-5.16Z" style="fill: #ba0f03;"/>
                <path d="M1204.33,1641.84v76.12h-150.04c-.77,0-1.54-.03-2.3-.08-20.09-1.17-36.02-17.73-36.02-37.98,0-10.5,4.28-20.02,11.22-26.91,6.44-6.39,15.15-10.51,24.8-11.07.76-.05,1.52-.08,2.3-.08h150.04Z" style="fill: #fee4ad;"/>
                <g>
                  <rect x="1051.22" y="1660.29" width="153.11" height="1.46" style="fill: #fede8c;"/>
                  <rect x="1051.22" y="1669.72" width="153.11" height="1.47" style="fill: #fede8c;"/>
                  <rect x="1051.22" y="1688.61" width="153.11" height="1.47" style="fill: #fede8c;"/>
                  <rect x="1051.22" y="1679.16" width="153.11" height="1.47" style="fill: #fede8c;"/>
                  <rect x="1051.22" y="1698.05" width="153.11" height="1.46" style="fill: #fede8c;"/>
                  <rect x="1051.22" y="1707.48" width="153.11" height="1.47" style="fill: #fede8c;"/>
                  <rect x="1051.22" y="1650.85" width="153.11" height="1.47" style="fill: #fede8c;"/>
                </g>
                <path d="M1052,1641.92v75.96c-20.09-1.17-36.02-17.73-36.02-37.98,0-10.5,4.28-20.02,11.22-26.91,6.44-6.39,15.15-10.51,24.8-11.07Z" style="fill: #a60b00;"/>
              </g>
              <polygon points="1093.38 1665.33 1093.38 1711.51 1078 1701.19 1062.61 1711.51 1062.61 1665.33 1093.38 1665.33" style="fill: #fcce3a;"/>
              <ellipse cx="891.48" cy="1679.9" rx="89.66" ry="25.16" style="fill: #fcce3a;"/>
            </g>
            <path d="M1128.05,1726.9v96.6h-274.19c-26.28,0-47.57-21.62-47.57-48.3,0-13.34,5.32-25.42,13.93-34.16,8.61-8.73,20.51-14.14,33.64-14.14h274.19Z" style="fill: #b6bf40;"/>
            <path d="M1250.92,1815.14h5.26v8.36h-174.01c-26.68,0-48.3-21.62-48.3-48.3,0-13.34,5.41-25.42,14.14-34.16,8.75-8.73,20.82-14.14,34.16-14.14h174.01v8.36h-5.26v79.88Z" style="fill: #96a128;"/>
            <path d="M1251.7,1735.26v79.88h-166.89c-22.14,0-40.09-17.88-40.09-39.94,0-11.03,4.48-21.02,11.75-28.24,7.25-7.24,17.27-11.7,28.35-11.7h166.89Z" style="fill: #fee4ad;"/>
            <g>
              <rect x="1079.6" y="1743.89" width="172.1" height="1.74" style="fill: #fede8c;"/>
              <rect x="1079.6" y="1756.07" width="172.1" height="1.74" style="fill: #fede8c;"/>
              <rect x="1079.6" y="1780.41" width="172.1" height="1.75" style="fill: #fede8c;"/>
              <rect x="1079.6" y="1768.23" width="172.1" height="1.75" style="fill: #fede8c;"/>
              <rect x="1079.6" y="1792.6" width="172.1" height="1.73" style="fill: #fede8c;"/>
              <rect x="1079.6" y="1804.77" width="172.1" height="1.74" style="fill: #fede8c;"/>
            </g>
            <path d="M1084.65,1735.26v79.88c-22.49,0-40.72-17.88-40.72-39.94,0-11.03,4.55-21.02,11.93-28.24,7.36-7.24,17.54-11.7,28.79-11.7Z" style="fill: #8b9620;"/>
            <polygon points="1202.7 1764.03 1202.7 1802.37 1188.59 1793.8 1174.46 1802.37 1174.46 1764.03 1202.7 1764.03" style="fill: #ec321e;"/>
            <path d="M994.54,1726.9c-6.97,14.31-10.93,30.78-10.93,48.3s3.96,33.99,10.93,48.3h20.54c-8.42-13.51-13.4-30.23-13.4-48.3s4.98-34.79,13.4-48.3h-20.54Z" style="fill: #96a128;"/>
            <path d="M891.96,1726.9c-6.97,14.31-10.93,30.78-10.93,48.3s3.96,33.99,10.93,48.3h20.54c-8.42-13.51-13.4-30.23-13.4-48.3s4.98-34.79,13.4-48.3h-20.54Z" style="fill: #96a128;"/>
            <path d="M862.75,1726.9c-6.97,14.31-10.93,30.78-10.93,48.3s3.96,33.99,10.93,48.3h20.54c-8.42-13.51-13.4-30.23-13.4-48.3s4.98-34.79,13.4-48.3h-20.54Z" style="fill: #96a128;"/>
          </g>
          <g>
            <path d="M831.45,1545.35c-6.74,8.05-10.91,19.2-10.91,31.53,0,24.63,16.68,44.6,37.25,44.6h313.47v11.33h-316.08c-24.78,0-44.87-25.04-44.87-55.93,0-15.46,5.02-29.44,13.13-39.56,8.12-10.12,19.33-16.37,31.74-16.37h316.08v11.33h-313.47c-10.29,0-19.6,4.99-26.34,13.07Z" style="fill: #fd9724;"/>
            <path d="M1165.3,1532.28v89.2h-309.59c-19.43,0-35.17-19.97-35.17-44.6,0-12.33,3.93-23.48,10.29-31.53,6.37-8.08,15.15-13.07,24.87-13.07h309.59Z" style="fill: #fee4ad;"/>
            <path d="M855.71,1532.28v89.2c-19.43,0-35.17-19.97-35.17-44.6,0-12.33,3.93-23.48,10.29-31.53,6.37-8.08,15.15-13.07,24.87-13.07Z" style="fill: #fd8821;"/>
            <g>
              <rect x="855.71" y="1554.48" width="309.59" height="2.95" style="fill: #fede8c;"/>
              <rect x="855.71" y="1568.43" width="309.59" height="2.95" style="fill: #fede8c;"/>
              <rect x="855.71" y="1582.38" width="309.59" height="2.95" style="fill: #fede8c;"/>
              <rect x="855.71" y="1596.33" width="309.59" height="2.95" style="fill: #fede8c;"/>
              <rect x="855.71" y="1610.28" width="309.59" height="2.95" style="fill: #fede8c;"/>
              <rect x="855.71" y="1540.53" width="309.59" height="2.95" style="fill: #fede8c;"/>
            </g>
            <polygon points="935.52 1551.88 935.52 1603.76 911.59 1585.33 887.64 1603.76 887.64 1551.88 935.52 1551.88" style="fill: #76d8d4;"/>
          </g>
        </g>
        <g>
          <path d="M1339.54,1863.16c-18.29,9.09-39.04,18.66-39.04,18.66l-230.85,45.39-20.1,3.94-42.85,8.43-18.85,3.71-20.07,3.95c-11.24,2.2-22.15-4.36-25.72-14.89-.36-1.08-.64-2.15-.83-3.27-2.21-12.16,5.78-23.81,17.89-26.14l19.6-3.83,18.88-3.66,43.3-8.48,20.14-3.93,231.32-45.07s23.14,2.04,43.58,4.38c16,1.84,30.34,3.84,30.93,5.26.57,1.34-12.59,8.25-27.33,15.55Z" style="fill: #fcce3a;"/>
          <g>
            <rect x="985.92" y="1878.94" width="320.63" height="3.85" transform="translate(-331.26 247.31) rotate(-10.77)" style="fill: #fd9724;"/>
            <rect x="989.54" y="1894.14" width="320.63" height="3.85" transform="translate(-334.04 248.25) rotate(-10.77)" style="fill: #fd9724;"/>
          </g>
          <path d="M1300.5,1881.83l-8.14-43.87s23.11,2.04,43.58,4.4c15.98,1.83,30.33,3.85,30.91,5.26.56,1.33-12.59,8.26-27.32,15.56-18.3,9.07-39.04,18.65-39.04,18.65Z" style="fill: #fee4ad;"/>
          <path d="M1339.54,1863.17l-3.59-20.82c15.98,1.83,30.33,3.85,30.91,5.26.56,1.33-12.59,8.26-27.32,15.56Z" style="fill: #fd9724;"/>
          <polygon points="1006.69 1939.58 987.84 1943.29 978.71 1899.1 997.59 1895.45 1006.69 1939.58" style="fill: #fd8821;"/>
        </g>
        <g>
          <path d="M1625.42,1341.62c4.06,9.83,8.12,26.08,4.28,29.5-3.85,3.42-70.12,3.92-71.84,1.5-3.63-5.13,16.08-23.09,36.69-28.44,20.61-5.34,30.87-2.57,30.87-2.57Z" style="fill: #0c87b3;"/>
          <path d="M1708.98,1341.62c4.06,9.83,8.12,26.08,4.28,29.5-3.85,3.42-70.12,3.92-71.84,1.5-3.63-5.13,16.08-23.09,36.69-28.44,20.61-5.34,30.87-2.57,30.87-2.57Z" style="fill: #0c87b3;"/>
          <path d="M1578.43,810.94c-19.53-12.31-15.59-42.14,0-46.23,15.59-4.09,22.43,4.51,22.43,4.51,0,0,9.88-23.52,30.94-14.86,21,8.63,6.98,27.13,6.98,27.13,0,0,29.11-6.49,35.13,13.87,6.01,20.36-15.16,22.07-15.16,22.07,0,0,24.54,10.67,11.31,33.35-13.23,22.68-32.24,9.41-32.24,9.41,0,0,2.9,16.5-14.67,12.84-17.57-3.66-44.71-62.08-44.71-62.08Z" style="fill: #b5573b;"/>
          <g>
            <path d="M1641.28,833.96c6.92-2.99,14.07,4.57,9.56,12.87s-11.81,8.16-14.46,4.74c-2.66-3.41,4.9-17.61,4.9-17.61Z" style="fill: #f8b396;"/>
            <path d="M1645.07,838.08c5.77.72.46,9.65-3.84,9.34-4.3-.3,3.84-9.34,3.84-9.34Z" style="fill: #cc7459;"/>
            <path d="M1607.71,905.93c8.19,1.91,22.96-6.23,22.96-6.23l-2.71-35.12-.34-4.4-14.09,6.89-8.5,4.15-2.66,16.52-1.41,8.92s-1.44,7.36,6.75,9.27Z" style="fill: #f8b396;"/>
            <path d="M1602.37,887.75c8.99-.1,21.22-12.47,25.59-23.16,0,0-7.71,1.03-14.43,2.49l-8.5,4.15-2.66,16.52Z" style="fill: #f3936c;"/>
            <path d="M1573.84,834.1c-.25,2-.43,4.01-.49,5.96-.6,19.03,4.62,34.92,21.91,37.04,24.5,2.99,52.21-27.37,49.91-43.85-.04.03-.05.07-.05.07-21.01-3.77-36.62-36.18-36.62-36.18,0,0-17.21,15.89-30.08,13.8-2.36,8.21-3.92,16.03-4.59,23.16Z" style="fill: #f8b396;"/>
            <path d="M1587.53,828.12c-.38,2.7-1.62,4.76-2.76,4.6-1.14-.16-1.76-2.48-1.37-5.19s1.62-4.76,2.76-4.6c1.14.16,1.76,2.48,1.37,5.19Z" style="fill: #471200;"/>
            <path d="M1607.18,830.57c-.38,2.7-1.62,4.76-2.76,4.6s-1.76-2.48-1.37-5.19c.38-2.7,1.62-4.76,2.76-4.6,1.14.16,1.76,2.48,1.37,5.19Z" style="fill: #471200;"/>
            <path d="M1615.32,820.19c.51,1.74-8.93-2.48-9.17-3.58-.23-1.09,1.04-1.38,2.95-1.06,1.91.32,6.09,4.2,6.22,4.64Z" style="fill: #b5573b;"/>
            <path d="M1580.64,816.95c-.68,1.68,9.14-1.55,9.48-2.61.34-1.06-.89-1.48-2.82-1.36-1.93.12-6.49,3.55-6.66,3.98Z" style="fill: #b5573b;"/>
            <g>
              <path d="M1602.47,860.03c-.5,2.8-4.68,4.4-9.32,3.57-4.64-.84-8-3.79-7.5-6.59.5-2.8,4.68-4.4,9.32-3.57,4.64.84,8,3.79,7.5,6.59Z" style="fill: #f86856;"/>
              <path d="M1596.43,860.01c-4.38-.13-9-1.01-11.65-2.59-.22-.13-.26-.36-.09-.5.17-.15.48-.19.69-.05,4.89,2.91,17.32,3.35,20.45.74.18-.13.48-.15.7-.02.21.14.24.36.06.51-1.73,1.43-5.83,2.04-10.16,1.91Z" style="fill: #471200;"/>
            </g>
            <path d="M1623.71,844.12c.05,3.62-3.53,6.6-8,6.66-4.47.06-8.13-2.82-8.18-6.44-.05-3.62,3.53-6.6,8-6.66,4.47-.06,8.13,2.82,8.18,6.44Z" style="fill: #f08d78;"/>
            <path d="M1592.72,846.59c-1.66-.3-2.96-1.15-3.68-2.45-.77-1.4-.72-3.09.14-4.43,1.04-1.63,3.08-2.46,5.58-2.26.25.03.35.19.34.39-.02.2-.19.35-.39.34-2.23-.17-4.02.53-4.91,1.93-.72,1.11-.76,2.53-.11,3.69.79,1.42,2.44,2.22,4.52,2.2.19-.01.37.16.37.36,0,.2-.16.37-.36.37-.52,0-1.02-.03-1.49-.12Z" style="fill: #c07255;"/>
          </g>
          <path d="M1715.77,1340.69c-4.33,7.7-40.3,5.89-42.34,2.41-.88-1.48-46.19-142.43-46.19-142.43,0,0,.72,12.99,1.6,31.08v.04c1.96,40.34,4.61,106.02,1.32,110.35-4.73,6.26-40.46,3.85-41.9,0-1.44-3.85-41.14-197.53-43.31-244.24,0,0,89.5-112.8,132.09,5.45,42.54,118.25,43.07,229.65,38.74,237.35Z" style="fill: #b292ca;"/>
          <path d="M1601.1,895.73c3.75,11.53,29.25,0,29.25,0,0,0,40.27,4.83,54.13,24.89,14.74,21.32-3.88,178.27-7.48,182.73-3.59,4.45-62.4,10.71-90.98,6.86s-36.76-6.31-41.09-12.3c-4.33-5.99-3.04-137.05-3.04-137.05,0,0-20.06-1.03-8.03-33.74,12.03-32.71,67.23-31.38,67.23-31.38Z" style="fill: #fcb6c8;"/>
          <path d="M1553.13,906.23c-47.74,21.08-71.34,54.63-71.34,54.63,0,0,13.3,21.86,29.04,23.85,12.18,1.54,26.95-15.89,31.04-19.98,9.38-9.38,11.26-58.5,11.26-58.5Z" style="fill: #fe87a0;"/>
          <path d="M1628.83,1231.74l-26.87-84.61s14.07,18.04,25.26,53.53c0,0,.72,12.99,1.6,31.08Z" style="fill: #8a66aa;"/>
          <g>
            <g style="opacity: .5;">
              <path d="M1498.36,715.16c119.34,169.77-130.11,351.52-255.14,185.93-119.34-169.77,130.11-351.52,255.14-185.93Z" style="fill: #fff;"/>
            </g>
            <g>
              <path d="M1274.05,675.36c-173.07,127.3,19.33,391.29,193.52,265.53,172.26-130.14-16.94-389.69-193.52-265.53ZM1452.98,920.88c-147.96,106.8-311.34-117.43-164.34-225.52,150.05-105.47,310.68,114.98,164.34,225.52Z" style="fill: #5c4b43;"/>
              <rect x="1534.87" y="894.47" width="35.68" height="326.62" transform="translate(-325.12 1117.41) rotate(-36.08)" style="fill: #5c4b43;"/>
            </g>
            <g style="mix-blend-mode: screen; opacity: .8;">
              <path d="M1313.04,712c43.78,13.14-3.91,150.37-46.41,133.52-43.77-13.14,3.92-150.37,46.41-133.52Z" style="fill: #fff;"/>
            </g>
          </g>
          <path d="M1584.3,1072.04c-2.75-4.71-31.21-10.49-32.21-8.5s10.83,9.46,10.83,9.46c0,0-32.24,5.48-32.51,7.67-.27,2.2,22.51,1.36,22.51,1.36,0,0-24.58,4.26-24.31,6.66.27,2.4,26.17-1.13,26.17-1.13,0,0-23.16,5.36-20.44,7.93,1,.94,21.73-2.91,21.73-2.91,0,0-14.27,4.93-13.77,6.24.5,1.31,13.52-.73,23.79-4.35,10.27-3.62,31.39-11.58,31.63-13.04.24-1.46-1.21-10.72-1.21-10.72l-12.2,1.34Z" style="fill: #f8b396;"/>
          <path d="M1684.49,920.61c26.47,26.59,15.22,113.28,8.66,126.16-6.56,12.88-91.56,47.55-97.51,45.14-5.95-2.41-17.5-18.77-14.61-26.47,2.89-7.7,65.79-40.03,69.64-44.36s-.76-41.79,3.56-72.57c4.28-30.45,24.79-33.41,30.26-27.91Z" style="fill: #fe87a0;"/>
          <path d="M1449.62,963.23c-.06-6.26,19.7-29.21,22.26-26.84,2.57,2.37-8.99,19.09-8.99,19.09,0,0,18.88-14.57,20.87-12.77s-14.98,18.01-14.98,18.01c0,0,14.65-6.89,15.94-4.77,1.3,2.13-13.95,10.23-13.95,10.23,0,0,10.32-1.93,10.94.72s-31.84,21.17-32.09-3.67Z" style="fill: #f8b396;"/>
        </g>
        <g>
          <path d="M493.51,1231.5c11.98-3.7,22-21.05,12.91-32.23-9.08-11.18-25.32-5.01-25.32-5.01,0,0-13.41-22.24-39.67-13.86-26.26,8.38-20.96,36.8-20.96,36.8,0,0-18.38-2.12-20.73,23.27-2.79,30.26,44.24,56.7,51.74,52.62,7.5-4.08,42.02-61.59,42.02-61.59Z" style="fill: #612d0a;"/>
          <path d="M435.18,1252.87c-6.43-2.77-13.06,4.24-8.88,11.94,4.18,7.7,10.96,7.57,13.42,4.4,2.47-3.17-4.55-16.34-4.55-16.34Z" style="fill: #f8b396;"/>
          <path d="M431.66,1256.69c-5.35.67-.43,8.95,3.56,8.67,3.99-.28-3.56-8.67-3.56-8.67Z" style="fill: #cc7459;"/>
          <path d="M466.34,1319.67c-7.6,1.77-21.31-5.78-21.31-5.78l2.52-32.6.31-4.09,13.08,6.39,7.89,3.85,2.46,15.34,1.31,8.28s1.33,6.83-6.27,8.6Z" style="fill: #f8b396;"/>
          <path d="M471.3,1302.79c-8.35-.09-19.7-11.57-23.75-21.49,0,0,7.15.96,13.39,2.31l7.89,3.85,2.46,15.34Z" style="fill: #f3936c;"/>
          <path d="M497.77,1252.99c.23,1.86.4,3.72.45,5.54.56,17.67-4.29,32.41-20.34,34.38-22.74,2.77-48.46-25.41-46.32-40.7.04.03.04.06.04.06,19.49-3.5,33.99-33.58,33.99-33.58,0,0,15.98,14.75,27.91,12.81,2.19,7.62,3.64,14.88,4.26,21.49Z" style="fill: #f8b396;"/>
          <path d="M485.07,1247.44c.36,2.51,1.51,4.42,2.57,4.27,1.06-.15,1.63-2.31,1.27-4.81-.36-2.51-1.51-4.42-2.57-4.27s-1.63,2.31-1.27,4.81Z" style="fill: #471200;"/>
          <path d="M466.83,1249.72c.36,2.51,1.51,4.42,2.57,4.27,1.06-.15,1.63-2.31,1.27-4.81s-1.51-4.42-2.57-4.27c-1.06.15-1.63,2.31-1.27,4.81Z" style="fill: #471200;"/>
          <path d="M459.27,1240.09c-.47,1.62,8.29-2.3,8.51-3.32.22-1.02-.96-1.28-2.74-.99-1.77.3-5.65,3.9-5.77,4.31Z" style="fill: #612d0a;"/>
          <path d="M491.46,1237.08c.63,1.56-8.48-1.44-8.8-2.43-.32-.99.83-1.37,2.62-1.26s6.02,3.29,6.18,3.69Z" style="fill: #612d0a;"/>
          <g>
            <path d="M471.2,1277.06c.47,2.6,4.34,4.09,8.65,3.31,4.31-.78,7.43-3.51,6.96-6.12-.47-2.6-4.34-4.08-8.65-3.31-4.31.78-7.43,3.51-6.96,6.12Z" style="fill: #f86856;"/>
            <path d="M476.8,1277.04c4.07-.12,8.35-.94,10.82-2.41.2-.12.24-.33.09-.46-.16-.14-.45-.17-.64-.04-4.54,2.7-16.07,3.11-18.98.69-.17-.12-.45-.14-.65-.02-.19.13-.22.34-.06.47,1.61,1.32,5.41,1.89,9.43,1.78Z" style="fill: #471200;"/>
          </g>
          <path d="M451.49,1262.29c-.05,3.36,3.28,6.12,7.42,6.18,4.15.06,7.55-2.62,7.59-5.97.05-3.36-3.28-6.12-7.42-6.18-4.15-.06-7.55,2.62-7.59,5.97Z" style="fill: #f08d78;"/>
          <path d="M480.25,1264.59c1.54-.28,2.75-1.07,3.41-2.27.72-1.3.67-2.87-.13-4.11-.97-1.51-2.85-2.28-5.18-2.1-.23.02-.33.18-.31.36.02.19.18.32.36.31,2.07-.16,3.73.5,4.56,1.79.66,1.03.7,2.35.1,3.42-.73,1.32-2.27,2.06-4.2,2.04-.18-.01-.34.15-.34.33,0,.19.15.34.33.34.49,0,.95-.03,1.39-.11Z" style="fill: #c07255;"/>
          <path d="M377.79,1507.86c5.3,1.74,17.15,28.98,15.38,30.41-1.77,1.43-11.78-8.82-11.78-8.82,0,0,1.4,33.42-.74,34.16-2.14.74-6.16-22.23-6.16-22.23,0,0,.99,25.5-1.47,25.74-2.46.24-4.46-26.42-4.46-26.42,0,0-.42,24.31-3.56,22.14-1.16-.8-1.73-22.35-1.73-22.35,0,0-1.89,15.33-3.31,15.11s-2.16-13.68-.72-24.73c1.43-11.04,4.89-33.87,6.3-34.42,1.41-.56,10.98-1.07,10.98-1.07l1.27,12.49Z" style="fill: #f8b396;"/>
          <path d="M356.44,1509.41c2.63,2.2,24.15.44,28.55-3.95,4.39-4.39-5.27-63.68-1.32-77.29,3.95-13.61,23.28-27.23,23.28-27.23,0,0,5.27,107.3,6.59,109.43,1.32,2.12,22.84,7.83,67.63,5.64,44.79-2.2,54.9-5.27,57.97-9.66,3.07-4.39,0-119.89,0-119.89,0,0,30.56,36.34,48.56,33.71,18.01-2.63,65.47-65.76,64.15-69.28-1.32-3.51-17.75-19.18-22.14-17.86-4.39,1.32-37.44,35.86-41.39,37.18-3.73,1.24-50.32-47.91-70.78-58.74-1.24-.66-2.42-1.17-3.44-1.54-6.77-2.31-14.38-3.29-21.3-3.62-11.49-.62-20.85.62-20.85.62-6.62,13.72-26.38,0-26.38,0,0,0-7.19.73-17.29,2.85-7.36,1.5-15.41,3.7-21.34,6.84-1.35.73-2.93,1.76-4.72,3.11-16.65,12.52-49.44,51.24-55.01,99.65-6.15,53.58,6.59,87.83,9.22,90.03Z" style="fill: #fecd3d;"/>
          <path d="M449.43,1759.48c4.17,10.1,8.34,26.79,4.39,30.3-3.95,3.51-72.02,4.03-73.78,1.54-3.73-5.27,16.52-23.71,37.68-29.2,21.16-5.49,31.7-2.64,31.7-2.64Z" style="fill: #54493f;"/>
          <path d="M497.12,1759.48c-4.17,10.1-8.34,26.79-4.39,30.3,3.95,3.51,72.02,4.03,73.78,1.54,3.73-5.27-16.52-23.71-37.68-29.2-21.16-5.49-31.7-2.64-31.7-2.64Z" style="fill: #54493f;"/>
          <path d="M539.13,1506.07c9.88,143.93,1.98,248.19-1.98,253.81s-39.52,6.16-43.48.54-1.98-84-2.63-111.29c-.66-27.29-10.1-103.21-16.03-100-5.93,3.21-18.23,74.32-20.2,108.03-1.98,33.71,3.11,103.69,0,106.14-5.27,4.15-42.82,4.61-46.77-5.02s-7.03-189.16,4.61-243.56c11.64-54.4,126.48-8.65,126.48-8.65Z" style="fill: #0c87b3;"/>
          <path d="M406.94,1400.94s5.27,107.3,6.59,109.43c1.32,2.12,22.84,7.83,67.63,5.64,44.79-2.2,54.9-5.27,57.97-9.66,3.07-4.39,0-119.89,0-119.89,0,0-7.54-54.46-21.59-74.99-1.24-.66-2.42-1.17-3.44-1.54-6.77-2.31-14.38-3.29-21.3-3.62,1.39,36.85-10.94,60.02-15.59,61.7-4.72,1.72-38.39-26.94-48.93-58.23-7.36,1.5-15.41,3.7-21.34,6.84-1.35.73-2.93,1.76-4.72,3.11,0,0,9.99,26.31,11.31,52.66,1.32,26.35-6.59,28.55-6.59,28.55Z" style="fill: #96a128;"/>
          <path d="M633.57,1377.36l62.74-277.1c.16-.72.88-1.18,1.6-1.01.71.16,1.16.86,1.02,1.58l-56.99,278.34c-.47,2.32-2.74,3.81-5.05,3.33-2.32-.47-3.81-2.74-3.33-5.05,0-.02.01-.06.02-.09Z" style="fill: #54493f;"/>
          <path d="M665.04,1337.96c2.08-6.35-10.63-36.07-14-34.49-3.38,1.58,3,22.33,3,22.33,0,0-14.52-20.92-17.12-19.72-2.6,1.2,9.44,23.16,9.44,23.16,0,0-12.68-11.74-14.69-9.99-2.01,1.75,10.89,14.91,10.89,14.91,0,0-9.88-5.29-11.36-2.8-1.49,2.49,25.57,31.81,33.84,6.61Z" style="fill: #f8b396;"/>
        </g>
        <g>
          <path d="M1178.17,1059.73c-1.86-5.05,11.64-30.33,13.78-29.84,2.14.48.39,14.19.39,14.19,0,0,24.43-21.08,26.27-19.9,1.84,1.17-13.12,17.98-13.12,17.98,0,0,18.69-16.02,20.35-14.3s-17.31,19.2-17.31,19.2c0,0,18.63-14.24,18.88-10.57.09,1.35-15.87,14.7-15.87,14.7,0,0,12.72-7.75,13.4-6.55.68,1.2-9.05,9.83-18.26,15.36-9.21,5.53-28.54,16.59-29.8,15.86-1.27-.73-7.39-7.66-7.39-7.66l8.68-8.44Z" style="fill: #f8b396;"/>
          <path d="M1045.07,1041.79c22.31,8.14,70.87,50.26,70.87,50.26,0,0,54.33-36.17,57.39-35.68,3.06.5,16.94,13.13,15.7,19.57-1.24,6.44-50.05,53.52-74.33,53.02-24.28-.5-64.91-37.41-64.91-37.41l-4.72-49.77Z" style="fill: #fcce3a;"/>
          <g>
            <path d="M978.4,1519.43c3.8,3.39,69.45,3.88,71.15,1.49,2.27-3.18-4.67-11.44-15.2-18.46-6.15-4.09-13.59-7.72-21.14-9.7-20.44-5.29-30.6-2.56-30.6-2.56-.74,1.86-1.49,3.92-2.23,6.07-3.01,9.29-5.08,20.4-1.98,23.17Z" style="fill: #f8b396;"/>
            <path d="M978.4,1519.43c3.8,3.39,69.45,3.88,71.15,1.49,2.27-3.18-4.67-11.44-15.2-18.46-9.37,3.1-37.82,1.32-53.97-6.19-3.01,9.29-5.08,20.4-1.98,23.17Z" style="fill: #54493f;"/>
          </g>
          <g>
            <path d="M824.4,1416c-.71,5.04,35.29,59.95,38.22,60.03,3.91.13,6.93-10.23,6.93-22.88-.01-7.39-1.11-15.59-3.65-22.97-6.94-19.94-14.84-26.88-14.84-26.88-1.96.41-4.09.94-6.29,1.51-9.4,2.64-19.79,7.09-20.38,11.2Z" style="fill: #f8b396;"/>
            <path d="M824.4,1416c-.71,5.04,35.29,59.95,38.22,60.03,3.91.13,6.93-10.23,6.93-22.88-7.78-6.08-22.08-30.74-24.78-48.34-9.4,2.64-19.79,7.09-20.38,11.2Z" style="fill: #54493f;"/>
          </g>
          <path d="M848.37,1402.37c0,3.26,2.06,8.55,5.2,13.5.33.62.74,1.2,1.16,1.82,4.42,6.36,10.41,11.73,15.82,10.94,10.03-1.49,120.41-57.23,120.41-57.23,0,0-11.73,115.37-10.78,118.55,1.49,4.96,33.82,5.08,38.28,1.36,4.46-3.72,28.86-91.3,28.86-142.83s-4.71-146.18-4.71-146.18l-63.96-3.72-2.15-.12-16.76-.99c-40.51,30.47-13.01,138.12-13.01,138.12,0,0-98.36,59.59-98.36,66.77Z" style="fill: #0c87b3;"/>
          <path d="M853.57,1415.87c.33.62.74,1.2,1.16,1.82,36.54-31.46,65.24-46.21,84.53-56.12,15.73-8.05,25.19-12.92,28.74-21.1,3.22-7.43,2.64-23.33,1.94-43.48-1.07-30.89-2.35-69.25,8.71-98.4.04-.25.17-.5.25-.74l-1.9-.74c-.17.45-.33.91-.5,1.36-10.98,29.4-9.7,67.72-8.63,98.61.66,19.08,1.24,35.59-1.78,42.57-3.22,7.47-12.47,12.22-27.75,20.07-19.37,9.95-48.15,24.73-84.77,56.16Z" style="fill: #0071a1;"/>
          <path d="M1015.35,1236c-8.67,52.03-6.19,94.51-8.67,109.69-2.48,15.18-15.73,25.71-15.73,25.71,0,0,18.21-5.08,23.66-24.4,5.45-19.33.74-111,.74-111Z" style="fill: #0071a1;"/>
          <path d="M1046.41,955.74c21.66-12.47-3.8-53.16-17.55-52.98s-16.91,10.03-16.91,10.03c0,0-15.3-23.17-39.02-5.33-23.72,17.84-.43,57.76-31.16,81.4-30.72,23.64-104.55,53.38-95.14,113.33,9.41,59.96,167.57,53.7,182.64,11.99,15.07-41.72-21.6-59.55-24.57-98.7-2.97-39.15,41.71-59.75,41.71-59.75Z" style="fill: #b5573b;"/>
          <path d="M983.85,978.66c-6.89-2.97-14,4.55-9.52,12.81,4.48,8.26,11.75,8.12,14.4,4.72,2.64-3.4-4.88-17.53-4.88-17.53Z" style="fill: #f8b396;"/>
          <path d="M980.08,982.76c-5.74.72-.46,9.6,3.82,9.3,4.28-.3-3.82-9.3-3.82-9.3Z" style="fill: #cc7459;"/>
          <path d="M1017.27,1050.3c-8.15,1.9-22.85-6.2-22.85-6.2l2.7-34.96.34-4.38,14.03,6.86,8.46,4.13,2.64,16.45,1.4,8.88s1.43,7.33-6.72,9.23Z" style="fill: #f8b396;"/>
          <path d="M1022.59,1032.2c-8.95-.1-21.12-12.41-25.47-23.05,0,0,7.67,1.03,14.36,2.47l8.46,4.13,2.64,16.45Z" style="fill: #f3936c;"/>
          <path d="M1050.98,978.79c.25,1.99.43,3.99.48,5.94.6,18.95-4.6,34.76-21.81,36.87-24.39,2.97-51.97-27.25-49.68-43.65.04.03.05.07.05.07,20.91-3.75,36.45-36.01,36.45-36.01,0,0,17.13,15.82,29.94,13.74,2.35,8.17,3.91,15.96,4.57,23.05Z" style="fill: #f8b396;"/>
          <path d="M1037.36,972.84c.38,2.69,1.61,4.74,2.75,4.58,1.14-.16,1.75-2.47,1.37-5.16-.38-2.69-1.61-4.74-2.75-4.58-1.14.16-1.75,2.47-1.37,5.16Z" style="fill: #471200;"/>
          <path d="M1017.79,975.28c.38,2.69,1.61,4.74,2.75,4.58,1.14-.16,1.75-2.47,1.37-5.16s-1.61-4.74-2.75-4.58c-1.14.16-1.75,2.47-1.36,5.16Z" style="fill: #471200;"/>
          <path d="M1009.69,964.95c-.5,1.74,8.89-2.47,9.12-3.56s-1.03-1.38-2.94-1.06c-1.9.32-6.06,4.18-6.19,4.62Z" style="fill: #b5573b;"/>
          <path d="M1044.21,961.72c.68,1.67-9.1-1.54-9.44-2.6-.34-1.06.89-1.47,2.81-1.36s6.46,3.53,6.63,3.96Z" style="fill: #b5573b;"/>
          <g>
            <path d="M1022.49,1004.61c.5,2.79,4.65,4.38,9.28,3.55,4.62-.83,7.96-3.77,7.46-6.56-.5-2.79-4.65-4.38-9.28-3.55-4.62.83-7.96,3.77-7.46,6.56Z" style="fill: #f86856;"/>
            <path d="M1028.49,1004.59c4.36-.13,8.95-1.01,11.6-2.58.21-.13.26-.35.09-.5-.17-.15-.48-.19-.68-.05-4.87,2.89-17.24,3.34-20.36.74-.18-.13-.48-.15-.69-.02-.2.14-.23.36-.06.5,1.73,1.42,5.8,2.03,10.11,1.9Z" style="fill: #471200;"/>
          </g>
          <path d="M1001.34,988.77c-.05,3.6,3.52,6.57,7.96,6.63,4.45.06,8.09-2.81,8.14-6.41.05-3.6-3.52-6.57-7.96-6.63-4.45-.06-8.09,2.81-8.14,6.41Z" style="fill: #f08d78;"/>
          <path d="M1032.19,991.23c1.65-.3,2.94-1.15,3.66-2.44.77-1.39.72-3.08-.14-4.41-1.04-1.62-3.06-2.44-5.55-2.25-.25.02-.35.19-.34.39.02.2.19.35.39.34,2.22-.17,4,.53,4.89,1.92.71,1.11.75,2.52.11,3.67-.79,1.41-2.43,2.21-4.5,2.19-.19-.01-.37.16-.37.36,0,.2.16.37.36.37.52,0,1.02-.03,1.49-.12Z" style="fill: #c07255;"/>
          <path d="M1023.55,1038.29c-.02,9.67-28.84,2.1-28.84,2.1,0,0-21.93,7.8-30.11,15.98-8.18,8.18-6.72,137.02-4.86,141.11s28.62,9.29,47.94,9.66c19.33.37,31.96-1.49,34.93-4.83s-4.12-34.93,8.9-52.77,23.21-27.05,20.46-49.06c-2.23-17.84-6.81-39.39-17.16-51.66-10.34-12.26-31.26-10.53-31.26-10.53Z" style="fill: #ec321e;"/>
          <path d="M1265.11,1050.45s-6.9,1.48-17.68,3.66c-36.56,7.33-117.08,22.12-116.44,10.71.21-3.1,1.69-10.36,4.02-19.79.28-1.06.56-2.18.85-3.31.28-1.06.56-2.18.85-3.38.85-3.31,1.76-6.76,2.75-10.36,5.42-20.22,12.47-44.31,18.03-61.71.14-.49.35-.99.49-1.48,1.62-5.07,3.1-9.51,4.37-13.03,2.04-5.71,3.52-9.09,4.16-9.09,3.03,0,62.55,64.88,90.1,97.49,3.31,3.94,6.2,7.33,8.38,10.14.07.07.14.07.14.14Z" style="fill: #ec321e;"/>
          <path d="M1217.21,1153.79c-28.11,63.61-36.28,93.41-38.04,91.3,0,0-3.31.07-8.73.21-23.67.56-87.91,1.83-94.61-.21-8.24-2.54,10.14-197.81,15.85-202.88.56-.42,3.17-.77,7.33-.92,7.75-.28,21.06-.07,36.84.42,37.48,1.27,88.9,4.23,114.12,6.55,2.47.28,4.72.49,6.62.7,4.65.49,7.61.99,8.38,1.34.07.07.14.07.14.14,2.18,3.17-22.89,46.78-47.9,103.34Z" style="fill: #ec321e;"/>
          <path d="M1149.37,956.93c-5.07,18.07-20.6,80.81-20.6,80.81l110,7.31v-5.71l-89.39-82.42Z" style="fill: #fee4ad;"/>
          <path d="M1162.37,951.73c18.7,17.57,94.24,97.25,94.24,97.25,0,0-158.28-3.16-157.64-7.82.63-4.66,11.61-15.12,13.73-16.07,2.12-.95,122.87,16.07,122.87,16.07,0,0-87.19-81.37-86.2-84.22s13-5.21,13-5.21Z" style="fill: #fff;"/>
          <path d="M1217.21,1153.79c-28.11,63.61-36.28,93.41-38.04,91.3,0,0-3.31.07-8.73.21,15.5-47.2,65.87-165.12,77-191.19,1.48-3.31,2.25-5.14,2.25-5.14,0,0,0-.07.07-.14.07-.14.14-.35.21-.56.42-.92,1.2-2.47,2.18-4.02,1.2-1.83,2.75-3.73,4.44-4.09,3.31,3.94,6.2,7.33,8.38,10.14.07.07.14.07.14.14,2.18,3.17-22.89,46.78-47.9,103.34Z" style="fill: #ba0f03;"/>
          <path d="M1118.72,1071.4c2.13-.35,93.84,1.26,92.4,6.38s-26.03,70.27-26.03,70.27c0,0-66.65-4.91-71.66-6.91s5.29-69.74,5.29-69.74Z" style="fill: #ba0f03;"/>
          <path d="M1054.67,1178c2.02-4.99,29-14.65,30.25-12.85s-9.24,10.77-9.24,10.77c0,0,32.25.8,32.83,2.9.58,2.11-21.79,4.51-21.79,4.51,0,0,24.61.69,24.68,3.07.08,2.38-25.72,2.59-25.72,2.59,0,0,23.37,1.96,21.08,4.85-.84,1.06-21.63.23-21.63.23,0,0,14.63,2.8,14.33,4.15-.3,1.35-13.31,1.2-23.85-.89-10.54-2.09-32.28-6.88-32.73-8.27-.44-1.39-.33-10.64-.33-10.64l12.1-.42Z" style="fill: #f8b396;"/>
          <path d="M1053.21,1172.57c-6.74-4.47-79.73-27.25-79.73-27.25,0,0,27.86-90.58-2.97-90.56-24.23.02-39.32,85.02-30.23,109.14,8.55,22.67,104.02,33.37,107.77,31.59,6.52-3.1,9.05-20.33,5.15-22.92Z" style="fill: #fcce3a;"/>
        </g>
        <path d="M753.72,421.14c3.38-1.49,6.85-2.61,10.33-3.37-14.13-27.54-34.99-49.65-59.65-65.18-4.45,14.85-15.15,27.73-30.47,34.47-27.77,12.22-60.2-.39-72.43-28.16-4.51-10.25-5.64-21.14-3.87-31.42-17.01,1.74-34.04,6.13-50.55,13.4s-31.25,16.86-44.03,28.23c8.78,5.64,16.04,13.83,20.55,24.08,12.22,27.77-.39,60.2-28.16,72.43-15.31,6.74-32.05,5.93-46-.82-5.21,28.67-3,59,7.76,88.01,2.91-2.06,6.08-3.85,9.46-5.34,27.77-12.22,60.2.37,72.43,28.16,9.59,21.79,3.9,46.46-12.43,61.97,30.27,18.63,66.09,27.44,102.17,24.4-7.91-26.18,4.79-54.77,30.48-66.08,25.69-11.31,55.35-1.36,69.31,22.16,26.61-24.55,44.31-56.92,51.02-91.82-22.46,1.56-44.5-10.91-54.09-32.7-12.23-27.79.39-60.2,28.16-72.43ZM634.11,538.65c-24.33,10.71-52.73-.32-63.44-24.67-10.71-24.33.34-52.74,24.67-63.44,24.35-10.72,52.74.34,63.44,24.67,10.72,24.35-.32,52.73-24.67,63.44Z" style="fill: #b292ca;"/>
        <g>
          <path d="M769.92,939.62c-53.58-20.74-80.31-81.21-59.56-134.79,20.74-53.58,81.21-80.31,134.79-59.56,53.58,20.74,80.31,81.21,59.56,134.79-20.74,53.58-81.21,80.31-134.79,59.56ZM833.62,775.06c-37.16-14.38-79.08,4.15-93.47,41.3-14.38,37.16,4.15,79.08,41.3,93.47,37.16,14.38,79.08-4.15,93.47-41.3,14.38-37.16-4.15-79.08-41.3-93.47Z" style="fill: #5ebab3;"/>
          <g>
            <path d="M723.71,792.6s-20.57-16.18-27.79-14.87c-7.22,1.32-15.18,28.38-13.84,35.75,1.34,7.37,29.17,11.29,29.17,11.29l12.46-32.18Z" style="fill: #5ebab3;"/>
            <path d="M903.08,862.03s26.11,1.88,30.56,7.72c4.45,5.83-7.89,31.21-13.84,35.75-5.95,4.55-29.17-11.29-29.17-11.29l12.46-32.18Z" style="fill: #5ebab3;"/>
          </g>
          <g>
            <path d="M757.7,926.27s-16.18,20.57-14.87,27.79c1.32,7.22,28.38,15.18,35.75,13.84,7.37-1.34,11.29-29.17,11.29-29.17l-32.18-12.46Z" style="fill: #5ebab3;"/>
            <path d="M827.13,746.91s1.88-26.11,7.72-30.56c5.83-4.45,31.21,7.89,35.75,13.84s-11.29,29.17-11.29,29.17l-32.18-12.46Z" style="fill: #5ebab3;"/>
          </g>
          <g>
            <path d="M713.02,866.48s-25.99,3.1-30.16,9.14,9.34,30.8,15.5,35.07c6.16,4.26,28.61-12.64,28.61-12.64l-13.95-31.56Z" style="fill: #5ebab3;"/>
            <path d="M888.94,788.74s19.79-17.13,27.06-16.15c7.27.98,16.49,27.64,15.5,35.07s-28.61,12.64-28.61,12.64l-13.95-31.56Z" style="fill: #5ebab3;"/>
          </g>
          <g>
            <path d="M782.33,747.47s-3.1-25.99-9.14-30.16c-6.04-4.17-30.8,9.34-35.07,15.5-4.26,6.16,12.64,28.61,12.64,28.61l31.56-13.95Z" style="fill: #5ebab3;"/>
            <path d="M860.07,923.4s17.13,19.79,16.15,27.06c-.98,7.27-27.64,16.49-35.07,15.5-7.43-.99-12.64-28.61-12.64-28.61l31.56-13.95Z" style="fill: #5ebab3;"/>
          </g>
        </g>
        <g>
          <path d="M1595.81,252.64c-53.65,13.87-85.9,68.6-72.03,122.25,13.87,53.65,68.6,85.9,122.25,72.03,53.65-13.87,85.9-68.6,72.03-122.25s-68.6-85.9-122.25-72.03ZM1640.08,423.91c-40.93,10.58-82.71-14.04-93.29-54.96-10.58-40.93,14.04-82.71,54.96-93.29,40.93-10.58,82.71,14.04,93.29,54.96,10.58,40.93-14.04,82.71-54.96,93.29Z" style="fill: #0c87b3;"/>
          <g>
            <path d="M1582.18,221.51l4.74,44.01,22.91-5.92-17.18-40.79c-2.44-5.8-11.14-3.55-10.47,2.71Z" style="fill: #0c87b3;"/>
            <path d="M1649.19,480.76l-17.18-40.79,22.91-5.92,4.74,44.01c.67,6.26-8.02,8.51-10.47,2.71Z" style="fill: #0c87b3;"/>
          </g>
          <g>
            <path d="M1749.19,311.04l-44.01,4.74,5.92,22.91,40.79-17.18c5.8-2.44,3.55-11.14-2.71-10.47Z" style="fill: #0c87b3;"/>
            <path d="M1489.94,378.06l40.79-17.18,5.92,22.91-44.01,4.74c-6.26.67-8.51-8.02-2.71-10.47Z" style="fill: #0c87b3;"/>
          </g>
          <g>
            <path d="M1684.23,231.69l-27.77,34.47,20.38,12.01,16.7-40.99c2.37-5.83-5.37-10.39-9.31-5.49Z" style="fill: #0c87b3;"/>
            <path d="M1548.29,462.39l16.7-40.99,20.38,12.01-27.77,34.47c-3.95,4.9-11.69.34-9.31-5.49Z" style="fill: #0c87b3;"/>
          </g>
          <g>
            <path d="M1733.53,422.41l-40.99-16.7,12.01-20.38,34.47,27.77c4.9,3.95.34,11.69-5.49,9.31Z" style="fill: #0c87b3;"/>
            <path d="M1502.82,286.47l34.47,27.77,12.01-20.38-40.99-16.7c-5.83-2.37-10.39,5.37-5.49,9.31Z" style="fill: #0c87b3;"/>
          </g>
          <rect x="1616.95" y="263.86" width="8.74" height="168.48" transform="translate(-35.52 416.84) rotate(-14.49)" style="fill: #0c87b3;"/>
          <rect x="1537.09" y="343.73" width="168.48" height="8.74" transform="translate(-35.52 416.84) rotate(-14.49)" style="fill: #0c87b3;"/>
          <rect x="1537.09" y="343.73" width="168.48" height="8.74" transform="translate(498.37 1568.28) rotate(-59.49)" style="fill: #0c87b3;"/>
          <rect x="1616.96" y="263.86" width="8.74" height="168.48" transform="translate(498.37 1568.28) rotate(-59.49)" style="fill: #0c87b3;"/>
          <circle cx="1620.92" cy="349.78" r="20.63" transform="translate(-5.67 672.17) rotate(-23.39)" style="fill: #0c87b3;"/>
        </g>
      </g>
    </g>
  </g>
</svg>