<?xml version="1.0" encoding="UTF-8"?>
<svg xmlns="http://www.w3.org/2000/svg" xmlns:xlink="http://www.w3.org/1999/xlink" viewBox="0 0 1920 950">
  <defs>
    <linearGradient id="linear-gradient" x1="1399.82" y1="463.64" x2="2044.4" y2="1078.92" gradientTransform="translate(1919.28) rotate(-180) scale(1 -1)" gradientUnits="userSpaceOnUse">
      <stop offset="0" stop-color="#f5f9f8"/>
      <stop offset=".2" stop-color="#ebf5f2"/>
      <stop offset=".64" stop-color="#ddefe9"/>
      <stop offset="1" stop-color="#d8ede6"/>
    </linearGradient>
    <clipPath id="clippath">
      <polygon points="1657.06 947.7 230.18 958.87 96.8 -125.54 1657.06 2.3 1657.06 947.7" style="fill: none;"/>
    </clipPath>
    <linearGradient id="linear-gradient-2" x1="1123.8" y1="396.4" x2="1533.63" y2="396.4" gradientTransform="translate(1919.28) rotate(-180) scale(1 -1)" gradientUnits="userSpaceOnUse">
      <stop offset="0" stop-color="#fff9bd"/>
      <stop offset=".18" stop-color="#fef3b9"/>
      <stop offset=".4" stop-color="#fce5ae"/>
      <stop offset=".64" stop-color="#facc9c"/>
      <stop offset=".9" stop-color="#f6aa84"/>
      <stop offset="1" stop-color="#f59b79"/>
    </linearGradient>
    <linearGradient id="linear-gradient-3" x1="1740.41" y1="699.93" x2="1603.5" y2="570.03" gradientTransform="translate(1625.11 1245.01) rotate(-117.16) scale(1 -1)" gradientUnits="userSpaceOnUse">
      <stop offset="0" stop-color="#fdc3b7"/>
      <stop offset=".23" stop-color="#fcbfb1"/>
      <stop offset=".51" stop-color="#fab6a3"/>
      <stop offset=".82" stop-color="#f7a68a"/>
      <stop offset="1" stop-color="#f59b79"/>
    </linearGradient>
    <linearGradient id="linear-gradient-4" x1="1534.81" y1="534.96" x2="1578.71" y2="533.42" gradientTransform="translate(1786.01 1034.33) rotate(-128.01) scale(1 -1)" gradientUnits="userSpaceOnUse">
      <stop offset="0" stop-color="#6a938e"/>
      <stop offset=".27" stop-color="#6c9891"/>
      <stop offset=".61" stop-color="#75a69a"/>
      <stop offset=".97" stop-color="#82bfa9"/>
      <stop offset="1" stop-color="#84c2ab"/>
    </linearGradient>
    <linearGradient id="linear-gradient-5" x1="1281.36" y1="467.04" x2="1388.01" y2="552.6" gradientTransform="translate(1786.01 1034.33) rotate(-128.01) scale(1 -1)" gradientUnits="userSpaceOnUse">
      <stop offset="0" stop-color="#a4cabd"/>
      <stop offset=".17" stop-color="#98c3b5"/>
      <stop offset=".47" stop-color="#8abaaa"/>
      <stop offset=".73" stop-color="#85b8a7"/>
      <stop offset=".73" stop-color="#84b7a6"/>
      <stop offset=".81" stop-color="#73a999"/>
      <stop offset=".89" stop-color="#6aa091"/>
      <stop offset="1" stop-color="#679e8f"/>
    </linearGradient>
    <linearGradient id="linear-gradient-6" x1="1264.13" y1="451.85" x2="1254.81" y2="481.65" gradientTransform="translate(1786.01 1034.33) rotate(-128.01) scale(1 -1)" gradientUnits="userSpaceOnUse">
      <stop offset="0" stop-color="#84c2ab"/>
      <stop offset=".03" stop-color="#82bfa9"/>
      <stop offset=".39" stop-color="#75a69a"/>
      <stop offset=".73" stop-color="#6c9891"/>
      <stop offset="1" stop-color="#6a938e"/>
    </linearGradient>
    <radialGradient id="radial-gradient" cx="1402.62" cy="493.38" fx="1402.62" fy="493.38" r="246.75" gradientTransform="translate(1786.01 1032.83) rotate(-128.14) scale(1 -1) skewX(.27)" gradientUnits="userSpaceOnUse">
      <stop offset="0" stop-color="#a4cabd"/>
      <stop offset=".11" stop-color="#98c3b5"/>
      <stop offset=".33" stop-color="#8abaaa"/>
      <stop offset=".5" stop-color="#85b8a7"/>
      <stop offset=".51" stop-color="#84b7a6"/>
      <stop offset=".64" stop-color="#73a999"/>
      <stop offset=".8" stop-color="#6aa091"/>
      <stop offset="1" stop-color="#679e8f"/>
    </radialGradient>
    <linearGradient id="linear-gradient-7" x1="1410.79" y1="385.72" x2="1470.26" y2="414.29" xlink:href="#linear-gradient-6"/>
    <linearGradient id="linear-gradient-8" x1="1581.61" y1="538.44" x2="1589.13" y2="564.93" xlink:href="#linear-gradient-3"/>
    <linearGradient id="linear-gradient-9" x1="1585.13" y1="560.29" x2="1585.78" y2="584.49" xlink:href="#linear-gradient-3"/>
    <linearGradient id="linear-gradient-10" x1="1586.01" y1="582.43" x2="1580.79" y2="606.93" xlink:href="#linear-gradient-3"/>
    <linearGradient id="linear-gradient-11" x1="1601.24" y1="550.34" x2="1599.9" y2="580.48" gradientTransform="translate(1786.01 1034.33) rotate(-128.01) scale(1 -1)" xlink:href="#linear-gradient-3"/>
    <linearGradient id="linear-gradient-12" x1="1060.52" y1="413.61" x2="1064.58" y2="413.61" gradientTransform="translate(1955.37 152.26) rotate(-172.84) scale(1 -1)" xlink:href="#linear-gradient"/>
    <linearGradient id="linear-gradient-13" x1="1070.68" y1="354.36" x2="1251.08" y2="354.36" gradientTransform="translate(1955.37 152.26) rotate(-172.84) scale(1 -1)" xlink:href="#linear-gradient"/>
    <linearGradient id="linear-gradient-14" x1="1264.47" y1="310.41" x2="1271.12" y2="310.41" gradientTransform="translate(1955.37 152.26) rotate(-172.84) scale(1 -1)" xlink:href="#linear-gradient"/>
    <linearGradient id="linear-gradient-15" x1="1071.32" y1="494.12" x2="1074.81" y2="494.12" gradientTransform="translate(1955.37 152.26) rotate(-172.84) scale(1 -1)" xlink:href="#linear-gradient"/>
    <linearGradient id="linear-gradient-16" x1="1078.79" y1="401.6" x2="1251" y2="401.6" gradientTransform="translate(1955.37 152.26) rotate(-172.84) scale(1 -1)" xlink:href="#linear-gradient"/>
    <linearGradient id="linear-gradient-17" x1="1264.5" y1="323.02" x2="1271.13" y2="323.02" gradientTransform="translate(1955.37 152.26) rotate(-172.84) scale(1 -1)" xlink:href="#linear-gradient"/>
    <linearGradient id="linear-gradient-18" x1="1116.12" y1="548.59" x2="1119.08" y2="548.59" gradientTransform="translate(1955.37 152.26) rotate(-172.84) scale(1 -1)" xlink:href="#linear-gradient"/>
    <linearGradient id="linear-gradient-19" x1="1121.09" y1="439.04" x2="1252.51" y2="439.04" gradientTransform="translate(1955.37 152.26) rotate(-172.84) scale(1 -1)" xlink:href="#linear-gradient"/>
    <linearGradient id="linear-gradient-20" x1="1264.72" y1="340.04" x2="1271.14" y2="340.04" gradientTransform="translate(1955.37 152.26) rotate(-172.84) scale(1 -1)" xlink:href="#linear-gradient"/>
    <linearGradient id="linear-gradient-21" x1="1185.07" y1="562.31" x2="1187.4" y2="562.31" gradientTransform="translate(1955.37 152.26) rotate(-172.84) scale(1 -1)" xlink:href="#linear-gradient"/>
    <linearGradient id="linear-gradient-22" x1="1187.37" y1="457.25" x2="1255.97" y2="457.25" gradientTransform="translate(1955.37 152.26) rotate(-172.84) scale(1 -1)" xlink:href="#linear-gradient"/>
    <linearGradient id="linear-gradient-23" x1="1265.52" y1="358" x2="1271.15" y2="358" gradientTransform="translate(1955.37 152.26) rotate(-172.84) scale(1 -1)" xlink:href="#linear-gradient"/>
    <linearGradient id="linear-gradient-24" x1="1052.64" y1="657.84" x2="1355.53" y2="892.98" gradientTransform="translate(1919.28) rotate(-180) scale(1 -1)" xlink:href="#linear-gradient-3"/>
    <linearGradient id="linear-gradient-25" x1="1146.73" y1="721.77" x2="1302.77" y2="805.44" gradientTransform="translate(1919.28) rotate(-180) scale(1 -1)" xlink:href="#linear-gradient-3"/>
    <clipPath id="clippath-1">
      <path d="M896.24,580.32c-23.43,2.06-63.47,3.82-118.89,3.82s-95.46-1.76-118.89-3.82c0,0-36.63-62.22-33.3-88.33,3.33-26.11,60.42-137.44,158.72-137.44,98.3,0,132.26-4.78,134.92,7.22,2.66,12,44.09,170.65-22.57,218.55Z" style="fill: none;"/>
    </clipPath>
  </defs>
  <g style="isolation: isolate;">
    <g id="Layer_1" data-name="Layer 1">
      <path d="M269.38-9.25L407.64,0c91.51,60.08,173.46,160.91,275.21,245.92,184.37,154.04,356.38,153.21,467.31,310.85,90.41,128.48,16.79,316.51-60.55,393.23H0V0c0-243.34,262.3-37.22,269.38-9.25Z" style="fill: url(#linear-gradient);"/>
      <g style="clip-path: url(#clippath);">
        <g>
          <path d="M590.56,600.32c-113.17,0-204.91-91.3-204.91-203.92s91.74-203.92,204.91-203.92c11.54,0,22.84.96,33.86,2.79,18.85,17.58,38.24,34.98,58.42,51.76,32.38,26.92,64.38,49.08,95.73,68.18,10.86,24.88,16.9,52.33,16.9,81.19,0,112.62-91.74,203.92-204.91,203.92Z" style="fill: url(#linear-gradient-2); opacity: .2;"/>
          <g>
            <g>
              <path d="M191.09-70.5l145.43,113.54s83.28-34.04,89.21,46.31l-59.1,60.17s-42.42-2.47-78.03-41.04l-138.82-61.26C105.61,10.69,114.74-13.53,121.15-31.78c7.37-20.99,30.56-48.17,69.94-38.71Z" style="fill: url(#linear-gradient-3);"/>
              <path d="M347.01,134.87s-27.69-12.06-28.57-25.7c-.43-6.6,5.26-8.87,13.41-8.02-1.07-3.37-1.31-6.98-.05-10.63,2.53-7.34,8.98-8.58,16.72-6.79-1.65-11.69,10.01-18.44,24.31-13.04-1.03-6.21.44-12.24,8.13-14.21,10.71-2.74,35.37,20.64,41.09,36.63l-55.42,56.43s-5.55-.33-14.3-2.56c-3.39-1.2-6.99-2.62-10.78-4.36,2.22-4.78,5.46-7.74,5.46-7.74Z" style="fill: #f59b79;"/>
            </g>
            <g>
              <path d="M342.37,121.92l56.41-49.04c7.47-6.49,17.04-9.7,26.93-9.04,9.9.67,18.94,5.13,25.46,12.56l36.13,41.16c13.61,15.47,11.82,38.79-3.54,52.14l-56.41,49.04c-7.47,6.49-17.03,9.7-26.93,9.03-9.89-.66-18.94-5.12-25.46-12.56l-36.13-41.16c-.46-.52-.89-1.04-1.31-1.58-12.13-15.45-10-37.65,4.84-50.56ZM477.98,125.66l-36.12-41.16c-4.35-4.96-10.39-7.93-16.98-8.37-6.6-.44-12.97,1.7-17.95,6.03l-56.41,49.04c-10.25,8.9-11.32,24.51-2.36,34.76l36.13,41.16c4.35,4.95,10.38,7.93,16.98,8.37,6.6.44,12.97-1.69,17.95-6.02l56.41-49.04c9.9-8.6,11.32-23.41,3.24-33.7-.28-.36-.57-.71-.88-1.06Z" style="fill: url(#linear-gradient-4);"/>
              <polygon points="458.53 243.23 448.14 298.73 633.29 333.05 637.69 309.55 458.53 243.23" style="fill: url(#linear-gradient-5);"/>
              <polygon points="637.69 309.55 633.29 333.11 641.27 358.55 654.15 289.75 637.69 309.55" style="fill: url(#linear-gradient-6);"/>
              <polygon points="314.65 215.68 436.18 370.43 600.22 200.13 512.02 87.82 314.65 215.68" style="fill: url(#radial-gradient);"/>
              <polygon points="600.22 200.13 625.25 196.97 526.2 70.84 512.02 87.82 600.22 200.13" style="fill: url(#linear-gradient-7);"/>
            </g>
            <g>
              <path d="M417.14,118.26s18.02-3.75,14.58-20.29c-3.44-16.54-25.36-43.2-36.41-41.77-14.31,1.85-9.92,19.48-5.94,27.18,7.48,14.48,27.77,34.88,27.77,34.88Z" style="fill: url(#linear-gradient-8);"/>
              <path d="M393.87,127.8c7.34,2.09,21.2,2.42,23.26-9.54,2.05-11.95-16.27-40.89-31.63-48.94-15.37-8.05-29.3-.16-24.93,15.13,4.37,15.29,33.31,43.34,33.31,43.34Z" style="fill: url(#linear-gradient-9);"/>
              <path d="M377.34,137.8s13.76,7.35,21.93-1.07c8.15-8.42-2.67-31.74-16.81-43.21-14.13-11.47-33.32-23.37-40.11-9.49-6.86,14.02,10.56,30.35,10.56,30.35l24.43,23.43Z" style="fill: url(#linear-gradient-10);"/>
              <path d="M342.78,143.91c14.53,5.66,31.03,7.87,37.91,3.09,9.02-6.26,6.32-21.89-11.2-36.91-17.53-15.01-41.89-22.82-42.69-9.18-.79,13.65,25.2,28.98,25.2,28.98,0,0-7.44,5.28-9.22,14.02Z" style="fill: url(#linear-gradient-11);"/>
            </g>
          </g>
          <g>
            <g>
              <path d="M850.22,433.3c.13.02.27,0,.4-.04.5-.16.78-.68.62-1.18-.02-.07-.52-1.66-1.64-4.5-.19-.49-.74-.72-1.23-.53-.49.19-.73.74-.54,1.23,1.09,2.77,1.59,4.35,1.6,4.37.12.37.43.61.79.66Z" style="fill: url(#linear-gradient-12);"/>
              <path d="M841.55,414.58c-1.42-2.74-2.95-5.52-4.56-8.27-.27-.45-.11-1.03.34-1.29.45-.26,1.03-.11,1.3.34,1.63,2.78,3.18,5.59,4.61,8.36.24.47.06,1.04-.41,1.27-.18.09-.37.12-.55.1-.3-.04-.58-.22-.73-.51ZM828.84,393.57c-1.79-2.57-3.66-5.13-5.58-7.63-.32-.42-.24-1.01.18-1.32.41-.32,1.01-.24,1.33.18,1.94,2.52,3.83,5.11,5.63,7.7.3.43.19,1.02-.24,1.32-.2.14-.43.19-.66.16-.26-.03-.5-.17-.66-.4ZM813.59,374.32c-2.1-2.34-4.28-4.66-6.48-6.89-.37-.37-.36-.97.01-1.34.38-.36.98-.36,1.34.01,2.22,2.25,4.42,4.59,6.54,6.95.35.39.32.99-.08,1.33-.21.19-.49.27-.75.23-.22-.03-.43-.13-.59-.31ZM796.1,357.06c-2.37-2.06-4.81-4.1-7.27-6.05-.41-.32-.48-.92-.15-1.33.33-.41.92-.48,1.34-.15,2.48,1.97,4.95,4.02,7.34,6.11.4.34.44.94.09,1.33-.22.24-.53.35-.83.32-.18-.02-.36-.1-.51-.23ZM776.63,342.05c-2.6-1.77-5.28-3.5-7.95-5.14-.45-.27-.59-.86-.31-1.3.28-.44.87-.58,1.31-.31,2.7,1.66,5.4,3.4,8.02,5.18.43.29.55.88.25,1.31-.21.3-.56.45-.91.41-.14-.02-.29-.07-.42-.16ZM755.5,329.45c-2.78-1.44-5.64-2.85-8.5-4.18-.47-.22-.68-.78-.46-1.26.22-.47.79-.68,1.26-.46,2.88,1.34,5.76,2.76,8.57,4.22.47.24.65.81.4,1.28-.19.36-.58.55-.96.5-.11-.01-.22-.05-.32-.1ZM733.05,319.35c-2.92-1.12-5.92-2.21-8.91-3.22-.5-.17-.76-.71-.59-1.2.17-.49.73-.75,1.2-.59,3.02,1.02,6.04,2.12,8.98,3.25.49.19.73.74.54,1.22-.16.41-.58.65-1.01.6-.08,0-.15-.03-.22-.06ZM709.64,311.72c-3.01-.82-6.11-1.59-9.19-2.3-.51-.12-.83-.63-.71-1.13s.63-.81,1.14-.71c3.11.72,6.22,1.5,9.26,2.32.5.14.81.66.67,1.16-.13.46-.57.75-1.03.69-.04,0-.09-.01-.13-.03ZM685.57,306.42c-3.09-.53-6.25-1.02-9.38-1.45-.52-.07-.88-.55-.81-1.07.07-.51.54-.87,1.06-.81,0,0,0,0,.01,0,3.15.43,6.33.92,9.44,1.46.52.09.86.58.77,1.09-.09.5-.55.84-1.05.78-.01,0-.03,0-.04,0Z" style="fill: url(#linear-gradient-13);"/>
              <path d="M656.27,302.91s.03,0,.05,0c1.58.11,3.16.24,4.72.37.52.05.98-.34,1.03-.86.04-.52-.25-.99-.86-1.02-1.57-.14-3.15-.26-4.75-.37-.52-.04-.98.35-1.01.88-.04.5.33.94.83,1Z" style="fill: url(#linear-gradient-14);"/>
            </g>
            <g>
              <path d="M829.44,511.96c.1.01.2,0,.3-.01.52-.1.86-.59.76-1.1,0,0-.31-1.65-1.02-4.65-.12-.51-.64-.82-1.14-.7-.51.12-.83.63-.71,1.14.69,2.94,1,4.56,1.01,4.57.08.41.42.71.81.76Z" style="fill: url(#linear-gradient-15);"/>
              <path d="M823.59,491.7c-.91-3.03-1.9-6.13-2.93-9.23-.17-.5.1-1.03.6-1.2.5-.16,1.04.11,1.2.6,1.04,3.12,2.04,6.25,2.95,9.29.15.5-.14,1.03-.64,1.18-.13.04-.27.05-.39.03-.36-.04-.68-.3-.79-.67ZM815.4,467.88c-1.16-3-2.38-6.02-3.63-8.99-.2-.48.03-1.04.51-1.24.48-.2,1.04.02,1.24.51,1.25,2.98,2.48,6.02,3.65,9.03.19.49-.06,1.04-.55,1.22-.15.06-.31.08-.46.06-.33-.04-.64-.26-.77-.6ZM805.43,444.75c-1.4-2.93-2.85-5.85-4.31-8.68-.24-.46-.05-1.03.41-1.27.46-.24,1.04-.06,1.28.41,1.47,2.84,2.93,5.78,4.34,8.73.23.47.02,1.04-.45,1.26-.17.08-.35.11-.53.08-.31-.04-.6-.23-.74-.53ZM793.66,422.48c-1.63-2.79-3.32-5.58-5.02-8.29-.28-.44-.14-1.03.3-1.3.44-.28,1.03-.14,1.31.3,1.71,2.72,3.41,5.53,5.05,8.34.26.45.11,1.03-.35,1.29-.19.11-.4.14-.6.12-.28-.04-.55-.2-.7-.46ZM780.04,401.31c-1.87-2.63-3.8-5.26-5.75-7.79-.32-.41-.24-1.01.18-1.32.42-.32,1.01-.24,1.33.18,1.96,2.56,3.91,5.2,5.79,7.85.3.43.2,1.02-.23,1.32-.2.14-.44.19-.67.17-.26-.03-.5-.17-.66-.39ZM764.49,381.52c-2.13-2.44-4.32-4.85-6.51-7.17-.36-.38-.34-.98.04-1.34.38-.36.99-.34,1.34.04,2.21,2.33,4.42,4.76,6.56,7.23.34.39.3.99-.09,1.33-.21.18-.48.26-.74.22-.22-.03-.44-.13-.6-.32ZM746.94,363.47c-2.38-2.19-4.83-4.34-7.27-6.39-.4-.34-.45-.93-.11-1.33.34-.4.94-.45,1.34-.11,2.47,2.07,4.93,4.24,7.33,6.45.39.35.41.95.05,1.34-.22.23-.52.33-.81.3-.19-.02-.38-.1-.53-.24ZM727.44,347.57c-2.62-1.88-5.31-3.72-7.99-5.46-.44-.29-.56-.87-.28-1.31.29-.44.87-.56,1.31-.28,2.71,1.76,5.43,3.61,8.07,5.51.43.3.52.9.21,1.32-.21.29-.55.43-.89.38-.16-.02-.31-.07-.44-.17ZM706.13,334.19c-2.82-1.53-5.73-3.01-8.63-4.4-.47-.23-.67-.79-.44-1.26.22-.47.79-.67,1.27-.44,2.93,1.4,5.86,2.9,8.71,4.44.46.25.63.82.38,1.28-.19.35-.58.53-.95.49-.11-.01-.23-.05-.34-.11ZM683.28,323.66c-3-1.15-6.07-2.25-9.13-3.26-.5-.16-.77-.7-.6-1.19.16-.5.71-.76,1.2-.6,3.09,1.02,6.19,2.12,9.21,3.29.49.19.73.74.54,1.22-.16.41-.58.65-1,.6-.08,0-.15-.03-.22-.06Z" style="fill: url(#linear-gradient-16);"/>
              <path d="M659.36,316.14c.47.06.92-.24,1.04-.71.12-.51-.18-1.02-.69-1.14-1.54-.38-3.08-.74-4.65-1.09-.48-.12-1.02.2-1.13.72-.11.51.21,1.02.72,1.13,1.55.34,3.08.7,4.6,1.08.04,0,.07.02.11.02Z" style="fill: url(#linear-gradient-17);"/>
            </g>
            <g>
              <path d="M778.19,560.49c.06,0,.13.01.2,0,.52-.04.91-.5.87-1.02,0,0-.14-1.67-.48-4.72-.06-.52-.53-.88-1.05-.83-.52.06-.9.53-.84,1.05.34,3.01.47,4.65.48,4.67.04.45.39.81.83.86Z" style="fill: url(#linear-gradient-18);"/>
              <path d="M774.85,539.93c-.45-2.87-.96-6.01-1.56-9.38-.09-.51.25-1.01.77-1.09.52-.09,1.01.25,1.1.77.6,3.38,1.12,6.53,1.57,9.42.08.52-.27,1-.79,1.08-.09.01-.18.01-.26,0-.41-.05-.75-.37-.82-.79ZM770.38,515.62c-.63-2.99-1.32-6.09-2.06-9.28-.12-.51.2-1.02.71-1.14.5-.11,1.02.2,1.14.71.75,3.2,1.44,6.31,2.07,9.32.11.51-.22,1.01-.73,1.12-.11.02-.21.03-.31.01-.39-.05-.73-.34-.81-.74ZM764.62,491.59c-.81-3-1.66-6.05-2.56-9.15-.15-.5.14-1.02.65-1.17.5-.15,1.03.14,1.18.64.91,3.11,1.76,6.18,2.57,9.19.14.5-.16,1.02-.67,1.16-.12.03-.24.04-.36.02-.37-.05-.7-.31-.8-.69ZM757.54,467.92c-.99-2.97-2.02-5.97-3.1-8.98-.18-.49.08-1.03.58-1.21.5-.18,1.04.08,1.22.57,1.09,3.03,2.13,6.04,3.12,9.02.17.5-.11,1.03-.6,1.19-.14.05-.28.06-.42.04-.35-.04-.67-.28-.78-.64ZM749,444.75c-1.21-2.97-2.45-5.92-3.7-8.75-.21-.48,0-1.04.49-1.25.48-.21,1.04,0,1.25.49,1.26,2.85,2.51,5.81,3.73,8.8.2.48-.04,1.04-.53,1.23-.16.06-.32.08-.47.06-.33-.04-.63-.25-.76-.58ZM738.85,422.25c-1.41-2.82-2.88-5.65-4.37-8.41-.25-.46-.07-1.03.39-1.28.46-.24,1.04-.07,1.29.38,1.5,2.78,2.98,5.63,4.4,8.46.23.47.04,1.03-.43,1.27-.17.09-.36.11-.54.09-.3-.04-.58-.22-.73-.52ZM726.87,400.7c-1.67-2.7-3.4-5.38-5.15-7.97-.29-.43-.18-1.02.26-1.31.43-.29,1.03-.18,1.32.26,1.76,2.6,3.5,5.31,5.19,8.03.27.45.14,1.03-.31,1.3-.19.12-.41.16-.62.13-.28-.04-.53-.19-.69-.44ZM712.82,380.45c-1.96-2.51-3.98-4.98-6.01-7.34-.34-.4-.29-.99.1-1.33.4-.34,1-.29,1.34.1,2.05,2.38,4.09,4.87,6.07,7.41.32.41.25,1.01-.17,1.33-.21.16-.46.22-.7.19-.24-.03-.47-.15-.63-.36ZM696.46,362.02c-2.27-2.23-4.6-4.41-6.93-6.46-.39-.35-.43-.94-.08-1.33.35-.39.95-.42,1.34-.08,2.36,2.08,4.71,4.27,7,6.53.37.37.37.97,0,1.34-.22.22-.51.31-.79.27-.2-.02-.4-.11-.55-.27ZM677.7,346.09c-2.56-1.85-5.2-3.64-7.85-5.3-.44-.28-.58-.86-.29-1.31.28-.44.87-.57,1.31-.29,2.68,1.69,5.35,3.5,7.95,5.37.43.31.52.9.21,1.32-.21.29-.55.42-.89.38-.16-.02-.31-.08-.44-.17Z" style="fill: url(#linear-gradient-19);"/>
              <path d="M656.96,333.49c.39.05.78-.15.97-.52.23-.47.04-1.04-.43-1.27-1.42-.7-2.87-1.38-4.33-2.04-.48-.21-1.04,0-1.26.47-.22.48,0,1.04.47,1.25,1.44.65,2.86,1.32,4.27,2.01.1.05.2.08.3.09Z" style="fill: url(#linear-gradient-20);"/>
            </g>
            <g>
              <path d="M708.07,565.56s.05,0,.07,0c.52.03.97-.38,1-.9,0,0,.08-1.67.16-4.74.01-.52-.41-.97-.93-.97-.52-.01-.96.4-.97.92-.08,3.03-.16,4.68-.16,4.69-.02.5.34.92.83.99Z" style="fill: url(#linear-gradient-21);"/>
              <path d="M707.49,544.17c-.03-3.01-.09-6.3-.2-9.83-.01-.52.4-.96.92-.97.53,0,.96.4.98.92.1,3.55.16,6.85.19,9.87,0,.52-.42.95-.94.95-.04,0-.09,0-.13,0-.46-.06-.82-.45-.83-.93ZM706.62,518.61c-.18-3.16-.4-6.44-.66-9.81-.04-.52.35-.98.88-1.01.53-.04.98.35,1.02.87.25,3.38.47,6.67.65,9.85.03.52-.37.97-.89,1-.06,0-.12,0-.17,0-.45-.06-.8-.42-.83-.88ZM704.54,493.13c-.34-3.2-.72-6.46-1.14-9.77-.07-.52.3-.99.82-1.06.53-.06,1,.3,1.06.82.42,3.32.8,6.59,1.14,9.81.06.52-.32.98-.84,1.04-.07,0-.15,0-.22,0-.43-.05-.78-.39-.83-.84ZM701.16,467.8c-.52-3.21-1.08-6.44-1.69-9.68-.1-.51.24-1.01.76-1.1.51-.1,1.01.25,1.11.76.61,3.26,1.17,6.51,1.69,9.73.08.52-.27,1-.79,1.08-.09.01-.18.01-.27,0-.41-.05-.75-.36-.82-.79ZM696.27,442.73c-.74-3.21-1.53-6.42-2.34-9.53-.13-.51.17-1.02.68-1.15.51-.13,1.03.17,1.16.68.82,3.13,1.61,6.36,2.35,9.59.12.51-.2,1.02-.71,1.13-.11.02-.22.03-.33.02-.38-.05-.72-.33-.81-.73ZM689.56,418.1c-1.01-3.17-2.07-6.3-3.16-9.3-.18-.49.08-1.03.57-1.21.49-.18,1.04.08,1.22.57,1.09,3.02,2.16,6.18,3.18,9.37.16.5-.12,1.03-.62,1.19-.14.04-.27.05-.41.04-.36-.04-.67-.29-.79-.65ZM680.57,394.23c-1.35-3.04-2.76-6.02-4.19-8.87-.24-.47-.05-1.03.42-1.27.47-.23,1.04-.05,1.27.42,1.45,2.87,2.87,5.88,4.23,8.95.21.48,0,1.04-.49,1.25-.16.07-.34.09-.5.07-.32-.04-.61-.24-.75-.56ZM668.7,371.7c-1.76-2.8-3.61-5.53-5.49-8.1-.31-.42-.22-1.01.21-1.32.42-.31,1.02-.21,1.32.21,1.91,2.61,3.78,5.37,5.57,8.21.28.44.14,1.03-.3,1.3-.19.12-.41.16-.62.14-.27-.03-.53-.18-.69-.44Z" style="fill: url(#linear-gradient-22);"/>
              <path d="M653.83,351.92c.27.03.56-.05.77-.25.38-.36.4-.96.04-1.34-1.1-1.16-2.22-2.29-3.36-3.39-.37-.36-.98-.36-1.34.02-.37.37-.36.97.02,1.34,1.12,1.08,2.23,2.2,3.31,3.33.16.17.36.26.57.29Z" style="fill: url(#linear-gradient-23);"/>
            </g>
          </g>
          <g>
            <g>
              <g>
                <path d="M607.85,661.45c1.07-29.68,9.25-57.41,23.27-81.12.17,5.04,65.57,9.12,146.23,9.12,80.37,0,145.59-4.05,146.21-9.07,15.04,25.7,22.75,56.13,24.9,88.79,0,0,38.08,87.02,34.56,93.34-3.23,5.79-46.06,17.28-46.06,17.28,0,0,.22,61.32-27.99,105.53,0,0-69.82,14.04-116.36,5.62l7.05,75.09s-90.27,21.05-175.6,0l18.34-153.69s-38.02-55.07-34.56-150.89Z" style="fill: url(#linear-gradient-24);"/>
                <g>
                  <path d="M936.79,768.22c3.69-3.67,38.51-5.63,46.24-5.71-3.23,5.79-46.06,17.28-46.06,17.28,0,0-3.86-7.9-.17-11.57Z" style="fill: #f59b79;"/>
                  <path d="M725.54,872.2c37.07,17.44,67.08,18.74,67.08,18.74l7.05,75.09s-46.79-35.62-74.14-93.83Z" style="fill: #f59b79;"/>
                </g>
                <path d="M631.13,580.31c0,5.05,65.47,9.14,146.23,9.14,80.76,0,146.23-4.09,146.23-9.14s-65.47-9.15-146.23-9.15c-80.76,0-146.23,4.09-146.23,9.15Z" style="fill: #f59b79;"/>
                <path d="M777.36,584.14c55.41,0,95.45-1.76,118.89-3.82-24.08-2.09-65.09-3.86-118.89-3.86-53.8,0-94.81,1.77-118.89,3.86,23.43,2.06,63.47,3.82,118.89,3.82Z" style="fill: #d5403c;"/>
              </g>
              <path d="M616.7,749.09c10.84-15.28,28.72-25.26,48.94-25.26,33.08,0,59.89,26.69,59.89,59.61s-26.82,59.6-59.89,59.6c-9.39,0-18.27-2.15-26.18-5.99l2.95-24.71s-15.4-22.32-25.71-63.25Z" style="fill: #f59b79;"/>
              <g>
                <path d="M616.61,773.27c0,32.92,26.82,59.6,59.9,59.6,33.08,0,59.89-26.69,59.89-59.6s-26.82-59.6-59.89-59.6c-33.08,0-59.9,26.69-59.9,59.6Z" style="fill: url(#linear-gradient-25);"/>
                <path d="M642.2,737.43c15.84,2.84,31.48,9.5,41.14,22.88,3.92,5.44,7,11.58,8.95,18.02-11.12-5.59-28.38-3.1-32.32,10.15-2.37,7.96,1.68,15.66,8.02,20.54,7.09,5.46,14.94,7.12,23.65,7.74-.2.74-.41,1.49-.62,2.23-.48,1.65,2.09,2.34,2.57.71,3.27-11.25,5.11-23.11,2.99-34.76-1.73-9.5-5.49-18.95-11.44-26.66-10.38-13.47-25.72-20.45-42.22-23.41-1.68-.3-2.4,2.25-.7,2.56ZM693.26,781.99c.28,1.22.53,2.44.73,3.66,1.55,9.63.58,19.16-1.7,28.51-8.03-.52-16.01-1.77-22.43-7.01-5.2-4.25-9.93-10.96-7.34-17.96,4.54-12.26,20.88-13.79,30.74-7.2Z" style="fill: #f59b79;"/>
              </g>
            </g>
            <g style="clip-path: url(#clippath-1);">
              <g>
                <g>
                  <path d="M799.01,509.2s59.48,10.22,104.61-74.2c0,0-87.55,2.93-104.61,74.2Z" style="fill: #89c3ad;"/>
                  <path d="M903.62,435s-87.55,2.93-104.61,74.2l104.61-74.2Z" style="fill: #679e8f;"/>
                  <path d="M817.96,489.53c-.19.18-.26.37-.26.56-.45.31-.91.61-1.36.93-.27.19-.37.46-.37.73-5.69,5.02-11.19,10.24-16.48,15.65-.16.6-.32,1.19-.46,1.79,0,0,.35.06,1.02.14,6.22-6.41,12.74-12.52,19.51-18.38,14.08-9.39,30.54-14.76,46.53-19.97,5.47-1.78,11.04-3.14,16.66-4.21.54-.67,1.09-1.35,1.64-2.03-5.83,1.03-11.61,2.37-17.33,4.1-13.13,3.98-26.74,8.5-39.03,15.03,23.26-18.83,49.08-34.81,75.45-48.86-.47.02-1.97.1-4.31.32-24.55,13.27-48.57,28.25-70.41,45.68,8.43-9.3,16.17-19.24,25.44-27.76,4.22-3.87,8.54-7.63,12.97-11.27-1.5.48-3.02,1-4.56,1.54-2.44,2.07-4.87,4.17-7.25,6.31-13.6,12.18-24.02,27.29-37.37,39.69Z" style="fill: #84c2ab; mix-blend-mode: multiply;"/>
                </g>
                <g>
                  <path d="M755.59,498.87s9.02-70.95-67.8-91.96c0,0-12.24,71.84,67.8,91.96Z" style="fill: #94c7b6;"/>
                  <path d="M755.59,498.87s9.02-70.95-67.8-91.96l67.8,91.96Z" style="fill: #6a938e;"/>
                  <path d="M738.93,486.89c4.45,3.61,9.02,7.43,14.05,10.31-13.36-14.77-25.31-30.78-38.17-45.98-6.54-7.73-12.98-15.55-18.56-24.02-3.46-5.26-6.36-10.8-8.88-16.52.15-1.95.34-3.21.4-3.62,2.75,6.6,5.97,12.97,9.87,19.05,5.46,8.52,12.03,16.3,18.56,24.02,11.96,14.17,23.15,29.03,35.43,42.94-10.95-21.4-18.61-44.44-25.83-67.36.87.71,1.71,1.42,2.52,2.15,7.51,23.67,15.6,47.4,27.43,69.24-.08,1.14-.16,1.77-.16,1.77-1.98-.5-3.88-1.03-5.75-1.59-3.7-2.4-7.15-5.22-10.65-7.91-7.26-5.6-14.18-11.66-21.3-17.44-7.9-6.42-15.83-12.85-23.47-19.59-.56-1.25-1.08-2.5-1.56-3.74,8.43,7.62,17.28,14.8,26.11,21.93,6.69,5.41,13.28,10.94,19.96,16.37Z" style="fill: #84c2ab; mix-blend-mode: multiply;"/>
                </g>
                <path d="M840.28,525.71c-19.14,19.94-27.97,47.76-30.05,74.8-.19,2.54-4.19,2.56-4,0,2.16-28.11,11.31-56.87,31.22-77.61,1.78-1.86,4.6.96,2.83,2.81h0Z" style="fill: #6a938e;"/>
                <path d="M782.91,488.94c-9.46,33.93-12.56,69.78-9.25,104.83.24,2.55-3.76,2.53-3.99,0-3.34-35.38-.16-71.64,9.39-105.89.69-2.47,4.54-1.42,3.85,1.06h0Z" style="fill: #6a938e;"/>
                <path d="M736.1,431.75c30.91,48.17,30.91,106.21,31.57,161.36.03,2.56-3.96,2.56-3.99,0-.65-54.46-.49-111.78-31.02-159.36-1.39-2.17,2.07-4.16,3.45-2.01h0Z" style="fill: #89c3ad;"/>
                <path d="M719.45,525.18c13.22,21.85,14.2,48.5,16.25,73.23.21,2.56-3.79,2.54-3.99,0-2-24.02-2.87-50-15.71-71.23-1.33-2.2,2.12-4.2,3.45-2h0Z" style="fill: #6a938e;"/>
                <path d="M840.64,429.11c-30.09,58.69-52.24,122.44-56.99,188.51-.18,2.54-4.18,2.56-3.99,0,4.81-66.8,27.11-131.18,57.54-190.52,1.17-2.29,4.62-.27,3.45,2.01h0Z" style="fill: #84c2ab;"/>
                <g>
                  <path d="M861.04,530.32s61.71-.7,70.65-68.21c0,0-62.86-1.92-70.65,68.21Z" style="fill: #94c7b6;"/>
                  <path d="M861.04,530.32s61.71-.7,70.65-68.21l-70.65,68.21Z" style="fill: #6a938e;"/>
                  <path d="M869.33,514.81c-2.57,4.19-5.3,8.51-7.17,13.11,11.05-13.05,23.34-25.05,34.82-37.72,5.84-6.45,11.77-12.82,18.36-18.53,4.09-3.55,8.48-6.66,13.08-9.46,1.69-.1,2.78-.09,3.14-.08-5.32,3.1-10.39,6.58-15.13,10.6-6.64,5.63-12.52,12.1-18.36,18.53-10.71,11.8-22.1,23.01-32.55,35.04,17.01-11.79,35.81-20.98,54.55-29.79-.5.82-1.02,1.61-1.54,2.39-19.36,9.14-38.69,18.78-55.97,31.36-.99.07-1.53.08-1.53.08.19-1.73.43-3.41.68-5.06,1.62-3.42,3.62-6.67,5.52-9.95,3.94-6.8,8.3-13.38,12.41-20.08,4.56-7.45,9.13-14.91,13.99-22.17,1-.62,2.01-1.21,3.01-1.76-5.52,8.03-10.62,16.37-15.68,24.68-3.84,6.3-7.79,12.53-11.64,18.82Z" style="fill: #84c2ab; mix-blend-mode: multiply;"/>
                </g>
                <g>
                  <path d="M774.21,465.68s50.8-32.64,13.75-91.09c0,0-55.15,32.42-13.75,91.09Z" style="fill: #85b8a7;"/>
                  <path d="M787.97,374.59s-55.15,32.42-13.75,91.09l13.75-91.09Z" style="fill: #aed7c9;"/>
                  <path d="M771.38,417.38c-.65,8.88-.34,17.8-.2,26.69.1,6.79.48,13.56,2.54,20.04.01.32.05.63.06.95.14.21.28.41.42.62,0,0,.78-.5,2.07-1.49,1.64-24.51,9.56-48,21.59-69.3-.25-.73-.5-1.46-.78-2.21-10.81,18.8-18.47,39.35-21.48,60.8.22-3.78.58-7.55.95-11.28,1.11-11.08,2.81-22.09,4.75-33.05,1.86-10.5,4.01-20.96,6.57-31.31.19-.8.39-1.61.59-2.43-.17-.28-.33-.55-.5-.82,0,0-.48.28-1.3.82-.09.35-.17.71-.26,1.05-2.63,10.41-4.75,20.95-6.67,31.51-2.05,11.31-3.76,22.69-4.95,34.13-.48,4.65-.91,9.36-1.08,14.07-.69-4.9-.74-9.9-.81-14.86-.12-8.5-.26-16.97.36-25.46.81-10.93,2.23-22.07,4.26-33.02-.7.68-1.42,1.4-2.15,2.15-1.89,10.76-3.2,21.65-3.99,32.39Z" style="fill: #84c2ab; mix-blend-mode: multiply;"/>
                </g>
                <g>
                  <path d="M852.07,435s60.32-4.24,56.16-73.22c0,0-64.02,1.96-56.16,73.22Z" style="fill: #85b8a7;"/>
                  <path d="M908.23,361.78s-64.02,1.96-56.16,73.22l56.16-73.22Z" style="fill: #aed7c9;"/>
                  <path d="M872.99,391.32c-4.87,7.47-8.91,15.43-13.1,23.3-3.2,6-6.15,12.11-7.48,18.78-.14.28-.26.58-.4.86.02.25.04.49.07.75,0,0,.93-.06,2.54-.31,13.3-20.69,31.62-37.48,52.47-50.37.14-.76.27-1.52.38-2.31-18.58,11.29-35.24,25.62-48.26,42.98,2.02-3.2,4.16-6.34,6.29-9.43,6.34-9.17,13.16-18.01,20.17-26.68,6.71-8.31,13.67-16.44,20.92-24.29.56-.61,1.13-1.23,1.7-1.85-.02-.32-.03-.64-.05-.96,0,0-.55.02-1.53.1-.25.27-.49.53-.74.8-7.34,7.86-14.31,16.08-21.1,24.42-7.27,8.93-14.29,18.08-20.86,27.53-2.67,3.84-5.33,7.77-7.77,11.81,1.77-4.62,4.14-9.02,6.49-13.41,4.01-7.51,7.99-15,12.65-22.14,6-9.19,12.64-18.27,19.72-26.9-.94.26-1.92.54-2.93.86-6.86,8.52-13.29,17.44-19.18,26.47Z" style="fill: #84c2ab; mix-blend-mode: multiply;"/>
                </g>
                <g>
                  <path d="M698.86,544.69s-57.09-31.06-42.78-89.71c0,0,55.59,19.59,42.78,89.71Z" style="fill: #aeddcd;"/>
                  <path d="M656.08,454.98s55.59,19.59,42.78,89.71l-42.78-89.71Z" style="fill: #84c4ac;"/>
                  <path d="M667.31,469.52c5.51,9.42,11.11,18.86,15.95,28.64,5.48,11.06,9.57,22.7,12.79,34.59-1.61-12.38-4.74-24.52-8.67-36.41-3.52-10.66-7.59-21.85-14.1-31.22,1.51,1.19,3.04,2.51,4.58,3.95,4.52,7.85,7.71,16.56,10.6,25,5.47,15.96,9.5,32.47,10.33,49.36,0,.03-.01.05-.01.08.06.17.11.34.18.5-.04.23-.06.45-.11.69,0,0-.72-.39-1.98-1.17-.01-.07-.03-.14-.04-.2-5.13-13.1-14.15-24.13-22.57-35.3-5.99-7.94-12.43-15.59-19.49-22.63-.16-.92-.3-1.85-.42-2.79,7.31,7.18,13.96,14.99,20.32,23.08,7.07,9,14.46,18.27,19.88,28.47-3.25-12.08-7.39-23.9-12.88-35.24-4.27-8.81-9.36-17.26-14.26-25.73-3.48-6.02-6.89-12.12-10.69-17.95.59.24,1.58.65,2.87,1.27,2.68,4.28,5.18,8.66,7.73,13.03Z" style="fill: #84c2ab; mix-blend-mode: multiply;"/>
                </g>
                <g>
                  <g>
                    <path d="M847.27,542.79c17.9-2.43,30.48-18.49,28.1-35.89-2.38-17.39-18.82-29.53-36.73-27.1-17.9,2.43-30.48,18.49-28.1,35.88,2.38,17.4,18.83,29.53,36.72,27.1Z" style="fill: #f59982;"/>
                    <path d="M815.76,511.51s32.25-24.55,51.58,10.34c0,0-18.97,20.47-33.11,16.39-14.14-4.08-18.47-26.73-18.47-26.73Z" style="fill: #df444a;"/>
                    <path d="M810.55,515.69c-1.8-13.12,4.93-25.48,16.03-31.81-.42,12.16-.2,31.14,4.15,43.71,0,0,23.52-15.05,44.32-22.4.11.57.24,1.12.32,1.7,2.38,17.39-10.2,33.46-28.1,35.89-17.9,2.43-34.34-9.7-36.72-27.1Z" style="fill: #fbcaa9;"/>
                  </g>
                  <path d="M849.88,517.53c-9.76,5.2-19.25,11.16-27,18.97-.47-.35-.91-.73-1.36-1.11,2.54-2.56,5.26-4.93,8.12-7.14-2.11-14.46-2.89-29.05-4.32-43.58.55-.35,1.1-.69,1.68-1,1.45,14.45,2.22,28.97,4.26,43.36,4.86-3.6,10.06-6.81,15.38-9.73,6.98-3.83,14.11-7.4,21.47-10.46,2.22-.92,4.48-1.8,6.78-2.5.13.56.23,1.14.32,1.72-1.72.54-3.4,1.21-5.07,1.86-6.97,2.7-13.67,6.11-20.26,9.61Z" style="fill: #aa333c;"/>
                </g>
                <g>
                  <g>
                    <path d="M749.38,490.96c0,18.47,13.55,33.45,30.26,33.45,16.71,0,30.26-14.98,30.26-33.45s-13.55-33.45-30.26-33.45c-16.71,0-30.26,14.98-30.26,33.45Z" style="fill: #c0474e;"/>
                    <path d="M803.47,500.31s-25.24,22.04-34,17.17c-8.76-4.87-5.66-21.02-5.66-21.02,0,0,6.7-10.25,15.84-16.92,0,0,22.81,11.02,23.83,20.76Z" style="fill: #faa892;"/>
                    <path d="M769.22,459.59c-4.49,29.78,1.53,52.52,1.53,52.52,15.21-6.69,30.29-20.86,38.26-29.09.56,2.55.89,5.2.89,7.95,0,18.47-13.55,33.45-30.26,33.45-16.71,0-30.26-14.98-30.26-33.45,0-14.42,8.27-26.67,19.84-31.37Z" style="fill: #e39799;"/>
                  </g>
                  <path d="M767.64,498.58c-.84-7.17-1.32-14.49-1.12-21.71.16-5.79,1.96-11.37,2.3-17.12.6-.25,1.2-.52,1.82-.73-.18,5.45-1.72,10.76-2.26,16.2-.65,6.56.07,13.47.67,20,.5,5.51,1.29,10.98,2.04,16.46,14.17-7.62,25.52-19.15,37.74-29.41.15.64.32,1.26.45,1.91-12.22,10.34-23.64,21.85-37.93,29.37h0c.08.57.16,1.14.23,1.71.36,2.76.66,5.5,1.07,8.22-.64-.17-1.28-.33-1.9-.54-.14-1-.28-2.01-.4-3.02-.84-7.12-1.88-14.21-2.71-21.34Z" style="fill: #aa333c;"/>
                </g>
                <g>
                  <g>
                    <path d="M829.08,453.89c16.1,8.43,36.8.78,46.24-17.07,9.44-17.85,4.03-39.16-12.07-47.59-16.1-8.42-36.8-.78-46.24,17.07-9.44,17.85-4.03,39.16,12.07,47.59Z" style="fill: #df444a;"/>
                    <path d="M821.22,406.05s22.41-13.76,38.99,25.9l-33.43,6.55-5.55-32.45Z" style="fill: #fdb396;"/>
                    <path d="M817.01,406.31c2.72-5.15,6.4-9.42,10.62-12.73-.37,8.2-.27,21.84,2.37,39.36,0,0,28.03.57,49.91-15.74.21,6.49-1.23,13.27-4.59,19.62-9.44,17.86-30.14,25.5-46.24,17.07-16.1-8.43-21.51-29.73-12.07-47.59Z" style="fill: #f59982;"/>
                  </g>
                  <path d="M849.77,431.57c-6.53,1.29-13.36,1.96-20.01,2.04-5.71.08-11.28-1.02-16.78-2.39-.11-.63-.21-1.26-.29-1.9,5.29,1.3,10.58,2.34,16.08,2.5-1.53-7.57-1.8-15.52-2.15-23.19-.2-4.37-.58-9.16-.48-13.86.59-.51,1.21-.99,1.82-1.46-.24,5.13.22,10.44.42,15.24.32,7.69.59,15.72,2.18,23.29,6.68-.01,13.57-.93,20.08-2.22,10.67-2.12,20.24-7.59,29.25-13.53.04.68.03,1.37.04,2.05-9.33,6.03-19.08,11.23-30.15,13.43Z" style="fill: #a5342b;"/>
                </g>
                <g>
                  <g>
                    <path d="M726.28,461.99c-17.91-2.31-30.6-18.29-28.33-35.7,2.27-17.41,18.63-29.65,36.55-27.34,17.91,2.31,30.6,18.29,28.33,35.7-2.27,17.41-18.63,29.65-36.55,27.34Z" style="fill: #f59982;"/>
                    <path d="M757.59,430.51s-32.41-24.34-51.52,10.68c0,0,19.11,20.35,33.22,16.17,14.11-4.18,18.3-26.85,18.3-26.85Z" style="fill: #df444a;"/>
                    <path d="M762.82,434.65c1.71-13.14-5.1-25.45-16.25-31.7.5,12.16.41,31.14-3.85,43.74,0,0-23.62-14.89-44.47-22.11-.11.57-.24,1.13-.31,1.71-2.27,17.41,10.42,33.39,28.33,35.7,17.92,2.31,34.28-9.93,36.55-27.34Z" style="fill: #fbcaa9;"/>
                  </g>
                  <path d="M723.5,436.75c9.8,5.13,19.33,11.03,27.13,18.79.47-.36.91-.74,1.36-1.12-2.56-2.55-5.3-4.9-8.17-7.09,2.02-14.47,2.7-29.07,4.04-43.61-.55-.34-1.11-.68-1.68-.99-1.36,14.46-2.04,28.98-3.98,43.39-4.89-3.57-10.1-6.75-15.44-9.63-7.01-3.79-14.16-7.31-21.54-10.32-2.22-.91-4.49-1.77-6.8-2.45-.12.57-.22,1.14-.31,1.72,1.72.52,3.41,1.19,5.08,1.82,6.99,2.65,13.71,6.02,20.32,9.48Z" style="fill: #aa333c;"/>
                </g>
                <g>
                  <g>
                    <path d="M689.08,531.48c8.82,16.25,27.9,23.02,42.6,15.12,14.7-7.9,19.47-27.49,10.65-43.75-8.82-16.25-27.9-23.02-42.6-15.12-14.71,7.9-19.48,27.49-10.65,43.75Z" style="fill: #c0474e;"/>
                    <path d="M741.14,514.13s-11.68,31.33-21.71,31.19c-10.03-.14-15.02-15.81-15.02-15.81,0,0,1-12.19,5.86-22.38,0,0,25.33-1.09,30.88,7Z" style="fill: #faa892;"/>
                    <path d="M691.56,494.49c10.27,28.32,26.43,45.48,26.43,45.48,10.19-13.08,16.69-32.68,19.76-43.69,1.72,1.98,3.27,4.15,4.58,6.57,8.82,16.25,4.05,35.84-10.65,43.75-14.7,7.9-33.78,1.14-42.6-15.12-6.89-12.69-5.46-27.38,2.48-36.99Z" style="fill: #e39799;"/>
                  </g>
                  <path d="M708.79,529.55c-4.16-5.92-8.08-12.13-11.35-18.58-2.62-5.17-3.71-10.93-6.15-16.15.41-.51.81-1.03,1.25-1.51,2.45,4.89,3.62,10.28,5.75,15.33,2.56,6.07,6.5,11.81,10.14,17.28,3.07,4.61,6.38,9.05,9.66,13.52,8.82-13.41,13.31-28.93,19.16-43.73.44.49.89.96,1.31,1.48-5.81,14.87-10.37,30.4-19.35,43.77h0c.34.47.68.93,1.02,1.4,1.63,2.25,3.21,4.53,4.86,6.72-.64.15-1.28.31-1.93.42-.61-.81-1.2-1.63-1.79-2.47-4.15-5.86-8.44-11.61-12.58-17.49Z" style="fill: #aa333c;"/>
                </g>
                <g>
                  <path d="M721.18,588.09s-60.36-.67-89.36-91.84c0,0,85.56,18.67,89.36,91.84Z" style="fill: #89c3ad;"/>
                  <path d="M631.82,496.24s85.56,18.67,89.36,91.84l-89.36-91.84Z" style="fill: #679e8f;"/>
                  <path d="M706.14,565.32c.15.2.18.41.15.6.39.39.79.77,1.17,1.16.23.24.28.52.24.78,4.68,5.96,9.14,12.09,13.36,18.37.04.62.1,1.22.13,1.85,0,0-.36,0-1.03-.05-4.95-7.42-10.24-14.61-15.84-21.59-12.14-11.77-27.34-20.03-42.12-28.04-5.05-2.74-10.28-5.09-15.61-7.14-.42-.76-.83-1.52-1.24-2.3,5.55,2.06,10.99,4.42,16.3,7.16,12.19,6.29,24.75,13.18,35.65,21.82-19.45-22.71-41.94-43.09-65.3-61.67.46.11,1.93.45,4.18,1.1,21.73,17.48,42.62,36.54,60.92,57.62-6.6-10.67-12.4-21.84-19.96-31.89-3.44-4.57-7.01-9.05-10.69-13.42,1.39.75,2.79,1.53,4.2,2.34,2.02,2.48,4.03,4.98,5.99,7.51,11.15,14.43,18.65,31.17,29.52,45.78Z" style="fill: #84c2ab; mix-blend-mode: multiply;"/>
                </g>
                <g>
                  <path d="M837.44,586.17s16.99-75.43,90.79-74.87c0,0-12.73,73.46-90.79,74.87Z" style="fill: #a4cabd;"/>
                  <path d="M837.44,586.17s16.99-75.43,90.79-74.87l-90.79,74.87Z" style="fill: #aeddcd;"/>
                  <path d="M854.56,579.15c-1.99,1.01-4.01,1.9-6.06,2.76-.75.31-2.02.71-3.35,1.17-1.29.78-2.57,1.58-3.89,2.32-.01.01-.02.02-.03.03-.15.16-.32.22-.49.25-.22.12-.45.24-.67.36-.88.03-1.73.11-2.63.12,0,0,.09-.38.27-1.07.39-.21.8-.41,1.19-.62.58-.71,1.39-1.33,2.37-1.87,13-13.66,21.69-30.74,35.02-44.2,9.17-9.27,19.51-17.28,30.16-24.86,1.54-.35,3.12-.65,4.72-.92-11.77,8.3-23.24,17-33.51,27.15-12.32,12.17-20.51,27.59-31.75,40.6,13.79-8.6,26.03-19.13,38.51-29.89,14.77-12.74,29.11-25.98,43.47-39.18.11,0,.23,0,.34,0,0,0-.19,1.06-.63,2.88-13.82,12.68-27.63,25.38-41.81,37.66-10.36,8.97-20.57,17.77-31.63,25.43,7.49-3.66,14.58-8.31,21.56-12.76,13.07-8.34,26.62-15.74,40.46-22.65-.6,1.01-1.21,2.02-1.86,3.04-11.24,5.65-22.31,11.66-32.99,18.32-8.82,5.5-17.46,11.2-26.75,15.92Z" style="fill: #84c2ab; mix-blend-mode: multiply;"/>
                </g>
                <g>
                  <path d="M789.25,603.96s-57.09-31.06-42.78-89.71c0,0,55.59,19.59,42.78,89.71Z" style="fill: #aeddcd;"/>
                  <path d="M746.47,514.25s55.59,19.59,42.78,89.71l-42.78-89.71Z" style="fill: #84c4ac;"/>
                  <path d="M757.7,528.78c5.5,9.42,11.11,18.86,15.95,28.64,5.48,11.06,9.57,22.7,12.79,34.59-1.6-12.39-4.74-24.53-8.67-36.41-3.52-10.66-7.59-21.85-14.1-31.22,1.51,1.19,3.04,2.5,4.58,3.95,4.52,7.85,7.71,16.56,10.6,25,5.47,15.96,9.5,32.47,10.34,49.36,0,.03,0,.06-.01.08.06.16.12.33.18.5-.04.23-.06.45-.11.69,0,0-.72-.4-1.98-1.17-.02-.07-.03-.14-.05-.2-5.12-13.1-14.15-24.13-22.57-35.3-5.99-7.94-12.43-15.59-19.48-22.63-.16-.92-.3-1.85-.42-2.79,7.31,7.18,13.96,14.99,20.32,23.08,7.07,9,14.46,18.27,19.88,28.47-3.25-12.09-7.39-23.9-12.88-35.24-4.27-8.81-9.36-17.26-14.26-25.73-3.48-6.01-6.88-12.12-10.69-17.95.59.23,1.58.65,2.87,1.27,2.68,4.27,5.18,8.66,7.73,13.03Z" style="fill: #84c2ab; mix-blend-mode: multiply;"/>
                </g>
                <g>
                  <path d="M784.57,616.95s60.31-4.32,56.06-73.3c0,0-64.02,2.05-56.06,73.3Z" style="fill: #85b8a7;"/>
                  <path d="M840.63,543.65s-64.02,2.05-56.06,73.3l56.06-73.3Z" style="fill: #aed7c9;"/>
                  <path d="M805.43,573.24c-4.86,7.47-8.89,15.45-13.07,23.32-3.19,6-6.13,12.11-7.45,18.79-.14.29-.26.58-.4.87.03.25.05.49.08.74,0,0,.93-.07,2.53-.31,13.28-20.7,31.57-37.52,52.41-50.44.14-.76.26-1.53.38-2.31-18.56,11.32-35.2,25.67-48.21,43.04,2.02-3.21,4.15-6.34,6.28-9.44,6.32-9.18,13.13-18.03,20.13-26.71,6.7-8.31,13.64-16.46,20.89-24.31.56-.61,1.12-1.23,1.69-1.85-.02-.32-.02-.64-.04-.96,0,0-.55.02-1.53.11-.25.27-.49.54-.74.8-7.33,7.87-14.29,16.09-21.07,24.44-7.26,8.94-14.26,18.1-20.82,27.56-2.67,3.84-5.32,7.77-7.75,11.82,1.76-4.63,4.13-9.03,6.47-13.42,4-7.51,7.97-15.01,12.62-22.15,5.99-9.2,12.61-18.29,19.68-26.92-.95.26-1.92.54-2.93.86-6.85,8.53-13.26,17.46-19.14,26.5Z" style="fill: #84c2ab; mix-blend-mode: multiply;"/>
                </g>
              </g>
            </g>
          </g>
        </g>
      </g>
    </g>
  </g>
</svg>