<?xml version="1.0" encoding="UTF-8"?>
<svg xmlns="http://www.w3.org/2000/svg" xmlns:xlink="http://www.w3.org/1999/xlink" viewBox="0 0 1920 889.74">
  <defs>
    <linearGradient id="linear-gradient" x1="1453.2" y1="452.09" x2="2114.45" y2="1083.29" gradientTransform="translate(1919.28) rotate(-180) scale(1 -1)" gradientUnits="userSpaceOnUse">
      <stop offset="0" stop-color="#f5f9f8"/>
      <stop offset=".2" stop-color="#ebf5f2"/>
      <stop offset=".64" stop-color="#ddefe9"/>
      <stop offset="1" stop-color="#d8ede6"/>
    </linearGradient>
    <clipPath id="clippath">
      <polygon points="1564.25 887.52 217.39 898.06 91.49 -125.54 1564.25 -4.87 1564.25 887.52" style="fill: none;"/>
    </clipPath>
    <linearGradient id="linear-gradient-2" x1="1168.29" y1="367.13" x2="1555.14" y2="367.13" gradientTransform="translate(1919.28) rotate(-180) scale(1 -1)" gradientUnits="userSpaceOnUse">
      <stop offset="0" stop-color="#fff9bd"/>
      <stop offset=".18" stop-color="#fef3b9"/>
      <stop offset=".4" stop-color="#fce5ae"/>
      <stop offset=".64" stop-color="#facc9c"/>
      <stop offset=".9" stop-color="#f6aa84"/>
      <stop offset="1" stop-color="#f59b79"/>
    </linearGradient>
    <linearGradient id="linear-gradient-3" x1="1752.75" y1="706.57" x2="1623.51" y2="583.96" gradientTransform="translate(1625.11 1245.01) rotate(-117.16) scale(1 -1)" gradientUnits="userSpaceOnUse">
      <stop offset="0" stop-color="#fdc3b7"/>
      <stop offset=".23" stop-color="#fcbfb1"/>
      <stop offset=".51" stop-color="#fab6a3"/>
      <stop offset=".82" stop-color="#f7a68a"/>
      <stop offset="1" stop-color="#f59b79"/>
    </linearGradient>
    <linearGradient id="linear-gradient-4" x1="1561.59" y1="543.73" x2="1603.03" y2="542.28" gradientTransform="translate(1786.01 1034.33) rotate(-128.01) scale(1 -1)" gradientUnits="userSpaceOnUse">
      <stop offset="0" stop-color="#6a938e"/>
      <stop offset=".27" stop-color="#6c9891"/>
      <stop offset=".61" stop-color="#75a69a"/>
      <stop offset=".97" stop-color="#82bfa9"/>
      <stop offset="1" stop-color="#84c2ab"/>
    </linearGradient>
    <linearGradient id="linear-gradient-5" x1="1322.35" y1="479.62" x2="1423.02" y2="560.37" gradientTransform="translate(1786.01 1034.33) rotate(-128.01) scale(1 -1)" gradientUnits="userSpaceOnUse">
      <stop offset="0" stop-color="#a4cabd"/>
      <stop offset=".17" stop-color="#98c3b5"/>
      <stop offset=".47" stop-color="#8abaaa"/>
      <stop offset=".73" stop-color="#85b8a7"/>
      <stop offset=".73" stop-color="#84b7a6"/>
      <stop offset=".81" stop-color="#73a999"/>
      <stop offset=".89" stop-color="#6aa091"/>
      <stop offset="1" stop-color="#679e8f"/>
    </linearGradient>
    <linearGradient id="linear-gradient-6" x1="1306.09" y1="465.27" x2="1297.29" y2="493.4" gradientTransform="translate(1786.01 1034.33) rotate(-128.01) scale(1 -1)" gradientUnits="userSpaceOnUse">
      <stop offset="0" stop-color="#84c2ab"/>
      <stop offset=".03" stop-color="#82bfa9"/>
      <stop offset=".39" stop-color="#75a69a"/>
      <stop offset=".73" stop-color="#6c9891"/>
      <stop offset="1" stop-color="#6a938e"/>
    </linearGradient>
    <radialGradient id="radial-gradient" cx="1437" cy="504.34" fx="1437" fy="504.34" r="232.91" gradientTransform="translate(1786.01 1032.83) rotate(-128.14) scale(1 -1) skewX(.27)" gradientUnits="userSpaceOnUse">
      <stop offset="0" stop-color="#a4cabd"/>
      <stop offset=".11" stop-color="#98c3b5"/>
      <stop offset=".33" stop-color="#8abaaa"/>
      <stop offset=".5" stop-color="#85b8a7"/>
      <stop offset=".51" stop-color="#84b7a6"/>
      <stop offset=".64" stop-color="#73a999"/>
      <stop offset=".8" stop-color="#6aa091"/>
      <stop offset="1" stop-color="#679e8f"/>
    </radialGradient>
    <linearGradient id="linear-gradient-7" x1="1444.52" y1="402.85" x2="1500.66" y2="429.82" xlink:href="#linear-gradient-6"/>
    <linearGradient id="linear-gradient-8" x1="1602.85" y1="554.14" x2="1609.95" y2="579.14" xlink:href="#linear-gradient-3"/>
    <linearGradient id="linear-gradient-9" x1="1606.17" y1="574.76" x2="1606.78" y2="597.61" xlink:href="#linear-gradient-3"/>
    <linearGradient id="linear-gradient-10" x1="1607.01" y1="595.66" x2="1602.07" y2="618.78" xlink:href="#linear-gradient-3"/>
    <linearGradient id="linear-gradient-11" x1="1624.3" y1="558.24" x2="1623.03" y2="586.7" gradientTransform="translate(1786.01 1034.33) rotate(-128.01) scale(1 -1)" xlink:href="#linear-gradient-3"/>
    <linearGradient id="linear-gradient-12" x1="1111.67" y1="388.62" x2="1115.5" y2="388.62" gradientTransform="translate(1955.37 152.26) rotate(-172.84) scale(1 -1)" xlink:href="#linear-gradient"/>
    <linearGradient id="linear-gradient-13" x1="1121.25" y1="332.69" x2="1291.54" y2="332.69" gradientTransform="translate(1955.37 152.26) rotate(-172.84) scale(1 -1)" xlink:href="#linear-gradient"/>
    <linearGradient id="linear-gradient-14" x1="1304.19" y1="291.21" x2="1310.46" y2="291.21" gradientTransform="translate(1955.37 152.26) rotate(-172.84) scale(1 -1)" xlink:href="#linear-gradient"/>
    <linearGradient id="linear-gradient-15" x1="1121.87" y1="464.62" x2="1125.15" y2="464.62" gradientTransform="translate(1955.37 152.26) rotate(-172.84) scale(1 -1)" xlink:href="#linear-gradient"/>
    <linearGradient id="linear-gradient-16" x1="1128.91" y1="377.28" x2="1291.47" y2="377.28" gradientTransform="translate(1955.37 152.26) rotate(-172.84) scale(1 -1)" xlink:href="#linear-gradient"/>
    <linearGradient id="linear-gradient-17" x1="1304.21" y1="303.11" x2="1310.46" y2="303.11" gradientTransform="translate(1955.37 152.26) rotate(-172.84) scale(1 -1)" xlink:href="#linear-gradient"/>
    <linearGradient id="linear-gradient-18" x1="1164.15" y1="516.03" x2="1166.95" y2="516.03" gradientTransform="translate(1955.37 152.26) rotate(-172.84) scale(1 -1)" xlink:href="#linear-gradient"/>
    <linearGradient id="linear-gradient-19" x1="1168.84" y1="412.63" x2="1292.89" y2="412.63" gradientTransform="translate(1955.37 152.26) rotate(-172.84) scale(1 -1)" xlink:href="#linear-gradient"/>
    <linearGradient id="linear-gradient-20" x1="1304.42" y1="319.18" x2="1310.48" y2="319.18" gradientTransform="translate(1955.37 152.26) rotate(-172.84) scale(1 -1)" xlink:href="#linear-gradient"/>
    <linearGradient id="linear-gradient-21" x1="1229.23" y1="528.98" x2="1231.43" y2="528.98" gradientTransform="translate(1955.37 152.26) rotate(-172.84) scale(1 -1)" xlink:href="#linear-gradient"/>
    <linearGradient id="linear-gradient-22" x1="1231.4" y1="429.82" x2="1296.16" y2="429.82" gradientTransform="translate(1955.37 152.26) rotate(-172.84) scale(1 -1)" xlink:href="#linear-gradient"/>
    <linearGradient id="linear-gradient-23" x1="1305.17" y1="336.12" x2="1310.49" y2="336.12" gradientTransform="translate(1955.37 152.26) rotate(-172.84) scale(1 -1)" xlink:href="#linear-gradient"/>
    <linearGradient id="linear-gradient-24" x1="1101.12" y1="613.91" x2="1387.03" y2="835.87" gradientTransform="translate(1919.28) rotate(-180) scale(1 -1)" xlink:href="#linear-gradient-3"/>
    <linearGradient id="linear-gradient-25" x1="1189.94" y1="674.25" x2="1337.22" y2="753.24" gradientTransform="translate(1919.28) rotate(-180) scale(1 -1)" xlink:href="#linear-gradient-3"/>
    <clipPath id="clippath-1">
      <path d="M846.1,540.74c-22.12,1.94-59.91,3.6-112.22,3.6-52.31,0-90.11-1.66-112.22-3.6,0,0-34.57-58.73-31.43-83.38,3.14-24.65,57.03-129.73,149.82-129.73,92.79,0,124.84-4.51,127.36,6.82,2.52,11.32,41.61,161.08-21.3,206.29Z" style="fill: none;"/>
    </clipPath>
  </defs>
  <g style="isolation: isolate;">
    <g id="Layer_1" data-name="Layer 1">
      <path d="M.12-7.04C.12-236.73,247.71-42.17,254.39-15.77l130.51,8.73c86.38,56.71,163.73,151.88,259.78,232.13,174.03,145.4,336.39,144.62,441.1,293.42,41.78,59.37,46.45,132.22,31.76,199.62-17.42,79.93-62.62,151.09-126.67,201.99C678.25,1168.56,139.8,1506.83,0,889.74" style="fill: url(#linear-gradient);"/>
      <g style="clip-path: url(#clippath);">
        <g>
          <path d="M557.56,559.62c-106.83,0-193.42-86.18-193.42-192.49,0-106.31,86.6-192.49,193.42-192.49,10.89,0,21.56.91,31.96,2.63,17.79,16.59,36.1,33.02,55.15,48.86,30.56,25.41,60.77,46.33,90.36,64.36,10.25,23.49,15.95,49.4,15.95,76.64,0,106.31-86.6,192.49-193.42,192.49Z" style="fill: url(#linear-gradient-2); opacity: .2;"/>
          <g>
            <g>
              <path d="M180.49-73.58l137.27,107.17s78.61-32.13,84.21,43.72l-55.79,56.8s-40.04-2.33-73.65-38.74l-131.03-57.83C99.8,3.05,108.43-19.81,114.47-37.04c6.95-19.81,28.85-45.47,66.02-36.54Z" style="fill: url(#linear-gradient-3);"/>
              <path d="M327.66,120.26s-26.13-11.38-26.97-24.26c-.41-6.23,4.96-8.38,12.66-7.57-1.01-3.18-1.24-6.59-.04-10.03,2.39-6.92,8.48-8.1,15.78-6.41-1.56-11.03,9.45-17.41,22.94-12.31-.98-5.87.42-11.55,7.67-13.41,10.11-2.59,33.39,19.48,38.79,34.58l-52.31,53.26s-5.24-.32-13.5-2.42c-3.2-1.14-6.6-2.48-10.18-4.12,2.09-4.51,5.15-7.31,5.15-7.31Z" style="fill: #f59b79;"/>
            </g>
            <g>
              <path d="M323.29,108.04l53.25-46.29c7.05-6.13,16.08-9.16,25.42-8.54,9.34.63,17.88,4.84,24.04,11.85l34.11,38.85c12.84,14.6,11.16,36.62-3.34,49.21l-53.25,46.29c-7.05,6.13-16.07,9.16-25.42,8.53-9.34-.63-17.88-4.84-24.03-11.85l-34.1-38.85c-.43-.49-.84-.98-1.24-1.49-11.45-14.58-9.44-35.54,4.57-47.72ZM451.3,111.58l-34.1-38.85c-4.11-4.68-9.8-7.49-16.03-7.9-6.23-.42-12.24,1.6-16.94,5.69l-53.24,46.29c-9.68,8.41-10.68,23.14-2.23,32.81l34.1,38.85c4.11,4.68,9.8,7.48,16.03,7.9,6.23.42,12.24-1.6,16.94-5.68l53.24-46.29c9.35-8.12,10.69-22.09,3.06-31.81-.26-.34-.54-.67-.83-1Z" style="fill: url(#linear-gradient-4);"/>
              <polygon points="432.93 222.56 423.12 274.94 597.9 307.34 602.05 285.15 432.93 222.56" style="fill: url(#linear-gradient-5);"/>
              <polygon points="602.05 285.15 597.9 307.39 605.43 331.41 617.59 266.47 602.05 285.15" style="fill: url(#linear-gradient-6);"/>
              <polygon points="297.13 196.54 411.84 342.62 566.68 181.87 483.43 75.85 297.13 196.54" style="fill: url(#radial-gradient);"/>
              <polygon points="566.68 181.87 590.3 178.89 496.81 59.83 483.43 75.85 566.68 181.87" style="fill: url(#linear-gradient-7);"/>
            </g>
            <g>
              <path d="M393.86,104.59s17.01-3.54,13.76-19.15c-3.25-15.62-23.93-40.78-34.36-39.43-13.51,1.75-9.37,18.38-5.61,25.65,7.06,13.67,26.21,32.93,26.21,32.93Z" style="fill: url(#linear-gradient-8);"/>
              <path d="M371.91,113.59c6.93,1.98,20.02,2.28,21.96-9,1.93-11.28-15.36-38.6-29.86-46.2-14.51-7.6-27.65-.15-23.54,14.29,4.12,14.44,31.44,40.91,31.44,40.91Z" style="fill: url(#linear-gradient-9);"/>
              <path d="M356.3,123.04s12.99,6.93,20.7-1.01c7.69-7.94-2.52-29.96-15.86-40.79-13.34-10.83-31.45-22.06-37.86-8.96-6.47,13.23,9.97,28.64,9.97,28.64l23.06,22.12Z" style="fill: url(#linear-gradient-10);"/>
              <path d="M323.68,128.8c13.72,5.34,29.29,7.43,35.78,2.92,8.51-5.91,5.97-20.67-10.57-34.84-16.55-14.17-39.54-21.54-40.29-8.66-.75,12.88,23.79,27.35,23.79,27.35,0,0-7.02,4.99-8.71,13.23Z" style="fill: url(#linear-gradient-11);"/>
            </g>
          </g>
          <g>
            <g>
              <path d="M802.66,401.97c.12.01.25,0,.38-.03.47-.15.74-.65.59-1.12-.02-.06-.49-1.57-1.55-4.25-.18-.46-.7-.68-1.16-.5-.46.18-.69.7-.51,1.16,1.03,2.61,1.5,4.11,1.51,4.13.11.35.41.58.74.62Z" style="fill: url(#linear-gradient-12);"/>
              <path d="M794.47,384.29c-1.34-2.58-2.78-5.21-4.31-7.81-.25-.43-.11-.97.32-1.22.43-.25.98-.1,1.23.32,1.53,2.62,3,5.28,4.35,7.89.23.44.05.98-.39,1.2-.17.09-.35.11-.52.09-.28-.04-.54-.21-.68-.48ZM782.48,364.47c-1.68-2.42-3.46-4.84-5.27-7.2-.3-.39-.23-.95.17-1.25.39-.3.95-.23,1.26.17,1.83,2.38,3.62,4.82,5.32,7.27.28.41.18.96-.23,1.24-.19.13-.41.18-.62.15-.24-.03-.47-.16-.63-.38ZM768.09,346.29c-1.98-2.21-4.04-4.4-6.11-6.5-.35-.35-.34-.92.01-1.26.36-.34.92-.34,1.27.01,2.09,2.12,4.17,4.33,6.17,6.56.33.37.3.93-.07,1.26-.2.18-.46.25-.71.22-.21-.03-.4-.12-.56-.29ZM751.57,330c-2.23-1.95-4.54-3.87-6.86-5.71-.39-.31-.45-.87-.14-1.25.31-.39.87-.45,1.26-.14,2.34,1.86,4.67,3.8,6.93,5.77.37.33.41.89.08,1.26-.2.23-.5.33-.79.3-.17-.02-.34-.09-.48-.21ZM733.19,315.83c-2.46-1.67-4.98-3.3-7.5-4.85-.42-.26-.55-.81-.29-1.23.26-.42.82-.55,1.23-.29,2.54,1.56,5.09,3.21,7.57,4.89.41.28.51.83.24,1.24-.2.29-.53.42-.85.38-.14-.02-.27-.07-.39-.15ZM713.25,303.94c-2.63-1.36-5.32-2.69-8.02-3.95-.45-.21-.64-.74-.43-1.19.21-.45.75-.64,1.19-.43,2.72,1.27,5.44,2.6,8.09,3.98.44.23.61.77.38,1.21-.18.34-.55.52-.91.47-.1-.01-.21-.04-.3-.09ZM692.06,294.41c-2.75-1.06-5.59-2.08-8.41-3.04-.47-.16-.72-.67-.56-1.13.16-.47.69-.71,1.14-.56,2.85.97,5.7,2,8.48,3.07.46.18.69.7.51,1.16-.15.39-.55.61-.95.56-.07,0-.14-.03-.21-.05ZM669.96,287.2c-2.84-.77-5.76-1.5-8.68-2.18-.48-.11-.78-.59-.67-1.07s.6-.77,1.08-.67c2.93.68,5.87,1.42,8.74,2.19.48.13.76.62.63,1.09-.12.43-.54.71-.98.65-.04,0-.08-.01-.13-.02ZM647.24,282.2c-2.92-.5-5.9-.96-8.85-1.37-.49-.07-.83-.52-.77-1.01.07-.49.51-.83,1-.76,0,0,0,0,.01,0,2.97.41,5.97.87,8.91,1.38.49.08.81.55.73,1.03-.08.47-.52.79-.99.73-.01,0-.03,0-.04,0Z" style="fill: url(#linear-gradient-13);"/>
              <path d="M619.58,278.88s.03,0,.05,0c1.5.11,2.98.22,4.46.35.49.04.93-.32.97-.81.04-.49-.24-.93-.82-.97-1.48-.13-2.98-.25-4.48-.35-.49-.04-.92.33-.96.83-.03.47.31.89.78.95Z" style="fill: url(#linear-gradient-14);"/>
            </g>
            <g>
              <path d="M783.05,476.21c.09.01.19,0,.28-.01.49-.09.81-.56.71-1.04,0,0-.3-1.56-.97-4.39-.11-.48-.6-.78-1.08-.66-.48.11-.78.59-.67,1.07.65,2.77.95,4.3.95,4.31.08.39.39.67.77.72Z" style="fill: url(#linear-gradient-15);"/>
              <path d="M777.53,457.08c-.86-2.86-1.79-5.79-2.77-8.72-.16-.47.1-.97.57-1.13.47-.16.98.1,1.13.56.98,2.95,1.92,5.9,2.78,8.77.14.47-.13.97-.6,1.11-.12.04-.25.05-.37.03-.34-.04-.64-.28-.75-.63ZM769.79,434.6c-1.1-2.83-2.25-5.69-3.42-8.48-.19-.45.02-.98.48-1.17.45-.19.98.02,1.17.48,1.18,2.81,2.34,5.68,3.44,8.53.18.46-.05.98-.51,1.15-.14.06-.29.07-.43.05-.32-.04-.6-.25-.73-.56ZM760.38,412.77c-1.32-2.77-2.69-5.52-4.07-8.19-.23-.44-.05-.98.39-1.2.44-.22.98-.05,1.21.39,1.39,2.68,2.76,5.46,4.09,8.24.21.45.02.98-.42,1.19-.16.08-.33.1-.5.08-.29-.04-.56-.22-.7-.5ZM749.27,391.75c-1.54-2.64-3.13-5.27-4.73-7.82-.26-.42-.14-.97.29-1.23.42-.26.97-.14,1.23.28,1.61,2.57,3.22,5.22,4.76,7.87.25.43.1.97-.33,1.22-.18.1-.37.14-.56.11-.27-.03-.52-.19-.66-.44ZM736.42,371.76c-1.76-2.49-3.59-4.96-5.43-7.36-.3-.39-.23-.95.17-1.25.39-.3.96-.23,1.26.17,1.85,2.41,3.69,4.91,5.47,7.41.29.4.19.96-.22,1.24-.19.13-.42.18-.63.16-.24-.03-.47-.16-.62-.37ZM721.74,353.08c-2.01-2.31-4.08-4.58-6.15-6.77-.34-.36-.32-.92.04-1.26.36-.34.93-.32,1.27.04,2.08,2.2,4.17,4.5,6.19,6.82.32.37.29.94-.09,1.26-.2.17-.46.24-.7.21-.21-.03-.42-.13-.57-.3ZM705.18,336.05c-2.25-2.07-4.56-4.1-6.86-6.03-.38-.32-.43-.88-.11-1.26.32-.38.89-.42,1.26-.11,2.33,1.96,4.66,4,6.92,6.09.36.33.39.9.05,1.26-.2.22-.49.31-.77.28-.18-.02-.36-.1-.5-.23ZM686.77,321.04c-2.47-1.78-5.01-3.51-7.54-5.16-.42-.27-.53-.82-.26-1.23.27-.41.82-.53,1.24-.26,2.56,1.66,5.12,3.41,7.62,5.21.4.29.49.85.2,1.25-.2.27-.52.4-.84.36-.15-.02-.29-.07-.42-.16ZM666.65,308.41c-2.66-1.44-5.4-2.84-8.14-4.15-.44-.21-.63-.75-.42-1.19.21-.44.75-.63,1.2-.42,2.76,1.33,5.53,2.74,8.22,4.19.43.24.6.78.36,1.21-.18.33-.54.5-.9.46-.11-.01-.21-.05-.32-.1ZM645.08,298.47c-2.83-1.09-5.73-2.12-8.61-3.07-.47-.16-.73-.66-.57-1.13.15-.47.67-.72,1.13-.57,2.91.96,5.84,2,8.7,3.1.46.18.69.7.51,1.15-.15.39-.55.61-.95.56-.07,0-.14-.03-.21-.05Z" style="fill: url(#linear-gradient-16);"/>
              <path d="M622.5,291.37c.44.06.87-.23.98-.67.12-.48-.17-.96-.66-1.08-1.45-.36-2.91-.7-4.39-1.03-.45-.12-.96.19-1.07.68-.11.48.2.96.68,1.07,1.46.33,2.91.66,4.35,1.02.03,0,.07.01.11.02Z" style="fill: url(#linear-gradient-17);"/>
            </g>
            <g>
              <path d="M734.67,522.02c.06,0,.12.01.19,0,.49-.04.86-.47.82-.96,0,0-.13-1.57-.45-4.46-.06-.49-.5-.83-.99-.79-.49.06-.85.5-.79.99.32,2.84.45,4.39.45,4.4.03.43.37.76.78.81Z" style="fill: url(#linear-gradient-18);"/>
              <path d="M731.52,502.61c-.42-2.71-.91-5.68-1.47-8.85-.09-.48.24-.95.73-1.03.49-.09.95.24,1.04.72.57,3.19,1.06,6.16,1.48,8.89.08.49-.26.94-.75,1.02-.08.01-.17.01-.25,0-.39-.05-.71-.35-.77-.75ZM727.3,479.67c-.6-2.83-1.25-5.75-1.94-8.76-.11-.48.19-.96.67-1.07.47-.11.96.19,1.08.67.71,3.02,1.36,5.96,1.96,8.79.1.48-.21.96-.69,1.06-.1.02-.2.02-.3.01-.37-.05-.69-.32-.77-.7ZM721.87,456.98c-.76-2.83-1.57-5.72-2.42-8.64-.14-.47.13-.97.61-1.1.48-.14.98.13,1.11.61.86,2.94,1.67,5.83,2.43,8.67.13.48-.15.97-.63,1.09-.11.03-.23.04-.34.02-.35-.04-.66-.29-.75-.65ZM715.18,434.65c-.93-2.81-1.91-5.63-2.93-8.48-.17-.46.08-.97.54-1.14.47-.17.98.08,1.15.54,1.03,2.86,2.01,5.7,2.94,8.52.16.47-.1.97-.57,1.13-.13.04-.26.05-.39.04-.33-.04-.63-.27-.74-.61ZM707.12,412.77c-1.14-2.81-2.32-5.58-3.49-8.26-.2-.45,0-.98.46-1.18.46-.2.98,0,1.18.46,1.19,2.69,2.37,5.48,3.52,8.3.19.46-.04.98-.5,1.16-.15.06-.3.08-.45.06-.31-.04-.59-.24-.72-.55ZM697.54,391.53c-1.33-2.66-2.72-5.33-4.13-7.94-.23-.43-.07-.98.37-1.21.43-.23.98-.07,1.21.36,1.42,2.62,2.82,5.31,4.15,7.99.22.44.04.98-.4,1.2-.16.08-.34.11-.51.09-.29-.04-.55-.21-.69-.49ZM686.23,371.19c-1.58-2.55-3.21-5.08-4.86-7.52-.28-.41-.17-.96.25-1.24.41-.28.97-.17,1.24.24,1.66,2.46,3.3,5.01,4.9,7.58.26.42.13.97-.29,1.23-.18.11-.39.15-.58.13-.26-.03-.5-.18-.65-.42ZM672.96,352.07c-1.85-2.37-3.76-4.7-5.67-6.93-.32-.37-.28-.94.1-1.26.38-.32.94-.28,1.26.1,1.93,2.25,3.86,4.6,5.73,6.99.3.39.23.95-.16,1.25-.2.15-.43.21-.66.18-.23-.03-.44-.14-.6-.34ZM657.53,334.68c-2.14-2.11-4.34-4.16-6.54-6.1-.37-.33-.4-.89-.08-1.26.33-.37.89-.4,1.27-.08,2.22,1.96,4.45,4.03,6.61,6.16.35.35.35.91,0,1.26-.2.2-.48.29-.75.26-.19-.02-.37-.11-.52-.25ZM639.82,319.65c-2.42-1.75-4.91-3.43-7.41-5.01-.42-.26-.54-.82-.28-1.23.26-.42.82-.54,1.24-.28,2.53,1.59,5.05,3.3,7.5,5.07.4.29.49.85.2,1.25-.2.27-.52.4-.84.36-.15-.02-.29-.07-.42-.16Z" style="fill: url(#linear-gradient-19);"/>
              <path d="M620.23,307.75c.37.05.74-.14.92-.49.22-.44.04-.98-.41-1.19-1.35-.66-2.71-1.3-4.08-1.93-.45-.2-.98,0-1.19.44-.2.45,0,.98.45,1.18,1.36.61,2.7,1.25,4.03,1.9.09.05.19.07.29.09Z" style="fill: url(#linear-gradient-20);"/>
            </g>
            <g>
              <path d="M668.48,526.8s.05,0,.07,0c.5.02.92-.36.94-.85,0,0,.08-1.58.15-4.47.01-.49-.39-.92-.87-.91-.49-.01-.91.37-.92.87-.07,2.86-.15,4.42-.15,4.43-.02.47.32.87.78.93Z" style="fill: url(#linear-gradient-21);"/>
              <path d="M667.94,506.62c-.03-2.84-.09-5.95-.19-9.28-.01-.49.38-.9.87-.92.5,0,.91.37.92.86.1,3.35.15,6.46.18,9.32,0,.49-.39.9-.89.9-.04,0-.08,0-.12,0-.44-.05-.78-.42-.78-.88ZM667.11,482.49c-.17-2.99-.38-6.08-.62-9.26-.04-.49.33-.92.83-.96.5-.04.93.33.96.82.24,3.19.45,6.3.62,9.3.03.49-.35.91-.84.94-.06,0-.11,0-.16,0-.42-.05-.76-.4-.78-.83ZM665.15,458.44c-.32-3.02-.68-6.1-1.07-9.22-.06-.49.29-.94.78-1,.5-.06.94.29,1,.77.4,3.13.76,6.22,1.08,9.26.05.49-.3.93-.8.98-.07,0-.14,0-.21,0-.4-.05-.73-.37-.78-.79ZM661.96,434.53c-.49-3.03-1.02-6.08-1.59-9.14-.09-.48.23-.95.72-1.04.48-.09.95.23,1.05.71.57,3.08,1.11,6.14,1.6,9.18.08.49-.25.94-.74,1.02-.09.01-.17.01-.25,0-.39-.05-.71-.34-.77-.74ZM657.35,410.87c-.7-3.03-1.44-6.06-2.21-9-.12-.48.16-.96.64-1.09.48-.12.97.16,1.09.64.77,2.96,1.52,6,2.22,9.05.11.48-.19.96-.67,1.07-.11.02-.21.03-.31.02-.36-.05-.68-.31-.76-.69ZM651.01,387.62c-.95-2.99-1.96-5.95-2.98-8.78-.17-.46.07-.98.54-1.14.46-.17.98.07,1.15.54,1.03,2.85,2.04,5.83,3.01,8.85.15.47-.11.97-.58,1.12-.13.04-.26.05-.38.03-.34-.04-.63-.27-.74-.62ZM642.53,365.08c-1.27-2.87-2.6-5.68-3.95-8.37-.22-.44-.04-.98.4-1.2.44-.22.98-.04,1.2.4,1.37,2.71,2.71,5.55,3.99,8.45.2.45,0,.98-.46,1.18-.15.07-.32.09-.47.07-.3-.04-.58-.23-.71-.53ZM631.32,343.82c-1.66-2.64-3.41-5.22-5.18-7.65-.29-.4-.2-.96.2-1.25.39-.29.96-.2,1.25.2,1.8,2.47,3.57,5.07,5.25,7.75.26.42.13.97-.28,1.23-.18.11-.39.15-.59.13-.26-.03-.5-.17-.65-.41Z" style="fill: url(#linear-gradient-22);"/>
              <path d="M617.29,325.15c.26.03.53-.05.73-.24.36-.34.38-.9.04-1.26-1.04-1.09-2.1-2.16-3.18-3.2-.35-.34-.92-.34-1.27.02-.35.35-.34.92.02,1.26,1.06,1.02,2.1,2.07,3.12,3.15.15.16.34.25.54.27Z" style="fill: url(#linear-gradient-23);"/>
            </g>
          </g>
          <g>
            <g>
              <g>
                <path d="M573.89,617.32c1.01-28.02,8.73-54.19,21.97-76.57.16,4.76,61.9,8.61,138.03,8.61,75.86,0,137.42-3.83,138.02-8.56,14.2,24.26,21.48,52.98,23.5,83.81,0,0,35.95,82.14,32.62,88.11-3.05,5.46-43.48,16.31-43.48,16.31,0,0,.21,57.88-26.42,99.62,0,0-65.9,13.25-109.83,5.3l6.66,70.88s-85.21,19.87-165.75,0l17.31-145.07s-35.89-51.98-32.62-142.43Z" style="fill: url(#linear-gradient-24);"/>
                <g>
                  <path d="M884.38,718.1c3.48-3.46,36.35-5.31,43.64-5.39-3.05,5.46-43.48,16.31-43.48,16.31,0,0-3.64-7.46-.16-10.92Z" style="fill: #f59b79;"/>
                  <path d="M684.97,816.25c34.99,16.46,63.32,17.69,63.32,17.69l6.66,70.88s-44.17-33.62-69.98-88.57Z" style="fill: #f59b79;"/>
                </g>
                <path d="M595.85,540.73c0,4.77,61.8,8.63,138.03,8.63,76.23,0,138.03-3.86,138.03-8.63s-61.8-8.63-138.03-8.63c-76.23,0-138.03,3.86-138.03,8.63Z" style="fill: #f59b79;"/>
                <path d="M733.88,544.35c52.31,0,90.1-1.66,112.22-3.6-22.73-1.97-61.44-3.64-112.22-3.64-50.79,0-89.49,1.67-112.22,3.64,22.12,1.94,59.91,3.6,112.22,3.6Z" style="fill: #d5403c;"/>
              </g>
              <path d="M582.24,700.04c10.24-14.42,27.11-23.85,46.19-23.85,31.22,0,56.54,25.19,56.54,56.26,0,31.08-25.31,56.26-56.54,56.26-8.86,0-17.25-2.03-24.71-5.65l2.78-23.32s-14.54-21.07-24.27-59.7Z" style="fill: #f59b79;"/>
              <g>
                <path d="M582.15,722.87c0,31.07,25.31,56.26,56.54,56.26,31.22,0,56.53-25.19,56.53-56.26s-25.31-56.26-56.53-56.26c-31.22,0-56.54,25.19-56.54,56.26Z" style="fill: url(#linear-gradient-25);"/>
                <path d="M606.3,689.04c14.95,2.68,29.71,8.96,38.83,21.6,3.7,5.13,6.6,10.93,8.44,17.01-10.49-5.27-26.79-2.93-30.51,9.58-2.23,7.51,1.59,14.79,7.57,19.39,6.69,5.15,14.1,6.72,22.32,7.31-.19.7-.39,1.4-.59,2.1-.45,1.55,1.98,2.21,2.42.67,3.08-10.62,4.82-21.81,2.82-32.81-1.63-8.97-5.19-17.89-10.8-25.17-9.8-12.71-24.28-19.31-39.85-22.1-1.58-.29-2.26,2.13-.67,2.41ZM654.5,731.1c.27,1.15.5,2.3.68,3.46,1.46,9.09.54,18.08-1.61,26.91-7.58-.49-15.11-1.67-21.17-6.62-4.91-4.01-9.37-10.35-6.93-16.96,4.29-11.57,19.71-13.01,29.02-6.8Z" style="fill: #f59b79;"/>
              </g>
            </g>
            <g style="clip-path: url(#clippath-1);">
              <g>
                <g>
                  <path d="M754.32,473.61s56.15,9.65,98.75-70.04c0,0-82.64,2.76-98.75,70.04Z" style="fill: #89c3ad;"/>
                  <path d="M853.07,403.57s-82.64,2.76-98.75,70.04l98.75-70.04Z" style="fill: #679e8f;"/>
                  <path d="M772.21,455.04c-.18.17-.24.35-.25.53-.43.29-.86.58-1.29.88-.25.18-.35.44-.35.69-5.37,4.74-10.56,9.67-15.56,14.77-.15.56-.3,1.12-.44,1.69,0,0,.33.06.97.13,5.87-6.05,12.02-11.82,18.41-17.35,13.29-8.86,28.82-13.93,43.92-18.85,5.16-1.68,10.42-2.97,15.72-3.97.51-.63,1.03-1.27,1.54-1.92-5.5.97-10.96,2.23-16.36,3.87-12.39,3.76-25.24,8.02-36.84,14.19,21.96-17.77,46.33-32.86,71.22-46.12-.44.02-1.86.09-4.07.3-23.17,12.53-45.84,26.67-66.46,43.12,7.96-8.78,15.27-18.16,24.01-26.2,3.98-3.65,8.06-7.21,12.24-10.63-1.42.45-2.85.94-4.3,1.46-2.31,1.95-4.6,3.93-6.85,5.95-12.83,11.49-22.67,25.76-35.28,37.47Z" style="fill: #84c2ab; mix-blend-mode: multiply;"/>
                </g>
                <g>
                  <path d="M713.34,463.85s8.51-66.97-64-86.8c0,0-11.55,67.81,64,86.8Z" style="fill: #94c7b6;"/>
                  <path d="M713.34,463.85s8.51-66.97-64-86.8l64,86.8Z" style="fill: #6a938e;"/>
                  <path d="M697.61,452.54c4.2,3.41,8.51,7.02,13.26,9.73-12.62-13.94-23.89-29.05-36.03-43.4-6.18-7.3-12.25-14.68-17.52-22.68-3.26-4.96-6.01-10.19-8.38-15.59.15-1.84.32-3.03.38-3.41,2.59,6.23,5.63,12.24,9.32,17.99,5.16,8.04,11.36,15.39,17.52,22.68,11.29,13.37,21.85,27.41,33.44,40.53-10.34-20.2-17.56-41.95-24.39-63.59.82.67,1.61,1.34,2.38,2.03,7.08,22.35,14.72,44.75,25.89,65.35-.08,1.08-.15,1.67-.15,1.67-1.87-.47-3.66-.97-5.43-1.5-3.49-2.27-6.75-4.92-10.05-7.47-6.85-5.29-13.39-11.01-20.1-16.46-7.46-6.06-14.94-12.13-22.15-18.49-.53-1.18-1.02-2.36-1.47-3.53,7.96,7.19,16.31,13.97,24.64,20.7,6.31,5.11,12.54,10.33,18.84,15.45Z" style="fill: #84c2ab; mix-blend-mode: multiply;"/>
                </g>
                <path d="M793.28,489.19c-18.07,18.82-26.4,45.09-28.36,70.6-.18,2.4-3.95,2.41-3.77,0,2.04-26.53,10.68-53.68,29.47-73.26,1.68-1.76,4.34.9,2.67,2.65h0Z" style="fill: #6a938e;"/>
                <path d="M739.12,454.48c-8.93,32.03-11.86,65.86-8.73,98.95.23,2.41-3.55,2.39-3.77,0-3.15-33.4-.15-67.62,8.87-99.95.65-2.33,4.29-1.34,3.64,1h0Z" style="fill: #6a938e;"/>
                <path d="M694.94,400.5c29.18,45.47,29.18,100.25,29.8,152.31.03,2.42-3.74,2.42-3.77,0-.61-51.41-.47-105.52-29.28-150.42-1.32-2.05,1.95-3.93,3.25-1.89h0Z" style="fill: #89c3ad;"/>
                <path d="M679.22,488.69c12.48,20.62,13.4,45.78,15.34,69.12.2,2.41-3.57,2.39-3.77,0-1.89-22.68-2.71-47.19-14.83-67.23-1.26-2.08,2-3.96,3.26-1.89h0Z" style="fill: #6a938e;"/>
                <path d="M793.61,398.01c-28.4,55.39-49.31,115.58-53.79,177.94-.17,2.4-3.95,2.42-3.77,0,4.54-63.05,25.59-123.82,54.31-179.83,1.11-2.16,4.36-.26,3.26,1.89h0Z" style="fill: #84c2ab;"/>
                <g>
                  <path d="M812.88,493.54s58.25-.66,66.69-64.39c0,0-59.33-1.81-66.69,64.39Z" style="fill: #94c7b6;"/>
                  <path d="M812.88,493.54s58.25-.66,66.69-64.39l-66.69,64.39Z" style="fill: #6a938e;"/>
                  <path d="M820.7,478.9c-2.42,3.95-5,8.03-6.76,12.37,10.44-12.32,22.03-23.64,32.87-35.61,5.52-6.09,11.11-12.1,17.33-17.5,3.86-3.35,8.01-6.28,12.35-8.93,1.59-.09,2.63-.08,2.96-.08-5.02,2.93-9.8,6.21-14.28,10-6.27,5.31-11.82,11.42-17.33,17.49-10.11,11.13-20.86,21.72-30.72,33.08,16.05-11.13,33.8-19.8,51.5-28.12-.48.77-.96,1.52-1.45,2.25-18.27,8.63-36.52,17.72-52.83,29.6-.93.06-1.44.07-1.44.07.18-1.64.4-3.22.65-4.77,1.53-3.22,3.42-6.3,5.21-9.39,3.71-6.42,7.84-12.63,11.71-18.95,4.3-7.03,8.61-14.08,13.21-20.93.94-.59,1.89-1.14,2.84-1.66-5.21,7.58-10.03,15.45-14.8,23.3-3.62,5.95-7.35,11.83-10.99,17.77Z" style="fill: #84c2ab; mix-blend-mode: multiply;"/>
                </g>
                <g>
                  <path d="M730.92,432.53s47.95-30.81,12.98-85.98c0,0-52.06,30.6-12.98,85.98Z" style="fill: #85b8a7;"/>
                  <path d="M743.9,346.55s-52.06,30.6-12.98,85.98l12.98-85.98Z" style="fill: #aed7c9;"/>
                  <path d="M728.25,386.93c-.62,8.38-.32,16.8-.19,25.2.09,6.41.45,12.8,2.4,18.92.01.3.04.6.06.89.13.2.26.39.4.58,0,0,.74-.47,1.95-1.4,1.55-23.13,9.03-45.31,20.38-65.42-.23-.69-.48-1.38-.74-2.08-10.21,17.75-17.43,37.14-20.27,57.39.21-3.57.54-7.13.89-10.65,1.05-10.45,2.66-20.85,4.49-31.2,1.76-9.91,3.79-19.78,6.2-29.56.18-.76.37-1.52.56-2.3-.16-.26-.31-.52-.48-.78,0,0-.45.26-1.22.78-.08.33-.16.67-.25.99-2.48,9.83-4.49,19.77-6.29,29.74-1.93,10.68-3.55,21.42-4.67,32.22-.45,4.39-.86,8.84-1.02,13.28-.65-4.62-.7-9.34-.77-14.03-.11-8.02-.25-16.02.34-24.04.76-10.32,2.1-20.83,4.02-31.17-.66.64-1.35,1.32-2.03,2.03-1.78,10.15-3.02,20.44-3.77,30.58Z" style="fill: #84c2ab; mix-blend-mode: multiply;"/>
                </g>
                <g>
                  <path d="M804.41,403.57s56.94-4,53.01-69.12c0,0-60.43,1.85-53.01,69.12Z" style="fill: #85b8a7;"/>
                  <path d="M857.42,334.45s-60.43,1.85-53.01,69.12l53.01-69.12Z" style="fill: #aed7c9;"/>
                  <path d="M824.15,362.34c-4.6,7.05-8.41,14.57-12.37,21.99-3.02,5.66-5.8,11.43-7.06,17.72-.13.27-.25.54-.38.81.02.24.04.47.07.7,0,0,.87-.06,2.39-.29,12.56-19.53,29.85-35.37,49.53-47.55.13-.72.25-1.44.36-2.18-17.54,10.66-33.26,24.19-45.56,40.57,1.91-3.02,3.93-5.98,5.94-8.9,5.98-8.66,12.42-17,19.04-25.19,6.34-7.84,12.9-15.52,19.74-22.93.53-.58,1.06-1.16,1.6-1.75-.02-.3-.02-.6-.04-.91,0,0-.52.02-1.45.1-.23.25-.47.5-.7.75-6.93,7.42-13.51,15.18-19.92,23.05-6.86,8.43-13.48,17.07-19.69,25.99-2.52,3.63-5.03,7.33-7.33,11.15,1.67-4.36,3.91-8.52,6.12-12.66,3.79-7.09,7.54-14.16,11.94-20.9,5.66-8.68,11.93-17.25,18.61-25.39-.89.24-1.81.51-2.76.81-6.47,8.04-12.54,16.46-18.11,24.99Z" style="fill: #84c2ab; mix-blend-mode: multiply;"/>
                </g>
                <g>
                  <path d="M659.79,507.11s-53.89-29.32-40.38-84.68c0,0,52.47,18.5,40.38,84.68Z" style="fill: #aeddcd;"/>
                  <path d="M619.41,422.43s52.47,18.5,40.38,84.68l-40.38-84.68Z" style="fill: #84c4ac;"/>
                  <path d="M630.01,436.15c5.2,8.89,10.48,17.8,15.06,27.03,5.17,10.44,9.04,21.43,12.07,32.65-1.52-11.69-4.48-23.14-8.19-34.37-3.32-10.06-7.16-20.63-13.31-29.47,1.42,1.12,2.87,2.37,4.33,3.73,4.26,7.41,7.28,15.63,10,23.59,5.16,15.06,8.97,30.65,9.76,46.59,0,.03-.01.05-.01.08.05.16.11.32.17.47-.04.22-.06.43-.1.65,0,0-.68-.37-1.87-1.11-.01-.07-.03-.13-.04-.19-4.84-12.37-13.35-22.78-21.31-33.32-5.65-7.49-11.74-14.72-18.39-21.36-.15-.87-.29-1.74-.4-2.64,6.9,6.77,13.18,14.15,19.18,21.79,6.67,8.5,13.65,17.24,18.76,26.87-3.07-11.41-6.98-22.56-12.16-33.26-4.03-8.31-8.84-16.29-13.46-24.29-3.29-5.68-6.5-11.44-10.09-16.94.56.22,1.49.62,2.71,1.2,2.53,4.04,4.89,8.18,7.3,12.3Z" style="fill: #84c2ab; mix-blend-mode: multiply;"/>
                </g>
                <g>
                  <g>
                    <path d="M799.88,505.31c16.9-2.29,28.77-17.46,26.53-33.87-2.25-16.42-17.77-27.87-34.67-25.58-16.89,2.29-28.77,17.46-26.52,33.87,2.25,16.42,17.77,27.87,34.66,25.58Z" style="fill: #f59982;"/>
                    <path d="M770.13,475.79s30.44-23.17,48.69,9.76c0,0-17.9,19.32-31.25,15.47-13.35-3.85-17.44-25.23-17.44-25.23Z" style="fill: #df444a;"/>
                    <path d="M765.21,479.73c-1.7-12.38,4.66-24.05,15.13-30.02-.39,11.48-.19,29.39,3.91,41.26,0,0,22.2-14.2,41.84-21.14.1.54.23,1.06.31,1.61,2.25,16.42-9.63,31.58-26.53,33.87-16.89,2.29-32.41-9.16-34.66-25.58Z" style="fill: #fbcaa9;"/>
                  </g>
                  <path d="M802.34,481.47c-9.21,4.91-18.17,10.53-25.48,17.91-.44-.33-.86-.69-1.29-1.05,2.4-2.42,4.97-4.66,7.66-6.74-1.99-13.65-2.73-27.42-4.08-41.14.52-.33,1.04-.65,1.58-.94,1.37,13.64,2.1,27.35,4.02,40.93,4.59-3.4,9.49-6.43,14.51-9.18,6.59-3.62,13.32-6.99,20.27-9.87,2.09-.87,4.23-1.7,6.4-2.36.12.53.22,1.08.31,1.62-1.62.51-3.21,1.14-4.79,1.75-6.58,2.55-12.9,5.77-19.12,9.07Z" style="fill: #aa333c;"/>
                </g>
                <g>
                  <g>
                    <path d="M707.48,456.39c0,17.44,12.79,31.57,28.57,31.57,15.78,0,28.57-14.14,28.57-31.57,0-17.44-12.79-31.57-28.57-31.57-15.78,0-28.57,14.14-28.57,31.57Z" style="fill: #c0474e;"/>
                    <path d="M758.53,465.22s-23.82,20.81-32.09,16.21c-8.27-4.6-5.35-19.84-5.35-19.84,0,0,6.32-9.67,14.95-15.97,0,0,21.53,10.4,22.49,19.6Z" style="fill: #faa892;"/>
                    <path d="M726.21,426.77c-4.24,28.11,1.45,49.57,1.45,49.57,14.36-6.31,28.59-19.69,36.11-27.46.53,2.41.84,4.91.84,7.5,0,17.44-12.79,31.57-28.57,31.57-15.78,0-28.57-14.14-28.57-31.57,0-13.61,7.81-25.18,18.73-29.61Z" style="fill: #e39799;"/>
                  </g>
                  <path d="M724.71,463.58c-.79-6.77-1.24-13.68-1.06-20.49.15-5.47,1.85-10.74,2.18-16.16.57-.24,1.13-.49,1.72-.69-.17,5.15-1.63,10.15-2.13,15.29-.61,6.19.07,12.71.63,18.88.47,5.2,1.22,10.37,1.92,15.54,13.38-7.19,24.09-18.08,35.63-27.76.14.6.31,1.19.42,1.81-11.53,9.76-22.32,20.62-35.81,27.72h0c.07.54.15,1.08.22,1.62.34,2.61.62,5.2,1.01,7.76-.6-.16-1.21-.31-1.79-.51-.14-.94-.27-1.89-.38-2.85-.8-6.72-1.77-13.42-2.56-20.14Z" style="fill: #aa333c;"/>
                </g>
                <g>
                  <g>
                    <path d="M782.71,421.4c15.2,7.96,34.74.74,43.65-16.11,8.91-16.85,3.8-36.96-11.4-44.92-15.2-7.95-34.74-.74-43.64,16.11-8.91,16.85-3.81,36.96,11.39,44.92Z" style="fill: #df444a;"/>
                    <path d="M775.29,376.24s21.15-12.99,36.8,24.45l-31.56,6.18-5.24-30.63Z" style="fill: #fdb396;"/>
                    <path d="M771.32,376.48c2.57-4.86,6.04-8.89,10.02-12.01-.35,7.74-.26,20.62,2.24,37.16,0,0,26.46.54,47.11-14.86.2,6.12-1.16,12.52-4.33,18.52-8.91,16.86-28.45,24.07-43.65,16.11-15.2-7.95-20.3-28.06-11.39-44.92Z" style="fill: #f59982;"/>
                  </g>
                  <path d="M802.24,400.33c-6.16,1.22-12.61,1.85-18.89,1.93-5.39.07-10.64-.96-15.84-2.25-.11-.59-.19-1.19-.27-1.79,4.99,1.23,9.98,2.21,15.18,2.36-1.44-7.15-1.7-14.65-2.03-21.89-.19-4.12-.55-8.65-.45-13.09.56-.48,1.14-.93,1.72-1.38-.23,4.84.21,9.86.4,14.39.31,7.26.55,14.84,2.05,21.98,6.3-.01,12.8-.88,18.95-2.1,10.08-2,19.11-7.16,27.61-12.77.04.64.03,1.29.03,1.94-8.81,5.69-18.01,10.6-28.46,12.67Z" style="fill: #a5342b;"/>
                </g>
                <g>
                  <g>
                    <path d="M685.67,429.04c-16.91-2.18-28.89-17.27-26.75-33.7,2.14-16.43,17.58-27.98,34.5-25.8,16.9,2.18,28.88,17.27,26.75,33.7-2.14,16.43-17.58,27.98-34.5,25.81Z" style="fill: #f59982;"/>
                    <path d="M715.22,399.33s-30.6-22.97-48.63,10.08c0,0,18.03,19.2,31.35,15.26,13.32-3.94,17.27-25.34,17.27-25.34Z" style="fill: #df444a;"/>
                    <path d="M720.16,403.24c1.61-12.4-4.82-24.03-15.34-29.92.47,11.47.39,29.39-3.63,41.29,0,0-22.29-14.06-41.98-20.87-.1.54-.22,1.06-.29,1.61-2.14,16.43,9.84,31.52,26.75,33.7,16.91,2.18,32.35-9.37,34.5-25.81Z" style="fill: #fbcaa9;"/>
                  </g>
                  <path d="M683.05,405.22c9.25,4.84,18.24,10.41,25.6,17.74.44-.34.86-.7,1.28-1.06-2.41-2.4-5-4.63-7.71-6.69,1.9-13.66,2.55-27.44,3.81-41.16-.52-.33-1.05-.64-1.59-.93-1.28,13.65-1.92,27.36-3.75,40.96-4.61-3.37-9.53-6.37-14.57-9.09-6.61-3.57-13.37-6.9-20.33-9.74-2.1-.85-4.24-1.67-6.42-2.31-.12.53-.21,1.08-.3,1.62,1.63.49,3.22,1.12,4.8,1.72,6.6,2.5,12.94,5.68,19.18,8.95Z" style="fill: #aa333c;"/>
                </g>
                <g>
                  <g>
                    <path d="M650.56,494.64c8.33,15.34,26.33,21.73,40.21,14.27,13.88-7.46,18.38-25.95,10.05-41.29-8.33-15.34-26.33-21.73-40.21-14.27-13.88,7.46-18.38,25.95-10.06,41.29Z" style="fill: #c0474e;"/>
                    <path d="M699.69,478.26s-11.02,29.58-20.49,29.44c-9.47-.13-14.18-14.92-14.18-14.92,0,0,.94-11.51,5.53-21.12,0,0,23.91-1.03,29.15,6.61Z" style="fill: #faa892;"/>
                    <path d="M652.89,459.73c9.69,26.73,24.95,42.93,24.95,42.93,9.62-12.34,15.75-30.85,18.66-41.24,1.62,1.87,3.09,3.92,4.33,6.2,8.33,15.34,3.83,33.83-10.05,41.29-13.88,7.46-31.88,1.07-40.21-14.27-6.5-11.98-5.15-25.84,2.34-34.91Z" style="fill: #e39799;"/>
                  </g>
                  <path d="M669.16,492.82c-3.93-5.58-7.63-11.45-10.72-17.53-2.47-4.88-3.5-10.32-5.8-15.25.38-.48.76-.97,1.18-1.43,2.31,4.61,3.42,9.71,5.43,14.47,2.42,5.73,6.13,11.15,9.57,16.31,2.9,4.35,6.02,8.54,9.11,12.76,8.33-12.66,12.56-27.3,18.09-41.27.42.46.84.9,1.23,1.39-5.48,14.03-9.79,28.7-18.27,41.32h0c.32.44.64.88.97,1.32,1.54,2.13,3.03,4.28,4.59,6.35-.6.14-1.21.29-1.82.4-.57-.77-1.14-1.54-1.69-2.33-3.91-5.53-7.97-10.96-11.87-16.51Z" style="fill: #aa333c;"/>
                </g>
                <g>
                  <path d="M680.86,548.07s-56.97-.64-84.35-86.69c0,0,80.77,17.62,84.35,86.69Z" style="fill: #89c3ad;"/>
                  <path d="M596.51,461.38s80.77,17.62,84.35,86.69l-84.35-86.69Z" style="fill: #679e8f;"/>
                  <path d="M666.66,526.58c.14.19.17.39.14.57.37.37.74.73,1.1,1.1.22.22.27.49.22.74,4.42,5.63,8.63,11.41,12.61,17.34.04.58.09,1.16.12,1.74,0,0-.34,0-.97-.05-4.67-7-9.67-13.79-14.95-20.38-11.46-11.11-25.81-18.9-39.76-26.46-4.77-2.59-9.71-4.8-14.74-6.74-.39-.71-.78-1.44-1.17-2.17,5.24,1.95,10.37,4.17,15.39,6.76,11.51,5.93,23.36,12.44,33.65,20.6-18.36-21.44-39.58-40.67-61.64-58.21.43.1,1.82.43,3.94,1.04,20.51,16.5,40.23,34.49,57.51,54.39-6.23-10.07-11.7-20.62-18.84-30.1-3.25-4.31-6.61-8.54-10.1-12.67,1.31.7,2.63,1.44,3.97,2.21,1.91,2.34,3.8,4.7,5.65,7.09,10.52,13.62,17.6,29.42,27.87,43.21Z" style="fill: #84c2ab; mix-blend-mode: multiply;"/>
                </g>
                <g>
                  <path d="M790.6,546.26s16.04-71.2,85.7-70.67c0,0-12.02,69.35-85.7,70.67Z" style="fill: #a4cabd;"/>
                  <path d="M790.6,546.26s16.04-71.2,85.7-70.67l-85.7,70.67Z" style="fill: #aeddcd;"/>
                  <path d="M806.76,539.64c-1.88.95-3.78,1.79-5.72,2.6-.71.29-1.91.67-3.16,1.11-1.22.74-2.42,1.49-3.67,2.19-.01.01-.02.02-.03.03-.14.15-.3.21-.46.24-.21.12-.42.22-.64.34-.83.03-1.63.1-2.48.12,0,0,.08-.36.25-1.01.37-.2.75-.39,1.12-.59.55-.67,1.31-1.25,2.23-1.77,12.27-12.9,20.47-29.02,33.05-41.72,8.66-8.75,18.42-16.31,28.47-23.46,1.46-.33,2.94-.62,4.46-.87-11.11,7.83-21.94,16.04-31.63,25.62-11.63,11.49-19.36,26.04-29.97,38.32,13.02-8.12,24.57-18.06,36.35-28.21,13.94-12.03,27.48-24.53,41.04-36.98.11,0,.21,0,.32,0,0,0-.18,1-.6,2.72-13.04,11.97-26.08,23.95-39.47,35.55-9.77,8.47-19.41,16.77-29.86,24.01,7.07-3.45,13.76-7.84,20.35-12.05,12.34-7.87,25.13-14.86,38.19-21.38-.57.95-1.14,1.91-1.76,2.87-10.61,5.34-21.06,11.01-31.14,17.3-8.33,5.19-16.48,10.57-25.25,15.03Z" style="fill: #84c2ab; mix-blend-mode: multiply;"/>
                </g>
                <g>
                  <path d="M745.11,563.05s-53.89-29.32-40.38-84.68c0,0,52.47,18.49,40.38,84.68Z" style="fill: #aeddcd;"/>
                  <path d="M704.73,478.37s52.47,18.49,40.38,84.68l-40.38-84.68Z" style="fill: #84c4ac;"/>
                  <path d="M715.33,492.09c5.19,8.89,10.48,17.8,15.06,27.04,5.17,10.44,9.04,21.43,12.07,32.65-1.51-11.69-4.47-23.15-8.19-34.37-3.33-10.06-7.16-20.63-13.31-29.47,1.42,1.12,2.87,2.36,4.33,3.72,4.26,7.41,7.27,15.63,10,23.59,5.16,15.06,8.97,30.65,9.76,46.59,0,.03,0,.05-.01.08.06.15.11.31.17.47-.04.22-.06.43-.1.65,0,0-.68-.37-1.87-1.11-.02-.06-.03-.13-.04-.19-4.84-12.37-13.35-22.78-21.31-33.32-5.65-7.49-11.74-14.72-18.39-21.36-.15-.87-.29-1.74-.4-2.64,6.9,6.77,13.18,14.15,19.18,21.79,6.67,8.5,13.65,17.24,18.76,26.87-3.07-11.41-6.98-22.56-12.16-33.27-4.03-8.31-8.84-16.29-13.46-24.28-3.28-5.68-6.5-11.44-10.09-16.94.56.22,1.49.62,2.71,1.2,2.53,4.03,4.89,8.17,7.3,12.3Z" style="fill: #84c2ab; mix-blend-mode: multiply;"/>
                </g>
                <g>
                  <path d="M740.7,575.32s56.93-4.08,52.92-69.19c0,0-60.43,1.93-52.92,69.19Z" style="fill: #85b8a7;"/>
                  <path d="M793.61,506.13s-60.43,1.93-52.92,69.19l52.92-69.19Z" style="fill: #aed7c9;"/>
                  <path d="M760.38,534.06c-4.59,7.06-8.39,14.58-12.34,22.01-3.01,5.67-5.79,11.43-7.04,17.73-.13.27-.25.55-.38.82.03.24.05.47.07.7,0,0,.88-.06,2.39-.3,12.53-19.54,29.8-35.42,49.47-47.61.13-.72.25-1.44.36-2.18-17.52,10.68-33.23,24.23-45.5,40.63,1.91-3.03,3.92-5.99,5.93-8.91,5.97-8.67,12.39-17.02,19-25.21,6.32-7.85,12.88-15.53,19.71-22.95.53-.57,1.06-1.16,1.6-1.75-.02-.3-.02-.6-.04-.91,0,0-.52.02-1.45.1-.23.25-.47.51-.7.75-6.92,7.43-13.49,15.19-19.89,23.07-6.85,8.44-13.46,17.08-19.65,26.02-2.52,3.63-5.02,7.34-7.31,11.16,1.66-4.37,3.9-8.52,6.1-12.67,3.78-7.09,7.52-14.17,11.91-20.91,5.65-8.69,11.9-17.26,18.58-25.41-.89.24-1.81.51-2.76.81-6.46,8.05-12.52,16.48-18.07,25.01Z" style="fill: #84c2ab; mix-blend-mode: multiply;"/>
                </g>
              </g>
            </g>
          </g>
        </g>
      </g>
    </g>
  </g>
</svg>