<?xml version="1.0" encoding="UTF-8"?>
<svg id="Layer_1" data-name="Layer 1" xmlns="http://www.w3.org/2000/svg" xmlns:xlink="http://www.w3.org/1999/xlink" viewBox="0 0 1920 889.74">
  <defs>
    <linearGradient id="linear-gradient" x1="1453.2" y1="-437.65" x2="2114.45" y2="193.55" gradientTransform="translate(1919.28) rotate(-180) scale(1 -1)" gradientUnits="userSpaceOnUse">
      <stop offset="0" stop-color="#f5f9f8"/>
      <stop offset=".2" stop-color="#ebf5f2"/>
      <stop offset=".64" stop-color="#ddefe9"/>
      <stop offset="1" stop-color="#d8ede6"/>
    </linearGradient>
    <clipPath id="clippath">
      <polygon points="1564.25 -2.22 217.39 8.32 91.49 -1015.27 1564.25 -894.61 1564.25 -2.22" style="fill: none;"/>
    </clipPath>
    <linearGradient id="linear-gradient-2" x1="1101.12" y1="-275.83" x2="1387.03" y2="-53.87" gradientTransform="translate(1919.28) rotate(-180) scale(1 -1)" gradientUnits="userSpaceOnUse">
      <stop offset="0" stop-color="#fdc3b7"/>
      <stop offset=".23" stop-color="#fcbfb1"/>
      <stop offset=".51" stop-color="#fab6a3"/>
      <stop offset=".82" stop-color="#f7a68a"/>
      <stop offset="1" stop-color="#f59b79"/>
    </linearGradient>
  </defs>
  <path d="M.12-896.78c0-229.69,247.59-35.13,254.27-8.73l130.51,8.73c86.38,56.71,163.73,151.88,259.78,232.13,174.03,145.4,336.39,144.62,441.1,293.42,41.78,59.37,46.45,132.22,31.76,199.62-17.42,79.93-62.62,151.09-126.67,201.99C678.25,278.82,139.8,617.09,0,0" style="fill: url(#linear-gradient);"/>
  <g style="clip-path: url(#clippath);">
    <g>
      <path d="M573.89-272.42c1.01-28.02,8.73-54.19,21.97-76.57.16,4.76,61.9,8.61,138.03,8.61,75.86,0,137.42-3.83,138.02-8.56,14.2,24.26,21.48,52.98,23.5,83.81,0,0,35.95,82.14,32.62,88.11-3.05,5.46-43.48,16.31-43.48,16.31,0,0,.21,57.88-26.42,99.62,0,0-65.9,13.25-109.83,5.3l6.66,70.88s-85.21,19.87-165.75,0l17.31-145.07s-35.89-51.98-32.62-142.43Z" style="fill: url(#linear-gradient-2);"/>
      <path d="M684.97-73.49c34.99,16.46,63.32,17.69,63.32,17.69l6.66,70.88s-44.17-33.62-69.98-88.57Z" style="fill: #f59b79;"/>
    </g>
  </g>
</svg>