<?xml version="1.0" encoding="UTF-8"?>
<svg xmlns="http://www.w3.org/2000/svg" xmlns:xlink="http://www.w3.org/1999/xlink" viewBox="0 0 1920 889.74">
  <defs>
    <linearGradient id="linear-gradient" x1="-314.22" y1="912.73" x2="-789.69" y2="406.58" gradientTransform="translate(-193) rotate(-180) scale(1 -1)" gradientUnits="userSpaceOnUse">
      <stop offset="0" stop-color="#f5f9f8"/>
      <stop offset=".2" stop-color="#ebf5f2"/>
      <stop offset=".64" stop-color="#ddefe9"/>
      <stop offset="1" stop-color="#d8ede6"/>
    </linearGradient>
    <radialGradient id="radial-gradient" cx="573.83" cy="500.85" fx="573.83" fy="500.85" r="265.15" gradientUnits="userSpaceOnUse">
      <stop offset="0" stop-color="#a4cabd"/>
      <stop offset=".11" stop-color="#98c3b5"/>
      <stop offset=".33" stop-color="#8abaaa"/>
      <stop offset=".5" stop-color="#85b8a7"/>
      <stop offset=".51" stop-color="#84b7a6"/>
      <stop offset=".64" stop-color="#73a999"/>
      <stop offset=".8" stop-color="#6aa091"/>
      <stop offset="1" stop-color="#679e8f"/>
    </radialGradient>
    <linearGradient id="linear-gradient-2" x1="538.29" y1="-772.82" x2="376.09" y2="-559.44" gradientTransform="translate(-142.7 609.75) rotate(23.37)" gradientUnits="userSpaceOnUse">
      <stop offset="0" stop-color="#09005d"/>
      <stop offset="1" stop-color="#1a0f91"/>
    </linearGradient>
    <linearGradient id="linear-gradient-3" x1="113.79" y1="-35.57" x2="-50.74" y2="180.87" gradientTransform="translate(537.14 132.92) rotate(.69)" xlink:href="#linear-gradient-2"/>
    <linearGradient id="linear-gradient-4" x1="572.58" y1="14.38" x2="570.93" y2="252.11" gradientUnits="userSpaceOnUse">
      <stop offset="0" stop-color="#53d8ff"/>
      <stop offset="1" stop-color="#3840f7"/>
    </linearGradient>
    <linearGradient id="linear-gradient-5" x1="-704.45" y1="351.89" x2="-825.79" y2="1031.62" gradientTransform="translate(-193) rotate(-180) scale(1 -1)" gradientUnits="userSpaceOnUse">
      <stop offset="0" stop-color="#ff928e"/>
      <stop offset="1" stop-color="#fe7062"/>
    </linearGradient>
    <linearGradient id="linear-gradient-6" x1="533.59" y1="237.43" x2="546.8" y2="-96.06" gradientUnits="userSpaceOnUse">
      <stop offset="0" stop-color="#febbba"/>
      <stop offset="1" stop-color="#ff928e"/>
    </linearGradient>
    <linearGradient id="linear-gradient-7" x1="435.26" y1="514.5" x2="723.04" y2="514.5" gradientUnits="userSpaceOnUse">
      <stop offset="0" stop-color="#e1473d"/>
      <stop offset="1" stop-color="#e9605a"/>
    </linearGradient>
  </defs>
  <g style="isolation: isolate;">
    <g id="Layer_1" data-name="Layer 1">
      <g>
        <path d="M263.98,709.66c17.55,18.09,33.26,28.73,45.28,36.76,117.27,78.3,251.33,55.73,292.77,48.02,66.87-12.45,123.32-21.23,171.81-65.04,110.2-99.56,104.84-307.26,20.63-435.92-9.98-15.26-94.06-139.89-228.41-157.45-3.29-.43-5.74-.67-7.88-.9-20.78-2.2-149.57-13.81-254.58,74.17-15.03,12.59-39.22,35.31-61.66,69.96-82.03,126.68-82.29,322.88,22.03,430.41Z" style="fill: url(#linear-gradient);"/>
        <g style="mix-blend-mode: multiply;">
          <g>
            <path d="M366.03,538.06s2.1-88.2-38.53-111.81c-40.62-23.61-117.86-38.36-120.76-165.01-1.7-74.14-3.53-106.56-4.76-120.7-.48-5.51,4.42-9.96,9.86-8.94,38.47,7.25,163.46,37.08,189.67,122.39,31.07,101.13-35.48,284.07-35.48,284.07Z" style="fill: #84c2ab;"/>
            <path d="M241.6,166.84c42.23,37.67,91.07,104.33,117.1,170.99,3.34,10.99,13.11,34.35,17.36,75.86,3.79,34.62,1.91,71.2-2.69,95.42-.29,1.53-1.77,2.54-3.3,2.25-2.63-.5-2.28-3.33-2.26-3.24,5.25-41.37,3.07-92.87-8.96-139.34-15.37-57.05-49.64-112.37-85.09-159.29l-3.65-4.62c-27.47-35.27-33.25-35.53-30.68-37.99.61-.58,1.56-.59,2.17-.04Z" style="fill: #84c2ab; mix-blend-mode: soft-light;"/>
          </g>
          <g>
            <path d="M432.01,687.79c5.5,2.7-52.03-69.65-70.05-183.27-8.49-53.54-8.6-120.62-39.1-146.48-25.38-21.52-111.76-7.93-140.02-2.77-3.53.64-4.72,5.11-1.97,7.42,13.55,11.38,41.81,38.45,50.1,65.29,19.94,64.56,44.38,59.85,74.22,64.49,30.6,4.75,47.24,12.1,62.03,60.64,14.79,48.55,49.18,127.02,64.8,134.68Z" style="fill: #84c2ab;"/>
            <path d="M222.58,370.35c36.06,1.51,74.77,17.96,94.41,48.81l1.85,2.94c4.28,6.9,28.55,55.98,42.03,96.66.17.51-.11,1.05-.61,1.22-.86.29-1.29-.66-1.21-.58-9.39-22.98-22.88-52.12-33.62-73.91-11.52-23.78-19.58-39.88-45.86-55.3-29.24-16.61-57.18-18.32-57.1-18.3-.43-.04-.74-.42-.69-.85.04-.41.4-.71.8-.7Z" style="fill: #84c2ab; mix-blend-mode: soft-light;"/>
          </g>
        </g>
        <g>
          <path d="M391.04,205.98l357.69,4.31c19.73.24,35.82,15.9,36.59,35.62l20.15,518.91c.6,15.43-11.7,28.29-27.14,28.39l-410.05,2.51c-14.51.09-26.27-11.74-26.1-26.25l6.29-521.93c.28-23.23,19.34-41.83,42.57-41.55Z" style="fill: url(#radial-gradient);"/>
          <g>
            <path d="M392.19,201.79c48.77,7.21,216.49,29.72,355.49,20.74,6.34-.41,11.78,4.45,12.04,10.8l21.41,521.24c.29,7.15-5.23,13.19-12.38,13.53-58.45,2.75-299.16,13.21-384.85,3.19-5.22-.61-9.13-5.05-9.09-10.3l3.38-547.17c.05-7.43,6.65-13.11,14-12.02Z" style="fill: #91b3fa;"/>
            <path d="M397.26,215.37c46.93,6.94,208.34,28.61,342.11,19.96,6.1-.39,11.33,4.29,11.58,10.4l20.6,501.61c.28,6.88-5.04,12.69-11.91,13.02-56.25,2.65-287.89,12.72-370.35,3.07-5.02-.59-8.78-4.86-8.75-9.92l3.25-526.57c.04-7.15,6.4-12.61,13.48-11.57Z" style="fill: #fff; opacity: .6;"/>
            <path d="M423.24,275.23c40.62,4.96,180.32,20.46,296.05,14.67,5.28-.26,9.82,3.03,10.04,7.31l18.82,351.64c.26,4.82-4.33,8.89-10.28,9.1-48.67,1.75-249.08,8.34-320.45,1.42-4.34-.42-7.61-3.43-7.59-6.97l1.77-369.09c.02-5.01,5.51-8.83,11.64-8.08Z" style="fill: #fff; opacity: .6;"/>
          </g>
          <path d="M592.92,137.7c-12.81-9.14-24.05-9.1-31.99-6.86-7.24,2.04-12,8.95-11.4,16.45l2.96,37.27,40.54,4.09s25.01-33.01-.11-50.94ZM574.71,167.52c-5.59-.07-10.07-4.65-10-10.24.07-5.59,4.65-10.07,10.24-10,5.59.07,10.07,4.65,10,10.24-.07,5.59-4.65,10.07-10.24,10Z" style="fill: url(#linear-gradient-2);"/>
          <path d="M556.75,168.79c-.43,0-.79-.33-.82-.76l-.47-5.93c-.04-.45.3-.85.76-.89.45-.03.85.3.89.76l.47,5.93c.04.45-.3.85-.76.89-.02,0-.04,0-.07,0ZM555.82,157.16c-.43,0-.79-.33-.82-.76l-.36-4.51c-.56-7.07,3.96-13.59,10.75-15.51,4.84-1.36,9.81-1.51,14.76-.43.45.1.73.54.63.98-.1.45-.54.73-.98.63-4.7-1.02-9.39-.89-13.97.4-6.04,1.7-10.06,7.5-9.56,13.79l.36,4.51c.04.45-.3.85-.76.89-.02,0-.04,0-.07,0Z" style="fill: #bdd0fb;"/>
          <path d="M496.81,207.94l.23-18.72c.08-6.46,5.5-11.57,11.95-11.27l128.99,5.98c5.72.27,10.31,4.84,10.58,10.57l.86,18-152.61-4.55Z" style="fill: url(#linear-gradient-3);"/>
          <path d="M545.22,185.29h0l-5.55-.07c-.46,0-.82-.38-.82-.84,0-.46.39-.82.84-.82l5.55.07c.46,0,.82.38.82.84,0,.45-.37.82-.83.82Z" style="fill: #bdd0fb;"/>
          <path d="M503.88,202h0c-.46,0-.82-.38-.82-.84l.09-7.57c.03-2.79,1.15-5.41,3.15-7.36,2-1.95,4.67-2.99,7.43-2.97l20.4.25c.46,0,.82.38.82.84,0,.46-.37.81-.84.82l-20.4-.25s-.07,0-.11,0c-2.31,0-4.49.89-6.15,2.5-1.68,1.64-2.63,3.84-2.65,6.19l-.09,7.57c0,.45-.37.82-.83.82Z" style="fill: #bdd0fb;"/>
          <path d="M456.46,200.6l225.65,2.71c8.11.1,14.98,6.02,16.27,14.03l.18,1.11c1.41,8.78-5.43,16.7-14.32,16.6l-231.51-2.79c-5.32-.06-9.5-4.56-9.18-9.87l.62-10.36c.39-6.48,5.8-11.51,12.29-11.43Z" style="fill: url(#linear-gradient-4);"/>
          <rect x="409.39" y="682.15" width="207.03" height="14.21" rx="7.1" ry="7.1" style="fill: #fff; opacity: .6;"/>
          <rect x="408.79" y="706.36" width="207.03" height="14.21" rx="7.1" ry="7.1" style="fill: #fff; opacity: .6;"/>
          <rect x="407.14" y="730.44" width="207.03" height="14.21" rx="7.1" ry="7.1" style="fill: #fff; opacity: .6;"/>
        </g>
        <g>
          <path d="M416.7,630.83l18.83-87.36c3.29-19.35-3.21-39.44-17.41-53.94h0c-7.79-7.96-12.68-18.15-13.78-28.93-1.7-16.82-1.5-44.2,9.76-77.68,15.12-44.95,62.01-73.74,112.35-68.12,25.64,2.86,56.03,9.79,88.59,24.37,19.02,8.52,32.19,25.43,34.28,44.98.98,9.1,2.78,19.2,6.08,28.19,4.15,11.34,5.96,19.12,6.7,24.17.68,4.58-1.29,9.11-5.15,12.05h0c-3.96,3.01-4.94,8.2-2.34,12.36l29.15,46.59v1.48c0,4.6-3.96,8.26-9.03,8.38l-17.57.4.66,16.24c.13,3.14-2.14,5.84-5.46,6.52l-3.97.81,3.63,2.8c2.96,2.28,3.73,6.12,1.83,9l-5.12,7.73c-2.31,3.49-1.98,8.03.84,11.48h0c4.68,5.72,5.63,13.15,2.48,19.27l-1.43,2.78c-6.61,12.82-22.2,19.18-37.63,15.42-17.32-4.22-39.25-10.47-54.14-17.99-4.21-2.13-9.05.48-9.05,4.83v44.28l-133.08-10.13Z" style="fill: url(#linear-gradient-5);"/>
          <path d="M582.74,433.62c13.74-2.95,17.89,2.52,29.03-1.61,13.43-4.98,23.45-18.41,25.13-31.84,2.39-19.1-12.65-33.27-22.96-42.99-23.65-22.29-52.4-27.43-60.78-28.81-11.38-1.89-59.99-8.36-98.54,23.7-26.75,22.25-33.28,50.34-35.09,58.72-2.64,12.2-10.89,50.26,10.64,65.18,12.76,8.84,33.25,7.78,46.28.3,9.6-5.52,7.61-9.48,17.07-14.94,18.88-10.89,32.08,2.85,54.41-5.65,17.85-6.8,16.2-18.06,34.81-22.05Z" style="fill: url(#linear-gradient-6);"/>
          <path d="M586.43,681.96c-25.3,0-47.94-5.67-67.48-16.9-23.75-13.67-37.89-32.81-45.57-46.47-8.64-15.37-14.03-32.65-14.44-46.22-.47-16.03-6.61-28.14-12.03-38.83-6.74-13.3-12.57-24.79-6.42-39.78.33-.81.87-2.04,1.53-3.56,3.92-8.98,13.09-29.99,11.68-37.79-.73-4.03-2.97-6.17-3.27-6.43-.96-.66-2.13-1.03-3.37-1.42-.72-.23-1.46-.46-2.19-.77-7.32-3.04-10.32-11.51-9.49-18.31.76-6.23,4.17-12.4,10.15-18.36,1.79-1.78,3.8-3.5,6.38-4.09.88-.2,1.78-.25,2.7-.16.3-.19.6-.37.91-.56-.76-1.26-1.41-2.61-1.9-4.05-2.51-7.37-.59-15.94,5.86-26.2,2.96-4.7,13.69-19.8,27.53-16.51,1.19.28,2.31.69,3.36,1.2,1.41-.95,2.93-1.85,4.56-2.72,20.77-10.94,47.35-8.89,66.14,5.1.91.68,1.75,1.83,2.17,3.02,3.93-1.81,9.32-1.55,16.33.77,8.2,2.71,19.52,7.48,23.05,17.58,1.41,4.03,1.49,8.75.24,14.01-1.7,7.13-5.35,12.59-10.29,15.36-4.47,2.51-11.06,2.47-15.28-.9-.56,8.66-6.68,16.89-15.32,20.03-6.51,2.37-14.13,1.75-20.72-1.37-3.41,9.98-11.32,17.84-20.61,20.32-1.67.44-3.15.6-4.53.47-5.29-.48-8.87-4.36-10.65-11.55-.18-.71-.71-1.24-1.42-1.41-.72-.17-1.43.06-1.92.62-.62.73-1.56,1.06-2.51.9-.94-.16-1.7-.79-2.04-1.68-1.12-2.94-1.9-5.99-2.34-9.09-2.62-.07-5.27-.7-7.78-1.81-.24.2-.49.39-.74.59-.46,4.1-1.65,8.5-3.58,13.26-2.72,6.72-6.74,10.07-11.32,9.42-1.44-.2-2.77-.82-3.87-1.72-4.06.36-8.21-.05-12.08-1.23-2.54-.77-3.7-2.18-3.43-4.18.08-.6.3-1.19.66-1.76.94-1.49,2.05-2.8,3.27-3.98-2.34.4-4.65.13-6.7-.8-6.66-3.03-8.64-11.56-6.64-17.72.97-3,2.76-5.85,5.3-8.45-.37.33-.72.67-1.07,1.02-5.58,5.55-8.75,11.24-9.44,16.9-.82,6.74,2.61,13.5,7.98,15.73.63.26,1.29.47,1.99.69,1.38.44,2.81.89,4.09,1.79l.08.06c.13.11,3.2,2.7,4.15,7.92,1.55,8.54-7.5,29.26-11.85,39.22-.66,1.51-1.18,2.71-1.51,3.51-5.72,13.95-.13,24.96,6.33,37.72,5.54,10.92,11.81,23.29,12.3,39.88.39,13.19,5.67,30.05,14.12,45.08,7.52,13.38,21.38,32.15,44.64,45.54,34.5,19.85,97.37,31.7,201.02-24.53.6-.32,1.35-.1,1.68.5.33.6.1,1.35-.5,1.68-44.97,24.4-86.19,38.15-122.54,40.89-4.55.34-9.03.51-13.43.51ZM503.62,432.94c.34,0,.69.04,1.03.12,1.61.38,2.86,1.62,3.25,3.23,1.51,6.13,4.28,9.3,8.46,9.67,1.09.1,2.29-.03,3.67-.4,8.62-2.3,15.95-9.71,19.03-19.1-1.72-1-3.35-2.19-4.84-3.55-.31-.28-.61-.56-.9-.86-3.5-.42-7.26-1.38-11.33-2.87-2.58-.94-4.95-2-7.09-3.17-.51-.07-1.02-.16-1.53-.27.45,2.69.5,5.44.12,8.14l-.22,1.57-1.47-.59c-1.87-.75-3.79-1.36-5.75-1.82-1.9,1.28-4.04,2.26-6.44,2.79-.61.13-1.22.23-1.84.3.42,2.83,1.14,5.61,2.17,8.3,0,.02.04.1.15.12.06,0,.14,0,.21-.07.85-.99,2.07-1.54,3.34-1.54ZM472.43,445.26c1.66.17,3.09-.44,4.31-1.47-.91.45-1.93.83-3.04,1.14-.42.12-.84.23-1.27.33ZM460.7,434.39c-2.14,1.64-4.04,3.46-5.47,5.74-.16.25-.26.52-.3.76-.05.39-.12.93,1.7,1.49,3.01.92,6.2,1.33,9.36,1.24-.63-1.09-1.03-2.34-1.14-3.66-.09-1.09-.03-2.16.16-3.21-.66.25-1.34.5-2.02.75l-1.21.44-.39-1.23c-.25-.77-.48-1.54-.69-2.32ZM467.88,435.61c-.48,1.33-.67,2.71-.55,4.14.11,1.4.68,2.67,1.54,3.64,1.41-.18,2.8-.46,4.16-.84,1.77-.5,5.95-2,6.57-5.28.26-1.4-.18-2.94-.7-4.41-.25-.71-.52-1.42-.81-2.12-3.09,1.72-6.48,3.34-10.2,4.86ZM462.85,432.83c.16.63.34,1.26.52,1.88.9-.34,1.78-.68,2.64-1.02,1.49-3.14,4.37-5.98,8.54-8.4.21-.12.42-.24.63-.36-.14-.24-.29-.48-.43-.72-.02.02-.04.04-.06.06-2.57,2.53-5.63,4.51-8.59,6.42-1.1.71-2.19,1.42-3.24,2.14ZM480.24,429.49c.35.84.68,1.68.99,2.54.29.8.55,1.63.72,2.48.91-2.59,1.58-5.06,2-7.42-1.18.82-2.42,1.62-3.71,2.4ZM455.19,405.44c-3.88,2.58-8.09,6.42-9.77,11.61-1.67,5.17.06,12.32,5.31,14.71,2.24,1.02,4.91,1.01,7.5-.02.56-.22,1.1-.49,1.62-.79-1.68-7.72-1.93-15.81-.74-23.62-1.28-.96-2.62-1.6-3.92-1.88ZM476.38,427.09c-.2.11-.39.22-.59.33-2.43,1.41-4.34,2.93-5.73,4.55,2.5-1.12,4.83-2.29,7-3.51-.22-.46-.45-.92-.69-1.38ZM461.33,409.38c-.82,6.61-.58,13.4.71,19.94,1.2-1.12,2.15-2.46,2.74-3.92,2.04-5.03.65-11.4-3.46-16.02ZM542.01,425.24c6.07,2.99,13.14,3.62,19.15,1.43,8.6-3.12,14.59-12.3,13.63-20.89l-.31-2.75c-2.64-.1-5.27-1.13-7.3-2.56-1.29-.9-2.43-1.96-3.49-3.09-1.82,9.8-7.45,19.81-17.5,23.44-1.12.4-2.27.72-3.45.96-.19,1.17-.43,2.32-.73,3.45ZM467.31,414.99c1.21,3.81,1.19,7.84-.23,11.34-.15.37-.32.74-.51,1.1,2.26-1.49,4.5-3.07,6.38-4.92.14-.14.28-.28.41-.42-1.31-1.89-2.76-3.69-4.33-5.36-.55-.59-1.13-1.17-1.72-1.74ZM478.58,425.96c.22.42.43.84.63,1.26,1.83-1.11,3.54-2.27,5.14-3.48-1.98.59-3.91,1.33-5.77,2.22ZM537.34,422.31c.78.61,1.59,1.18,2.42,1.69.15-.6.27-1.21.39-1.82-.92.09-1.84.16-2.81.13ZM476.48,422.31c.31.49.61.98.9,1.48,1.75-.84,3.57-1.56,5.43-2.16-.75-.57-1.46-1.19-2.15-1.86-.49-.48-.97-.99-1.43-1.52-.79,1.43-1.7,2.8-2.75,4.07ZM489.6,422.61c1.77.66,3.59,1.05,5.39,1.13-.05-.58-.08-1.17-.11-1.75-1.73.07-3.46.24-5.17.52-.04.03-.08.07-.11.1ZM497.36,421.96c.02.57.06,1.14.11,1.71.54-.06,1.07-.14,1.6-.26,1.12-.25,2.18-.61,3.18-1.07-1.62-.22-3.26-.35-4.89-.38ZM508.5,421.12c.91.26,1.81.55,2.71.87.09-1.23.09-2.46,0-3.69-.83,1-1.72,1.95-2.7,2.82ZM482.54,406.46c1.58,2.18,2.81,4.7,3.53,7.42.56,2.12.86,4.32.91,6.63.53-.11,1.06-.22,1.59-.31,1.26-1.19,2.44-2.42,3.54-3.7,1.35-1.57,2.56-3.23,3.61-4.94.47-2.27,1.12-4.49,1.97-6.65-2.58-3.69-4.54-8.13-5.76-13.11-2.4.08-4.89-.59-7.07-1.96-3.75-2.37-5.8-5.92-6.52-9.76-.32.34-.63.7-.91,1.07-1.85,2.44-2.91,5.19-3.46,7.93,4.04,1.16,6.58,5.37,7.64,9.16.75,2.69,1.05,5.47.92,8.23ZM497.33,419.49c2.75.05,5.49.35,8.17.9,1.99-1.5,3.68-3.38,5.11-5.39-2.23-.75-4.38-1.84-6.34-3.28-1.41-1.03-2.73-2.22-3.95-3.54-.66,1.46-1.41,2.89-2.25,4.29-.45,2.31-.7,4.66-.74,7.02ZM461.8,406.27c1.36,1.42,2.84,2.8,4.34,4.2,1.57,1.47,3.2,2.99,4.69,4.57,1.51,1.6,2.91,3.31,4.19,5.11.97-1.27,1.8-2.63,2.5-4.07-2.74-3.87-4.72-8.67-5.8-14.14-.04-.22-.09-.44-.13-.68-1.19-.35-2.43-.54-3.72-.54h-.02c-1.61,0-3.27.28-5.04.87,0,.01,0,.03-.01.04-.4,1.53-.74,3.08-1.01,4.64ZM534.48,419.69c2.13.2,4.15.19,6.05-.05.74-6.6-.27-13.72-2.97-20.66-.88,4.56-2.87,9.48-7.09,13.02-.3.25-.6.49-.91.71,1.32,2.57,2.97,4.92,4.92,6.97ZM480.42,415.79c.62.78,1.28,1.52,1.98,2.2.66.65,1.36,1.24,2.08,1.79-.09-1.83-.36-3.58-.8-5.27-.36-1.37-.91-2.76-1.61-4.1-.36,1.84-.91,3.65-1.65,5.38ZM494.97,416.92c-.32.4-.65.8-.98,1.19-.45.52-.91,1.04-1.38,1.55.75-.07,1.5-.11,2.25-.14.01-.86.05-1.73.12-2.59ZM538.14,394.3c.33.56.62,1.12.86,1.66,3.38,7.72,4.76,15.75,4.07,23.22.78-.19,1.54-.41,2.28-.68,9.8-3.54,14.98-13.92,16.23-23.58-.54-.67-1.06-1.35-1.58-2.02-.48-.62-.96-1.25-1.45-1.86-6.24-7.84-13.62-13.34-21.32-15.91-.91-.3-1.82-.56-2.74-.78-.46.32-.9.66-1.33,1,3.1,3.55,4.79,8.64,5.03,15.19.04,1.09.04,2.37-.04,3.76ZM520.81,416.07c.69.28,1.37.55,2.04.79,2.78,1.02,5.41,1.77,7.88,2.27-1.24-1.58-2.34-3.29-3.28-5.1-2.03,1.07-4.29,1.75-6.64,2.04ZM515.73,413.64c3.77.44,7.53-.17,10.65-1.85-1.08-2.48-1.89-5.12-2.4-7.85-1.51-.99-2.91-2.15-4.18-3.44-.46,1.48-.93,2.98-1.43,4.44-.8,2.32-1.98,5.23-3.62,8.14.33.19.65.38.98.56ZM474.36,402.38c.91,4.14,2.37,7.83,4.31,10.93.68-1.98,1.13-4.04,1.3-6.12-1.54-1.95-3.44-3.65-5.62-4.81ZM512.32,411.51c.11.08.22.16.34.24,1.52-2.72,2.62-5.44,3.37-7.61.66-1.9,1.26-3.88,1.85-5.81-2.62-3.31-4.46-7.25-5.2-11.39-.6-3.33-.35-7.02,1.03-10.06-.65.37-1.28.77-1.88,1.19-4.19,2.96-7.12,7.4-8.37,12.12.3,2.85.19,5.79-.3,8.74.09.43.2.85.32,1.27,1.92.12,3.17,1.58,3.79,2.32,2.25,2.64,3.96,5.72,5.06,9.01ZM501.36,405.63c1.32,1.56,2.79,2.93,4.37,4.09.66.48,1.33.91,2.03,1.31-2.51-2.28-4.42-4.81-5.68-7.55-.22.72-.46,1.43-.72,2.15ZM526.84,405.46c.42,1.71.98,3.37,1.65,4.97.13-.1.26-.21.39-.32,4.81-4.04,6.35-10.24,6.74-15.18-1.49-2.25-3.58-4.03-5.4-4.45-1.06-.25-1.96-.04-2.77.64-.9.76-1.48,1.97-1.56,3.3-.18,2.71-.06,5.4.35,8.01.41.24.83.47,1.25.69.61.31.85,1.06.54,1.66-.23.46-.7.7-1.18.68ZM575.85,403l1.22,1.99c2.88,4.71,9.86,5.21,14.32,2.71,5.84-3.27,8.2-10.03,9.09-13.77,1.14-4.79,1.08-9.04-.17-12.62-3.17-9.07-13.79-13.5-21.49-16.04-2.21-.73-4.24-1.24-6.07-1.54,6.19,1.66,11.2,5.49,13.61,10.47,3.9,8.09.51,17.13-1.86,21.79-.97,1.9-2.22,4.03-4.22,5.43-1.36.94-2.87,1.43-4.41,1.57ZM504.9,403.58c.83,1.51,1.86,2.89,3.03,4.14-.74-1.28-1.59-2.49-2.54-3.61-.17-.2-.33-.37-.48-.53ZM459.11,403.15c.2.26.41.53.62.79.09-.41.17-.81.27-1.22-.29.14-.59.28-.89.44ZM473.82,399.45c2.24.92,4.35,2.32,6.19,4.1-.1-1.58-.36-3.14-.79-4.65-.84-3.01-2.73-6.33-5.63-7.35-.29,2.89-.1,5.65.22,7.89ZM494.4,391.48c1.03,4.09,2.59,7.78,4.59,10.93.33-.42.71-.79,1.13-1.11.2-.78.37-1.56.51-2.33-.54-2.9-.4-5.95.31-8.91-.1-.83-.24-1.66-.41-2.47-.58.74-1.25,1.39-2.02,1.97-1.23.93-2.64,1.57-4.12,1.93ZM483.11,357.57c-10.67,0-19.03,11.86-21.52,15.81-6.03,9.58-7.86,17.46-5.61,24.08.44,1.29,1.02,2.49,1.71,3.64,1.07-.56,2.1-1.03,3.1-1.42,1.81-5.66,5.61-10.76,10.71-10.91.6-3.12,1.8-6.29,3.94-9.12.74-.98,1.61-1.88,2.58-2.68-.04-3.33.81-6.7,2.3-9.56,1.71-3.27,4.29-6.27,7.73-8.97-.52-.19-1.05-.35-1.6-.48-1.14-.27-2.26-.4-3.35-.4ZM574.35,400.53c1.6.11,3.18-.21,4.51-1.13,1.55-1.08,2.6-2.89,3.43-4.51,2.16-4.26,5.28-12.47,1.84-19.6-2.27-4.71-7.31-8.26-13.47-9.5-2.54-.51-5.12-.63-7.61-.51-.37.5-.94.84-1.65.95l-4,.64,1.24-1.16c-.79.11-1.55.24-2.3.38,5.06,6.24,7.96,14.82,8.02,24.02,0,1.32-.06,2.67-.2,4.05,1.35,1.62,2.76,3.1,4.44,4.28,1.54,1.08,3.57,1.91,5.6,2.07l-.03-.28.18.3ZM520.63,397.77c.88,1,1.84,1.92,2.87,2.76-.2-2.06-.23-4.16-.09-6.27.14-2,1.02-3.84,2.44-5.03,1.41-1.18,3.11-1.58,4.93-1.16,1.81.42,3.51,1.59,4.93,3.05,0-.17,0-.33-.01-.48-.22-5.97-1.71-10.55-4.43-13.67-.86.81-1.66,1.67-2.39,2.56-4.21,5.15-6.29,11.78-8.25,18.24ZM471.15,391.27c-3.49.38-5.96,4.06-7.36,7.47,1.4-.33,2.75-.49,4.08-.5h.02c1.12,0,2.24.13,3.34.38-.24-2.18-.34-4.71-.07-7.35ZM518.11,374.92c-3.02,2.57-3.77,7.29-3,11.57.57,3.17,1.85,6.2,3.66,8.87,1.89-6.15,4.05-12.34,8.19-17.41.77-.94,1.6-1.84,2.51-2.7-.05-.04-.1-.08-.15-.12-.96-.73-2-1.28-3.07-1.63-2.82.09-5.57.56-8.13,1.41ZM537.29,372.55c.24.07.47.15.71.23,8.16,2.72,15.94,8.5,22.48,16.71.46.58.92,1.17,1.38,1.76,0-.38.01-.75.01-1.13-.06-9.15-3.07-17.61-8.31-23.47-.15.03-.31.07-.46.1-6.3,1.42-11.55,3.34-15.81,5.79ZM480.62,378.13c.35,3.83,2.09,7.42,5.56,9.61,1.61,1.02,3.43,1.55,5.21,1.59-.07-.36-.13-.72-.19-1.08-.52-3.11-.96-7.73-.2-12.55-1.19-.23-2.46-.28-3.77-.12-2.33.28-4.65,1.2-6.61,2.55ZM493.38,376.47c-.63,4.35-.22,8.53.25,11.37.07.41.14.82.22,1.23,1.14-.28,2.22-.78,3.17-1.49,1.19-.9,2.03-2,2.59-3.19-.05-.13-.1-.26-.15-.39-1.06-2.8-2.49-4.94-4.22-6.34-.57-.46-1.2-.85-1.87-1.17ZM502.27,384.48c.1.33.2.66.3.99,1.73-3.69,4.4-7.01,7.83-9.43,1.97-1.39,4.16-2.5,6.51-3.32,1.03-.8,2.25-1.42,3.68-1.8,1.97-.52,4.04-.47,6.02.1,2.44-.04,4.9.18,7.35.67,4.61-3.06,10.42-5.41,17.54-7.11-7.7-6.93-19.76-9.92-33.41-8.22-8.74,1.09-15.24,3.85-19.34,8.22,1.84,2.92,3.08,6.12,3.75,9,.98,4.21.88,7.92-.23,10.9ZM493.86,373.98c1.07.44,2.06,1.02,2.95,1.74,1.48,1.2,2.76,2.81,3.82,4.79.22-2.36-.15-4.69-.53-6.37-.56-2.41-1.55-5.06-2.99-7.53-1.61,2.29-2.63,4.82-3.24,7.36ZM490.56,359.66c-3.64,2.66-6.34,5.64-8.03,8.9-1.06,2.02-1.72,4.32-1.91,6.65,1.94-1.09,4.1-1.81,6.32-2.08,1.57-.19,3.11-.14,4.55.15.75-3.06,2.05-6.12,4.16-8.86-1.39-1.88-3.09-3.54-5.08-4.75ZM525.42,353.43c11.9,0,22.19,3.67,28.94,10.48.01.01.03.03.04.04,2.01-.41,4.22-.79,6.53-1-.24-.6-.7-1.36-1.32-1.82-18.04-13.43-43.56-15.4-63.5-4.9-1.18.62-2.29,1.26-3.33,1.93,1.73,1.21,3.24,2.71,4.53,4.37,4.51-4.58,11.39-7.47,20.48-8.61,2.61-.32,5.16-.48,7.64-.48Z" style="fill: url(#linear-gradient-7);"/>
        </g>
      </g>
      <g>
        <g>
          <path d="M1523.61,387.64c-80.41,0-145.82-65.45-145.82-145.9s65.41-145.83,145.82-145.83,145.83,65.42,145.83,145.83-65.42,145.9-145.83,145.9ZM1523.61,123.11c-65.41,0-118.62,53.22-118.62,118.63s53.22,118.7,118.62,118.7,118.63-53.25,118.63-118.7-53.22-118.63-118.63-118.63Z" style="fill: #00414f;"/>
          <path d="M1792.89,458.62c-2.95,0-5.92-.95-8.41-2.92l-158.51-125.01c-5.9-4.65-6.91-13.2-2.26-19.1,4.65-5.9,13.2-6.9,19.1-2.26l158.51,125.01c5.9,4.65,6.91,13.2,2.26,19.1-2.68,3.4-6.66,5.18-10.68,5.18Z" style="fill: #00414f;"/>
        </g>
        <path d="M1503.46,319.62c-.18,0-.37-.02-.55-.06-9.32-1.93-13.95-12.28-12.9-20.77,1.06-8.48,6.34-15.49,11.37-21.23.82-.94,1.67-1.88,2.51-2.82,2.47-2.75,4.86-5.41,6.91-8.22-6.71.6-12.45-.88-16.51-4.29-3.31-2.79-5.37-7.07-5.65-11.74-.28-4.67,1.25-9.17,4.19-12.34,2.95-3.17,7.33-5.01,12.01-5.06,4.75,0,9.1,1.7,12.11,4.81,5.43,5.59,5.93,13.9,3.95,20.8.29-.09.58-.18.87-.26,3.86-1.17,7.84-2.38,12.03-2.85,10.37-1.17,20.27,2.31,29.84,5.67,9.38,3.29,18.23,6.42,27.36,5.41,10.72-1.17,20.58-8.71,24.52-18.75,3.94-10.04,1.84-22.27-5.23-30.43-3.86-4.45-9.13-7.61-14.83-9.16-.05.27-.1.54-.15.81-1.55,7.95-5.72,13.86-11.44,16.21-3.83,1.58-8.67,1.02-12.3-1.43-3.05-2.05-4.8-5.14-4.78-8.47.03-6.73,6.49-11.26,12.89-12.77,3.55-.83,7.22-1.06,10.85-.74-.15-12.55-7.78-25.18-19.16-30.51-11.44-5.36-26.15-3.09-35.89,4.94,4.35,3.11,8.54,7.69,8.92,13.93.38,6.22-3.55,13.22-10.55,13.68-6.64.4-11.74-5.65-12.32-11.59-.58-5.97,2.41-11.27,5.18-14.8-15.55-7.17-43.05-8.44-54.51,6.09-2.15,2.73-3.49,5.97-4,9.24,1.89-.15,3.82-.2,5.8-.18,7.19.09,15.38,2.77,16.79,9.99.5,2.58-.12,5.3-1.74,7.65-1.8,2.6-4.67,4.46-7.68,4.97-5.01.86-10.45-1.39-14.18-5.87-2.45-2.94-3.94-6.54-4.47-10.37-4.84.94-9.93,2.71-14.43,5.86-7.58,5.32-11.94,13.92-11.08,21.92.16,1.49.52,2.94,1.06,4.31,3.81-2.33,8.09-3.89,12.56-4.45,6.38-.81,13.64,1.59,15.17,7.71.66,2.63.06,5.37-1.7,7.71-2.35,3.14-6.53,5.28-10.63,5.45-6.53.27-12.87-3.13-17.03-8.44-3.75,3.46-6.57,7.93-7.86,12.9-2.72,10.41,1.42,22.13,10.07,28.52,8.65,6.39,21.07,6.91,30.22,1.25,1.8-1.11,3.48-2.44,5.25-3.84,1.82-1.44,3.69-2.92,5.76-4.2,3.12-1.93,9.26-4.81,15.36-2.49,1.4.53,2.11,2.11,1.58,3.51-.54,1.4-2.12,2.11-3.51,1.57-4.08-1.55-8.75.9-10.57,2.03-1.8,1.11-3.48,2.44-5.25,3.84-1.82,1.44-3.69,2.92-5.76,4.2-10.99,6.79-25.93,6.17-36.32-1.5-10.39-7.68-15.37-21.77-12.09-34.27,1.65-6.33,5.34-11.97,10.25-16.22-1.01-2.19-1.69-4.56-1.96-7.04-1.06-9.94,4.19-20.51,13.37-26.95,4.86-3.41,10.78-5.75,17.44-6.92.44-4.68,2.22-9.37,5.33-13.31,13.7-17.37,45.38-15.67,62.64-6.89,11.34-10.47,29-13.52,43.11-6.92,13.73,6.44,22.58,21.33,22.3,36.34,7.08,1.74,13.66,5.57,18.43,11.06,8.36,9.64,10.84,24.1,6.18,35.97-4.66,11.88-16.31,20.79-28.99,22.18-10.33,1.12-20.21-2.33-29.75-5.68-9.41-3.3-18.32-6.42-27.43-5.4-3.69.41-7.27,1.5-11.06,2.65-1.7.52-3.44,1.04-5.2,1.51-2.76,4.93-6.54,9.13-10.21,13.22-.83.92-1.65,1.84-2.47,2.77-4.48,5.11-9.19,11.29-10.06,18.31-.76,6.11,2.52,13.51,8.6,14.77,1.47.3,2.41,1.74,2.11,3.21-.27,1.28-1.4,2.17-2.66,2.17ZM1505.02,238.54s-.09,0-.13,0c-3.2.03-6.15,1.25-8.08,3.33-1.94,2.08-2.94,5.11-2.75,8.3.19,3.19,1.55,6.07,3.73,7.91,4.94,4.16,12.49,3.29,16.55,2.41.03,0,.07-.02.11-.02.06-.13.12-.25.17-.38,2.56-5.71,3.06-13.6-1.58-18.38-1.95-2.01-4.87-3.16-8.02-3.16ZM1440.96,235.94c3.13,3.93,7.74,6.43,12.46,6.3,2.46-.1,5.14-1.45,6.5-3.28.78-1.04,1.04-2.09.78-3.13-.8-3.2-5.87-4.05-9.22-3.63-3.75.47-7.33,1.79-10.53,3.75ZM1587.41,207.24c-2.19,0-4.37.24-6.5.74-4.18.98-8.68,3.75-8.7,7.49,0,2.02,1.49,3.33,2.38,3.93,2.14,1.44,5.03,1.81,7.2.91,3.94-1.62,7-6.19,8.17-12.23.05-.24.09-.49.13-.73-.89-.08-1.79-.12-2.68-.12ZM1468.12,198.4c.39,2.85,1.46,5.51,3.23,7.63,2.45,2.94,6.01,4.5,9.08,3.99,1.57-.27,3.15-1.3,4.12-2.71.78-1.13,1.1-2.38.87-3.52-.79-4.03-6.7-5.54-11.52-5.6-1.79-.03-3.72.02-5.79.2ZM1531.52,180.28c-.08.1-.17.2-.25.3-2.22,2.73-4.78,6.9-4.35,11.29.32,3.34,3.26,6.94,6.55,6.69,3.87-.25,5.67-4.77,5.47-7.92-.28-4.63-4.19-8.19-7.42-10.36Z" style="fill: #ff9f89;"/>
      </g>
    </g>
  </g>
</svg>