<?xml version="1.0" encoding="UTF-8"?>
<svg id="OBJECTS" xmlns="http://www.w3.org/2000/svg" viewBox="0 0 514.83 508.22">
  <path d="M260.52,66.91c-121.32,9.31-191.22,34.53-207.84,106.16-16.63,71.63,49.88,81.86,62.67,104.88,12.79,23.02-47.96,14.07-70.99,52.44-23.02,38.37-23.02,133.02,98.49,101.68,121.51-31.34,166.27-35.17,231.51-12.79,65.23,22.38,108.72.64,115.11-30.06,6.4-30.7-17.91-60.75-45.41-63.31-27.5-2.56-24.3-39.01,21.74-42.85,46.05-3.84,28.14-43.49-17.91-62.03-46.05-18.55-6.4-35.81,22.38-51.8,29.03-16.13,31.98-120.87-209.76-102.32Z" style="fill: #acd5d4; opacity: .4;"/>
  <path d="M261.01,110.88c-92.43,7.09-145.68,26.31-158.34,80.88-12.67,54.57,38,62.36,47.75,79.9,9.74,17.54-36.54,10.72-54.08,39.95-17.54,29.23-17.54,101.34,75.03,77.47,92.57-23.87,126.67-26.8,176.37-9.74,49.7,17.05,82.83.49,87.7-22.9,4.87-23.39-13.64-46.28-34.59-48.23-20.95-1.95-18.51-29.72,16.57-32.64,35.08-2.92,21.44-33.13-13.64-47.26-35.08-14.13-4.87-27.28,17.05-39.46,22.11-12.29,24.36-92.08-159.8-77.95Z" style="fill: #acd5d4; opacity: .4;"/>
</svg>