<?xml version="1.0" encoding="UTF-8"?>
<svg id="Illustration" xmlns="http://www.w3.org/2000/svg" xmlns:xlink="http://www.w3.org/1999/xlink" viewBox="0 0 1691.99 2526.57">
  <defs>
    <linearGradient id="linear-gradient" x1="0" y1="1263.29" x2="1691.99" y2="1263.29" gradientUnits="userSpaceOnUse">
      <stop offset="0" stop-color="#09005d"/>
      <stop offset="1" stop-color="#1a0f91"/>
    </linearGradient>
    <linearGradient id="linear-gradient-2" x1="88.64" y1="1185.11" x2="1603.35" y2="1185.11" gradientUnits="userSpaceOnUse">
      <stop offset="0" stop-color="#4f52ff"/>
      <stop offset="1" stop-color="#4042e2"/>
    </linearGradient>
    <linearGradient id="linear-gradient-3" x1="434.76" y1="283.12" x2="495.02" y2="962.72" gradientUnits="userSpaceOnUse">
      <stop offset="0" stop-color="#ff928e"/>
      <stop offset="1" stop-color="#fe7062"/>
    </linearGradient>
    <linearGradient id="linear-gradient-4" x1="515.46" y1="275.96" x2="575.72" y2="955.56" xlink:href="#linear-gradient-3"/>
    <linearGradient id="linear-gradient-5" x1="392.22" y1="286.89" x2="452.48" y2="966.49" xlink:href="#linear-gradient-3"/>
    <linearGradient id="linear-gradient-6" x1="450.63" y1="1237.71" x2="463.96" y2="919.88" gradientTransform="translate(835.29 -35.92) rotate(45)" xlink:href="#linear-gradient-3"/>
    <linearGradient id="linear-gradient-7" x1="450.49" y1="1237.71" x2="463.82" y2="919.88" xlink:href="#linear-gradient-3"/>
    <linearGradient id="linear-gradient-8" x1="422.29" y1="853.17" x2="530.73" y2="1242" xlink:href="#linear-gradient-3"/>
    <linearGradient id="linear-gradient-9" x1="545.73" y1="898.88" x2="908.01" y2="507.69" gradientUnits="userSpaceOnUse">
      <stop offset="0" stop-color="#febbba"/>
      <stop offset="1" stop-color="#ff928e"/>
    </linearGradient>
    <linearGradient id="linear-gradient-10" x1="668.57" y1="2272.05" x2="858.6" y2="1731.98" xlink:href="#linear-gradient-3"/>
    <linearGradient id="linear-gradient-11" x1="808.85" y1="1774.33" x2="938.87" y2="884.22" xlink:href="#linear-gradient-3"/>
  </defs>
  <g>
    <path d="M31.01,128.78C21.03,531.33-11.34,1919.89,4.11,2411.95c1.64,52.13,43.43,93.97,95.55,95.68,257.82,8.44,999.51,29.82,1421.22,12.13,87.84-3.69,157.69-74.83,159.51-162.73,8.76-422.53,28.1-1610.95-17.86-2155.37-5.51-65.23-56.7-117.17-121.84-123.69C1259.92,49.89,514.17-18.77,149.83,4.87,84.12,9.13,32.64,62.95,31.01,128.78Z" style="fill: url(#linear-gradient);"/>
    <path d="M135.77,253.86c-14.08,329.69-58.5,1426.48-44.4,1832.06,2.06,59.28,48.78,107.21,108,110.68,243.8,14.27,869.14,45.73,1226.74,17.09,64.39-5.16,114.92-57.23,118.4-121.74,18.12-336.35,70.15-1357.62,56.64-1758.65-2.16-63.98-51.71-116.22-115.47-121.95-263.76-23.68-941.17-80.03-1245.05-63.45-57.04,3.11-102.41,48.88-104.85,105.95Z" style="fill: url(#linear-gradient-2);"/>
    <path d="M668.19,75.21h0c0,12.35,9.63,22.54,21.96,23.19,60.9,3.19,232.44,12.21,309.11,16.66,15.12.88,26.98-12.71,24.11-27.58l-.49-2.54c-1.96-10.14-10.37-17.78-20.66-18.72-51.82-4.75-208.19-17.92-311.8-14.22-12.45.44-22.23,10.76-22.23,23.21Z" style="fill: #fff; opacity: .5;"/>
  </g>
  <path d="M1378.02,1324.89H282.07c-39.42,0-71.37-36.31-71.37-81.1V341.35c0-59.99,43.67-108.09,96.44-106.21l1091.82,40.95c92.6,6.67,91.35,106.06,91.35,176.88v744.32c0,70.47-50.27,127.6-112.29,127.6Z" style="fill: #91b3fa;"/>
  <g style="opacity: .86;">
    <rect x="685.27" y="532.79" width="731.05" height="69.93" rx="9.83" ry="9.83" style="fill: #fff;"/>
    <rect x="685.27" y="664.01" width="731.05" height="69.93" rx="9.83" ry="9.83" style="fill: #fff;"/>
  </g>
  <g style="opacity: .86;">
    <rect x="682.1" y="959.9" width="731.05" height="69.93" rx="9.83" ry="9.83" style="fill: #fff;"/>
    <rect x="682.1" y="1091.12" width="731.05" height="69.93" rx="9.83" ry="9.83" style="fill: #fff;"/>
  </g>
  <rect x="620" y="330.35" width="515.29" height="69.93" rx="9.83" ry="9.83" style="fill: #fff; opacity: .86;"/>
  <g>
    <rect x="283.75" y="446.72" width="374.95" height="374.95" rx="28.51" ry="28.51" style="fill: #fff; opacity: .7;"/>
    <g>
      <path d="M377.76,578.71c14.18,102.85,66.68,151.04,137.77,172.76l41.04-32.98c-74.75-30.24-127.22-83.99-149.49-169.62l-29.31,29.84Z" style="fill: url(#linear-gradient-3);"/>
      <path d="M513.04,750.69c43.27,7.11,48.42,7.52,83.82-15.96,3.97-2.63,4.35-8.36.73-11.45l-62.53-53.33c-2.44-2.08-6.2-1.24-7.53,1.68l-10.31,22.77-4.18,56.28Z" style="fill: url(#linear-gradient-4);"/>
      <path d="M376.29,581.23c-4.28-39.54-3.55-45.51,20.9-78.41,2.84-3.82,8.58-3.9,11.47-.12l49.91,65.29c1.95,2.55.91,6.26-2.08,7.43l-23.29,9.08-51.99,1.08c-2.51.05-4.65-1.86-4.92-4.35Z" style="fill: url(#linear-gradient-5);"/>
    </g>
  </g>
  <g>
    <rect x="265.35" y="850.82" width="388.44" height="388.44" rx="28.51" ry="28.51" style="fill: #fff; opacity: .7;"/>
    <g>
      <g>
        <g>
          <circle cx="461.01" cy="990.32" r="103.31" transform="translate(-565.24 616.04) rotate(-45)" style="fill: url(#linear-gradient-6);"/>
          <path d="M564.13,984.78h-206.43s-8.22,57.34,83.98,214.4c4.02,6.85,11.37,10.95,19.32,10.95,7.95,0,15.31-4.02,19.33-10.88,92.19-157.07,83.8-214.47,83.8-214.47Z" style="fill: url(#linear-gradient-7);"/>
        </g>
        <path d="M460.96,1213.49v.58h.03c-8.99,0-17.39-4.95-21.9-12.64-53.89-91.81-73.64-149.85-80.72-182.34-2.02-7.47-3.18-14.8-3.54-22.31-.62-7.68-.15-10.92-.09-11.26l.27-1.65c4.16-55.49,50.35-98.68,106-98.68s102.98,43.8,106.13,99.74c.08.73.23,2.59.17,5.69v.38c0,10.15-1.43,20.2-4.26,29.87-7.32,32.45-27.19,89.93-80.16,180.19-4.55,7.75-12.63,12.43-21.93,12.43ZM360.52,989.43c-.02,1.55.02,3.76.29,7.09h0c.34,7.1,1.44,13.95,3.36,21.04l.04.12c6.97,32.04,26.51,89.36,80.05,180.55,3.45,5.87,9.84,9.51,16.71,9.52v2.99s-.01-3-.01-3c6.2,0,13.28-3.68,16.76-9.6,52.64-89.68,72.29-146.67,79.5-178.69l.05-.19c2.68-9.16,3.45-18.67,3.45-28.28l-.6-.42v-.03c0-2.99.51-4.61.46-5.03l.29-.17c-2.93-52.8-46.77-94.16-100-94.16s-97.03,41.94-100.06,95.2l-.09,3.05h-.19Z" style="fill: url(#linear-gradient-8);"/>
        <circle cx="461.34" cy="989.99" r="59.65" transform="translate(-152.62 86.68) rotate(-9.22)" style="fill: #fff; opacity: .8;"/>
        <path d="M461.34,1052.97c-34.73,0-62.99-28.26-62.99-62.99s28.26-62.99,62.99-62.99,62.99,28.26,62.99,62.99-28.26,62.99-62.99,62.99ZM461.34,933.67c-31.05,0-56.32,25.27-56.32,56.32s25.27,56.32,56.32,56.32,56.32-25.27,56.32-56.32-25.27-56.32-56.32-56.32Z" style="fill: url(#linear-gradient-9);"/>
      </g>
      <path d="M404.76,927.88c-.28,0-.56-.12-.76-.35-.36-.42-.31-1.05.11-1.41,16.76-14.39,38.17-22.32,60.29-22.32.55,0,1,.45,1,1s-.45,1-1,1c-21.64,0-42.59,7.75-58.98,21.84-.19.16-.42.24-.65.24Z" style="fill: #fff; opacity: .8;"/>
      <path d="M372.81,997.38c-.55,0-1-.45-1-1,0-17.27,4.79-34.13,13.85-48.73.29-.47.91-.61,1.38-.32.47.29.61.91.32,1.38-8.86,14.29-13.55,30.78-13.55,47.68,0,.55-.45,1-1,1Z" style="fill: #fff; opacity: .8;"/>
    </g>
  </g>
  <path d="M1314.89,2153.16l-1027.82-32.14c-42.56-1.33-76.36-35.84-76.36-77.96v-546.73c0-49.4,40.49-89.45,90.43-89.45h1097.72c39.06,0,70.32,32.09,68.86,70.7l-20.89,553.77c-2.62,69.58-61.57,124-131.93,121.8Z" style="fill: #91b3fa;"/>
  <g>
    <g>
      <path d="M1195.24,2046.2H483.51c-28.74,0-52.03-21.31-52.03-47.6v-423.98c0-25.26,21.57-46.12,49.13-47.52l739.2-37.69c30.95-1.58,56.53,21.8,54.85,50.11l-27.46,461.68c-1.5,25.25-24.32,45.01-51.95,45.01Z" style="fill: url(#linear-gradient-10);"/>
      <path d="M855.99,1790.37l389.06-296.42c-7.59-3.31-16.18-5-25.24-4.54l-739.2,37.69c-12.71.65-24.14,5.44-32.77,12.88l291.18,247.74c31.61,26.89,83.61,28.07,116.98,2.65Z" style="fill: url(#linear-gradient-11);"/>
    </g>
    <path d="M801.91,1775.68c-19.34,0-38.6-6.33-54.07-18.83l-109.71-88.61c-3.22-2.6-3.53-7.09-.68-10.04,2.84-2.95,7.76-3.23,10.98-.63l109.71,88.61c23.31,18.82,57.21,20.37,82.46,3.77l56.85-37.38c3.5-2.29,8.35-1.56,10.85,1.63,2.51,3.19,1.71,7.63-1.78,9.93l-56.85,37.38c-14.42,9.48-31.12,14.16-47.76,14.16Z" style="fill: #fff;"/>
    <path d="M602.46,1637.06c-1.83,0-3.66-.59-5.14-1.78l-14.77-11.93c-3.22-2.6-3.53-7.09-.68-10.04,2.84-2.95,7.76-3.22,10.98-.63l14.77,11.93c3.22,2.6,3.53,7.09.68,10.04-1.54,1.59-3.68,2.41-5.83,2.41Z" style="fill: #fff;"/>
  </g>
</svg>