<?xml version="1.0" encoding="UTF-8"?>
<svg id="Layer_1" data-name="Layer 1" xmlns="http://www.w3.org/2000/svg" xmlns:xlink="http://www.w3.org/1999/xlink" viewBox="0 0 1080 1080">
  <defs>
    <radialGradient id="radial-gradient" cx="775.19" cy="662.1" fx="775.19" fy="662.1" r="265.37" gradientUnits="userSpaceOnUse">
      <stop offset="0" stop-color="#a4cabd"/>
      <stop offset=".11" stop-color="#98c3b5"/>
      <stop offset=".33" stop-color="#8abaaa"/>
      <stop offset=".5" stop-color="#85b8a7"/>
      <stop offset=".51" stop-color="#83b6a5"/>
      <stop offset=".65" stop-color="#72a898"/>
      <stop offset=".8" stop-color="#69a091"/>
      <stop offset="1" stop-color="#669e8f"/>
    </radialGradient>
    <radialGradient id="radial-gradient-2" cx="482.58" cy="662.22" fx="482.58" fy="662.22" r="346.32" xlink:href="#radial-gradient"/>
    <linearGradient id="linear-gradient" x1="227.11" y1="547.23" x2="533.05" y2="547.23" gradientUnits="userSpaceOnUse">
      <stop offset="0" stop-color="#a4cabd"/>
      <stop offset=".11" stop-color="#98c3b5"/>
      <stop offset=".33" stop-color="#8abaaa"/>
      <stop offset=".5" stop-color="#85b8a7"/>
      <stop offset=".51" stop-color="#83b6a5"/>
      <stop offset=".65" stop-color="#72a898"/>
      <stop offset=".8" stop-color="#69a091"/>
      <stop offset="1" stop-color="#669e8f"/>
    </linearGradient>
    <radialGradient id="radial-gradient-3" cx="544.7" cy="401.96" fx="544.7" fy="401.96" r="248.24" xlink:href="#radial-gradient"/>
  </defs>
  <path d="M564.08,967.89c0,.81.68,1.46,1.49,1.43,236.56-10.26,425.19-205.29,425.19-444.37,0-60.12-11.93-117.46-33.55-169.77-.14-.35-.64-.37-.81-.03-21.03,40.3-42.66,73.86-65.07,98.42-.18.2-.25.47-.2.73,4.65,22.82,7.09,46.45,7.09,70.65,0,163.31-112.8,300.71-263.59,340.61-1.22.32-2.48-.39-2.82-1.61-11.26-40.17-32.08-145.36-55.08-193.25-.26-.55-1.06-.51-1.29.05-18.14,44.86-17.51,88.4-13.5,167.73.25,4.91.65,11.98,1.92,37.98l.23,91.44Z" style="fill: url(#radial-gradient);"/>
  <path d="M461.01,865.84c-.23,1.6-1.81,2.66-3.37,2.24-150.42-40.18-263.93-180.09-263.93-343.13,0-24.54,2.51-48.5,7.29-71.63.07-.36-.03-.73-.28-.99-26.83-28.55-48.07-61.28-65.21-97.08-.17-.36-.69-.35-.84.02-21.59,52.29-33.51,109.59-33.51,169.67,0,240.31,190.57,436.11,428.82,444.52.81.03,1.48-.62,1.48-1.43v-146.44c3.85-108.95,21.98-187.74,60.06-224.43,31.99-30.83,70.41-32.36,129.86-34.09,13.16-.38,26.3-1.73,39.22-4.28,65.39-12.91,80.11-44.84,103.39-78.5.04-.05-.02-.12-.08-.09-34.28,17.69-46.23,25.39-91.62,35.2-5.72,1.24-7.38,2.33-38.66,2.86l-60.92.54c-17.35.15-34.58,3.35-50.64,9.91-14.45,5.91-29.87,15.03-44.83,29.14-29.8,29.16-58.49,85.37-77.03,149.94-10.75,31.42-30.13,95.27-39.22,158.04Z" style="fill: url(#radial-gradient-2);"/>
  <path d="M937.89,315.97c-2.95,6.52-5.92,12.85-8.93,18.99-14.92,30.5-30.55,56.33-46.85,77.81-.63.84-1.93.61-2.26-.38-46.96-139.35-178.71-239.7-333.89-239.7s-286.18,99.78-333.49,238.51c-.34,1.02-1.69,1.25-2.36.41-20.82-26.36-36.69-52.07-47.2-77.07-3-7.12-5.56-14.19-7.67-21.19-.15-.47-.09-.99.15-1.43,75.48-138.11,222.09-231.78,390.57-231.78s316.78,94.76,391.87,234.18c.27.51.29,1.13.06,1.65Z" style="fill: #afddcd;"/>
  <path d="M512.86,614.21c6.65-10.6,13.31-21.21,19.96-31.81.32-.51.3-1.17-.06-1.66-10.54-14.2-29.45-36.94-59-51.92-5.57-2.82-14.32-4.45-26.42-6.55-43.11-7.5-69.82-1.18-108.31-4.12-22.59-1.73-73.98-13.49-111.45-38.06-.28-.18-.6.14-.43.42,26.1,43.68,53.14,57.76,79.39,69.56,31.55,14.18,60.85,12.42,104.88,14.43,48.03,2.2,81.17,26.18,100.72,49.77.19.23.55.2.7-.05Z" style="fill: url(#linear-gradient);"/>
  <path d="M544.77,564.37c-.11.2-.39.18-.47-.03-5.07-13.27-15.65-34.89-37.42-51.46-23.6-17.96-36.16-20.94-70.17-23.8-41.31-3.46-64.15-1.43-90.87-3.68-27.09-2.27-66.63-11.45-111.26-43.15-.95-.68-1.32-1.94-.85-3.01,3.58-8.11,8.21-16.24,11.89-24.35.68-1.49,2.59-1.91,3.84-.86,12.54,10.59,33.85,25.77,63.84,35.45,28.92,9.33,77.58,11,78.19,8.03.74-3.59-20.23-16.42-36.03-49.08-16.11-33.29-11.72-67.78-11.31-83.21.37-13.76,2.03-25.31,3.64-33.78.09-.5.56-.83,1.06-.77,7.74.92,15.48,1.84,23.22,2.75.5.06.86.48.85.98-.18,8.62-9.13,55.44,4.2,92.53,17.26,48.02,75.19,80.83,85.8,71.43,6.26-5.55,6.74-54.28-24.49-91.93-18.05-21.76-36.18-38.17-49.98-44.66-.47-.22-.74-.69-.7-1.2.52-6.32,1.17-13.16,1.69-19.5.05-.55.58-.91,1.11-.75,14.04,4.12,28.97,8.31,46.76,25.09,17.13,16.14,34.18,35.77,34.9,34.47,2.51-4.52,10.43-45.88,34.66-78.19,13.67-18.24,27.14-34,38.03-42.1.34-.25.81-.22,1.11.08,6.72,6.64,14.42,15.25,21.15,21.91.34.34.33.89-.02,1.22-22.27,21.13-34.22,42.68-41.3,56.66-4.64,9.16-40.09,76.57-13.47,144.39,3.92,9.99,23.93,39.36,32.1,38.83,10.43,1.06,32.24-38.32,35.95-49.82,13.22-40.93,6.22-77.04,1.69-93.83-5.73-21.26-15.4-39.36-22.09-49.92-.25-.39-.22-.89.07-1.25,6.25-7.84,13.28-14.04,19.55-21.82.42-.52,1.18-.57,1.65-.1,9.69,9.82,18.17,22.69,25.81,42.55,5.13,13.34,9.56,26.59,12.2,27.16s16.77-19.17,39.73-35.93c13.66-9.97,28.75-15.67,39.5-18.14.74-.17,1.49.3,1.65,1.04,1.56,6.95,2.47,14.83,2.94,21.59.07,1.08-.62,2.38-1.56,2.9-7.2,3.98-18.18,10.1-28.74,18.97-10.95,9.2-37.26,30.65-47.44,72.35-3.48,14.26-1.59,35.22-.58,37.38,10.83,4.81,46.54-5.97,71.48-39.57,22.62-26.57,21.7-51.11,23.19-70.32,1.61-20.7-.66-38.05-3.07-50.02-.17-.82.42-1.61,1.25-1.68,7.44-.61,15.13-.28,22.57-.93.67-.06,1.29.36,1.45,1.01,2.52,9.85,4.15,22.83,4.68,40.16.51,16.38,2.37,44.24-12.52,74.02-11.23,22.46-24.31,37.75-36.32,46.94-.6.46-.33,1.41.42,1.51,8.36,1.1,15.24,1.33,25.33,1,55.31-1.82,98.94-30.17,119.75-47.15.28-.23.71-.13.86.2,4.67,9.95,7.21,20.13,11.92,30.08.11.23.05.49-.15.64-5.39,3.96-13.23,11.02-23.07,17.68-.91.61-1.84,1.18-2.79,1.73-8.8,5.11-25.52,17.64-76.67,22.76-37.91,3.8-54.86-2.58-97.05,2.38-29.61,3.48-52.35,11.19-68.05,21.82-19.48,13.19-26.31,29.2-33.39,39.89-4.32,6.51-7.6,12.22-9.88,16.41Z" style="fill: url(#radial-gradient-3);"/>
  <path d="M545.67,473.4c-.22.31-.68.33-.93.03-.12-.13-.24-.27-.36-.42-1.6-1.9-3.82-4.94-6.27-8.93-2.97-4.84-6.3-11.08-9.32-18.41-3.11-7.55-5.9-16.25-7.65-25.77-.56-3.05-1.01-6.18-1.33-9.39-.49-4.93-.67-10.02-.46-15.24.59-14.41,3.99-27.24,8.25-37.81,2.76-6.87,5.87-12.79,8.81-17.57,2-3.25,3.91-5.98,5.58-8.12.81-1.05,1.56-1.97,2.24-2.74.08-.08.17-.14.27-.17.23-.07.49,0,.65.21.3.4.61.83.93,1.28,7.65,10.74,21.27,35.19,22.56,65.71,1.54,36.28-15.73,67.25-22.97,77.34Z" style="fill: #99c2b6;"/>
  <path d="M545.67,473.4c-.22.31-.68.33-.93.03-.12-.13-.24-.27-.36-.42-1.01-2.19-1.99-4.47-2.96-6.82-4.55-11.04-8.63-23.75-11.19-37.67-.82-4.46-1.47-9.04-1.94-13.73-.72-7.21-.98-14.65-.67-22.28.86-21.06,5.83-39.82,12.06-55.27.75-1.87,1.52-3.7,2.31-5.47.81-1.05,1.56-1.97,2.24-2.74.08-.08.17-.14.27-.17.23-.07.49,0,.65.21.3.4.61.83.93,1.28,7.65,10.74,21.27,35.19,22.56,65.71,1.54,36.28-15.73,67.25-22.97,77.34Z" style="fill: #afddce;"/>
  <path d="M693.4,399.04c-10.51,18-27.03,29.45-38.94,35.62-4.47,2.31-8.28,3.89-10.89,4.78-.3.1-.64-.1-.7-.41-1.61-8.44-2.61-38.84,15.09-63.68,8.2-11.5,18.51-19.35,27.64-24.46,7.83-4.38,14.79-6.75,18.82-7.7.3-.07.62.15.65.46,1.11,10.1.99,33.71-11.67,55.39Z" style="fill: #99c2b6;"/>
  <path d="M693.4,399.04c-10.51,18-27.03,29.45-38.94,35.62-2.11-12.85-2.78-35.98,8.53-57.2,6.21-11.66,14.67-20.39,22.61-26.57,7.83-4.38,14.79-6.75,18.82-7.7.3-.07.62.15.65.46,1.11,10.1.99,33.71-11.67,55.39Z" style="fill: #afddcd;"/>
  <path d="M449.76,438.6c-.03.32-.36.54-.67.47-2.7-.63-7.42-2.24-13.13-5-12.23-5.92-28.93-17.12-39.65-35.33-13.51-22.95-12.31-47.44-10.6-56.37.06-.31.39-.5.69-.41,2.18.7,4.95,1.73,8.11,3.15,11.06,4.92,26.85,14.48,38.41,30.59,16.95,23.62,17.76,52.66,16.84,62.9Z" style="fill: #99c2b6;"/>
  <path d="M449.76,438.6c-.03.32-.36.54-.67.47-2.7-.63-7.42-2.24-13.13-5-11.4-7.14-25.74-19.25-34.35-37.05-9.8-20.26-9.03-40.76-7.1-51.91,11.06,4.92,26.85,14.48,38.41,30.59,16.95,23.62,17.76,52.66,16.84,62.9Z" style="fill: #afddcd;"/>
</svg>