<?xml version="1.0" encoding="UTF-8"?>
<svg id="_1" data-name="1" xmlns="http://www.w3.org/2000/svg" xmlns:xlink="http://www.w3.org/1999/xlink" viewBox="0 0 617.44 423.87">
  <defs>
    <clipPath id="clippath">
      <rect width="617.44" height="423.87" style="fill: none;"/>
    </clipPath>
  </defs>
  <g style="clip-path: url(#clippath);">
    <g>
      <g>
        <ellipse cx="347.94" cy="324.58" rx="152.72" ry="46.25" style="fill: #edbca8;"/>
        <ellipse cx="347.94" cy="324.58" rx="126.67" ry="33.87" style="fill: #edcbbe;"/>
        <path d="M347.94,353.14c-30.15,0-58.54-2.59-79.94-7.29-23.82-5.23-35.9-12.39-35.9-21.27s12.08-16.04,35.9-21.27c21.4-4.7,49.79-7.29,79.94-7.29s58.54,2.59,79.94,7.29c23.82,5.23,35.9,12.39,35.9,21.27s-12.08,16.04-35.9,21.27c-21.4,4.7-49.79,7.29-79.94,7.29ZM347.94,304.02c-29.59,0-57.37,2.52-78.22,7.1-23.42,5.14-29.61,11.05-29.61,13.46s6.19,8.32,29.61,13.46c20.85,4.58,48.63,7.1,78.22,7.1s57.37-2.52,78.22-7.1c23.42-5.14,29.61-11.05,29.61-13.46s-6.19-8.32-29.61-13.46c-20.85-4.58-48.63-7.1-78.22-7.1Z" style="fill: #edd6ce;"/>
        <path d="M347.94,365.31c-38.34,0-74.4-4.15-101.53-11.67-27.52-7.63-42.68-17.95-42.68-29.06s15.16-21.42,42.68-29.05c27.13-7.53,63.19-11.67,101.53-11.67s74.4,4.15,101.53,11.67c27.52,7.63,42.68,17.95,42.68,29.05s-15.16,21.42-42.68,29.06c-27.13,7.53-63.19,11.67-101.53,11.67ZM347.94,285.85c-38.17,0-74.04,4.12-101,11.6-26.19,7.27-41.21,17.15-41.21,27.13s15.02,19.86,41.21,27.13c26.96,7.48,62.83,11.6,101,11.6s74.03-4.12,101-11.6c26.19-7.27,41.21-17.15,41.21-27.13s-15.02-19.86-41.21-27.13c-26.96-7.48-62.83-11.6-101-11.6Z" style="fill: #edd6ce;"/>
        <path d="M347.94,361.76c-77.75,0-138.66-16.33-138.66-37.18s60.91-37.18,138.66-37.18,138.66,16.33,138.66,37.18-60.91,37.18-138.66,37.18ZM347.94,289.4c-36.69,0-71.16,3.75-97.08,10.56-25.15,6.61-39.57,15.58-39.57,24.62s14.42,18.01,39.57,24.62c25.92,6.81,60.4,10.57,97.08,10.57s71.16-3.75,97.08-10.57c25.15-6.61,39.57-15.58,39.57-24.62s-14.42-18.01-39.57-24.62c-25.92-6.81-60.4-10.56-97.08-10.56Z" style="fill: #edd6ce;"/>
        <ellipse cx="347.94" cy="324.58" rx="74.27" ry="11.03" style="fill: #edd2c7;"/>
      </g>
      <g>
        <g>
          <rect x="228.59" y="156" width="260.31" height="73.67" rx="8.26" ry="8.26" style="fill: #ed9572;"/>
          <path d="M487.75,270.53H229.73c-6.5,0-12.11-5.3-13.44-12.7l-8.94-49.68c-1.79-9.92,4.73-19.24,13.44-19.24h275.91c8.72,0,15.23,9.32,13.44,19.24l-8.94,49.68c-1.33,7.4-6.94,12.7-13.44,12.7Z" style="fill: #ed9572;"/>
          <rect x="253.71" y="163.11" width="210.06" height="54.66" rx="6.49" ry="6.49" style="fill: #f7b094;"/>
          <rect x="231.4" y="214.7" width="254.69" height="20.81" rx="6.49" ry="6.49" style="fill: #f7bda5;"/>
          <polygon points="259.78 270.53 252.35 284.46 241.25 284.46 244.55 270.53 259.78 270.53" style="fill: #5e4a27;"/>
          <polygon points="476.7 284.46 465.6 284.46 458.17 270.53 473.4 270.53 476.7 284.46" style="fill: #5e4a27;"/>
        </g>
        <path d="M379.65,166.18c-2.14-.44-4.05-1.12-6.18-1.48,1.07-.31,2.19-.13,3.24.12,1.04.32,2.06.7,2.94,1.37Z" style="fill: #f2b2a5;"/>
        <path d="M371.82,166.94c1.05-.3,2.12-.3,3.19-.25,1.05.13,2.16.3,3.07.93-2.1-.31-4.13-.31-6.25-.68Z" style="fill: #f2b2a5;"/>
        <path d="M372.64,169.16c.86-.29,1.73-.32,2.6-.35.87.05,1.76.09,2.58.48-1.75.18-3.43.23-5.18-.13Z" style="fill: #f2b2a5;"/>
      </g>
      <g>
        <g>
          <path d="M331.97,206.64c-2.69,1.39-11.99,10.66-23.67,8.64-22.42-3.89-28.36-5.01-28.13-6.7,2.16-15.53-.7-48.12-.7-49.95,0-11.37,2.37-14.77,4.93-16.66,2.4-1.77,11.94-4.72,14.59-5.4.91,1.99-1,7.98,6.45,6.86,7.01-1.06,10.11-7.24,10.28-10.23l9.33,3.4c3.07,1.44,9.39,2.73,11.89,8.59,2.5,5.86,1.17,13.79,0,16.69-11.3,28-1.79,43.12-4.96,44.76Z" style="fill: #6867f6;"/>
          <path d="M317.97,125.45c-.44.81-3.83,2.64-3.09,3.15l1.12,5.31c.35,2.8-2.11,7.83-8.47,10.02-5.74,1.98-8.42-2.07-9.14-3.55-.14-.27-.2-.43-.23-.5-.21-.62-.24-1.28-.19-1.92.07-1.02.3-1.98.12-2.48,0-.05-.03-.12-.06-.16-.06-.11-.13-.18-.23-.24-.37-.21-2,.05-3.58-1.01-1.09-.79-1-5.56-1.12-6.94-.12-1.36-3.44-.71-3.42-1.96.02-1.27.89-2.26,1.97-5.3,1.12-3-.48-8.21,0-10.41,1.84-8.35,10.13-9.22,14.06-8.38,5.17,1.15,11.31,3.88,12.96,12.31,1.16,5.92.34,10.08-.69,12.06Z" style="fill: #f2a696;"/>
          <path d="M296.86,120.57c-.28.64-1.03.93-1.67.64-.64-.28-.93-1.03-.64-1.67.28-.64,1.03-.93,1.67-.64.64.28.93,1.03.64,1.67Z" style="fill: #1d1d1b;"/>
          <path d="M293.85,117.26c.02-.55.52-.94.95-1.17.45-.26.94-.34,1.42-.41.96-.07,1.91.07,2.78.58-.94.36-1.82.43-2.67.53l-1.25.11c-.41.06-.82.09-1.22.36Z" style="fill: #1d1d1b;"/>
          <path d="M291.89,104.47c-.99,1.23-2.26,6.12,1.05,5.77,3.31-.35,7.83-2.81,9.84-1.5,1.17.77.62,4.21,2.32,5.37,4.12,2.81,2.89,5.11,3.68,5.81,1.44,1.29,1.17-3.98,4.74-3.8,2.46.12,3.81,1.94,1.13,5.72-.53.74-.66,5.69.48,8.88,3.31-.48,6.48-9.56,7.04-13.3,1.08-7.2-.07-13.67-5.32-17.12-8.95-5.87-14.52-2.48-18.57-1.15-4.06,1.34-4.7,3.23-6.38,5.31Z" style="fill: #362316;"/>
          <path d="M307.85,133.64c0,.09.09,2.56-9.88,4.33.07-1.02.3-1.98.12-2.48,0-.05-.03-.12-.06-.16,2.97-.24,7.71-.54,9.81-1.69Z" style="fill: #f29480;"/>
          <path d="M294.04,130.37c.28-.9.94-1.54,1.7-1.99.77-.41,1.75-.64,2.62-.27-.39.27-.74.45-1.08.66-.33.22-.67.38-1,.58-.69.36-1.36.73-2.24,1.01Z" style="fill: #a7787c;"/>
          <path d="M314.44,118.81c-.38-.15-.8-.27-1.07-.17-.27.06-.39.38-.51.73l-.42-.26c.29-.2.65-.31,1-.18.35.12.51.43.59.7-.45-.44-.93-.4-1.26-.12l-.6.5.18-.77c.05-.22.11-.45.27-.65.13-.21.4-.38.66-.42.55-.03.91.3,1.16.64Z" style="fill: #a7787c;"/>
          <path d="M315.85,119.76c-.14.89-.67,1.67-1.35,2.27-.37.27-.79.5-1.23.6-.45.12-.92.06-1.34-.05.44-.09.84-.18,1.21-.36.36-.17.72-.36,1.02-.63.65-.49,1.15-1.15,1.7-1.84Z" style="fill: #a7787c;"/>
          <g>
            <path d="M294.84,137.29l.04,1.11c0,.05-.03.1-.08.1-.05,0-.1-.03-.1-.08,0,0,0-.02,0-.02l.15-1.11Z" style="fill: #5251f6;"/>
            <path d="M295.17,140.67c.17.74.35,1.47.64,2.15.07.17,0,.38-.18.45-.18.07-.38,0-.45-.18,0,0,0-.02-.01-.03-.24-.76-.41-1.54-.46-2.32,0-.13.09-.25.22-.26.12,0,.23.07.25.19Z" style="fill: #5251f6;"/>
            <path d="M296.92,144.69c.47.54,1.01,1,1.63,1.33.24.13.33.42.2.66-.13.24-.42.33-.66.2,0,0,0,0,0,0-.73-.41-1.37-.98-1.84-1.65-.14-.2-.09-.47.1-.6.18-.13.43-.09.58.07Z" style="fill: #5251f6;"/>
            <path d="M300.57,146.64c.72.09,1.44.07,2.18,0,.3-.03.57.19.6.49.03.3-.19.57-.49.6,0,0-.02,0-.02,0-.78.07-1.61.07-2.42-.06-.28-.04-.48-.31-.43-.59.04-.28.3-.47.58-.43Z" style="fill: #5251f6;"/>
            <path d="M305,146.35l2.2-.47h.05c.28-.07.56.11.62.39.06.28-.12.55-.39.62l-2.3.53c-.29.07-.59-.12-.66-.41-.07-.29.12-.59.41-.66,0,0,0,0,0,0h.05Z" style="fill: #5251f6;"/>
            <path d="M309.33,145.18c.69-.28,1.37-.59,2.02-.96.23-.13.52-.05.65.18.13.23.05.52-.17.65-.68.4-1.39.75-2.12,1.06-.26.11-.55-.01-.66-.27-.11-.26.01-.55.27-.66,0,0,0,0,0,0Z" style="fill: #5251f6;"/>
            <path d="M313.23,143c.6-.45,1.16-.95,1.68-1.49.14-.14.37-.15.51-.01.14.13.15.35.02.5-.51.6-1.08,1.16-1.68,1.67-.18.15-.45.13-.61-.05-.15-.18-.13-.45.05-.61,0,0,.01-.01.02-.02Z" style="fill: #5251f6;"/>
            <path d="M316.33,139.77c.42-.62.82-1.27,1.16-1.95.05-.09.16-.13.25-.09.09.04.13.15.09.24-.28.73-.6,1.44-1.01,2.12-.08.14-.26.18-.4.1-.14-.08-.18-.26-.1-.4,0,0,0,0,0-.01Z" style="fill: #5251f6;"/>
            <path d="M318.33,135.7c.11-.35.21-.71.27-1.08-.02.37-.07.74-.13,1.11,0,.04-.04.07-.08.06-.04,0-.07-.04-.06-.08,0,0,0,0,0,0Z" style="fill: #5251f6;"/>
          </g>
          <path d="M281.67,157.84s-5.61,16.98-6.1,20.87c-.25,2,.32,5.21.94,7.85.62,2.66,2.91,4.59,5.64,4.77,12.29.77,45.94,2.87,47.42,2.77,1.8-.12,1.18-2.49,1.18-2.49,0,0,2.05-.68,1.99-2.12-.06-1.43-.56-1.87-.56-1.87,0,0,2.12-.68,2.12-1.62s-1.56-2.12-1.56-2.12c0,0,1.8-.5,1.56-1.12s-1.8-2.12-1.8-2.12l-17.08,3.22-27.36-3.39.07-19.29-6.46-3.35Z" style="fill: #ffcdc2;"/>
          <path d="M309.5,193.01c-11.98-.72-25.72-1.59-30.25-1.87-.94-.06-1.72-.7-1.98-1.6-.72-2.61-2.06-7.96-1.7-10.83.49-3.88,5.2-29.97,5.2-29.97l7.36,12.45-.07,19.29,22.57,2.8s1.97,3.46,1.87,4.72c-.12,1.45-2.99,5.01-2.99,5.01Z" style="fill: #6867f6;"/>
          <path d="M336.93,161.89s-1.16,11.33-7.48,21.8-8.39,13.11-8.39,13.11c0,0-1.03.92-4.83,0-3.79-.92-36.91-8.16-36.91-8.16,0,0-3.75,2.13-5.4,2.26-1.65.13-1.3-2.61-1.3-2.61,0,0-1.87-.3-1.48-1.83l.39-1.52s-1.43-1.13-1.04-2.13c.39-1,.56-1.26.56-1.26,0,0-.04-1.35.74-2.04.78-.7,2.13-1.74,2.13-1.74,0,0-1.13.48-1.35.09-.22-.39.61-2.39,1.61-2.3,1,.09,4.79,1.69,6.47,4.34s34.95,2.57,34.95,2.57l8.11-21.27,13.22.69Z" style="fill: #ffcdc2;"/>
          <path d="M293.13,277.95s-1.08,12.68-4.02,15c-2.94,2.32-7.12,4.33-7.12,9.28s14.85,2.63,17.32,1.86c2.47-.77,2.29-4.12,4.26-5.98,1.97-1.86,3.81-2.62,4.44-3.7.98-1.67-.29-9.63-.51-11.38s-2.62-5.08-2.62-5.08h-11.76Z" style="fill: #081224;"/>
          <path d="M252.63,274.41s-3.19,12.32-6.48,14.12c-3.29,1.79-7.74,3.08-8.57,7.96-.83,4.88,14.2,5.08,16.77,4.74,2.57-.35,2.95-3.68,5.2-5.18s4.2-1.95,5-2.9c1.24-1.48,1.33-9.55,1.41-11.31.08-1.76-1.73-5.45-1.73-5.45l-11.59-1.97Z" style="fill: #081224;"/>
          <path d="M294.54,231.84c-9.98,4.14-20.81,1.61-20.81,1.61.05,7.56-2.03,20.71-3.82,30.8-.02.05-.02.07-.02.1-1.41,7.75-2.65,13.65-2.65,13.65,0,0-2.68,2.23-7.43,2.23-5.23,0-8.05-2.8-8.05-2.8,0,0-3.49-68.52,6.57-72.26,10.03-3.77,38.55,0,38.55,0,0,0,1.73,9.84,2.08,17.2.2,4.19-.79,7.95-4.41,9.46Z" style="fill: #122852;"/>
          <path d="M294.54,231.84c-9.98,4.14-20.81,1.61-20.81,1.61.05,7.56-2.03,20.71-3.82,30.8.64-10.41,2.88-23.31,1.8-31.35-.12-.93-.43-6.15-1.85-12.37.42.62,5.1,4.97,14.3,5.39,6.74.3,12.21-2.13,14.79-3.54.2,4.19-.79,7.95-4.41,9.46Z" style="fill: #0f2142;"/>
          <path d="M329.94,226.02c-1.78,1.54-4.63,2.73-7.71,3.59h-.02c-4.16,1.19-8.72,1.86-11.55,2.18-1.68.2-2.73.27-2.73.27.54,5.62-1.78,47.05-1.78,47.05,0,0-1.91,2.55-7.18,2.55s-6.49-2.73-6.49-2.73c0,0-2.81-19-4.43-40.95-1.54-20.87-5.13-36.28,17.63-36.18,19.14.08,26.28,4.83,26.28,4.83,0,0,3.97,14.15-2.03,19.37Z" style="fill: #142c59;"/>
          <path d="M322.21,229.61c-4.16,1.19-8.72,1.86-11.55,2.18-1.68.2-2.73.27-2.73.27,0,0-.25-6.07,0-9.91.25-3.84,1.36,8.1,14.27,7.46Z" style="fill: #0f2142;"/>
          <path d="M331.17,180.57c-.43,1.23-.95,2.44-1.53,3.6-.6,1.15-1.27,2.25-1.95,3.36-1.39,2.18-2.85,4.33-4.58,6.28,1-2.43,2.29-4.67,3.64-6.87.7-1.09,1.39-2.17,2.16-3.21.73-1.06,1.42-2.14,2.26-3.16Z" style="fill: #eeaea1;"/>
          <path d="M289.33,190.83c10.08,2.21,24.47,5.38,26.89,5.97,3.79.92,4.83,0,4.83,0,0,0,2.07-2.64,8.39-13.11s7.48-21.8,7.48-21.8l-13.22-.69-8.11,21.27s-14.18.03-24.49-.68c0,0-3.04,1.98-3.05,4.81-.01,3.15,1.28,4.22,1.28,4.22Z" style="fill: #6867f6;"/>
          <path d="M289.33,190.83c2.69.39,5.35.86,8.02,1.37,2.67.47,5.31,1.09,7.96,1.62,2.65.54,5.28,1.21,7.92,1.81,1.31.29,2.64.67,3.92.98,1.25.27,2.71.49,3.77.03l-.02.03c.65-.84,1.3-1.68,1.98-2.51-.53.93-1.1,1.84-1.67,2.75v.02s-.03,0-.03,0c-1.37.83-2.82.55-4.18.4-1.37-.25-2.68-.48-4.01-.77-2.64-.57-5.31-1.08-7.94-1.71-2.63-.64-5.28-1.19-7.89-1.89-2.62-.66-5.24-1.36-7.84-2.15Z" style="fill: #5251f6;"/>
          <path d="M323.71,161.19c-1.15,3.62-2.4,7.21-3.67,10.78-1.25,3.58-2.63,7.12-3.93,10.68l-.13.36h-.38c-4.09-.01-8.18-.1-12.26-.26-4.08-.2-8.17-.45-12.23-.97l24.49.13-.51.35c1.4-3.53,2.73-7.08,4.18-10.59,1.43-3.51,2.89-7.02,4.45-10.49Z" style="fill: #5251f6;"/>
          <path d="M288.13,161.19c.3,3.22.44,6.43.49,9.65.03,3.22,0,6.43-.15,9.65l-.36-.41c1.97.33,3.94.69,5.9,1.15-2.01-.03-4-.17-6-.33l-.35-.03-.02-.38c-.14-3.22-.14-6.43-.08-9.65.07-3.22.24-6.43.57-9.64Z" style="fill: #5251f6;"/>
          <path d="M293.11,192.01c-1.99.36-3.96.39-5.93.34-1.96-.09-3.92-.27-5.86-.78,1.99-.36,3.96-.39,5.93-.34,1.96.1,3.92.27,5.86.78Z" style="fill: #5251f6;"/>
        </g>
        <g>
          <path d="M453.99,270.94s-1.1,2.33-2.7,5.15c-1.59,2.82-2.74,9.68-2.74,9.68l7.07,4.03.78-1.1s4.78,3.87,5.83,5.9c1.05,2.04,4.98,5.97,12.08,6.04,7.1.07,5.83-2.81,5.48-3.58-.35-.77-7.66-6.53-8.92-7.73s-5.69-14.55-5.69-14.55l-11.2-3.85Z" style="fill: #262024;"/>
          <path d="M474.72,227.92s2.98,2.28,7.27,3.24,12.52,1.23,13.75,3.15.79,5.69-4.82,7.18c-5.6,1.49-13.66-1.58-15.15-1.75-1.49-.18-6.74.44-7.62.09-.88-.35-1.69-4.92-1.69-4.92l8.26-6.99Z" style="fill: #262024;"/>
          <path d="M420.68,174.25s3.34,11.95,5.61,14.44c2.27,2.5,9.69,5.84,9.69,5.84l12.89-6.8-17.5-8.37-1.81-26.64-8.88,21.53Z" style="fill: #f04637;"/>
          <path d="M387.99,208.5s-3.7,11.04,4.32,18.06,29.67,5.52,37.86-1.77c8.19-7.29,19.69-18.15,19.69-18.15,0,0,1.35,4.98,2.14,6.5,3.04,5.88,15.73,21.27,15.73,21.27,0,0,4.77.05,7.4-3.59,2.63-3.64-15.27-34.91-17.73-39.75-2.46-4.84-10.43-3.44-15.93,0-5.5,3.44-20.53,9.33-20.53,9.33l-32.96,8.09Z" style="fill: #6867f6;"/>
          <path d="M429.92,156.81c-.05.32-.12.59-.22.84-.5,1.26-1.83,4.39-3.3,8.03-1.61,4.04-3.42,8.7-4.41,12.07-.25.87-.47,1.93-.64,3.1-1.04,7.46-.4,19.57-.4,19.57,0,0-1.41,1.64-5.55,1.73-4.11.1-8.57,5.1-13.01,8.57-4.46,3.47-14.12.54-14.12.54,0,0-2.7-2.06-2.38-13.03.32-10.95,9.22-39.49,9.22-39.49l14.12-17.81s15.09,1.41,18.04,3.91c2.68,2.3,3.34,8.77,2.65,11.97Z" style="fill: #ff6558;"/>
          <path d="M437.67,132.49c0,.51-.06.95-.22,1.28-.97,1.98-6.57,3.27-6.57,3.27,0,0-.03.05-.08.15-.17.31-.58,1.08-1.1,2.13-1.44,2.9-3.7,7.93-3.77,10.97-.1,4.51-2.23,7.36-2.23,7.36,0,0-5.13-8.99-8.72-10.82-3.57-1.86-3.99-4.84-3.99-4.84,0,0,1.81-1.45,1.81-4s-4.86-5.29-7.01-7.44c-2.16-2.16-7.98-10.36,1.01-18.11,9.02-7.78,20.17-3.67,22.23,0,0,0,3.74,6.79,4.78,8.12,1.01,1.37,2.53.87,3.15,1.99.64,1.11-1.89,1.73-1.42,2.6.39.72,2.11,4.84,2.13,7.34Z" style="fill: #f2a696;"/>
          <path d="M437.67,132.49c0,.51-.06.95-.22,1.28-.97,1.98-6.57,3.27-6.57,3.27,0,0-.03.05-.08.15h-1.78s2.98-.92,5.13-2.19c1.4-.83,2.75-1.89,3.52-2.51Z" style="fill: #f29480;"/>
          <path d="M432.65,136.43s-2.26,1.5-2.95,2.89c-.64,0-1.36.02-2.18.02-9.89.07-9.14-5.03-9.14-5.03,0,0,.74,1.81,2.25,2.33,1.49.52,12.02-.21,12.02-.21Z" style="fill: #f29480;"/>
          <path d="M429.02,112.43s-4.3-2.37-6.24-1.5c-1.93.87-4.45,12.38-6.19,13.64-1.74,1.26-5.61-.48-6,2.42-.39,2.9,3.09,5.85,3.09,5.85,0,0,1.16,1.87-.64,6.2-1.7,4.08-5.42,3.7-9.29,9.64-3.87,5.95-2.35,12.03-7.47,13.41s-2.23-7.44-2.35-10.71c-.13-3.27-.38-6.28,3.02-8.29,3.39-2.01-1.35-19.03,4.24-25.94,2.22-2.74,4.47-7.17,9.32-9.13,7.37-2.98,17.64-2.13,18.51,4.41Z" style="fill: #362316;"/>
          <path d="M448.87,150.22c-1.73.52-4.71.92-6.59,1.16-.62-2.45-1.11-3.96-1.11-3.96,0,0-1.19-1.14-3.49-1.73-2.3-.57-5.92-3.67-5.92-3.67,0,0-.84-.77-1.49-.57-.62.2-3.3,1.86-3.3.99s1.83-2.01,1.83-2.01c0,0-2.01-1.76-1.07-2.48.97-.72,2.5.32,2.5.32,0,0,.32-.17,1.41-1.09,2.01-1.66,4.41-2.73,6.42-3.47,2.01-.77,3.37-.4,4.16.59s4.76,10.33,5.55,12.14c.2.42.62,1.98,1.09,3.77Z" style="fill: #f2a696;"/>
          <path d="M432.96,139.19c.64-.55,1.32-1.06,2.17-1.36.22-.06.46-.12.77-.02.16.03.35.26.33.45.01.19-.05.31-.1.43-.24.44-.54.76-.96,1.01-.17.13-.57.21-.78.13-.22-.05-.42-.11-.63-.16-.41-.11-.81-.25-1.2-.41-.79-.28-1.56-.62-2.33-.97.82.19,1.64.37,2.45.59l1.21.31c.2.05.4.1.59.13.2.04.24.02.42-.09.29-.2.6-.48.77-.77.07-.18.09-.19.04-.19-.09-.04-.28-.03-.47,0-.76.18-1.53.56-2.29.92Z" style="fill: #f29480;"/>
          <path d="M430.58,141.42c-.41.04-.71-.11-1.03-.25-.28-.19-.57-.37-.76-.74.41-.04.71.11,1.03.25.28.19.57.37.76.74Z" style="fill: #f29480;"/>
          <path d="M424.31,118.19c.57-.89,1.57-1.32,2.53-1.5.5-.06,1.01-.09,1.52.05.48.12,1.1.37,1.23.93-.46-.2-.87-.12-1.3-.08l-1.28.19-2.71.4Z" style="fill: #1d1d1b;"/>
          <path d="M436.67,128.31c-.85.3-1.51.48-2.17.73l-1.01.37c-.36.12-.7.3-1.14.43.21-.88.94-1.55,1.78-1.85.84-.28,1.82-.25,2.54.32Z" style="fill: #a7787c;"/>
          <path d="M429.56,120.57c-.3.73-.96,1.28-1.75,1.54-.4.1-.84.12-1.23,0-.4-.1-.73-.36-1-.63.75.2,1.43.32,2.08.09.66-.16,1.25-.58,1.9-1Z" style="fill: #1d1d1b;"/>
          <path d="M413.42,130.16c.15-.39.41-.8.95-.92.27-.04.57.06.75.23.21.15.33.36.43.55l.38.69-.71-.33c-.4-.18-.86-.1-1.18.45,0-.28.08-.63.38-.83.3-.22.67-.21,1.01-.09l-.33.37c-.21-.3-.41-.58-.69-.56-.28-.02-.66.2-.99.45Z" style="fill: #a7787c;"/>
          <path d="M412.32,131.45c.72.51,1.38,1.02,2.13,1.32.36.19.75.27,1.15.34.4.07.81.05,1.26.03-.38.22-.82.4-1.28.4-.46.02-.92-.09-1.35-.26-.82-.4-1.54-1.01-1.91-1.83Z" style="fill: #a7787c;"/>
          <path d="M454.94,186.24c-.08.78-.74,3.54-11.52,1.98-10.75-1.56-31.17-16.95-36.49-22.08-1.73-1.68-2.3-3.47-2.08-5.15l.05-.25.17-.72c.97-3,4.41-5.38,7.71-5.38,5.45,0,12.88,10.55,14.2,11.69,1.34,1.16,17.81,10.78,17.81,10.78,0,0-.51-5.27-1.35-13.84-.45-4.66-1.94-9.63-2.68-12.55,1.88-.25,7.42-1.03,9.15-1.55.72,2.75,6.05,26.72,5.04,37.06Z" style="fill: #ff6558;"/>
          <path d="M421.99,177.75c-.25.87-.47,1.93-.64,3.1l-15.88-16.57,16.53,13.48Z" style="fill: #f04637;"/>
          <g>
            <path d="M460.37,196.52s2.18,3.98,2.28,4.46-2.37,4.55-2.28,5.52c.09.96,1.14.7,1.14.7,0,0-.96,2.1,0,2.6.96.5,1.53-.75,1.53-.75,0,0-.39,1.35.43,1.56s1.95-1.56,1.95-1.56c0,0,.71,1.17,1.31.57.6-.6,1.06-4.51.99-4.65-.07-.14-.43-.32-.43-.32,0,0-.21-1.04-.6-1.07,0,0-.32-1.55-1.03-1.45,0,0-1.59-4.73-2.02-5.22-2.79-3.17-4.4-2.38-4.4-2.38l1.13,2Z" style="fill: #ffcdc2;"/>
            <path d="M465.67,202.13c-.51.99-1.19,1.85-1.86,2.71-.72.82-1.42,1.66-2.29,2.36.51-.99,1.19-1.85,1.86-2.71.72-.82,1.42-1.66,2.29-2.36Z" style="fill: #f29480;"/>
            <path d="M466.7,203.57c-.42,1.04-1.01,1.96-1.6,2.89-.64.89-1.26,1.8-2.06,2.58.42-1.04,1.01-1.96,1.6-2.89.64-.89,1.26-1.8,2.06-2.58Z" style="fill: #f29480;"/>
            <path d="M467.3,204.65c-.1.82-.4,1.56-.68,2.31-.34.72-.67,1.45-1.2,2.09.1-.82.4-1.56.68-2.31.34-.72.67-1.45,1.2-2.09Z" style="fill: #f29480;"/>
          </g>
          <path d="M468.77,232.18l-.15,2.18-2.7,40.56c-7.38,2.95-14.12-5-14.12-5l1.11-5.45s-.17-11.74-.74-16.57c-.55-4.81.74-17.05.74-17.05l-20.49-8.08c5.65-5.08,12.14-11.12,15.39-14.17.92.4,1.91.84,3,1.31,4.61,2.01,10.21,4.43,13.11,5.6,5.48,2.23,4.86,16.67,4.86,16.67Z" style="fill: #605ff0;"/>
        </g>
        <g>
          <polygon points="68.46 363.92 62.18 363.92 59.42 339.98 71.23 339.98 68.46 363.92" style="fill: #5e4a27;"/>
          <path d="M151.39,172.12s1.45,2.25-1.85,3.83c-3.3,1.59-10.99,4.82-10.99,4.82l33.71,15.58s-5.03-5.52-3.77-9.66c1.26-4.14-17.1-14.57-17.1-14.57Z" style="fill: #f2a696;"/>
          <polygon points="151.27 395.71 144.99 395.71 142.22 368.88 154.03 368.88 151.27 395.71" style="fill: #5e4a27;"/>
          <polygon points="212.86 375.18 206.59 375.18 203.82 348.34 215.63 348.34 212.86 375.18" style="fill: #5e4a27;"/>
          <path d="M146.87,299.49l50.55-13.1s13.54,4.11,16.8,6.69c3.25,2.58,5.16,6.4,5.16,6.4,0,0,1.74-23.49-8.81-35.44-5.04-5.71-65.28-19.56-65.28-19.56l-4.18,20.99,5.76,34.01Z" style="fill: #bb600f;"/>
          <polygon points="217.55 253.92 174.95 253.92 201.9 223.7 244.49 223.7 217.55 253.92" style="fill: #e0e9f1;"/>
          <polygon points="148.13 262.93 182.46 258.39 169.07 244.49 152.74 243.61 148.13 262.93" style="fill: #a1520d;"/>
          <path d="M151.66,245.84s8.6,7.28,25.91,7.4-16.84-26.14-16.84-26.14l-9.06,18.74Z" style="fill: #f04637;"/>
          <path d="M214.74,233.54s2.08-9.74,4.43-13.54c2.35-3.8,7.52-3.36,8.6-2.27,1.08,1.09-3.47,1.94-4.46,2.43-.99.5-.93,1.65-.6,2.03.33.39,4.89-.44,6.54-1.37,1.65-.93.79-3.05,1.44-3.86s2.63.93,2.9,2.2c.27,1.27-.77,3.97-2.09,5.01,0,0,.6,3.36-1.76,4.78,0,0,1.54,2.14.22,3.63-1.32,1.48-9.9,7.58-9.9,7.58l-5.32-6.64Z" style="fill: #f2a696;"/>
          <path d="M171.19,138.6s11.23,2.1,13.77,12.43c2.55,10.33,1.05,32.54-3.29,35.51-4.34,2.97-19.16-.18-23.81-4.67-4.64-4.49-15.42-21.25-8.83-34.51,6.59-13.26,22.16-8.76,22.16-8.76Z" style="fill: #f2a696;"/>
          <path d="M172.13,136.69c8.36,1.55,14.01,9.44,13.14,17.9-.34,3.25-1.06,7.09-2.6,10.05-3.3,6.36-2.89-1.23-4.05-3.13-1.16-1.9-5.08-1.07-6.24,6.79s-1.32,8.81-9.34,8.41c-3.02-.15-12.49-2.67-13.56-3.83-1.07-1.16-6.69-12.58-3.48-23.11,3.21-10.52,12.13-13.91,17.57-13.65,2.18.11,5.27-.04,8.55.56Z" style="fill: #1d1d1b;"/>
          <circle cx="156.32" cy="146.43" r="11.29" style="fill: #1f140c;"/>
          <circle cx="153.91" cy="144.55" r="11.29" style="fill: #1d1d1b;"/>
          <path d="M220.68,239.92c.76,1.52-17.96,21-30.12,24.04-11.8,2.94-28.77-30.32-29.78-32.31-.02-.02-.02-.07-.05-.1,0,0-.93,3.46-2.67,8.51-2.99,8.81-8.39,22.45-15.43,31.06-11.09,13.54-46.53-28.46-46.53-28.46,0,0,1.71-28.95,24.84-50.14,5.51-5.05,18.41-14.1,22.33-12.9,22.01,6.74,28.38,14.48,34.65,23,7.83,10.65,16.6,37.15,16.6,37.15,0,0,1.1-.39,2.8-.96,5.05-1.72,15.38-5.18,17.44-5.27,0,0,5.18,4.86,5.94,6.38Z" style="fill: #ff6558;"/>
          <path d="M160.73,231.55s-.93,3.46-2.67,8.51c-1.45-4.76-3.09-10.97-4.15-16.88-2.11-12.02-.71-15.92-.71-15.92,0,0,4.61,16.93,7.53,24.29Z" style="fill: #f04637;"/>
          <path d="M197.13,247.79c-.56-3.29-2.62-8.02-2.62-8.02,0,0,1.1-.39,2.8-.96.34,4.27-.17,8.98-.17,8.98Z" style="fill: #f04637;"/>
          <path d="M239.17,215.16l-16.21,7.11s.87.13,3.19-.41c.4-.09,1.59-.43,1.59-.43l12.05-4.96-.61-1.32Z" style="fill: #c03512;"/>
          <rect x="236.6" y="215.85" width="1.51" height="1.74" transform="translate(-67.23 114.09) rotate(-23.78)" style="fill: #a72e10;"/>
          <path d="M220.7,316.57v30.34l-85.56,28.26-84.29-31.96s-2.89-110,0-117.43c.1-.25.2-.49.32-.71,3.19-6.75,12.07-7.24,16.75-6.35,4.86.93,76.22,31.6,76.22,31.6,0,0,.1.39.29,1.13,1.42,5.62,7.92,30.54,11.87,34.74,0,0,.02,0,.05.02.29.32.71.52,1.2.64l.02.02c7.09,1.72,32.67-13.15,47.17-10.43,4.17.78,7.26,4.02,9.54,8.37,6.21,11.82,6.4,31.77,6.4,31.77Z" style="fill: #ed9572;"/>
          <path d="M144.43,251.44c-3.24,3.48-8.05,7.75-12.54,7.87-5.76.2-56.03-22.76-80.73-34.24,3.19-6.75,12.07-7.24,16.75-6.35,4.86.93,76.22,31.6,76.22,31.6,0,0,.1.39.29,1.13Z" style="fill: #f7b094;"/>
          <path d="M214.3,284.81c-12.41,3.43-38.36,12.37-43.18,11.98-8.79-.73-15.33-9.47-16.69-13.67,7.03-4.5,36.93-12.03,51.42-9.31,4.17.78,11.59,6.54,8.45,11Z" style="fill: #f7b094;"/>
          <g>
            <rect x="131.25" y="259.32" width="1.33" height="1.32" transform="translate(-7.88 4.15) rotate(-1.75)" style="fill: #f7b094;"/>
            <path d="M134.4,371.4l-.06-2.64,1.33-.03.06,2.64-1.33.03ZM134.28,366.11l-.07-2.64,1.33-.03.07,2.64-1.33.03ZM134.14,360.83l-.07-2.64,1.33-.03.07,2.64-1.33.03ZM134.01,355.56l-.07-2.64,1.33-.04.07,2.64-1.33.04ZM133.86,350.29l-.07-2.64,1.33-.04.07,2.64-1.33.04ZM133.72,345.02l-.07-2.64,1.33-.04.07,2.64-1.33.04ZM133.57,339.74l-.07-2.64,1.33-.04.07,2.64-1.33.04ZM133.42,334.47l-.08-2.64,1.33-.04.08,2.63-1.33.04ZM133.28,329.2l-.08-2.64,1.33-.04.08,2.63-1.33.04ZM133.12,323.93l-.08-2.64,1.33-.04.08,2.63-1.33.04ZM132.97,318.66l-.07-2.57,1.33-.11.08,2.64-1.33.04ZM132.82,313.38l-.07-2.49,1.33-.18.08,2.63-1.33.04ZM132.67,308.12l-.08-2.63,1.33-.04.08,2.64-1.33.04ZM132.52,302.84l-.08-2.63,1.33-.04.08,2.64-1.33.04ZM132.36,297.58l-.08-2.64,1.33-.04.08,2.64-1.33.04ZM132.21,292.3l-.08-2.64,1.33-.04.08,2.64-1.33.04ZM132.05,287.03l-.08-2.64,1.33-.04.08,2.64-1.33.04ZM131.9,281.76l-.08-2.64,1.33-.04.08,2.64-1.33.04ZM131.74,276.48l-.08-2.64,1.33-.04.08,2.64-1.33.04ZM131.59,271.21l-.08-2.64,1.33-.04.08,2.64-1.33.04ZM131.43,265.93l-.08-2.64,1.33-.04.08,2.64-1.33.04Z" style="fill: #f7b094;"/>
            <polygon points="134.47 375.18 134.45 373.87 135.78 373.84 135.8 375.17 134.47 375.18" style="fill: #f7b094;"/>
          </g>
          <path d="M175.61,164.94c.55-.16,1.22-.23,1.8.23.27.25.42.64.4.98.02.35-.09.65-.21.94l-.33.85-.26-.87c-.08-.28-.27-.58-.53-.74-.26-.15-.66-.2-1.05-.12.31-.23.75-.44,1.22-.29.48.13.79.53.96.98l-.59-.03c.14-.5.26-.99-.02-1.29-.26-.34-.84-.52-1.39-.63Z" style="fill: #a7787c;"/>
          <path d="M173.36,164.3c.27,1.71.49,3.4,1.11,4.94.27.78.7,1.49,1.31,1.99.6.51,1.42.73,2.29.75-.83.23-1.81.2-2.6-.33-.79-.51-1.28-1.34-1.62-2.16-.6-1.68-.78-3.46-.5-5.18Z" style="fill: #a7787c;"/>
          <path d="M218.51,243.3c-1.37-1.46-2.47-3.02-3.61-4.54l-1.67-2.29c-.57-.75-1.15-1.48-1.88-2.17,1.01.2,1.86.82,2.62,1.47.78.65,1.42,1.42,2.01,2.21,1.14,1.61,2.07,3.37,2.53,5.32Z" style="fill: #f04637;"/>
        </g>
      </g>
    </g>
  </g>
</svg>