<?xml version="1.0" encoding="UTF-8"?>
<svg xmlns="http://www.w3.org/2000/svg" viewBox="0 0 620.73 431.13">
  <g id="BACKGROUND">
    <path d="M63.92,424.54c-32.18-11.18-51.41-50.45-40.5-82.72,7.03-20.81,24.2-37.23,30.1-58.4,8.96-32.15-10.01-64.84-14.56-97.91-4.61-33.48,6.61-68.8,29.71-93.48,23.09-24.68,57.59-38.22,91.31-35.84,31.1,2.2,60.68,17.05,91.84,16.26,34.02-.87,64.4-20.05,94.09-36.69C381.24,15.93,419.98-1.47,460.47.1c40.5,1.57,82.54,27.36,90.64,67.07,5.55,27.21-5.16,55.92,1.2,82.95,10.24,43.49,61.06,69.61,67.7,113.79,4.57,30.41-13.53,59.32-32.5,83.53s-40.52,48.9-44.66,79.37l-478.93-2.27Z" style="fill: #ff6b6b; opacity: .12;"/>
  </g>
  <g id="OBJECTS">
    <g>
      <rect x="226.9" y="252.87" width="135.3" height="169.35" style="fill: #4ecdc4;"/>
      <g>
        <path d="M356.55,324.29h-124.01v-64.15h124.01v64.15ZM233.55,323.29h122.01v-62.15h-122.01v62.15Z" style="fill: #3c9d96;"/>
        <path d="M311.64,267.64h-34.19v-7.51h34.19v7.51ZM278.45,266.64h32.19v-5.51h-32.19v5.51Z" style="fill: #3c9d96;"/>
      </g>
      <g>
        <path d="M356.55,393.6h-124.01v-64.15h124.01v64.15ZM233.55,392.6h122.01v-62.15h-122.01v62.15Z" style="fill: #3c9d96;"/>
        <path d="M311.64,336.96h-34.19v-7.51h34.19v7.51ZM278.45,335.96h32.19v-5.51h-32.19v5.51Z" style="fill: #3c9d96;"/>
      </g>
      <g>
        <polygon points="286.91 238.62 286.91 252.87 330.39 252.87 330.39 250.42 289.9 250.42 289.9 241.07 330.39 241.07 330.39 238.62 286.91 238.62" style="fill: #ff6b6b;"/>
        <rect x="245.49" y="238.62" width="41.42" height="14.24" style="fill: #bf4141;"/>
        <rect x="289.9" y="241.07" width="38.64" height="9.35" style="fill: #f7fff7;"/>
      </g>
      <g>
        <polygon points="293.52 224.38 293.52 238.62 337 238.62 337 236.18 296.5 236.18 296.5 226.82 337 226.82 337 224.38 293.52 224.38" style="fill: #ffe66d;"/>
        <rect x="252.1" y="224.38" width="41.42" height="14.24" style="fill: #c28642;"/>
        <rect x="296.5" y="226.82" width="38.64" height="9.35" style="fill: #f7fff7;"/>
      </g>
      <g>
        <polygon points="285.88 210.13 285.88 224.38 329.36 224.38 329.36 221.93 288.87 221.93 288.87 212.58 329.36 212.58 329.36 210.13 285.88 210.13" style="fill: #4ecdc4;"/>
        <rect x="244.46" y="210.13" width="41.42" height="14.24" style="fill: #3c9d96;"/>
        <rect x="288.87" y="212.58" width="38.64" height="9.35" style="fill: #f7fff7;"/>
      </g>
    </g>
    <g>
      <g>
        <g>
          <g>
            <path d="M140.56,421.91c3.34-21.8,6.68-43.59,10.01-65.39.87-5.66,9.87-5.36,8.99.38-3.34,21.8-6.68,43.59-10.01,65.39-.87,5.66-9.87,5.36-8.99-.38Z" style="fill: #263238;"/>
            <path d="M68.38,421.91c3.34-21.8,6.68-43.59,10.01-65.39.87-5.66,9.87-5.36,8.99.38-3.34,21.8-6.68,43.59-10.01,65.39-.87,5.66-9.87,5.36-8.99-.38Z" style="fill: #263238;"/>
          </g>
          <g>
            <path d="M193.71,421.91c-3.34-21.8-6.68-43.59-10.01-65.39-.87-5.66-9.87-5.36-8.99.38,3.34,21.8,6.68,43.59,10.01,65.39.87,5.66,9.87,5.36,8.99-.38Z" style="fill: #263238;"/>
            <path d="M265.88,421.91c-3.34-21.8-6.68-43.59-10.01-65.39-.87-5.66-9.87-5.36-8.99.38,3.34,21.8,6.68,43.59,10.01,65.39.87,5.66,9.87,5.36,8.99-.38Z" style="fill: #263238;"/>
          </g>
        </g>
        <g>
          <g>
            <rect x="70.38" y="184.97" width="148.27" height="164.34" rx="17.32" ry="17.32" transform="translate(289.04 534.29) rotate(180)" style="fill: #e64747;"/>
            <rect x="68.32" y="184.97" width="36.09" height="164.34" rx="12" ry="12" transform="translate(172.74 534.29) rotate(180)" style="fill: #ff6b6b;"/>
          </g>
          <g>
            <rect x="70.38" y="318.98" width="201.74" height="39.38" rx="18.69" ry="18.69" transform="translate(342.51 677.33) rotate(180)" style="fill: #e64747;"/>
            <rect x="68.32" y="318.98" width="91.3" height="39.38" rx="15.66" ry="15.66" transform="translate(227.95 677.33) rotate(180)" style="fill: #ff6b6b;"/>
          </g>
        </g>
      </g>
      <g>
        <g>
          <path d="M257.98,373.9h-19.35l-3.45,8.92,42.96,17.87c-.62-6-4.18-16.81-20.17-26.79Z" style="fill: #0f3036;"/>
          <path d="M235.18,382.82l-1.75,4.53,44.63,18.02s.38-1.78.08-4.68l-42.96-17.87Z" style="fill: #ffd300;"/>
        </g>
        <g>
          <g>
            <path d="M202.61,205.21l-21.79,25.06c.39,3.94.78,7.87,1.17,11.81,8.26-.26,17.79-1.96,25.24-5.85-.68-10.08-3.23-24.61-4.62-31.02Z" style="fill: #ffd300;"/>
            <path d="M206.43,245.92c-.09-1.38-.29-4.77-.58-9.08-7.45,3.89-15.59,4.99-23.85,5.25.41,4.1.81,8.2,1.22,12.31,13.14,8.94,35.49,24.41,48.63,33.34,1.81-2.62,4.11-4.8,5.93-7.42-6.36-8.97-24.63-24.59-31.33-34.39Z" style="fill: #ffab91;"/>
            <path d="M257.13,284.95c0,.58-.05,1.15-.16,1.72,0,.06-.03.13-.04.2-.12.53-.29,1.03-.52,1.52-.16.35-.34.68-.54,1-.53.79-1.19,1.52-1.93,2.13-.21.19-.43.36-.65.52-.04.03-.06.04-.1.06-1.96,1.34-4.49.76-6.02-1.07-.09-.11-.19-.2-.29-.29-1.35-1.11-3.33-.34-5.04.07-2.5.59-5.2.21-7.44-1.03-.96-.54-1.83-1.24-2.58-2.05-.98-1.08-1.74-2.36-2.19-3.75l.07-6.53c1.77-.2,3.55-.41,5.32-.61,2.63-.3,5.26-.61,7.9-.91,2.97-.34,6.11-.66,8.86.53,3.28,1.4,5.36,4.96,5.37,8.52Z" style="fill: #ffab91;"/>
          </g>
          <path d="M246.78,280.32c-1.11,2.16-3.64,2.97-5.93,2.67-2.62-.34-4.88-1.81-7.05-3.21-.48-.31-.9.47-.42.78,2.44,1.58,5,3.18,7.99,3.37,2.46.15,5.04-.92,6.21-3.18.26-.51-.52-.93-.78-.42Z" style="fill: #ff8a65;"/>
          <path d="M254.23,289.06c-2.21-1.24-2.94-4.02-1.68-6.2.11-.2.04-.51-.18-.6-1.65-.72-3.31-1.44-4.96-2.17-.52-.23-.95.55-.42.78,1.52.66,3.04,1.33,4.56,1.99-1.18,2.53-.22,5.59,2.26,6.98.5.28.92-.5.42-.78Z" style="fill: #ff8a65;"/>
          <path d="M254.97,280.79c-.58,2.77-1.16,5.53-1.75,8.3-.12.56.75.76.87.2.58-2.77,1.16-5.53,1.75-8.3.12-.56-.75-.76-.87-.2Z" style="fill: #ff8a65;"/>
        </g>
        <g>
          <path d="M238.78,285l18.3,3.65c4.6.92,7.76,5.16,7.32,9.83l-6.27,75.41h-19.35v-58.47l-6.07-.92s-9.76-22.19,6.07-29.5Z" style="fill: #ff8a65;"/>
          <path d="M151.58,279.41c-1.73,10.69,5.91,21.13,15.49,26.17,9.59,5.04,20.75,5.87,31.56,6.61,11.8.8,23.6,1.61,35.4,2.41-1.65-10.06.16-20.49,4.75-29.59-10.64-3.24-27.19-6.57-37.83-9.81-.4-3.79-1.69-8.52-2.09-12.31-18.8-.49-31.09,6.95-47.28,16.53Z" style="fill: #0f3036;"/>
        </g>
        <g>
          <path d="M220.85,294.2l18.3,3.65c4.6.92,7.76,5.16,7.32,9.83l-6.27,75.41h-19.35v-58.47l-6.07-.92s-9.76-22.19,6.07-29.5Z" style="fill: #ffab91;"/>
          <path d="M133.65,288.61c-1.73,10.69,5.91,21.13,15.49,26.17,9.59,5.04,20.75,5.87,31.56,6.61,11.8.8,23.6,1.61,35.4,2.41-1.65-10.06.16-20.49,4.75-29.59-10.64-3.24-27.19-6.57-37.83-9.81-.4-3.79-1.69-8.52-2.09-12.31-18.8-.49-31.09,6.95-47.28,16.53Z" style="fill: #1a535c;"/>
        </g>
        <path d="M197.1,188.06c-.5-.87-1.03-1.71-1.61-2.53-7.96-11.2-24.02-14.09-36.21-6.76-13.73,8.25-19.97,23.58-23.41,37.72-4.09,16.83-5.19,34.69-5.68,51.88-.11,3.78-.53,30.86,4.96,32.14,9.1,2.12,20.08.24,28.38-3.79,7.16-3.48,12.92-8.92,19.38-13.4,6.47-4.48,14.36-8.14,22.38-7.08-3.11-.41-2.31-45.76-2.25-49.68.2-12.08.46-27.31-5.94-38.5Z" style="fill: #ffe66d;"/>
        <g>
          <circle cx="174.69" cy="134.07" r="27.35" transform="translate(-45.33 143.03) rotate(-39.84)" style="fill: #6c301e;"/>
          <g>
            <path d="M189.96,170.51c8.92,1.94,21.29-5.72,17.08-19.37-1.81-5.84-2.43-11.99-4.16-17.85-.32-1.08-.63-2.33-.96-3.66-1.63-6.5-3.28-13.95-11.66-12.25-2.11.43-26.2,1.42-19.76,14.97-3.16,4.39-5.03,9.7-5.31,15.1-.5-.33-1.01-1.29-1.47-1.69-2.36-2.03-6.3-1.88-8.49.34-2.19,2.22-1.77,5.96.29,8.29,2.07,2.33,7.23,2.81,9.7.9.93,8.35.02,16.96-1.7,25.35,6.88,3.58,14.82,7.08,22.51,7.19.11-3.73.21-7.52.35-11.06.1-2.42.22-4.73.37-6.8.83.33,1.96.26,3.2.53Z" style="fill: #ffab91;"/>
            <path d="M186.76,169.99c-.15,2.08-.27,4.38-.37,6.8-2.26-3.9-4.59-7.81-7.44-11.43,3.4,2.25,7.22,3.68,11.02,5.15-1.27-.02-2.37-.2-3.2-.53Z" style="fill: #ff8a65;"/>
          </g>
          <path d="M185.95,133.88c-3.94-1.34-8.42.07-11,3.29-.36.45-.14,1.19.31,1.49.53.34,1.13.15,1.49-.31,1.98-2.48,5.59-3.42,8.54-2.43,1.31.45,1.97-1.6.66-2.05Z" style="fill: #6c301e;"/>
          <path d="M201.42,130.86c-1.2-.85-2.85-1.16-4.25-.7-1.42.46-2.48,1.44-3.1,2.79-.24.51.18,1.21.69,1.35.62.17,1.1-.15,1.35-.69-.11.24.04-.06.09-.14.06-.11.13-.21.21-.31,0-.01.03-.04.05-.07,0,0,.02-.01.04-.03.09-.09.17-.18.27-.26.09-.08.18-.15.28-.22.06-.03.11-.07.17-.1.11-.06.22-.12.33-.17.04-.02.07-.03.11-.04.02,0,.03-.01.06-.02.11-.03.23-.06.34-.09.08-.01.15-.03.23-.04,0,0,0,0,.02,0,.27,0,.52,0,.79.04,0,0,0,0,0,0,.07.02.15.04.22.06.12.03.23.07.35.12.05.02.11.04.16.07.01,0,.02.01.04.02.13.08.26.16.39.25.46.33,1.2.18,1.49-.31.31-.52.18-1.14-.31-1.49Z" style="fill: #6c301e;"/>
          <path d="M184.62,140.89c-.07-.27-.21-.51-.41-.71-.19-.23-.41-.39-.68-.49-.25-.15-.53-.22-.83-.23-.19.02-.37.03-.56.05-.37.08-.69.25-.97.5-.12.14-.24.28-.36.42-.21.33-.33.7-.35,1.09l-.02.19c-.02.29.02.56.14.82.07.27.21.51.41.71.19.23.41.39.68.49.25.15.53.22.83.23.19-.02.37-.03.56-.05.37-.08.69-.25.97-.5.12-.14.24-.28.36-.42.21-.33.33-.7.35-1.09l.02-.19c.02-.29-.02-.56-.14-.82Z" style="fill: #263238;"/>
          <path d="M199.18,136.15c-2.76-.23-2.95,4.07-.18,4.3,2.76.23,2.95-4.07.18-4.3Z" style="fill: #263238;"/>
          <path d="M163.66,150.38c-.19-1.82-1.5-3.46-3.23-4.07-1.77-.61-3.86-.07-5.12,1.3-.47.51.25,1.31.72.8,1.02-1.11,2.63-1.58,4.07-1.08.97.34,1.72,1.09,2.15,1.99-.7-.14-1.45.04-1.94.64-.87,1.06-.24,2.8,1.04,3.17.66.19,1-.83.33-1.02-.58-.17-.95-.99-.53-1.49.36-.43,1.21-.37,1.5.11.33.54,1.07.25,1-.36Z" style="fill: #ff8a65;"/>
          <path d="M199.18,163.66c-1.83.89-3.98,1.09-5.93.46-.28-.09-.58-.03-.72.26-.11.24-.02.63.26.72,2.22.72,4.66.6,6.76-.43.26-.13.42-.4.31-.69-.1-.25-.43-.44-.69-.31Z" style="fill: #ff8a65;"/>
          <path d="M200.5,149.27c-.49-1.49-1.74-2.6-3.28-2.92-.89-.19-1.77-.12-2.62.2-.27.1-.36.49-.23.72.14.28.45.34.72.23,1.38-.53,3.08.01,3.94,1.19.88,1.21.78,3.08-.21,4.2-.19.22-.25.53-.04.76.18.2.57.26.76.04,1.06-1.19,1.46-2.91.96-4.43Z" style="fill: #ff8a65;"/>
          <g>
            <path d="M187.98,158.88c2.2,4.09,8.91,3.27,12.14,1.65.04-.44.04-.89.03-1.35-3.26.98-7.17,1-10.5.41-.43-.15-1.09-.38-1.68-.71Z" style="fill: #eceff1;"/>
            <path d="M187.53,157.78c.12.4.27.77.45,1.1.59.32,1.25.56,1.68.71,3.33.59,7.23.57,10.5-.41-.02-.75-.06-1.51,0-2.24-3.87.82-8.22.88-12.63.84Z" style="fill: #f7fff7;"/>
          </g>
        </g>
        <g>
          <g>
            <path d="M165.25,262.28c-.3-4.61.05-13.32.07-18.73l-25.24.21c.79,8.04,3.02,22.43,3.81,30.47,13.14,8.94,34.06,18.05,47.2,26.99,1.81-2.62,2.16-7.25,3.97-9.88-6.36-8.97-23.1-19.26-29.81-29.06Z" style="fill: #ffab91;"/>
            <path d="M216.38,298.43c0,.58-.05,1.15-.16,1.72,0,.06-.03.13-.04.2-.12.53-.29,1.03-.52,1.52-.16.35-.34.68-.54,1-.53.79-1.19,1.52-1.93,2.13-.21.19-.43.36-.65.52-.04.03-.06.04-.1.06-1.96,1.34-4.49.76-6.02-1.07-.09-.11-.19-.2-.29-.29-1.35-1.11-3.33-.34-5.04.07-2.5.59-5.2.21-7.44-1.03-.96-.54-1.83-1.24-2.58-2.05-.98-1.08-1.74-2.36-2.19-3.75l.07-6.53c1.77-.2,3.55-.41,5.32-.61,2.63-.3,5.26-.61,7.9-.91,2.97-.34,6.11-.66,8.86.53,3.28,1.4,5.36,4.96,5.37,8.52Z" style="fill: #ffab91;"/>
          </g>
          <path d="M213.18,304.99c-.21.19-.43.36-.65.52-.04.03-.06.04-.1.06-1.04-2.87-3.05-5.34-5.7-6.9-.49-.29-.07-1.08.43-.78,2.74,1.62,4.88,4.15,6.02,7.1Z" style="fill: #ff8a65;"/>
          <path d="M215.65,301.87c-.16.35-.34.68-.54,1-1.07-2.75-3.06-5.09-5.61-6.58-.5-.29-.07-1.07.42-.78,2.52,1.47,4.54,3.72,5.73,6.36Z" style="fill: #ff8a65;"/>
          <path d="M216.38,298.43c0,.58-.05,1.15-.16,1.72,0,.06-.03.13-.04.2-.86-2.75-2.69-5.15-5.16-6.68-.49-.3-.06-1.09.43-.78,2.15,1.33,3.88,3.27,4.94,5.54Z" style="fill: #ff8a65;"/>
        </g>
        <g>
          <path d="M188.19,185.83c-8.6,1.11-17.46-1.17-24.39-6.4-.91-.68-2.14.61-1.22,1.3,7.31,5.51,16.6,8.05,25.69,6.88,1.13-.15,1.07-1.93-.08-1.78Z" style="fill: #ffd300;"/>
          <g>
            <path d="M168.71,242.07c-10.17,1.13-20.45,1.14-30.62-.02-1.13-.13-1.54,1.61-.4,1.74,10.33,1.18,20.76,1.21,31.09.06,1.13-.13,1.07-1.91-.08-1.78Z" style="fill: #ffd300;"/>
            <path d="M168.44,224.16c-.19,6.19-.38,12.38-.57,18.57-.04,1.15,1.75,1.07,1.78-.08.19-6.19.38-12.38.57-18.57.04-1.15-1.75-1.07-1.78.08Z" style="fill: #ffd300;"/>
            <path d="M137.38,229.68c-.1-1.14-1.88-1.07-1.78.08.37,4.41.74,8.81,1.11,13.22.1,1.14,1.88,1.07,1.78-.08-.37-4.41-.74-8.81-1.11-13.22Z" style="fill: #ffd300;"/>
          </g>
        </g>
        <g>
          <path d="M240.2,383.09h-19.35l-3.45,8.92,42.96,17.87c-.62-6-4.18-16.81-20.17-26.79Z" style="fill: #1a535c;"/>
          <path d="M217.41,392.01l-1.75,4.53,44.63,18.02s.38-1.78.08-4.68l-42.96-17.87Z" style="fill: #ffe66d;"/>
        </g>
      </g>
    </g>
    <g>
      <g>
        <g>
          <g>
            <path d="M468.35,421.91c-3.34-21.8-6.68-43.59-10.01-65.39-.87-5.66-9.87-5.36-8.99.38,3.34,21.8,6.68,43.59,10.01,65.39.87,5.66,9.87,5.36,8.99-.38Z" style="fill: #263238;"/>
            <path d="M540.52,421.91c-3.34-21.8-6.68-43.59-10.01-65.39-.87-5.66-9.87-5.36-8.99.38,3.34,21.8,6.68,43.59,10.01,65.39.87,5.66,9.87,5.36,8.99-.38Z" style="fill: #263238;"/>
          </g>
          <g>
            <path d="M415.2,421.91c3.34-21.8,6.68-43.59,10.01-65.39.87-5.66,9.87-5.36,8.99.38-3.34,21.8-6.68,43.59-10.01,65.39-.87,5.66-9.87,5.36-8.99-.38Z" style="fill: #263238;"/>
            <path d="M343.02,421.91c3.34-21.8,6.68-43.59,10.01-65.39.87-5.66,9.87-5.36,8.99.38-3.34,21.8-6.68,43.59-10.01,65.39-.87,5.66-9.87,5.36-8.99-.38Z" style="fill: #263238;"/>
          </g>
        </g>
        <g>
          <g>
            <rect x="390.25" y="184.97" width="148.27" height="164.34" rx="17.32" ry="17.32" style="fill: #e64747;"/>
            <rect x="504.49" y="184.97" width="36.09" height="164.34" rx="12" ry="12" style="fill: #ff6b6b;"/>
          </g>
          <g>
            <rect x="336.78" y="318.98" width="201.74" height="39.38" rx="18.69" ry="18.69" style="fill: #e64747;"/>
            <rect x="449.28" y="318.98" width="91.3" height="39.38" rx="15.66" ry="15.66" style="fill: #ff6b6b;"/>
          </g>
        </g>
      </g>
      <g>
        <g>
          <path d="M351.97,191.48l21.66,36.75,9.84-59.02s13.02-6.33,19.13,6.22c0,0-12.33,86.01-23.43,85.2-17.76-1.29-36.21-61.32-36.21-61.32l9.01-7.84Z" style="fill: #a34e34;"/>
          <g>
            <path d="M331.08,184.28c-1.28-2.28-2.57-4.56-3.85-6.84.83-1.21,2.08-4.43,2.91-5.64,1.07.9.81,4.3-.19,5.25,1.09,1.75,2.52,3.44,3.61,5.19" style="fill: #a34e34;"/>
            <path d="M334.04,183.53c-1.42-2.52-2.84-5.05-4.27-7.57.92-1.34,2.3-4.91,3.22-6.24,1.19,1,.9,4.76-.22,5.81,1.21,1.94,2.79,3.81,4,5.75" style="fill: #a34e34;"/>
            <path d="M336.66,183.53c-1.53-2.71-3.05-5.42-4.58-8.13.99-1.43,2.47-5.27,3.46-6.7,1.27,1.07.96,5.11-.23,6.24,1.29,2.08,3,4.09,4.29,6.17" style="fill: #a34e34;"/>
            <path d="M339.29,182.98c-1.42-2.52-2.85-5.05-4.27-7.57.92-1.34,2.3-4.91,3.22-6.24,1.19,1,.9,4.76-.21,5.81,1.21,1.94,2.79,3.81,4,5.75" style="fill: #a34e34;"/>
          </g>
          <path d="M331.99,185.47c-.44-.56-.9-1.28-.61-1.93.29-.67,1.16-.8,1.89-.85l12.18-.71c2.01,4.63,4.03,9.26,6.04,13.9.3,2.65-5.2,7.21-8.53,3.43-3.38-3.84-7.82-9.8-10.97-13.84Z" style="fill: #a34e34;"/>
          <path d="M332.76,184.97c-4.91,0-9.37-.55-13.39-1.65-4.02-1.1-7.99-3-11.89-5.71v-16.09h10.33l1.42,9.46c1.37,1.16,3.26,2.1,5.67,2.81,2.4.72,5.03,1.08,7.86,1.08,2.41,0,4.44-.34,6.1-1.01,1.66-.67,2.93-1.62,3.79-2.86.87-1.23,1.3-2.69,1.3-4.37,0-1.58-.39-2.99-1.16-4.23-.78-1.23-2.06-2.36-3.84-3.38-1.78-1.02-4.2-2-7.25-2.95-5.27-1.55-9.64-3.25-13.1-5.1-3.46-1.84-6.05-4.05-7.77-6.63-1.72-2.57-2.58-5.68-2.58-9.3s1-6.78,2.99-9.53c2-2.76,4.76-4.93,8.3-6.51,3.54-1.58,7.62-2.41,12.25-2.47,5.12-.06,9.65.55,13.6,1.83,3.95,1.28,7.35,3.06,10.22,5.35v14.99h-10.01l-1.74-9.14c-1.16-.73-2.72-1.37-4.69-1.92-1.96-.55-4.2-.82-6.7-.82-2.13,0-4.02.32-5.65.96-1.63.64-2.92,1.57-3.86,2.79-.94,1.22-1.42,2.7-1.42,4.44,0,1.49.41,2.8,1.23,3.91.82,1.11,2.2,2.16,4.14,3.15,1.93.99,4.61,2.05,8.02,3.17,7.34,2.04,12.91,4.74,16.71,8.09,3.79,3.35,5.69,7.76,5.69,13.21,0,3.78-1.02,7.05-3.06,9.81-2.04,2.76-4.91,4.89-8.59,6.38-3.69,1.49-8,2.24-12.94,2.24Z" style="fill: #d93838;"/>
          <path d="M334.54,184.97c-4.91,0-9.37-.55-13.39-1.65-4.02-1.1-7.99-3-11.89-5.71v-16.09h10.33l1.42,9.46c1.37,1.16,3.26,2.1,5.67,2.81,2.4.72,5.03,1.08,7.86,1.08,2.41,0,4.44-.34,6.1-1.01,1.66-.67,2.93-1.62,3.79-2.86.87-1.23,1.3-2.69,1.3-4.37,0-1.58-.39-2.99-1.16-4.23-.78-1.23-2.06-2.36-3.84-3.38-1.78-1.02-4.2-2-7.25-2.95-5.27-1.55-9.64-3.25-13.1-5.1-3.46-1.84-6.05-4.05-7.77-6.63-1.72-2.57-2.58-5.68-2.58-9.3s1-6.78,2.99-9.53,4.76-4.93,8.3-6.51c3.54-1.58,7.62-2.41,12.25-2.47,5.12-.06,9.65.55,13.6,1.83,3.95,1.28,7.35,3.06,10.22,5.35v14.99h-10.01l-1.74-9.14c-1.16-.73-2.72-1.37-4.69-1.92-1.96-.55-4.2-.82-6.7-.82-2.13,0-4.02.32-5.65.96-1.63.64-2.92,1.57-3.86,2.79-.94,1.22-1.42,2.7-1.42,4.44,0,1.49.41,2.8,1.23,3.91.82,1.11,2.2,2.16,4.14,3.15,1.93.99,4.61,2.05,8.02,3.17,7.34,2.04,12.91,4.74,16.71,8.09,3.79,3.35,5.69,7.76,5.69,13.21,0,3.78-1.02,7.05-3.06,9.81-2.04,2.76-4.91,4.89-8.59,6.38-3.69,1.49-8,2.24-12.94,2.24Z" style="fill: #ff6b6b;"/>
          <path d="M351.86,194.08c1.66-4.36.5-9.39-1.94-13.37-2.43-3.98-6-7.12-9.51-10.19-.7.64-1,1.61-.87,2.56.12.94.57,1.81,1.05,2.63,1.3,2.16,2.98,4.1,4.95,5.68-1.35,2.33-2.03,5.47-1.09,8,.94,2.52,3.05,4.59,5.59,5.47.72.25,1.55-.05,1.82-.77Z" style="fill: #a34e34;"/>
          <path d="M348.17,194.04c-3.42-3.29-4.3-8.44-2.16-12.68.26-.51-.53-.94-.78-.42-2.32,4.59-1.37,10.19,2.34,13.75.41.4,1.02-.25.61-.65Z" style="fill: #7d3c28;"/>
        </g>
        <g>
          <g>
            <path d="M314.57,274.5c-3.77.45-7.79,3.06-10.35,5.87s-4.27,6.66-3.59,10.4c1.23,6.78,8.98,9.88,15.59,11.79,11.21,3.23,22.5,6.43,33.87,9.25-3.63-14.34-10.71-27.84-20.71-38.85-4.94.44-9.88.94-14.8,1.54Z" style="fill: #a34e34;"/>
            <path d="M451.75,298.71c-2.19-12.48-19.84-20.59-30.59-23.69-2.72-.78-5.5-1.42-8.33-1.92-14.25-2.56-29.65-2.01-43.79-1.96-13.24.05-26.47.66-39.66,1.82,10,11.01,17.09,24.51,20.71,38.85,23.22,5.76,46.75,9.91,70.59,9.33,7.29-.18,14.83-.88,21.17-4.47,6.34-3.59,11.16-10.78,9.9-17.96Z" style="fill: #11373d;"/>
          </g>
          <g>
            <polygon points="301.21 292.76 361.43 384.57 371.9 378.05 343.05 301.55 301.21 292.76" style="fill: #a34e34;"/>
            <path d="M378.02,380.95l-8.19-8.51-11.68,7.28s1.41,22.1-6.06,35.22c12.62-5.47,21.17-19.45,25.94-33.99Z" style="fill: #a34e34;"/>
            <path d="M383.57,386.72l-5.55-5.77c-4.76,14.54-13.31,28.53-25.94,33.99-1.19,2.09-2.6,3.96-4.28,5.46-9.29,8.31,5.88,7.16,13.78,6.11,2.68-.36,5.02-1.98,6.31-4.35l16.76-30.88c.86-1.58.39-3.55-1.09-4.57Z" style="fill: #11373d;"/>
            <path d="M346.2,310.33c-4.03-6.88-9.31-13.05-15.52-18.05-3.49-2.81-7.27-5.25-11.28-7.25-.51-.26-.94.53-.42.78,7.03,3.51,13.33,8.38,18.59,14.21,5.27,5.84,9.48,12.64,12.33,19.97,1.59,4.1,2.76,8.37,3.45,12.72.09.56.98.53.89-.04-1.24-7.87-4-15.46-8.03-22.34Z" style="fill: #872f14;"/>
          </g>
        </g>
        <g>
          <path d="M387.7,276.52c6.7-19.3,9.96-39.5,9.65-59.85-.08-5.62-1.88-11.08-5.11-15.69-.64-.91-1.27-1.82-1.91-2.72-2.91-4.13-4.3-9.15-3.92-14.19.66-8.79,1.91-17.38,3.45-26.1.67-3.81,2.67-7.27,5.68-9.69,12.26-9.83,31.79-14.92,48.8-15.14,8.12-.1,14.66,6.5,14.52,14.61-.34,18.94-5.93,37.5-8.38,56.7-3.02,23.73,21.34,61.24,20.22,94.28-23.9-26.21-55.04-28.16-83.01-22.21Z" style="fill: #4ecdc4;"/>
          <g>
            <g>
              <path d="M432.15,92.37h0c-.56.78-.65,1.79-.26,2.66h0c.47,1.04.23,2.27-.6,3.05h0c-.7.65-.99,1.63-.77,2.56h0c.26,1.12-.22,2.27-1.19,2.88h0c-.81.5-1.29,1.4-1.26,2.35h0c.04,1.15-.66,2.19-1.73,2.59h0c-.89.34-1.54,1.12-1.7,2.07h0c-.19,1.13-1.07,2.01-2.2,2.2h0c-.94.16-1.73.8-2.07,1.7h0c-.4,1.07-1.44,1.77-2.59,1.73h0c-.95-.03-1.85.45-2.35,1.26h0c-.6.97-1.76,1.45-2.88,1.19h0c-.93-.22-1.9.08-2.56.77h0c-.78.84-2.01,1.08-3.05.61h0c-.87-.4-1.88-.3-2.66.26h0c-.93.67-2.18.67-3.11,0h0c-.78-.56-1.79-.66-2.66-.26h0c-1.04.47-2.27.23-3.05-.6h0c-.65-.7-1.63-.99-2.55-.78h0c-1.12.26-2.27-.22-2.88-1.19h0c-.5-.81-1.4-1.29-2.35-1.26h0c-1.14.04-2.18-.66-2.59-1.73h0c-.34-.89-1.12-1.54-2.06-1.7h0c-1.13-.19-2.01-1.07-2.2-2.2h0c-.16-.94-.8-1.73-1.7-2.07h0c-1.07-.4-1.77-1.44-1.73-2.59h0c.03-.96-.45-1.85-1.26-2.36h0c-.97-.6-1.45-1.76-1.19-2.88h0c.22-.93-.08-1.9-.77-2.56h0c-.84-.78-1.08-2.01-.6-3.05h0c.4-.87.3-1.88-.26-2.66h0c-.67-.93-.67-2.18,0-3.11h0c.56-.78.65-1.79.26-2.66h0c-.47-1.04-.23-2.27.6-3.05h0c.7-.65.99-1.63.77-2.56h0c-.26-1.12.22-2.27,1.19-2.88h0c.81-.5,1.29-1.4,1.26-2.35h0c-.04-1.15.66-2.19,1.73-2.59h0c.89-.34,1.54-1.12,1.7-2.07h0c.19-1.13,1.07-2.01,2.2-2.2h0c.94-.16,1.73-.8,2.07-1.7h0c.4-1.07,1.44-1.77,2.59-1.73h0c.95.03,1.85-.45,2.35-1.26h0c.6-.97,1.76-1.45,2.88-1.19h0c.93.22,1.9-.08,2.56-.77h0c.78-.84,2.01-1.08,3.05-.61h0c.87.4,1.88.3,2.66-.26h0c.93-.67,2.18-.67,3.11,0h0c.78.56,1.79.66,2.66.26h0c1.04-.47,2.27-.23,3.05.6h0c.65.7,1.63.99,2.55.78h0c1.12-.26,2.27.22,2.88,1.19h0c.5.81,1.4,1.29,2.35,1.26h0c1.14-.04,2.18.66,2.59,1.73h0c.34.89,1.12,1.54,2.06,1.7h0c1.13.19,2.01,1.07,2.2,2.2h0c.16.94.8,1.73,1.7,2.07h0c1.07.4,1.77,1.44,1.73,2.59h0c-.03.96.45,1.85,1.26,2.36h0c.97.6,1.45,1.76,1.19,2.88h0c-.22.93.08,1.9.77,2.56h0c.84.78,1.08,2.01.6,3.05h0c-.4.87-.3,1.88.26,2.66h0c.67.93.67,2.18,0,3.11Z" style="fill: #6c301e;"/>
              <path d="M437.01,67.9h0c-.38.54-.45,1.24-.18,1.84h0c.33.72.16,1.57-.42,2.11h0c-.48.45-.69,1.13-.54,1.77h0c.18.77-.15,1.57-.83,1.99h0c-.56.35-.89.97-.87,1.63h0c.03.79-.46,1.51-1.2,1.79h0c-.62.23-1.07.78-1.17,1.43h0c-.13.78-.74,1.39-1.52,1.52h0c-.65.11-1.2.56-1.43,1.17h0c-.28.74-1,1.22-1.79,1.2h0c-.66-.02-1.28.31-1.63.87h0c-.42.67-1.22,1.01-1.99.83h0c-.64-.15-1.32.05-1.77.54h0c-.54.58-1.39.75-2.11.42h0c-.6-.27-1.3-.2-1.84.18h0c-.64.46-1.51.46-2.15,0h0c-.54-.39-1.24-.45-1.84-.18h0c-.72.33-1.57.16-2.11-.42h0c-.45-.48-1.13-.69-1.77-.54h0c-.77.18-1.57-.15-1.99-.83h0c-.35-.56-.97-.89-1.63-.87h0c-.79.03-1.51-.46-1.79-1.2h0c-.23-.62-.78-1.07-1.43-1.17h0c-.78-.13-1.39-.74-1.52-1.52h0c-.11-.65-.56-1.2-1.17-1.43h0c-.74-.28-1.22-1-1.2-1.79h0c.02-.66-.31-1.28-.87-1.63h0c-.67-.42-1.01-1.22-.83-1.99h0c.15-.64-.05-1.32-.54-1.77h0c-.58-.54-.75-1.39-.42-2.11h0c.27-.6.2-1.3-.18-1.84h0c-.46-.65-.46-1.51,0-2.15h0c.38-.54.45-1.24.18-1.84h0c-.33-.72-.16-1.57.42-2.11h0c.48-.45.69-1.13.54-1.77h0c-.18-.77.15-1.57.83-1.99h0c.56-.35.89-.97.87-1.63h0c-.03-.79.46-1.51,1.2-1.79h0c.62-.23,1.07-.78,1.17-1.43h0c.13-.78.74-1.39,1.52-1.52h0c.65-.11,1.2-.56,1.43-1.17h0c.28-.74,1-1.22,1.79-1.2h0c.66.02,1.28-.31,1.63-.87h0c.42-.67,1.22-1.01,1.99-.83h0c.64.15,1.32-.05,1.77-.54h0c.54-.58,1.39-.75,2.11-.42h0c.6.27,1.3.2,1.84-.18h0c.64-.46,1.51-.46,2.15,0h0c.54.39,1.24.45,1.84.18h0c.72-.33,1.57-.16,2.11.42h0c.45.48,1.13.69,1.77.54h0c.77-.18,1.57.15,1.99.83h0c.35.56.97.89,1.63.87h0c.79-.03,1.51.46,1.79,1.2h0c.23.62.78,1.07,1.43,1.17h0c.78.13,1.39.74,1.52,1.52h0c.11.65.56,1.2,1.17,1.43h0c.74.28,1.22,1,1.2,1.79h0c-.02.66.31,1.28.87,1.63h0c.67.42,1.01,1.22.83,1.99h0c-.15.64.05,1.32.54,1.77h0c.58.54.75,1.39.42,2.11h0c-.27.6-.2,1.3.18,1.84h0c.46.65.46,1.51,0,2.15Z" style="fill: #6c301e;"/>
            </g>
            <g>
              <path d="M400.78,133.38c-9.45,5.59-10.97,2.73-19.1-8.78-3.26-4.62-5.19-15.87-5.51-21.98-.06-1.12-.19-2.41-.31-3.77-.64-6.67-1.57-14.25,6.89-15.44,2.02-.29,22.76-6.67,23.67,5.29.11,1.47.86,2.82,1.99,3.76,3.49,2.93,6.28,6.7,8.02,10.91.36-.48.52-1.56.82-2.08,1.55-2.7,5.31-3.87,8.12-2.51,2.81,1.36,3.67,5.03,2.5,7.91-1.17,2.89-5.88,5.07-8.84,4.1,1.91,8.18,4.68,17.78,9.11,25.1-2.03,6.9-10.47,13.8-17.84,12.51-1.35-3.48-2.71-7.02-4.03-10.3-.91-2.25-1.78-4.38-2.62-6.29-.67.59-1.75.92-2.84,1.57Z" style="fill: #c25d3e;"/>
              <path d="M403.62,131.81c.84,1.91,1.72,4.04,2.62,6.29.82-4.43,1.72-8.9,3.19-13.26-2.45,3.26-5.57,5.88-8.66,8.54,1.19-.44,2.17-.98,2.84-1.57Z" style="fill: #a63a19;"/>
            </g>
            <path d="M392.31,97.51c3.27-2.58,7.96-2.75,11.47-.57.49.31.53,1.08.21,1.51-.38.5-1.01.51-1.51.21-2.7-1.68-6.41-1.36-8.86.57-1.09.86-2.4-.85-1.31-1.71Z" style="fill: #6c301e;"/>
            <path d="M376.68,101.36c.49.36,1.33.25,1.69-.21.1-.13.21-.24.32-.36.01-.02.02-.02.03-.03.05-.04.09-.08.14-.12.1-.08.21-.16.32-.23.07-.04.14-.09.21-.13,0,0,0,0,0,0,.27-.11.53-.21.82-.3,0,0,0,0,.02,0,.08-.01.17-.03.25-.04.13-.02.26-.03.39-.03.03,0,.05,0,.07,0,.04,0,.09,0,.13,0,.14,0,.28.02.41.05.07.01.15.03.22.04.12.04.25.07.37.12.13.05.25.1.38.16.03.01.04.02.05.02.03.02.06.04.08.05.12.07.23.14.34.22.09.06.35.29.15.1.48.43,1.1.57,1.69.2.49-.3.67-1.11.23-1.51-1.17-1.06-2.65-1.63-4.32-1.59-1.66.04-3.28.88-4.23,2.08-.39.49-.29,1.12.23,1.51Z" style="fill: #6c301e;"/>
            <path d="M395.91,103.67c-.02-.28.03-.55.14-.81.1-.28.26-.5.48-.69.19-.22.42-.39.71-.49.18-.05.36-.09.54-.14.37-.04.73,0,1.08.14.16.09.32.18.48.28.31.24.54.54.69.91l.08.17c.12.26.16.54.14.82.02.28-.03.55-.14.81-.1.28-.26.5-.48.69-.19.22-.42.39-.71.49l-.54.14c-.37.04-.73,0-1.08-.15-.16-.09-.32-.18-.48-.28-.31-.24-.54-.54-.69-.91l-.08-.17c-.12-.26-.16-.54-.14-.82Z" style="fill: #263238;"/>
            <path d="M380.6,104.07c2.52-1.14,4.14,2.85,1.61,4-2.52,1.14-4.14-2.85-1.61-4Z" style="fill: #263238;"/>
            <path d="M418.84,105.61c-.43-1.78.26-3.77,1.69-4.91,1.46-1.17,3.61-1.35,5.26-.48.61.32.2,1.32-.41,1-1.33-.7-3.01-.61-4.2.34-.8.64-1.26,1.6-1.36,2.6.61-.36,1.38-.44,2.04-.05,1.17.71,1.17,2.56.08,3.34-.56.4-1.22-.45-.65-.86.49-.35.56-1.25,0-1.58-.48-.29-1.26.06-1.38.61-.13.62-.92.59-1.07,0Z" style="fill: #a63a19;"/>
            <path d="M389.24,128.96c2.02.22,4.12-.31,5.74-1.55.23-.18.54-.22.76,0,.18.19.23.58,0,.76-1.85,1.42-4.19,2.12-6.52,1.86-.29-.03-.53-.24-.53-.55,0-.27.26-.56.55-.53Z" style="fill: #a63a19;"/>
            <path d="M384.06,117.97c-.59-1.45-.34-3.11.62-4.34.56-.72,1.27-1.24,2.13-1.54.27-.1.59.14.65.4.07.31-.13.55-.4.65-1.39.48-2.35,1.99-2.24,3.45.11,1.49,1.39,2.86,2.87,3.07.29.04.53.24.52.55,0,.26-.26.56-.55.52-1.58-.23-2.99-1.28-3.59-2.77Z" style="fill: #a63a19;"/>
            <g>
              <path d="M397.41,121.65c-.84,3.64-6.72,5.11-9.87,4.93-.15-.31-.26-.64-.36-.97,3-.29,6.31-1.48,8.98-2.93.33-.24.83-.61,1.24-1.03Z" style="fill: #eceff1;"/>
              <path d="M397.52,120.72c0,.33-.04.64-.11.94-.42.41-.92.79-1.24,1.03-2.67,1.45-5.98,2.64-8.98,2.93-.17-.55-.32-1.11-.57-1.61,3.48-.6,7.17-1.89,10.9-3.28Z" style="fill: #f7fff7;"/>
            </g>
          </g>
          <g>
            <path d="M394.32,171.74c.48-2.14.89-4.12,1.64-6.19,1.32-3.64,2.67-8.46,1.08-12-.66-1.48-1.63-3.12-2.51-4.71-.89-1.6-2.95-2.15-4.49-1.16,0,0-.02.01-.03.02-.95-3.63-3.06-10-4-13.63-.29-1.11-.61-2.27-1.38-3.12-.77-.85-2.32-1.17-3.26-.51l4.36,20.35c-1.3,1.07-2.77,2.14-4.2,3.21-1.47,1.1-2.17,2.97-1.8,4.77,1.22,5.93,2.39,11.67,3.63,17.68l10.97-4.71Z" style="fill: #c25d3e;"/>
            <path d="M393.52,158.33c-2.51-8.05-5.01-16.1-7.52-24.15-.17-.55-1.02-.28-.85.27,2.51,8.05,5.01,16.1,7.52,24.15.17.55,1.02.28.85-.27Z" style="fill: #a63a19;"/>
          </g>
          <path d="M394.32,171.74l9.41,41.61,27.38-53.2s14.33-2.06,16.32,11.76c0,0-37.99,78.14-48.31,73.99-16.52-6.64-15.78-69.45-15.78-69.45l10.97-4.71Z" style="fill: #c25d3e;"/>
        </g>
        <g>
          <g>
            <path d="M334.26,274.5c-3.77.45-7.79,3.06-10.35,5.87s-4.27,6.66-3.59,10.4c1.23,6.78,8.98,9.88,15.59,11.79,11.21,3.23,22.5,6.43,33.87,9.25-3.63-14.34-10.71-27.84-20.71-38.85-4.94.44-9.88.94-14.8,1.54Z" style="fill: #c25d3e;"/>
            <path d="M471.43,298.71c-2.19-12.48-19.84-20.59-30.59-23.69-2.72-.78-5.5-1.42-8.33-1.92-14.25-2.56-29.65-2.01-43.79-1.96-13.24.05-26.47.66-39.66,1.82,10,11.01,17.09,24.51,20.71,38.85,23.22,5.76,46.75,9.91,70.59,9.33,7.29-.18,14.83-.88,21.17-4.47,6.34-3.59,11.16-10.78,9.9-17.96Z" style="fill: #1a535c;"/>
          </g>
          <g>
            <polygon points="320.9 292.76 381.12 384.57 391.58 378.05 362.74 301.55 320.9 292.76" style="fill: #c25d3e;"/>
            <path d="M397.7,380.95l-8.19-8.51-11.68,7.28s1.41,22.1-6.06,35.22c12.62-5.47,21.17-19.45,25.94-33.99Z" style="fill: #c25d3e;"/>
            <path d="M403.26,386.72l-5.55-5.77c-4.76,14.54-13.31,28.53-25.94,33.99-1.19,2.09-2.6,3.96-4.28,5.46-9.29,8.31,5.88,7.16,13.78,6.11,2.68-.36,5.02-1.98,6.31-4.35l16.76-30.88c.86-1.58.39-3.55-1.09-4.57Z" style="fill: #1a535c;"/>
            <path d="M365.88,310.33c-4.03-6.88-9.31-13.05-15.52-18.05-3.49-2.81-7.27-5.25-11.28-7.25-.51-.26-.94.53-.42.78,7.03,3.51,13.33,8.38,18.59,14.21,5.27,5.84,9.48,12.64,12.33,19.97,1.59,4.1,2.76,8.37,3.45,12.72.09.56.98.53.89-.04-1.24-7.87-4-15.46-8.03-22.34Z" style="fill: #a63a19;"/>
          </g>
        </g>
      </g>
    </g>
    <path d="M611.54,431.13H4.46c-2.46,0-4.46-1.99-4.46-4.46h0c0-2.46,2-4.46,4.46-4.46h607.09c2.46,0,4.46,2,4.46,4.46h0c0,2.46-1.99,4.46-4.46,4.46Z" style="fill: #263238;"/>
  </g>
</svg>