<?xml version="1.0" encoding="UTF-8"?>
<svg id="_Ñëîé_1" data-name="Ñëîé 1" xmlns="http://www.w3.org/2000/svg" viewBox="0 0 360.61 310.28">
  <path d="M91.56,276.15S-23.79,156.17,4.45,110.5c32.81-53.03,87.1,0,87.1,0v165.65Z" style="fill: #f0f8ff;"/>
  <path d="M92.69,272.35S33.78,19.22,141.75,1.97c127.45-20.36,111.07,123.98,111.07,123.98,0,0,53.68-56.09,91.01-25.54,51.79,42.38-32.81,177.32-32.81,177.32l-218.33-5.37Z" style="fill: #f0f8ff;"/>
  <ellipse cx="211.79" cy="277.03" rx="141.17" ry="10.18" style="fill: #cfe7f9;"/>
  <path d="M332.42,257.83c.31.11,8.26,18.9,2.04,19.22-6.22.32-9.95-17.53-9.95-17.53l7.91-1.69Z" style="fill: #552b19;"/>
  <path d="M304.43,257.83c.31.11,8.26,18.9,2.04,19.22-6.22.32-9.95-17.53-9.95-17.53l7.91-1.69Z" style="fill: #421f13;"/>
  <path d="M338.82,184.45c-1.13-.07-43.34,2.2-47.65,7.29-4.31,5.09,5.67,68.01,10.69,72.2,5.03,4.19,37.76,2.63,37.76,2.63l-.81-82.12Z" style="fill: #a29cdb;"/>
  <path d="M239.97,235.73s33.42-70.9-9.47-85.43c-45.03-15.25-148.03-9.33-160.01,0-11.98,9.33,30.81,76.81,37.66,85.43h131.82Z" style="fill: #70649b;"/>
  <path d="M288.87,233.77s45.5-76.09-10.52-85.43c-56.01-9.33-164.36-9.33-177.67,0s34.22,76.81,41.82,85.43h146.37Z" style="fill: #8172a9;"/>
  <path d="M133.79,257.83c-.31.11-8.26,18.9-2.04,19.22,6.22.32,9.95-17.53,9.95-17.53l-7.91-1.69Z" style="fill: #552b19;"/>
  <path d="M101.15,258.43c-.29.1-7.86,17.98-1.94,18.29,5.92.31,9.47-16.68,9.47-16.68l-7.52-1.61Z" style="fill: #421f13;"/>
  <path d="M351.02,193.69c-.96-4.16-4.02-7.57-8.12-8.78-2.6-.76-5.48-.92-7.22,1.13-8.97,10.55-2.69,80.79-2.69,80.79l17.4-.28s5.32-52.57.62-72.87Z" style="fill: #b6ace9;"/>
  <polygon points="319.73 228.12 140.31 225.84 131.42 266.81 326.91 266.84 319.73 228.12" style="fill: #a29cdb;"/>
  <path d="M338.06,200.18c.11,2.08,1.67,3.84,3.84,3.84s3.85-1.75,3.84-3.84c0-2.02-1.64-3.74-3.66-3.83-2.24-.1-3.9,1.68-4.02,3.83-.04.76,1.15.76,1.19,0,.18-3.4,5.3-3.43,5.3,0s-5.12,3.4-5.3,0c-.04-.76-1.23-.76-1.19,0Z" style="fill: #a29cdb;"/>
  <path d="M346.5,266.37c1.25-10.24,2.12-20.54,2.69-30.84.73-13.18,2.57-29.28-2.05-41.99-2.11-5.78-7.16-8.21-10.1-1.62-4.95,11.14-3.14,26.87-2.75,38.63.39,12.05,1.45,24.03,2.41,36.04.06.76,1.25.76,1.19,0-1.65-20.59-3.91-41.51-2.06-62.16.34-3.79.49-11.24,3.48-14.22,4.35-4.32,6.84,3.62,7.6,6.94,2.91,12.79,1.78,26.93,1.01,39.9-.58,9.79-1.41,19.58-2.6,29.31-.09.76,1.1.75,1.19,0h0Z" style="fill: #a29cdb;"/>
  <path d="M256.91,170.71c.1,1.78,1.42,3.27,3.27,3.27s3.27-1.49,3.27-3.27-1.4-3.19-3.13-3.27c-1.91-.08-3.32,1.43-3.42,3.27-.04.7,1.05.7,1.09,0,.15-2.8,4.37-2.82,4.37,0s-4.22,2.8-4.37,0c-.04-.7-1.13-.7-1.09,0Z" style="fill: #a29cdb;"/>
  <path d="M259.27,203.33c.1,1.78,1.42,3.27,3.27,3.27s3.27-1.49,3.27-3.27-1.4-3.19-3.13-3.27c-1.91-.08-3.32,1.43-3.42,3.27-.04.7,1.05.7,1.09,0,.15-2.8,4.37-2.82,4.37,0s-4.22,2.8-4.37,0c-.04-.7-1.13-.7-1.09,0Z" style="fill: #a29cdb;"/>
  <path d="M106.72,166.67c.1,1.78,1.42,3.27,3.27,3.27s3.27-1.49,3.27-3.27-1.4-3.19-3.12-3.27c-1.91-.08-3.32,1.43-3.42,3.27-.04.7,1.05.7,1.09,0,.15-2.8,4.37-2.82,4.37,0s-4.22,2.8-4.37,0c-.04-.7-1.13-.7-1.09,0Z" style="fill: #a29cdb;"/>
  <path d="M300.04,291.62s4.51,5.86,4.59,7.15c.21,3.84-10.15,11.17-14.99,11.5-.68.05-1.79-.57-1.47-2.45.32-1.88,5.33-7.25,3.29-9.57-2.04-2.32,8.58-6.63,8.58-6.63Z" style="fill: #ffa60e;"/>
  <path d="M245.02,274.98s1.43,7.26.92,8.45c-1.52,3.53-14.07,5.47-18.55,3.61-.63-.26-1.35-1.31-.23-2.85,1.12-1.54,8.01-4.11,7.22-7.1-.79-2.99,10.64-2.11,10.64-2.11Z" style="fill: #ffa60e;"/>
  <path d="M174.85,268s-1.43,7.26-.92,8.45c1.52,3.53,14.07,5.47,18.54,3.61.63-.26,1.35-1.31.23-2.85-1.12-1.54-8.01-4.11-7.22-7.1.79-2.99-10.64-2.11-10.64-2.11Z" style="fill: #ffa60e;"/>
  <path d="M203.76,248.15s1.37,7.27,2.29,8.18c2.72,2.71,15.1-.14,18.56-3.53.48-.47.77-1.72-.85-2.73-1.61-1.01-8.96-.84-9.34-3.91-.38-3.07-10.66,1.99-10.66,1.99Z" style="fill: #ffa60e;"/>
  <g>
    <path d="M244.23,229.53s43.88-1.21,50.75-1.5c10.09-.43,12.94-4.22,7.72-14.61-3.59-7.14-65.38-10.15-71.99,1.58-8.11,14.39,13.52,14.53,13.52,14.53Z" style="fill: #618bf0;"/>
    <path d="M230.37,275.55c-2.43-12.6-4.95-52.09.34-60.55,5.72-9.15,17.12-.1,17.63,14.09.33,9.2,1.02,40.35.62,48.81-.1,2.05-5.5,3.1-8.72,2.91-.08,0-9.16-1.62-9.87-5.26Z" style="fill: #618bf0;"/>
  </g>
  <g>
    <path d="M281,250.01s29.78-11.88,35.55-15.61c8.48-5.48,10.45-18.14.68-24.46-6.71-4.34-61.78,24.39-61.26,37.84.46,12.2,25.03,2.23,25.03,2.23Z" style="fill: #618bf0;"/>
    <path d="M286.36,300.15c-8.48-9.63-30.66-42.4-30.39-52.37.29-10.78,14.71-8.76,22.33,3.21,4.94,7.76,21.33,34.27,25.27,41.77.96,1.82-3.17,5.46-6.04,6.93-.07.04-8.72,3.24-11.17.46Z" style="fill: #618bf0;"/>
  </g>
  <path d="M283.82,222.11c-3.55.42-6.66,3.19-8.24,6.35-.36.72-1.44.09-1.08-.63,1.79-3.58,5.25-6.48,9.32-6.97.8-.09.79,1.15,0,1.25h0Z" style="fill: #171726;"/>
  <path d="M288.61,167.46s8.2-4.35,11.24-1.42c1.72,1.66,1.82,6.47.41,9.27-2.7,5.39-11.41,16.6-20.55,21.55-3.35,1.81-11.67-3.45-8.36-9.06,4.35-7.37,12.21-15.64,17.26-20.35Z" style="fill: #f6e0d5;"/>
  <path d="M286.86,170.5c3.13-8.55,18.57-5.16,29.11-3.04,7.11,1.43,10.99,4.91,10,17.97-.39,5.14-.82,20.85-3.68,28.65-.51,1.4-2.69,2.59-3.85,3.53-6.68,5.39-41.05-2.08-39.31-10.03,0,0,1.03-18.82,7.72-37.09Z" style="fill: #fce6d9;"/>
  <g>
    <polygon points="244.96 220.22 285.99 231.11 307.22 222 245.85 203.95 244.96 220.22" style="fill: #a8a8a8;"/>
    <polygon points="245.07 218.08 286.37 229.04 307.6 219.93 246.24 201.88 245.07 218.08" style="fill: #cbccd1;"/>
    <polygon points="245.05 218.62 281.15 228.07 299.84 220.05 245.82 204.15 245.05 218.62" style="fill: #bdbec1;"/>
    <polygon points="285.99 231.11 283.93 231.93 244.96 220.22 244.85 186.06 283.78 196.52 285.99 231.11" style="fill: #b8b9bc;"/>
    <polygon points="283.93 231.93 244.96 220.22 241.81 186.63 281.86 197.07 283.93 231.93" style="fill: #cbccd1;"/>
    <polygon points="307.6 219.93 307.22 222 285.99 231.11 286.02 228.95 307.6 219.93" style="fill: #b8b9bc;"/>
    <polygon points="281.86 197.07 283.42 196.42 244.85 186.06 241.81 186.63 281.86 197.07" style="fill: #c4c5c6;"/>
  </g>
  <g>
    <path d="M328.07,198.42c.07,1.34,5.11,15.12,2.19,18.52-2.11,2.47-11.46-1.99-11.46-1.99,0,0,3.5-2.72-1.81-13.49-4.48-9.08,11.08-3.04,11.08-3.04Z" style="fill: #fbb99d;"/>
    <path d="M329.42,217.87c-5.3,5.23-25.94,13.72-25.94,13.72l.8-4.85,19.84-16.11s10.59,2.01,5.3,7.24Z" style="fill: #fbb99d;"/>
    <path d="M304.79,225.53c-.51-.1-1-.53-1.46-.76-.92-.45-1.94-.58-2.94-.68-.56-.06-1.66-.85-2.16-.32-.82.86,1.37,1.66,1.78,2,.37.31.64.85.44,1.29-.13.29-.42.48-.71.63-.91.48-1.88.81-2.83,1.19-.49.2-.97.43-1.45.66-.36.17-.91.26-1.2.51-.24.2-.31.62-.04.83.25.19.48,0,.74-.08.57-.16,1.14-.3,1.71-.43.13-.03.68-.25.79-.16.55.43-.93,1.03-1.15,1.14-.58.27-1.17.56-1.51,1.13-.04.07-.08.16-.05.25.05.13.23.14.36.11.8-.13,1.53-.54,2.33-.65.13-.02.29-.02.36.09.31.43-.57,1.02-.84,1.24-.17.14-.37.33-.31.54.04.14.19.22.33.23.14,0,.28-.04.42-.09.4-.14.83-.25,1.21-.44.18-.09.7-.41.87-.19.03.04.04.1.03.16-.03.2-.19.34-.33.49-.13.15-.25.36-.16.54.1.23.42.23.66.18.87-.18,1.67-.68,2.44-1.11.82-.46,1.62-.95,2.4-1.48,1.46-1,2.72-2.31,4.26-3.17.23-.13.47-.25.67-.44.37-.35.51-.87.54-1.38.06-.94-.28-1.97-.99-2.61-.23-.2-.66-.65-.96-.59-.22.04-.51.37-.69.5-.26.19-.53.37-.82.52-.49.26-1.08.42-1.74.33Z" style="fill: #fbb99d;"/>
    <path d="M312.94,179.76c-.54-5.16.86-10.25,5.26-10.94,2.5-.39,6.61,2.59,8.08,5.57,2.84,5.72,6.76,20.24,5.14,31.12-.59,3.98-10.32,7.66-12.95,1.28-3.46-8.38-4.77-19.76-5.53-27.03Z" style="fill: #f6e0d5;"/>
  </g>
  <g>
    <path d="M313.15,167.35s-7.72,10.44-16.7,7.48c-4.17-1.37-4.41-5.1-1.03-7.51,3.33-2.37,17.73.03,17.73.03Z" style="fill: #fbb99d;"/>
    <path d="M296.46,138.95c.96-1.29,2.18-2.43,3.64-3.37,2.11-1.34,4.45-1.67,6.9-1.43,2.84.28,9.42,3.23,10.57,10.86.55,3.62-1.03,7.38-3.16,10.24-2.24,3.02-5.86,3.84-9.47,4.07-1.48.09-3.01.03-4.39-.5-1.78-.69-3.2-2.11-4.25-3.71-1.14-1.73-1.91-3.71-2.23-5.76-.61-3.83.23-7.51,2.39-10.41Z" style="fill: #53424d;"/>
    <path d="M293.83,168.9s4.39-5.28,4.74-11.8c.09-1.64,2.63-1.77,2.1-2.61-.52-.83,8.1-2.3,8.1-2.3,0,0-1.51,9.93,4.39,15.15l-19.32,1.56Z" style="fill: #fbb99d;"/>
    <path d="M298.49,158.18c0-2.01,2.16-4.09,1.52-5.11-.64-1.02,9.91-2.82,9.91-2.82,0,0-1.51,2.07-1.8,5.25-3.64,3.66-7.34,4.87-10.25,5.48l.62-2.79Z" style="fill: #dc8162;"/>
    <path d="M302.06,136.43c-3.83,2.62-12.3,14.04-6.87,20.78,2.32,2.88,10.54.44,15.49-5.07,2.04-2.26,3.02-7.83,1.34-13.03-.75-2.35-5.55-5.76-9.97-2.68Z" style="fill: #fbb99d;"/>
    <path d="M314.08,132.83c-.97.43-1.82,1.14-2.45,2-.61.84-1.44,2.34-1.03,3.39.31.79.97,1.37,1.45,2.08.42.62.69,1.33,1.12,1.94.76,1.07,1.9,1.81,2.91,2.61.98.78,2.06.6,3.22.21,1.86-.64,3.61-1.91,4.33-3.74.78-1.99-.59-4.12-1.78-5.64-.29-.37-.6-.72-.84-1.13-1.21-2.06-4.32-2.62-6.45-1.89-.16.05-.32.12-.47.18Z" style="fill: #53424d;"/>
    <path d="M296.02,141.06c.5,1.33.9-.59,4.01-1.34.38-.09.79-.11,1.19-.13.33,0,.68.01.99.13.68.25.94.9.95,1.58,0,1.49.64,2.69,1.45,3.89.9,1.32,1.64,2.63,1.85,4.24.06.48.04.92.21,1.36.22.54.31,1.13.27,1.71-.04.56-.2,1.11-.29,1.67-.13.85.01,1.43.59,2.02.23.24.49.45.77.63.57.37,1.23.62,1.91.71,1.58.21,3.07-.49,4.05-1.72,1.68-2.1,1.94-5.12,1.91-7.7-.02-1.83-.23-3.66-.53-5.46-.28-1.68-1.08-3.17-2.27-4.4-1.56-1.62-3.69-2.67-5.88-3.12-1.11-.23-2.26-.31-3.4-.21-5.39.47-8.19,5.11-7.79,6.15Z" style="fill: #53424d;"/>
    <path d="M306.05,151.11s3.2-2.39,4.75-1.49c1.56.91-1.14,5.22-4.45,4.31-3.29-.91-1.28-2.18-.3-2.82Z" style="fill: #fbb99d;"/>
    <g>
      <path d="M302.91,149.3c.08-.05-.09.05-.12.06-.13.06-.26.11-.4.14-.54.11-.82-.23-1-.68-.11-.28-.55-.07-.44.21.39.99,1.39,1.2,2.27.62.26-.17-.06-.52-.32-.35h0Z" style="fill: #1e100c;"/>
      <path d="M297.67,148.01c-.12.13-.27.26-.42.35-.51.29-.84-.01-1.08-.47-.14-.27-.58-.06-.44.21.29.54.75,1,1.43.81.37-.1.69-.36.93-.63.2-.23-.2-.5-.4-.26h0Z" style="fill: #1e100c;"/>
      <path d="M296.55,145.63c.78-.24,1.45.09,1.81.81.17.34.67.04.5-.3-.48-.95-1.44-1.41-2.48-1.08-.36.11-.2.68.16.56h0Z" style="fill: #513d38;"/>
      <path d="M301.42,147.12c.68-.44,1.42-.3,1.97.29.25.28.66-.15.41-.42-.72-.79-1.76-.96-2.68-.37-.32.21-.01.71.31.5h0Z" style="fill: #513d38;"/>
      <path d="M299.44,147.4c.15.52.22,1.11.07,1.63-.23.75-1.08,1.08-1.55,1.7-.65.85-.01,1.36,1.02,1.66.25.07.37-.24.12-.32-2.32-.67.39-1.85.75-2.82.23-.61.16-1.31-.02-1.92-.06-.21-.46-.14-.4.07h0Z" style="fill: #dc8162;"/>
      <path d="M300.94,153.38s.15,2.01-1.52,2.02c-1.67,0-1.85-1.8-1.85-1.8l3.37-.22Z" style="fill: #faffff;"/>
      <path d="M304.15,152.7c-.2.59-.85.91-1.44.71-.59-.2-.91-.85-.71-1.44.2-.59.85-.91,1.44-.71.59.2.91.85.71,1.44Z" style="fill: #f3a498;"/>
      <path d="M294.99,150.69c.5-.4,1.22-.31,1.62.18.4.5.31,1.22-.18,1.62-.5.4-1.22.31-1.62-.18-.4-.5-.31-1.22.18-1.62Z" style="fill: #f3a498;"/>
    </g>
    <path d="M307.19,153.41c.89,1.33,2.43,4.73-.59,4.34-2.15-.28-.82-2.63-.04-3.68.19-.25-.22-.52-.4-.27-1.16,1.56-2.18,4.45.78,4.46,3.23,0,1.69-3.57.62-5.16-.17-.26-.54.06-.37.32h0Z" style="fill: #fb8245;"/>
  </g>
  <path d="M128.95,159.57s2.59,1.13,2.58,5.6c2.33,3.83,2.48,8.18,2.68,11.54,1.22,20.88-7.07,24.17-5.38,28,3.03,6.88,41.79-3.63,40.11-10.81-7.27-31.17,8.36-30.94-7.25-38.87-5.56-2.82-27.54-1.77-32.74,4.54Z" style="fill: #fea603;"/>
  <path d="M167.28,213.35l4.83,57.32s8.19,3.47,15.14,0l6.08-48.74-10.86-13.84-15.2,5.26Z" style="fill: #94b8ed;"/>
  <path d="M128.2,208.08s-3.91,27.84,15.63,26.54c19.54-1.3,29.53-19.54,36.48-17.8,6.95,1.74,21.71,35.61,21.71,35.61,0,0,6.95,1.74,14.33-5.65,0,0-8.25-42.56-23.45-52.98-15.2-10.42-64.7,14.28-64.7,14.28Z" style="fill: #b3d0ff;"/>
  <path d="M173.24,168.92c.6,1.14,12.32,17.93,10.03,22.24-1.02,1.91-7.02,2.25-10.95-3.17-4.15-5.73-9.74-18.72-4.1-18.6,1.76.04,5.02-.47,5.02-.47Z" style="fill: #cc8c71;"/>
  <g>
    <path d="M204.91,190.14s-.77.66-.93.69c-2.37.47-23.25,6.29-25.76-1.3-3.72-11.23,8.99-3.77,24.37-2.77l2.32,3.38Z" style="fill: #cc8c71;"/>
    <path d="M195.94,187.76s6.74-1.97,10.47-1.06c4.59,1.12,7.36,4.55,6.87,5.72-.9,2.17-7.61-1.93-8.5-1.74-1.08.23-3.84.51-4.8.46-.97-.05-4.04-3.39-4.04-3.39Z" style="fill: #cc8c71;"/>
  </g>
  <path d="M133.08,177.83c.85-3.31.25-7.38-3.23-8.75-1.98-.78-4.26,1.32-6.01,3.4-4.19,4.99-13.32,27.9-7.32,33.34,5.52,5,13.86-17.52,16.56-27.99Z" style="fill: #cc8c71;"/>
  <path d="M166.94,157.22c-9.54-5.48-20.51-3.7-23.09-1.39-1.46,1.31,9.49,1.04,10.48,3.51,1.72,4.33,7,18.76,13.93,25.32,2.38,2.25,13.17-3.82,10.71-9.17-3.03-6.61-6.92-15.34-12.02-18.27Z" style="fill: #fea603;"/>
  <path d="M140.65,164.58c1-3.96,6.06-6.6,2.67-7.62-1.93-.58-8.22-2.97-13.61,1.68-6.36,5.48-7.1,11.14-11.48,19.52-1.47,2.81,12.06,9.66,14.54,4.81,3.68-7.21,5.67-9.62,7.89-18.38Z" style="fill: #fea603;"/>
  <path d="M154,170.25c2.19.32,3.13-3.71,3.13-3.71l-17.92-11.73h0s2,13.59,14.79,15.44Z" style="fill: #fdfefd;"/>
  <path d="M161.2,169.01c-2.56.72-4.07-2.48-4.07-2.48l3.15-12.1,3.26,1.15s4.82,11.4-2.35,13.43Z" style="fill: #fdfefd;"/>
  <path d="M163.55,155.59s-12.81-5.71-24.33-.78l17.92,11.73,6.41-10.95Z" style="fill: #fdfefd;"/>
  <path d="M142.8,153.61s4.02,12.84,13.67,12.95c4.49.05,5.95-3.53,3.48-7.03-2.44-3.45-17.15-5.92-17.15-5.92Z" style="fill: #cc8c71;"/>
  <path d="M160.27,159.22c.38.39,1.01.39,1.39,0,.38-.39.38-1.02,0-1.41-.38-.39-1.01-.39-1.39,0-.38.39-.38,1.02,0,1.41Z" style="fill: #fea603;"/>
  <path d="M159.67,157.53c.38.39,1.01.39,1.39,0,.38-.39.38-1.02,0-1.41-.38-.39-1.01-.39-1.39,0-.38.39-.38,1.02,0,1.41Z" style="fill: #fea603;"/>
  <path d="M158.69,155.78c.38.39,1.01.39,1.39,0,.38-.39.38-1.02,0-1.41s-1.01-.39-1.39,0c-.38.39-.38,1.02,0,1.41Z" style="fill: #fea603;"/>
  <path d="M144.35,152.93c.38.39,1.01.39,1.39,0,.38-.39.38-1.02,0-1.41-.38-.39-1.01-.39-1.39,0-.38.39-.38,1.02,0,1.41Z" style="fill: #fea603;"/>
  <g>
    <path d="M169.33,129.99c-2.69-4.29-4.79-5.09-9.13-6.13-2.84-.67-9.72,0-13.22,7.5-2.31,4.95,0,14.84,0,14.84,6.12,3.4,7.6,5.87,8.95,5.57,6.94-1.57,18.9-13,13.4-21.77Z" style="fill: #53424d;"/>
    <path d="M160.97,161.62s-2.49-6.66-.68-13.17c.46-1.64-1.95-2.62-1.17-3.27.78-.65-7.07-4.98-7.07-4.98,0,0-.17,10.65-9.25,13.4l18.16,8.01Z" style="fill: #cc8c71;"/>
    <path d="M160,149.53c.66-1.98-.74-4.74.22-5.53.96-.79-8.65-6.09-8.65-6.09,0,0,.78,2.54,0,5.75,2.31,4.82,5.48,7.25,8.1,8.82l.32-2.95Z" style="fill: #bf7c64;"/>
    <path d="M163.47,130.63c6.26,1.88,7.37,15.55-.16,20.77-3.22,2.23-10.32-3.24-13.23-10.82-1.2-3.11-.25-9.35,3.13-14.27,1.52-2.23,4.97,2.73,10.26,4.32Z" style="fill: #cc8c71;"/>
    <path d="M168.05,133.55c-.92,1.14-.67-.88-3.44-2.66-.34-.22-.73-.38-1.11-.52-.32-.12-.66-.22-1-.21-.74.01-1.21.56-1.44,1.23-.5,1.46-1.5,2.42-2.69,3.33-1.3.99-2.45,2.03-3.19,3.54-.22.45-.34.89-.65,1.26-.39.46-.67,1-.82,1.59-.15.57-.17,1.16-.27,1.74-.16.87-.48,1.4-1.24,1.79-.3.16-.62.27-.95.36-.68.17-1.4.2-2.08.06-1.6-.33-1.64-.41-2.18-1.94-.93-2.63-1.35-6.78-.47-9.31.63-1.79,1.43-3.52,2.32-5.19.82-1.55,2.09-2.75,3.65-3.56,2.04-1.06,4.46-1.39,6.72-1.09,1.15.15,2.29.46,3.35.93,5.05,2.27,6.23,7.76,5.5,8.66Z" style="fill: #53424d;"/>
    <path d="M155.03,140.05s-2.3-3.42-4.1-3.06c-1.81.37-.62,5.51,2.88,5.72,3.49.21,1.96-1.71,1.23-2.66Z" style="fill: #cc8c71;"/>
  </g>
  <path d="M144.46,152.48c-.4-.37-1.02-.35-1.39.05-.37.4-.35,1.04.05,1.41.4.37,1.02.35,1.39-.05.37-.4.35-1.04-.05-1.41Z" style="fill: #fea603;"/>
  <path d="M145.44,154.07c-.4-.38-1.02-.35-1.39.05-.37.4-.35,1.04.05,1.41.4.38,1.02.35,1.39-.05.37-.4.35-1.04-.05-1.41Z" style="fill: #fea603;"/>
  <path d="M145.06,157.05c.38.39,1.01.39,1.39,0,.38-.39.38-1.02,0-1.41-.38-.39-1.01-.39-1.39,0-.38.39-.38,1.02,0,1.41Z" style="fill: #fea603;"/>
  <path d="M146.29,158.53c.38.39,1.01.39,1.39,0,.38-.39.38-1.02,0-1.41-.38-.39-1.01-.39-1.39,0-.38.39-.38,1.02,0,1.41Z" style="fill: #fea603;"/>
  <path d="M147.63,159.9c.38.39,1.01.39,1.39,0s.38-1.02,0-1.41c-.38-.39-1.01-.39-1.39,0-.38.39-.38,1.02,0,1.41Z" style="fill: #fea603;"/>
  <path d="M149.29,160.79c.38.39,1.01.39,1.39,0,.38-.39.38-1.02,0-1.41-.38-.39-1.01-.39-1.39,0-.38.39-.38,1.02,0,1.41Z" style="fill: #fea603;"/>
  <path d="M150.94,161.55c.38.39,1.01.39,1.39,0,.38-.39.38-1.02,0-1.41-.38-.39-1.01-.39-1.39,0-.38.39-.38,1.02,0,1.41Z" style="fill: #fea603;"/>
  <path d="M152.58,162.48c.38.39,1.01.39,1.39,0,.38-.39.38-1.02,0-1.41-.38-.39-1.01-.39-1.39,0-.38.39-.38,1.02,0,1.41Z" style="fill: #fea603;"/>
  <path d="M154.4,162.79c.38.39,1.01.39,1.39,0,.38-.39.38-1.02,0-1.41-.38-.39-1.01-.39-1.39,0-.38.39-.38,1.02,0,1.41Z" style="fill: #fea603;"/>
  <path d="M156.29,162.55c.38.39,1.01.39,1.39,0,.38-.39.38-1.02,0-1.41-.38-.39-1.01-.39-1.39,0-.38.39-.38,1.02,0,1.41Z" style="fill: #fea603;"/>
  <path d="M158.1,162.05c.38.39,1.01.39,1.39,0,.38-.39.38-1.02,0-1.41-.38-.39-1.01-.39-1.39,0-.38.39-.38,1.02,0,1.41Z" style="fill: #fea603;"/>
  <path d="M159.59,160.89c.38.39,1.01.39,1.39,0,.38-.39.38-1.02,0-1.41-.38-.39-1.01-.39-1.39,0-.38.39-.38,1.02,0,1.41Z" style="fill: #fea603;"/>
  <path d="M166.15,178.21c-.39,1.62-.49,3.58.37,5.06.35.61,1.28.06.93-.55-.71-1.22-.58-2.88-.26-4.21.16-.68-.87-.98-1.04-.29h0Z" style="fill: #e08b03;"/>
  <path d="M147.29,145.15s-4.18,2.04-7.27,7.07c-4.38,7.15-5.83,24.07,12.83,24.07,0,0-6.83-24.5-3.17-29.52l-2.39-1.62Z" style="fill: #53424d;"/>
  <path d="M146.45,144.66l-.42,1.25s3.34,1.8,3.42,1.57c.09-.23,1.17-1.55,1.17-1.55l-4.18-1.27Z" style="fill: #2f7edd;"/>
  <g>
    <path d="M132.78,208.7s10.42,4.61,11.27,5.23c5.42,3.99,8.83,4.85,7.71,5.59-2.05,1.36-9.27-1.65-10.36-2.08-1.33-.53-4.59-2.16-5.66-2.87-1.07-.71-2.96-5.87-2.96-5.87Z" style="fill: #cc8c71;"/>
    <path d="M116.98,206.21c5.13,4.58,24.43,11.27,24.43,11.27l-1.02-4.5-18.82-15.34s-9.72,3.99-4.59,8.57Z" style="fill: #cc8c71;"/>
  </g>
  <path d="M135.34,174.93c.39,1.62.49,3.58-.37,5.06-.35.61-1.28.06-.93-.55.71-1.22.58-2.88.26-4.21-.16-.68.87-.98,1.04-.29h0Z" style="fill: #e08b03;"/>
  <g>
    <path d="M157.89,139.83c-.07-.07.08.07.11.09.13.1.26.19.41.25.58.24.97-.06,1.28-.52.19-.29.63.05.44.33-.67,1.02-1.83,1.01-2.68.16-.25-.25.19-.57.44-.32h0Z" style="fill: #1e100c;"/>
    <path d="M164.04,139.62c.1.18.24.35.39.48.5.44.94.18,1.32-.27.22-.27.67.07.44.33-.44.53-1.07.94-1.78.57-.38-.2-.68-.56-.89-.92-.17-.31.34-.5.51-.2h0Z" style="fill: #1e100c;"/>
    <path d="M165.85,137.22c-.81-.45-1.64-.24-2.21.48-.27.34-.76-.12-.49-.45.76-.95,1.93-1.23,3.02-.63.37.21.07.8-.31.59h0Z" style="fill: #552b19;"/>
    <path d="M160.07,137.74c-.66-.66-1.52-.67-2.26-.13-.35.25-.7-.32-.35-.57.99-.71,2.19-.66,3.07.22.3.3-.15.79-.46.48h0Z" style="fill: #552b19;"/>
    <path d="M162.21,138.52c-.29.54-.51,1.19-.46,1.8.08.89.95,1.46,1.33,2.26.52,1.1-.3,1.52-1.53,1.62-.3.02-.36-.36-.06-.38,2.75-.21,0-2.16-.18-3.33-.11-.73.12-1.5.47-2.14.12-.22.55-.05.43.17h0Z" style="fill: #bf7c64;"/>
    <path d="M159.14,144.85s-.63,2.21,1.23,2.61c1.86.4,2.48-1.57,2.48-1.57l-3.71-1.03Z" style="fill: #faffff;"/>
    <path d="M155.74,143.55c.09.71.74,1.22,1.45,1.13.71-.09,1.22-.73,1.13-1.45-.09-.71-.74-1.22-1.45-1.13-.71.09-1.22.74-1.13,1.45Z" style="fill: #c1775d;"/>
    <path d="M167.04,142.61c-.46-.56-1.29-.64-1.85-.17-.56.46-.64,1.29-.17,1.85.46.56,1.29.64,1.85.17.56-.46.64-1.29.17-1.85Z" style="fill: #c1775d;"/>
  </g>
  <path d="M127.43,189.58c-1.26-.07-51.03,1.47-55.84,6.3-4.82,4.82,9.63,63.56,15.25,67.53,5.62,3.97,38.93,3.4,38.93,3.4l1.67-77.23Z" style="fill: #908dce;"/>
  <path d="M138.5,197.75c-1.05-3.84-4.36-6.91-8.67-7.81-2.74-.57-5.94-.74-8.49.55-5.62,2.84-2.03,76.35-2.03,76.35l18.48-.03s5.95-49.81.7-69.06Z" style="fill: #b6ace9;"/>
  <path d="M133.95,266.38c1.26-9.61,2.14-19.29,2.7-28.96.71-12.07,2.57-27.44-2.16-38.98-2.2-5.36-7.09-7.28-9.97-1.37-4.89,10.04-3.17,24.85-2.81,35.56.39,11.36,1.44,22.65,2.43,33.97.07.76,1.25.76,1.19,0-1.64-18.91-3.81-38.12-2.12-57.1.33-3.72.48-10.67,3.35-13.62,4.43-4.56,7.09,3.18,7.89,6.67,2.74,11.91,1.65,25.08.87,37.16-.58,8.91-1.4,17.82-2.56,26.67-.1.76,1.09.75,1.19,0h0Z" style="fill: #a29cdb;"/>
  <path d="M266.6,110.48c3.77,8.3.11,18.09-8.2,21.87-8.3,3.77-18.09.11-21.87-8.2-3.77-8.3-.11-18.09,8.2-21.87,8.3-3.77,18.09-.11,21.87,8.2Z" style="fill: #94b8ed;"/>
  <path d="M268.24,90.88c3.68,8.09.1,17.62-7.98,21.3-8.09,3.68-17.62.1-21.3-7.98-3.68-8.09-.1-17.62,7.98-21.3,8.09-3.68,17.63-.1,21.3,7.98Z" style="fill: #94b8ed;"/>
  <path d="M247.11,98.23c4.2,9.24.12,20.14-9.13,24.35-9.24,4.2-20.14.12-24.35-9.13-4.2-9.24-.12-20.14,9.12-24.35,9.24-4.2,20.14-.12,24.35,9.12Z" style="fill: #94b8ed;"/>
  <path d="M244.78,117.02c3.07,6.76.09,14.72-6.67,17.8-6.76,3.07-14.72.09-17.8-6.67-3.07-6.76-.09-14.72,6.67-17.8,6.76-3.07,14.72-.09,17.8,6.67Z" style="fill: #94b8ed;"/>
  <path d="M225,88.08c2.1,4.62.06,10.07-4.56,12.17-4.62,2.1-10.07.06-12.17-4.56-2.1-4.62-.06-10.07,4.56-12.17,4.62-2.1,10.07-.06,12.17,4.56Z" style="fill: #94b8ed;"/>
  <path d="M279.72,124.14c1.3,2.86.04,6.23-2.82,7.54s-6.23.04-7.54-2.82c-1.3-2.86-.04-6.23,2.82-7.54,2.86-1.3,6.23-.04,7.54,2.82Z" style="fill: #94b8ed;"/>
  <path d="M287.54,128.23c.75,1.65.02,3.6-1.63,4.35-1.65.75-3.6.02-4.35-1.63-.75-1.65-.02-3.6,1.63-4.35,1.65-.75,3.6-.02,4.35,1.63Z" style="fill: #94b8ed;"/>
  <g>
    <path d="M240.11,118.69c-12.4-3.54-13.03-10.84-13.05-11.18l.75-.05c0,.09.81,8.85,17.26,11.55,5.58.92,9.52-.02,10.82-2.57.93-1.83.29-4.23-1.64-6.11-.18-.17-.38-.35-.6-.53-1.8,1.52-4.93,2.37-8.5,2.24-5.59-.21-14.2-3.39-15.92-6.66-.41-.78-.4-1.54.02-2.2.37-.59,1.16-.96,2.33-1.09.9-.1,2.01-.08,3.25.06.29-.4.76-.82,1.53-1.21,1.52-.78,5.67-.97,9.69-.32-.56-.73-1.46-1.4-2.69-1.98-4.85-2.29-12.36-2.92-16.53-.03-2.3,1.59-3.32,4.03-3.06,7.26l-.75.06c-.28-3.46.89-6.21,3.38-7.94,4.56-3.16,12.31-2.38,17.28-.03,1.92.91,2.9,1.93,3.37,2.84,3.35.67,6.43,1.94,7.62,3.97.74,1.26.75,2.61.03,3.8-.15.25-.32.48-.52.7.21.17.41.35.58.52,2.16,2.12,2.86,4.86,1.78,6.99-1.45,2.86-5.68,3.94-11.61,2.97-1.78-.29-3.39-.65-4.84-1.07ZM234.49,102.87c-1.08-.11-2.04-.13-2.83-.04-.92.11-1.54.37-1.78.75-.27.43-.27.9.01,1.44,1.45,2.76,9.45,6.04,15.28,6.26,3.31.13,6.19-.61,7.85-1.95-1.79-1.26-4.52-2.56-7.49-3.66-.51.35-1.11.63-1.76.79-4.06,1.03-8.46-.55-9.21-2.55-.1-.26-.17-.63-.08-1.04ZM235.25,102.96c-.07.21-.07.44.03.69.57,1.51,4.4,3.08,8.32,2.09.37-.09.71-.22,1.03-.39-3.21-1.13-6.61-2.02-9.38-2.39ZM246.23,105.12c2.93,1.12,5.59,2.42,7.36,3.7.18-.2.34-.41.47-.63.58-.96.56-2.01-.04-3.03-1-1.71-3.67-2.84-6.65-3.48.09.4.1.77.07,1.06-.09.88-.53,1.72-1.22,2.4ZM246.54,101.5c-4.04-.74-8.39-.64-9.84.11-.34.18-.7.39-.98.66,2.93.42,6.44,1.37,9.71,2.56.71-.59,1.18-1.36,1.26-2.17.04-.39-.01-.77-.15-1.15Z" style="fill: #fff;"/>
    <polygon points="221.41 104.36 223.11 107.98 224.76 104.31 221.41 104.36" style="fill: #fff;"/>
    <polygon points="229.39 108.68 227.33 105.24 226.07 109.06 229.39 108.68" style="fill: #fff;"/>
  </g>
</svg>