<?xml version="1.0" encoding="UTF-8"?>
<svg id="Layer_1" data-name="Layer 1" xmlns="http://www.w3.org/2000/svg" viewBox="0 0 2525.27 1563.99">
  <path d="M185.51,1560.72S-190.23,908.85,127.78,524.63c323.02-390.27,581.51-122.63,747.65-117.24,201.71,6.54,271.2-110.58,376.89-230.11,92.41-104.52,228.78-205.69,607.35-169.95,378.57,35.74,628.62,322.55,648.55,545.71,10.79,120.81-21.31,212.13-41.52,296.8-17.12,71.73-68.85,141.58-14.46,247.26,123.52,240.03,14.17,462.06,11.92,462.06l-2278.65,1.56Z" style="fill: #bde3e1;"/>
  <ellipse cx="977.7" cy="247.37" rx="123.71" ry="66.37" transform="translate(-3.87 478.91) rotate(-27.47)" style="fill: #bde3e1;"/>
  <ellipse cx="797.1" cy="218.76" rx="45.41" ry="24.37" transform="translate(-22.04 329.4) rotate(-23.04)" style="fill: #bde3e1;"/>
  <g>
    <path d="M1935.11,1534.17h107.63v-369.06h23.91v369.06h104.84c14.63,0,26.49,11.89,26.49,26.55h-289.36c0-14.66,11.86-26.55,26.49-26.55Z" style="fill: #683d46;"/>
    <polygon points="2365.94 639.69 2118.57 639.69 1987.71 1210.78 2271.18 1181.16 2365.94 639.69" style="fill: #fec786;"/>
    <path d="M1799.32,1152.61s325.09,0,422.11,0c15.66,0,29.08-11.2,31.92-26.63l86.26-468.12c2.32-12.58,14.58-20.79,27.14-18,11.97,2.66,19.44,14.69,17.22,26.77l-97.72,530.31c-.76,4.11-2.59,7.74-5.14,10.69-6.29,11.71-18.63,19.67-32.82,19.67h-448.97c-20.57,0-37.25-16.72-37.25-37.34h0c0-20.62,16.68-37.34,37.25-37.34Z" style="fill: #f99247;"/>
    <path d="M2221.43,1154.43c16.53,0,30.71-11.83,33.71-28.12l86.26-468.12c1.03-5.61,4.22-10.44,8.97-13.59,4.74-3.15,10.42-4.2,16-2.96.98.22,1.95-.4,2.17-1.38.22-.98-.4-1.95-1.38-2.17-6.54-1.45-13.22-.21-18.79,3.49-5.58,3.7-9.32,9.37-10.53,15.96l-86.26,468.12c-2.68,14.57-15.36,25.14-30.14,25.14-1,0-1.82.82-1.82,1.82s.81,1.82,1.82,1.82Z" style="fill: #21111d;"/>
    <path d="M2059.84,1229.43h0l176.1-.32c47.44,4.29,53.08-36.4,53.35-38.64l10.47-56.82c.18-.99-.47-1.94-1.46-2.12-.99-.18-1.93.47-2.12,1.46l-10.5,57.02c-.16,1.62-4.54,39.57-49.5,35.46h-.17s-176.18.31-176.18.31c-1,0-1.81.82-1.81,1.82,0,1,.81,1.82,1.82,1.82Z" style="fill: #21111d;"/>
    <path d="M2270.64,641.51h0l86.56-.13c1,0,1.82-.82,1.81-1.82,0-1.01-.81-1.82-1.82-1.82h0l-86.56.13c-1,0-1.82.82-1.81,1.82s.81,1.82,1.82,1.82Z" style="fill: #21111d;"/>
    <g>
      <path d="M1777.91,557.14s37.87-21.04,127.72,10.5c89.86,31.53,154.75,131.61,179.71,197.67,24.96,66.05,53.91,257.21,37.94,277.22-15.97,20.02-368.4-171.52-368.4-171.52l-23.3-248.05,46.32-65.82Z" style="fill: #ef3a4c;"/>
      <polygon points="1460.41 1433.34 1432.33 1488.93 1516.95 1537.68 1536.72 1498.57 1530.42 1464.87 1460.41 1433.34" style="fill: #fe9f73;"/>
      <path d="M1505.03,1555.32h-139.75c-1.26-.21-2.29-.43-3.04-.67-10.08-3.27-9.77-9.62-9.08-12.39.2-.81.7-1.5,1.39-1.96l77.8-51.37,25.52,11.51c8.12,3.68,16.78,6.03,25.65,6.9,18.11,1.77,47.44,2.71,53.22-8.76l-1.19,44.03s4.11,13.05-30.5,12.72Z" style="fill: #ef3a4c;"/>
      <path d="M1573.16,978.48s-118.81,328.26-152.76,471.38c0,0,57.91,57.05,130.79,51.04l101.84-227.18-79.87-295.24Z" style="fill: #3a1c32;"/>
      <polygon points="1800.05 1179.13 1854.39 1401.15 1859.76 1498.57 1839.99 1537.68 1761.11 1508.03 1655.51 1156.62 1800.05 1179.13" style="fill: #fe9f73;"/>
      <path d="M1664.02,888.67s-84.73-8.77-102.5,70.58c-10.02,44.75,47.27,229.57,93.52,363.89,28.71,83.38,61.14,164.26,61.14,164.26,0,0,105.14,2.5,156.87-34.53l-69.88-313.69s188.32,61.49,256.21,5.44c67.89-56.05,63.9-102.08,63.9-102.08l-135.78-109.09-323.48-44.77Z" style="fill: #49263e;"/>
      <path d="M2007.97,835.86l-136.79-34.07-1.68,76.62s-87.29-18.62-148.58-28.31l-51.47,74.79c12.28,3.29,74.95,20.83,92.65,28.56,0,0,170.98,72.06,210.91,55.04,39.94-17.01,34.94-172.64,34.94-172.64Z" style="fill: #fe9f73;"/>
      <path d="M1898.69,903.18c.36,0,.72-.15.96-.45.44-.53.36-1.32-.17-1.76l-28.57-23.58c-.53-.44-1.32-.36-1.75.17-.44.53-.36,1.32.17,1.76l28.57,23.58c.23.19.51.28.79.28Z" style="fill: #f07162;"/>
      <path d="M1661.27,542.7s-3.74,3.68-1,11.06,20.34,43.78,20.34,43.78c0,0-25.12,217-25.1,252.8.02,35.8,115.33,18.76,115.33,18.76,0,0-22.46-268.25-35.94-280.61-13.48-12.35-73.63-45.8-73.63-45.8Z" style="fill: #f9956e;"/>
      <path d="M1649.74,528.74l46.31,62.49s14.05,20.71,33.45,10.16l16.59,29.24c6.17,10.87,19.18,15.98,30.97,11.9,5.77-1.99,12.14-5.06,18.46-9.77,20.04-14.92,19.73-38.07,15.82-46.85-3.91-8.78-35.6-41.04-35.6-41.04l-12.5-18.14-53.06-66.83-60.43,68.83Z" style="fill: #fe9f73;"/>
      <path d="M1757.5,554.05s23.74,34.5-15.77,68.91l-12.24-21.57s31.22-14.76,28.01-47.34Z" style="fill: #f07162;"/>
      <path d="M1722.41,525.48c.21-.15.36-.39.41-.66.1-.57-.29-1.1-.85-1.2-.2-.03-20.42-3.26-24.63,13.03-.14.56.19,1.13.75,1.27.56.15,1.12-.19,1.27-.75,3.73-14.43,21.52-11.63,22.27-11.5.29.05.57-.03.79-.19Z" style="fill: #49263e;"/>
      <path d="M1744.68,495.27l-15.24,17.18-.75,5.81s-20.88-31.45-21.9-39.93c-1.02-8.48,37.89,16.94,37.89,16.94Z" style="fill: #49263e;"/>
      <path d="M1684.27,546.09c.23-.17.39-.45.42-.76.04-.57-.39-1.07-.96-1.12-.55-.04-13.58-.94-15.41,7.14-.13.56.22,1.12.78,1.25.56.13,1.12-.22,1.24-.79,1.43-6.33,13.11-5.53,13.22-5.52.26.02.5-.06.7-.2Z" style="fill: #49263e;"/>
      <path d="M1708.04,541.44c1.03,1.39,2.98,1.68,4.37.65,1.38-1.03,1.67-2.99.64-4.38-1.03-1.39-2.98-1.68-4.37-.65s-1.67,2.99-.64,4.38Z"/>
      <path d="M1679.55,558.76c1.03,1.39,2.98,1.68,4.37.65,1.38-1.03,1.67-2.99.64-4.38-1.03-1.39-2.98-1.68-4.37-.65-1.38,1.03-1.67,2.99-.64,4.38Z"/>
      <path d="M1728.08,525.16c6.17,8.32,17.89,10.06,26.2,3.87,8.3-6.18,10.03-17.94,3.87-26.26-6.17-8.32-17.89-10.06-26.2-3.87-8.3,6.18-10.03,17.94-3.87,26.26Z" style="fill: #fe9f73;"/>
      <path d="M1751.94,520.37c3.12-2.32,3.46-6.23,2.41-9.09-1.25-3.39-4.18-5.39-7.47-5.12-4.86.41-6.9,3.98-7.69,6.15-.62-2.19-.52-4.2.29-5.97,1.75-3.84,6.31-5.38,6.35-5.4.27-.09.42-.38.33-.66-.09-.27-.38-.42-.66-.33-.2.07-5.02,1.7-6.97,5.95-1.12,2.46-1.04,5.26.23,8.34l.72,1.73.28-1.85c.04-.26,1.03-6.41,7.2-6.93,3.42-.29,5.59,2.21,6.41,4.44.85,2.31.82,5.75-2.05,7.89-.03.02-.06.04-.09.06-.23.17-.28.49-.11.72.17.23.49.29.73.12.03-.02.06-.04.09-.07Z" style="fill: #f07162;"/>
      <path d="M1711.75,564.96c.18-.13.26-.36.18-.58-.09-.27-.38-.42-.66-.33l-10.43,3.46-11.99-21.71c-.14-.25-.46-.34-.71-.2-.26.14-.34.46-.2.71l12.41,22.47,11.24-3.73c.05-.02.1-.04.15-.08Z" style="fill: #f07162;"/>
      <path d="M1716.1,572.71c-.21,0-.42-.08-.59-.24-.33-.32-.34-.86-.02-1.19.18-.19,4.5-4.63,11.8-8.6.4-.22.92-.07,1.14.34.22.41.07.92-.34,1.14-7.06,3.84-11.35,8.25-11.39,8.29-.16.17-.39.26-.61.26Z" style="fill: #f07162;"/>
      <path d="M1767.35,644.83c-15.99,0-21.98-13.72-22.04-13.86l-14.48-28.35c-19.45,9.83-35.29-10.66-35.45-10.87l-46.31-62.5c-.28-.37-.2-.9.17-1.18.37-.28.9-.2,1.18.17l46.31,62.49c.62.82,15.54,20.07,34.06,10l.76-.41,15.29,29.93c.26.62,6.06,13.76,22.09,12.84.52-.05.86.33.89.79.03.47-.33.87-.79.89-.57.03-1.13.05-1.67.05Z" style="fill: #f07162;"/>
      <path d="M1744.68,495.27s-16.67-33.12-33.73-37.38c-17.07-4.26-82.68,14.9-84.86,25.01-2.18,10.11,8.97,12.11,8.97,12.11,0,0-25.57,8.74-16.64,30.57,8.93,21.84,59.13-3.43,79.26-31.75,0,0,21.32-7.92,47,1.44Z" style="fill: #49263e;"/>
      <path d="M1794,645.62c-.71,0-1.37-.46-1.6-1.17-.29-.89.2-1.84,1.08-2.13,35.08-11.37,21.5-60.48,21.36-60.98-.26-.9.26-1.83,1.15-2.09.89-.25,1.83.26,2.08,1.16.15.53,14.61,52.75-23.57,65.12-.17.06-.35.08-.52.08Z" style="fill: #21111d;"/>
      <path d="M2017.5,839.92l-166.46-41.41-.22-1.04c-.22-1.04-21.74-104.7-21-159.05.76-55.34,21.22-63.19,22.09-63.49.88-.31,1.84.15,2.15,1.03.31.88-.15,1.84-1.02,2.15-.31.12-19.14,7.94-19.85,60.36-.7,51.07,18.46,146.27,20.72,157.27l160.01,39.81c-.81-16.63-5.93-119.85-10.37-157.12-.11-.93.55-1.77,1.47-1.88.93-.11,1.76.55,1.87,1.48,4.82,40.5,10.44,158.44,10.49,159.62l.11,2.27Z" style="fill: #21111d;"/>
      <path d="M2009.7,726.95c-.37,0-.75-.12-1.06-.38-.72-.59-.83-1.65-.25-2.38,4.63-5.72,11.7-22.71,11.77-22.88.36-.86,1.34-1.27,2.2-.91.86.36,1.27,1.35.91,2.21-.3.72-7.33,17.61-12.26,23.71-.33.41-.82.63-1.31.63Z" style="fill: #21111d;"/>
      <path d="M2013.79,801.92c-.3,0-.61-.08-.89-.25-30.17-18.76-168.86-53.19-170.25-53.54-.9-.22-1.46-1.14-1.23-2.04.22-.9,1.14-1.46,2.04-1.24,5.73,1.42,140.6,34.91,171.22,53.95.79.49,1.03,1.53.54,2.33-.32.51-.87.8-1.43.8Z" style="fill: #21111d;"/>
      <path d="M1716.56,1489.08h-1.51s-.42-1.05-.42-1.05c-43.97-107.46-171.8-478.36-153.46-535,15.36-47.43,56.29-59.64,56.71-59.76.9-.25,1.82.26,2.08,1.16.26.9-.26,1.83-1.16,2.09-.39.11-39.64,11.89-54.43,57.56-18.04,55.71,108.69,423.11,152.94,531.63,8.81-.03,67.56-.77,109.91-13.73.89-.28,1.83.23,2.1,1.12.27.89-.23,1.84-1.12,2.11-44.29,13.56-106.13,13.88-111.65,13.88Z" style="fill: #21111d;"/>
      <path d="M1823.9,1227.27c-.77,0-1.46-.53-1.64-1.32l-26.01-115.53c-.2-.91.37-1.81,1.27-2.02.9-.2,1.81.36,2.01,1.28l26.01,115.53c.2.91-.37,1.81-1.27,2.02-.12.03-.25.04-.37.04Z" style="fill: #21111d;"/>
      <path d="M1906.24,1163.66c-45.98-6.02-101.39-21.9-102.06-22.1-.9-.26-1.41-1.19-1.15-2.09.26-.9,1.19-1.42,2.08-1.16.81.23,81.4,23.33,128.38,24.21.94.02,1.67.79,1.65,1.72-.02.93-.79,1.68-1.72,1.66-8.25-.15-17.51-.98-27.19-2.25Z" style="fill: #21111d;"/>
      <g>
        <path d="M1659.43,925.12h0c5.5-1.66,40.17,2.43,52.89,4.78.04-.05.07-.08.07-.08l63.99,13.27,1.53-82.99s-75.42-14.38-86.56-15.51c-11.13-1.13-49.76,7.53-62.07,16.12-22.34,15.59-9.6,17.9-9.6,17.9-21.7,18.38-.58,19.6-.58,19.6-20.88,14.76-1.22,19.76-1.22,19.76-10.39,9.07-8.74,14.01-5.56,16.56,2.33,1.86,5.45,2.38,8.33,1.6,6.71-1.81,23.53-6.39,38.77-10.99h0Z" style="fill: #fe9f73;"/>
        <path d="M1642.81,905.74c.57.02,1.08.39,1.25.97.21.71-.2,1.46-.92,1.67-10,2.92-24.49,10.68-24.63,10.75-.65.35-1.47.1-1.82-.55-.35-.66-.1-1.47.55-1.83.6-.32,14.88-7.97,25.16-10.97.14-.04.28-.06.42-.05Z" style="fill: #f07162;"/>
        <path d="M1643.32,888.67c.64.02,1.19.49,1.29,1.14.11.74-.39,1.42-1.12,1.54-12.52,1.95-23.63,7.96-23.74,8.02-.66.36-1.47.11-1.83-.54-.36-.65-.12-1.47.54-1.83.47-.26,11.62-6.29,24.62-8.32.08-.01.17-.02.25-.01Z" style="fill: #f07162;"/>
        <path d="M1640.91,869.11c.62.02,1.16.47,1.28,1.1.13.73-.35,1.43-1.08,1.57-10.76,2-20.65,7.9-20.74,7.96-.64.39-1.46.18-1.85-.46-.38-.64-.18-1.47.46-1.85.42-.25,10.4-6.21,21.64-8.3.1-.02.19-.02.29-.02Z" style="fill: #f07162;"/>
      </g>
      <path d="M1595.07,1025.3c-.92,0-1.67-.74-1.68-1.66-.38-23.41,8.42-41.31,8.79-42.06.41-.83,1.42-1.17,2.26-.76.83.42,1.17,1.43.76,2.26-.09.18-8.8,17.95-8.43,40.5.01.93-.73,1.7-1.66,1.72h-.03Z" style="fill: #21111d;"/>
      <path d="M1603.68,1036.93c-.87,0-1.61-.67-1.68-1.56-1.14-14.85,7.24-36.96,7.59-37.89.33-.87,1.31-1.3,2.18-.97.87.33,1.3,1.31.97,2.18-.08.22-8.46,22.34-7.38,36.42.07.93-.62,1.74-1.55,1.81-.04,0-.09,0-.13,0Z" style="fill: #21111d;"/>
      <path d="M1544.45,1502.71c-80.87,0-124.89-51.23-125.34-51.76l-.54-.64.19-.82c27.66-120.8,142.05-441.54,143.21-444.77.31-.88,1.28-1.34,2.15-1.02.88.32,1.33,1.28,1.02,2.16-1.15,3.22-114.95,322.29-142.9,443.54,5.4,5.96,50.34,52.6,128.9,49.82.98-.06,1.71.7,1.74,1.63.03.93-.7,1.72-1.62,1.75-2.29.08-4.57.12-6.8.12Z" style="fill: #21111d;"/>
      <path d="M1828.17,1555.32h-139.84c-1.26-.21-2.29-.43-3.04-.67-8.97-2.91-9.72-8.26-9.3-11.35.19-1.37.97-2.59,2.12-3.35l77.26-51.02,25.52,11.51c8.12,3.68,16.78,6.03,25.65,6.9,18.11,1.77,47.44,2.71,53.22-8.76l-1.19,44.03s4.22,13.05-30.39,12.72Z" style="fill: #ef3a4c;"/>
    </g>
  </g>
  <path d="M1715.25,420.44c-31.07,0-54.62-3.98-70.02-11.82-7.07,2.1-14.58,3.16-22.31,3.17h0c-15.89,0-31.05-4.49-42.67-12.65-12.79-8.97-20.33-21.62-21.85-36.62-11.03-4.83-17.35-11.28-18.78-19.17-1.83-10.1,4.52-22.25,18.87-36.11-23.58-36.91-24.08-75.2-1.31-105.2,17.47-23.01,38.15-36.21,56.74-36.21,9.95,0,18.68,3.87,24.58,10.9,6.38,7.59,9.05,18.25,7.66,30.29,15.92-9.57,31.84-11.5,47.01-5.68,4.04-2.35,8.73-4.5,13.96-6.4,4.12-1.49,8.54-2.25,13.15-2.25,17.42,0,37.36,10.57,56.14,29.76,17.99,18.38,32.43,42.4,39.59,65.88,5.31,17.41,6.47,34.13,3.34,48.35-3.5,15.91-12.13,28.75-25.65,38.16,1.72,9.83-.27,18.32-5.94,25.24-11.06,13.51-35.46,20.36-72.5,20.36ZM1649.34,407.26c14.99,6.75,37.13,10.18,65.91,10.18,35.6,0,59.87-6.66,70.19-19.26,4.84-5.91,6.68-13.13,5.51-21.52-8,5.06-17.58,9-28.52,11.73-27.35,6.83-57.04,6.63-86.25-.56h0s-.01,0-.01,0c-6.36,8.67-15.57,15.33-26.83,19.43ZM1561.55,363.81c4.08,30.88,34.32,44.98,61.36,44.98h0c6.4,0,12.62-.76,18.56-2.25-13.36-8.08-19.39-19.5-17.94-34h-.03,0c-18.76-.12-43.82-1.81-61.95-8.72ZM1626.55,372.54c-1.52,14.25,4.86,25.3,18.98,32.85,11.53-3.64,20.99-9.96,27.49-18.37-13.28-3.5-26.36-8.4-38.9-14.58-2.53.06-5.08.09-7.57.09ZM1677.98,385.18c28.39,6.82,57.18,6.94,83.73.3,11.1-2.77,20.74-6.81,28.66-12.01-2.62-11.73-10.83-25.47-23.84-39.88-.38.37-.76.74-1.14,1.1-3.55,22.32-16.5,40.28-35.57,49.33-4.26,2.02-8.74,3.04-13.33,3.04-10.6,0-21.76-5.42-32.38-15.7-1.38,4.96-3.43,9.6-6.13,13.83ZM1640.67,372.24c11.11,5.1,22.59,9.18,34.23,12.18,3.12-4.67,5.39-9.88,6.76-15.53-.07-.08-.14-.15-.22-.23h0s0,0,0,0c-13.41,1.83-27.37,3.05-40.77,3.58ZM1685.12,368.14c7.42,7.44,18.66,15.92,31.38,15.92,4.14,0,8.19-.93,12.05-2.75,17.07-8.09,28.98-23.71,33.18-43.25-13.71,12.04-29.57,20.43-46.12,24.35-9.46,2.24-19.71,4.17-30.48,5.74ZM1768.66,331.47c12.98,14.36,21.35,28.17,24.36,40.18,32.23-23.32,26.52-61.51,20.13-82.44-3.1-10.15-7.46-20.12-12.73-29.54,2.35,20.37-10.26,49.69-31.76,71.79h0s0,0,0,0ZM1627.11,368.82c-.05.24-.09.48-.13.71.48,0,.96,0,1.45,0-.44-.23-.88-.47-1.32-.7ZM1561.22,360.45c14.31,5.81,35.95,8.94,62.72,9.08.12-.73.26-1.48.42-2.22-21.47-12.01-40.33-27.47-54.75-44.88-1.01,2.48-2,4.98-2.97,7.49-4.23,10.89-6.05,21.16-5.41,30.54ZM1627.8,365.78c2.3,1.25,4.65,2.48,6.99,3.64,14.35-.35,29.56-1.54,44.2-3.47-6.55-7.46-12.37-16.35-16.95-25.93-8.39,1.84-16.67,2.99-24.09,3.33-4.96,7.97-8.37,15.51-10.15,22.42ZM1665.03,339.35c4.65,9.54,10.75,18.66,17.37,25.94.46-2.7.72-5.51.8-8.38.19-7.43,0-14.91-.58-22.79-5.6,2.03-11.5,3.78-17.59,5.24ZM1685.54,333.02c.63,8.3.85,16.15.65,23.96-.07,2.75-.31,5.46-.72,8.08,10.4-1.54,20.3-3.41,29.44-5.57,17.23-4.08,33.71-13.16,47.68-26.26.16-1.13.3-2.27.42-3.42-16.17-16.97-38.05-34.07-63.35-49.51-1.49,1.13-2.97,2.27-4.44,3.41,5.32,3.06,10.8,7.13,16.32,12.13,4.36,3.95,6.14,8.26,5.28,12.8-2.16,11.43-20.06,20.05-31.29,24.39ZM1570.9,319.28c14.15,17.43,32.84,32.95,54.2,45,1.77-6.5,4.87-13.47,9.26-20.79h-.04s.03-.04.03-.04c-.33,0-.64-.03-.97,0-15.65,0-25.35-3.9-28.03-11.27-3.74-10.26,6.68-25.87,30.97-46.4,11.5-9.72,19.14-18.91,22.74-27.36-9.66-4.54-19.5-8.74-29.3-12.47-10.7,15.19-26.01,30.02-45.53,44.09-4.62,9.23-9.1,19.06-13.32,29.23ZM1560.16,309.79c-13.3,12.95-19.22,24.05-17.6,33.02,1.18,6.52,6.42,12,15.59,16.31-.38-9.4,1.53-19.57,5.69-30.29,1.18-3.03,2.39-6.07,3.61-9.05h0,0c-2.6-3.28-5.05-6.63-7.3-9.99ZM1661.75,259.72c-3.81,8.85-11.71,18.39-23.52,28.37-28.93,24.45-32.33,36.92-30.09,43.08,2.19,6,11.15,9.3,25.23,9.3.94,0,1.91-.01,2.88-.04,4.75-7.43,10.78-15.2,17.94-23.13-1.52-7.65-1.57-14.46-.13-19.75,4.24-15.55,12.95-19.62,20.03-20.08-.72-3.97-1.51-8.39-2.17-12.7-3.36-1.72-6.78-3.41-10.18-5.04ZM1655,320.88c-5.87,6.62-10.92,13.11-15.06,19.36,6.49-.42,13.59-1.45,20.8-3-2.47-5.53-4.42-11.1-5.74-16.36ZM1657.44,318.18c1.29,5.82,3.45,12.14,6.28,18.39,6.41-1.51,12.81-3.42,18.65-5.57-1.02-12.11-2.79-23.29-4.48-32.88-7.5,6.68-14.37,13.41-20.46,20.05ZM1680.53,295.81c1.75,9.83,3.65,21.43,4.76,34.09,16.6-6.55,27.25-14.64,28.61-21.83.65-3.44-.81-6.81-4.35-10.01-5.64-5.11-11.45-9.36-16.86-12.35-4.17,3.32-8.25,6.72-12.15,10.11ZM1766.11,328.71c.17.18.34.36.51.54,23.59-24.33,36.5-58.67,28.85-77.17-3.16-7.63-9.43-11.51-18.64-11.51s-20.2,3.7-33.44,11c16.82,27.11,24.67,53.74,22.72,77.13ZM1702.24,278.34c24.14,14.83,45.15,31.15,61.07,47.44,1.1-22.13-6.64-47.17-22.53-72.74-13.15,7.53-26.1,16.03-38.55,25.29ZM1562.36,307.69c1.99,3,4.14,5.98,6.41,8.91,3.27-7.82,6.69-15.42,10.21-22.71-6.35,4.78-11.92,9.4-16.63,13.79ZM1674.65,280.43c-8.61.39-14.56,6.41-17.69,17.9-1.18,4.35-1.26,9.9-.22,16.2,6.15-6.59,13.05-13.26,20.55-19.86-.61-3.36-1.22-6.65-1.82-9.87-.27-1.47-.55-2.93-.81-4.37ZM1613.91,168.82c-17.65,0-37.46,12.77-54.36,35.03-21.87,28.81-21.42,65.65,1.15,101.29,5.84-5.41,12.96-11.16,21.17-17.09h0c9.47-18.83,19.5-35.12,29.82-48.48-3.41-1.12-6.85-2.19-10.22-3.19-15.16-4.49-26.57-8.75-33.92-12.68-7.13-3.81-10.36-7.26-9.89-10.55.94-6.51,15.6-7.49,24.26-7.49,13.72,0,34.61,2.57,52.52,9.74h0s0,0,0,0c2.79-2.32,5.6-4.44,8.39-6.3,1.96-12.21-.38-23.01-6.64-30.46-5.33-6.34-13.24-9.83-22.29-9.83ZM1677.71,280.52c.23,1.23.46,2.48.7,3.73.5,2.66,1,5.37,1.51,8.13,3.19-2.75,6.49-5.49,9.85-8.19-4.35-2.09-8.39-3.32-12.05-3.68ZM1614.71,240.56c-9.45,12.1-18.66,26.7-27.43,43.5,16.7-12.61,29.98-25.77,39.57-39.2-4.04-1.51-8.11-2.95-12.13-4.3ZM1677.14,277.46c4.61.3,9.72,1.86,15.21,4.67h0s0,0,0,0c1.5-1.18,3.02-2.35,4.54-3.52-7.04-4.22-14.3-8.29-21.67-12.14.61,3.77,1.28,7.57,1.91,11ZM1674.66,262.79c8.45,4.36,16.79,9.02,24.81,13.87,12.8-9.59,26.15-18.39,39.7-26.15-4.26-6.63-9.1-13.38-14.42-20.06-10.06-12.65-20.6-21.32-31.33-25.79-20.83,12.8-22.74,31.08-18.77,58.13ZM1662.85,256.92c2.85,1.36,5.7,2.77,8.53,4.2h0s.02,0,.02,0c-3.52-25.69-1.26-44.56,18.52-57.76-4.68-1.55-9.45-2.33-14.21-2.33-9.84,0-19.98,3.32-30.14,9.88-.52,2.83-1.25,5.72-2.19,8.64h0s0,.02,0,.02c17.78,9.58,24.48,22.46,19.45,37.35h.02s0,.01,0,.01ZM1631.49,243.42c9.57,3.67,19.18,7.77,28.62,12.2,4.32-13.24-1.63-24.4-17.72-33.19-2.53,6.9-6.18,13.94-10.89,20.99ZM1741.79,249.03h0c13.76-7.6,25.54-11.45,35.04-11.45,3.85,0,7.3.64,10.29,1.88-19.72-25.73-45.43-43.78-66.85-43.78-4.26,0-8.34.7-12.13,2.07-4.22,1.53-8.07,3.23-11.49,5.06,10.48,4.88,20.7,13.53,30.44,25.77,5.42,6.81,10.36,13.69,14.69,20.45h0ZM1616.69,238.07c3.96,1.34,7.96,2.77,11.92,4.26,4.85-7.16,8.58-14.32,11.09-21.29-1.5-.74-3.08-1.47-4.71-2.16-6.11,5.26-12.25,11.71-18.3,19.19ZM1581.93,208.66c-13.52,0-20.95,2.47-21.3,4.92-.17,1.21,1.01,7.88,41.69,19.92,3.75,1.11,7.56,2.3,11.35,3.55,6-7.52,12.11-14.04,18.21-19.44-17.17-6.58-36.88-8.96-49.95-8.96ZM1637.57,216.72c1.06.47,2.1.95,3.1,1.44.51-1.62.95-3.24,1.33-4.83-1.48,1.06-2.96,2.19-4.43,3.39Z" style="fill: #fff;"/>
  <g>
    <polygon points="351.87 1560.39 455.01 1013.65 473.26 1013.65 370.13 1560.39 351.87 1560.39" style="fill: #5d96db;"/>
    <polygon points="537.3 1560.39 640.44 1013.65 658.69 1013.65 555.56 1560.39 537.3 1560.39" style="fill: #5d96db;"/>
    <polygon points="829.69 1560.39 726.55 1013.65 708.29 1013.65 811.43 1560.39 829.69 1560.39" style="fill: #5d96db;"/>
    <g>
      <path d="M907.93,1090.45c-39.47-12.94-75.91-33.62-98.96-68.17-26.51-39.74-56.87-84.11-70.98-100.67-27.85-32.69-84.53-307.54-294.75-195.42-210.22,112.11-152.57,490.34-14.21,577.71,153.37,96.86,414.15,106.55,515.19-13.96,63.8-76.1,53.82-169.96-36.28-199.49Z" style="fill: #133671;"/>
      <path d="M605.44,1073.38s-57.46,8.37-192.87,59.01c0,0,106.92,2.37,151.64,11.71,44.73,9.34,227.34,54.42,264.45-3.31,37.11-57.73-35.28-80.6-44.51-84.31-9.22-3.71-178.71,16.91-178.71,16.91Z" style="fill: #0e2f5e;"/>
      <path d="M569.27,1363.24l.51-2.52c-177.62-36.09-263.83-158.85-263.58-375.3.15-127.95,54.22-197.61,99.55-233.51,49.1-38.89,98.74-47.65,99.24-47.74l-.43-2.54c-.5.08-50.79,8.97-100.41,48.26-29.14,23.08-52.37,51.98-69.05,85.9-20.82,42.36-31.42,92.7-31.48,149.62-.07,59.83,6.56,113.28,19.7,158.87,12.4,43.01,30.98,80.36,55.24,111.02,22.65,28.62,50.99,52.34,84.23,70.51,30.56,16.69,66.38,29.29,106.48,37.44Z" style="fill: #21111d;"/>
      <path d="M719.64,1170.95c5.32,0,8.04-.21,8.15-.22l-.22-2.57c-.44.04-45.48,3.55-134.52-19.16-89.51-22.83-179.65-17.95-180.55-17.9l.15,2.57c.9-.05,90.65-4.9,179.76,17.82,67.94,17.33,110.48,19.45,127.23,19.45Z" style="fill: #21111d;"/>
    </g>
    <g>
      <polygon points="1092.29 1521.07 1009.17 1522.2 1007.98 1444.49 1090.77 1434.24 1092.29 1521.07" style="fill: #fe9f73;"/>
      <g>
        <path d="M1008.39,1538.44h71.8l29.11-31.71,53.24,31.71h11.47c3.95,0,7.57,2.67,8.32,6.55,1,5.22-2.97,9.79-8.02,9.79h-166.94c-1.23,0-2.22-.99-2.22-2.22v-10.88c0-1.79,1.45-3.25,3.25-3.25Z" style="fill: #5d96db;"/>
        <path d="M1039.53,1501.09s27.85,19.76,52.39-4.15l60.96,27.04s16.71,5.59,21.24,14.55h-165.09v-29.47s12.09-16.28,30.5-7.97Z" style="fill: #f7597f;"/>
        <rect x="1008.41" y="1509.06" width="1.22" height="29.33"/>
        <path d="M1068.08,1507.97l.18,1.21s-1.45.21-3.78.21c-5.33,0-15.5-1.04-25.3-7.79l.69-1.01c13.68,9.42,28.07,7.4,28.21,7.38Z"/>
        <rect x="1019.7" y="1525.2" width="1.22" height="9.39" transform="translate(-818.59 1522.12) rotate(-56.06)"/>
        <rect x="1025.28" y="1523.72" width="1.22" height="9.39" transform="translate(-814.89 1524.33) rotate(-56)"/>
        <path d="M1009.24,1537.89h165.06c4.84,0,8.78,3.94,8.78,8.78,0,2.58-1.13,5.03-3.1,6.7l-.79-.93c1.7-1.44,2.67-3.54,2.67-5.77,0-4.17-3.39-7.56-7.56-7.56h-165.06c-1.92,0-3.49,1.56-3.49,3.49v8.15h-1.22v-8.15c0-2.6,2.11-4.71,4.71-4.71Z"/>
        <path d="M1158.9,1525.77c12.48,5.32,15.82,12.17,15.96,12.46l-1.11.52c-.03-.07-3.33-6.74-15.33-11.86-12.27-5.23-66.21-29.16-66.75-29.4l.5-1.12c.54.24,54.47,24.16,66.73,29.39Z"/>
      </g>
      <polygon points="951.54 1521.07 868.42 1522.2 867.23 1444.49 950.02 1434.24 951.54 1521.07" style="fill: #fe9f73;"/>
      <g>
        <path d="M867.64,1538.44h71.8l29.11-31.71,53.24,31.71h11.47c3.95,0,7.57,2.67,8.32,6.55,1,5.22-2.97,9.79-8.02,9.79h-166.94c-1.23,0-2.22-.99-2.22-2.22v-10.88c0-1.79,1.45-3.25,3.24-3.25Z" style="fill: #5d96db;"/>
        <path d="M898.77,1501.09s27.85,19.76,52.39-4.15l60.96,27.04s16.71,5.59,21.24,14.55h-165.09v-29.47s12.09-16.28,30.5-7.97Z" style="fill: #f7597f;"/>
        <rect x="867.66" y="1509.06" width="1.22" height="29.33"/>
        <path d="M927.33,1507.97l.18,1.21s-1.45.21-3.78.21c-5.33,0-15.5-1.04-25.3-7.79l.69-1.01c13.68,9.42,28.07,7.4,28.21,7.38Z"/>
        <rect x="878.95" y="1525.2" width="1.22" height="9.39" transform="translate(-880.75 1405.35) rotate(-56.06)"/>
        <rect x="884.53" y="1523.72" width="1.22" height="9.39" transform="translate(-876.94 1407.63) rotate(-56)"/>
        <path d="M868.49,1537.89h165.06c4.84,0,8.78,3.94,8.78,8.78,0,2.58-1.13,5.03-3.1,6.7l-.79-.93c1.7-1.44,2.67-3.54,2.67-5.77,0-4.17-3.39-7.56-7.56-7.56h-165.06c-1.92,0-3.49,1.56-3.49,3.49v8.15h-1.22v-8.15c0-2.6,2.11-4.71,4.71-4.71Z"/>
        <path d="M1018.15,1525.77c12.48,5.32,15.82,12.17,15.96,12.46l-1.11.52c-.03-.07-3.33-6.74-15.33-11.86-12.27-5.23-66.21-29.16-66.75-29.4l.5-1.12c.54.24,54.47,24.16,66.73,29.39Z"/>
      </g>
      <path d="M984.96,681.47c1.4-3.63,5.48-5.45,9.11-4.05h0c3.63,1.4,5.45,5.48,4.05,9.11l-3.65,20.06c8-3.51,57.04-29.97,57.04-29.97,3.46-2.11,8.01-.89,9.92,2.75,1.75,3.32.43,7.45-2.78,9.41l-31.14,19.02c-.73.45-1.02,1.37-.67,2.16l.74,1.68c.38.86,1.4,1.25,2.26.87l35.89-15.95c3.7-1.64,8.06.15,9.48,4.02,1.3,3.52-.55,7.44-3.98,8.97l-35.67,15.85c-.86.38-1.25,1.4-.87,2.26l.23.53c.33.75,1.14,1.15,1.94.98l34.33-7.74c3.86-.87,8.33,1.38,9.93,4.99,1.6,3.61-.24,7.28-4.09,8.15l-33.66,7.59c-1.05.24-1.63,1.38-1.19,2.37.3.67.99,1.08,1.72,1.01l23.27-2.07c3.74-.33,7.26,2.2,7.83,5.91.63,4.07-2.31,7.75-6.34,8.11l-3.21.29c-12.78,1.14-25.25,4.59-36.79,10.2l-40.01,19.42c-4.73-10.22-7.2-16.15-21.15-55.35-2.54-3.35-4.59-8-3.68-10.36l21.12-40.19Z" style="fill: #fe9f73;"/>
      <path d="M1017.62,781.65l-160.48,162.35-63.87,5.7,1.28-94.69,164.4-140.08c39.01,17.7,58.67,66.72,58.67,66.72Z" style="fill: #8baee8;"/>
      <path d="M958.7,713.16l.87.41c30.66,14.35,48.85,47.15,49.03,47.48.4.73.13,1.63-.6,2.03-.73.4-1.63.13-2.03-.59-.17-.32-17.57-31.66-46.81-45.79l-135.98,115.86c-.28.24-.63.36-.97.36-.42,0-.84-.18-1.14-.53-.54-.63-.46-1.57.17-2.11l137.45-117.12Z" style="fill: #21111d;"/>
      <g>
        <path d="M768.15,460.78c-40.22-34.1-70.47-19.26-83.4-15.04-12.93,4.22-31.59,2.39-44.67,24.71-6.14,10.48-65.84,110.31-37.42,176.26,18.66,43.31,76.22,92.43,76.22,92.43,0,0,110.07-2.98,120.49-48.75,10.42-45.76.58-202.65-31.21-229.61Z" style="fill: #33192c;"/>
        <g>
          <path d="M669.57,496.14l14.87,128.82,55.41-6.4-4.53-39.26c12.31-1.65,16.62-9.65,16.62-9.65,8.94-15.13-7.65-76.8-7.65-76.8l-74.71,3.29Z" style="fill: #fe9f73;"/>
          <path d="M728.33,527.62c-2.1-5.68,1.12-11.64,1.15-11.7.14-.24.05-.55-.2-.69-.25-.13-.55-.05-.69.2-.14.26-3.48,6.41-1.22,12.53,1.39,3.75,4.57,6.64,9.48,8.57-.44,1.38-2.03,5.62-5.2,6.69-.27.09-.41.38-.32.64.08.23.31.37.54.34.04,0,.07-.01.11-.02,4.3-1.45,5.92-7.57,5.98-7.83l.11-.44-.43-.16c-4.86-1.82-8-4.56-9.32-8.13Z" style="fill: #f07162;"/>
          <path d="M690.86,572.37s24.7,18.81,46.27,22.71l-1.82-15.79s-26.88,1.51-44.45-6.92Z" style="fill: #f07162;"/>
          <path d="M721.4,512.83c-12.93-8.17-24.34,6.56-24.46,6.71-.34.45-.25,1.08.19,1.42.22.17.48.23.73.2.26-.03.52-.17.69-.39.42-.55,10.4-13.39,21.75-6.22.47.3,1.1.16,1.4-.32.3-.47.16-1.1-.32-1.4Z" style="fill: #33192c;"/>
          <path d="M731.83,513.21c-.38.41-.35,1.06.06,1.44.23.21.52.29.8.26.23-.03.46-.13.63-.32.07-.08,7.26-7.8,12.07-4.56.47.32,1.1.19,1.41-.27.31-.46.19-1.1-.27-1.41-6.26-4.23-14.36,4.49-14.71,4.87Z" style="fill: #33192c;"/>
          <path d="M742.02,518.91c-1.55.18-2.67,1.58-2.49,3.14.18,1.55,1.58,2.67,3.14,2.49,1.55-.18,2.67-1.58,2.49-3.14-.18-1.55-1.58-2.67-3.14-2.49Z"/>
          <path d="M714.01,521.71c-1.55.18-2.67,1.58-2.49,3.14.18,1.55,1.58,2.67,3.14,2.49,1.55-.18,2.67-1.58,2.49-3.14-.18-1.55-1.58-2.67-3.14-2.49Z"/>
          <path d="M668.29,526.49c-8.71,1-14.95,8.88-13.95,17.59,1.01,8.71,8.88,14.95,17.59,13.95,8.71-1.01,14.95-8.88,13.95-17.59-1-8.71-8.88-14.95-17.59-13.95Z" style="fill: #fe9f73;"/>
          <path d="M670,535.29c-3.69-1.51-7.64.3-7.8.38-.25.12-.36.42-.25.68.12.25.42.36.68.25.04-.02,3.71-1.7,6.99-.36,1.46.6,2.63,1.7,3.51,3.3-1.8-.86-5.04-1.74-8.2.76-2.22,1.76-2.88,4.73-1.68,7.57,1.01,2.4,3.51,4.63,6.82,4.25.03,0,.06,0,.09-.01.28-.04.47-.29.44-.57-.04-.28-.3-.48-.57-.44-3.02.39-5.04-1.71-5.85-3.62-.77-1.83-.88-4.6,1.37-6.38,4.07-3.23,8.2-.05,8.38.09l1.43,1.13-.64-1.71c-1-2.66-2.59-4.45-4.72-5.32Z" style="fill: #f07162;"/>
        </g>
        <path d="M703.91,470.21c-32.78,1.08-34.34,25.92-34.34,25.92l37.92,3.24,34.38-6.42,2.41-.11s-7.6-23.71-40.37-22.64Z" style="fill: #fe9f73;"/>
        <path d="M695.19,463.05c-2.24.26-36.03,18.79-36.03,18.79,0,0-5.2,45.54,13.93,44.82,19.13-.71,24.18-33.73,24.18-33.73,26.72,1.46,44.63-20.65,44.63-20.65l-7.13-16.08s-37.35,6.58-39.59,6.84Z" style="fill: #33192c;"/>
        <path d="M727.33,557.57c7.06.61,10.33-6.95,10.33-6.95-.3-.08-19.31-1.68-19.31-1.68,0,0,1.91,8.02,8.98,8.63Z" style="fill: #fbfdfc;"/>
      </g>
      <path d="M1085.26,978.03c17.45,22.37,52.99,361.43,38.25,486.25,0,0-90.42,6.22-133.66-4.26l-10.52-343.37-194.37-58.78-99.8-153.33,112.26,41.08s252.46-12.95,287.85,32.41Z" style="fill: #e03f3f;"/>
      <path d="M818.87,1071.44l-18.76,63.86s-97.02,1.6-165.01-.73c-21.83-.75-41.25.79-52.75-1.76-47.33-10.51-58.99-158.24-5.25-248.75,53.74-90.51,241.76,187.38,241.76,187.38Z" style="fill: #f75553;"/>
      <path d="M985.54,991c6.88,27.52,21.67,345.76,6.93,470.58,0,0-97.23,5.57-140.47-4.91l-11.65-322.77-41.94,1.46-101.69-178.91,22.01-23.79s259.93,30.82,266.81,58.34Z" style="fill: #f75553;"/>
      <path d="M862.35,1129.37l.38,3.28c-.75.09-51.57,5.74-135.61,5.74-42.33,0-93.08-1.43-150.14-5.73l.25-3.3c169.99,12.81,283.99.14,285.13,0Z" style="fill: #21111d;"/>
      <path d="M831.86,706.28c3.11,4.29,15.9,140.24,17.83,160.95l-4.82,7.52-59.49,73.06c-11.49-17.47-16.2-27.53-16.2-27.53,0,0,59.31-218.65,62.68-214Z" style="fill: #8baee8;"/>
      <path d="M634.08,594.96c31.3-7.6,116.34,14.06,116.34,14.06,0,0,9.87,5.95,6.93,3.37,84.55,41.99,74.95,111.03,74.95,111.03l-8.96,146.81,5.6,28.58c3.2,16.25,5.86,35.32,5.86,35.32,0,0-40.76,16.38-107.7,41.6-66.94,25.22-134.11,35.94-134.11,35.94,0,0-.02.09-.05.27-12.56-2.93-53.7-16.64-76.14-73.47-17.67-44.74,5.55-159.32,29.59-240.96,0,0,29.77-88.48,87.68-102.54Z" style="fill: #8baee8;"/>
      <path d="M750.96,607.62c.55.21,55.63,21.91,76.84,75.14.12.35,12.44,35.85,16.6,114.23l1.51,15.38c.08.82-.52,1.55-1.34,1.64-.05,0-.1,0-.15,0-.76,0-1.41-.58-1.49-1.35l-1.52-15.45c-4.13-77.94-16.31-113.11-16.41-113.4-20.69-51.93-74.57-73.19-75.11-73.4-.77-.3-1.15-1.16-.86-1.93.3-.77,1.16-1.16,1.93-.86Z" style="fill: #21111d;"/>
      <path d="M746.07,607.95s-13.97,27.3-38.34,24.64c-24.38-2.66-42.04-26.94-40.74-38.51,0,0,16.05-.6,34.49,1.96,15.72,2.18,33.08,7.1,44.6,11.91Z" style="fill: #fe9f73;"/>
      <path d="M545.87,699.28c.82.24,1.29,1.1,1.05,1.91-23.91,82.15-45.76,193.43-28.68,236.7,13.61,34.46,34.26,52.54,49.18,61.62,16.18,9.86,29.33,11.59,29.46,11.61.84.11,1.45.88,1.34,1.72-.1.85-.88,1.45-1.72,1.34-.56-.07-13.82-1.8-30.54-11.95-2.78-1.69-5.76-3.68-8.85-6.02-13.99-10.58-30.32-28.26-41.75-57.2-17.37-43.99,4.54-156.08,28.59-238.69.24-.82,1.1-1.29,1.91-1.05Z" style="fill: #21111d;"/>
      <path d="M657.25,689.51c.84.11,1.44.88,1.33,1.73-8.87,68.67-15.02,180.13-15.08,181.25-.05.85-.77,1.5-1.63,1.46-.32-.02-.61-.13-.85-.31-.4-.3-.64-.78-.61-1.32.06-1.12,6.22-112.69,15.1-181.48.11-.85.88-1.44,1.73-1.33Z" style="fill: #21111d;"/>
      <path d="M654.1,600.68c.7-.07,1.31.46,1.39,1.15.04.4,6.82,40,59.56,47.91.72.11,1.18.76,1.08,1.46-.11.7-.76,1.18-1.46,1.08-1.23-.18-2.43-.39-3.61-.6-51.4-9.46-58.1-49.25-58.13-49.66-.04-.7.48-1.28,1.17-1.34Z" style="fill: #21111d;"/>
      <path d="M792.11,744.79c.85.08,1.47.84,1.39,1.69-2.05,20.85-2.49,62.25-2.42,98.92-1.02.17-2.06.34-3.09.52-.08-36.88.36-78.7,2.43-99.74.08-.85.84-1.47,1.69-1.39Z" style="fill: #21111d;"/>
      <g>
        <g>
          <polygon points="916.27 924.72 850.67 924.72 848.45 894.62 843.86 832.5 841 793.87 925.93 793.87 923.08 832.5 918.49 894.62 916.27 924.72" style="fill: #fff;"/>
          <path d="M873.26,789.49h51.43c1.65.06,2.97,1.39,2.97,3.03s-1.32,2.97-2.97,3.02h0s-31.17,0-31.17,0h-51.43c-1.65-.06-2.97-1.39-2.97-3.03s1.32-2.97,2.97-3.02h0s31.17,0,31.17,0Z" style="fill: #f7dacd;"/>
          <path d="M924.67,790.1h-.12s-51.29,0-51.29,0v-1.21h52.03v.07c1.71.32,2.97,1.79,2.97,3.56s-1.27,3.24-2.97,3.56v.07h-76.48v-1.21h75.86c1.34-.05,2.39-1.11,2.39-2.42s-1.05-2.37-2.39-2.42Z"/>
          <polygon points="850.68 925.33 850.68 924.12 915.7 924.12 925.33 795.5 926.54 795.59 916.87 924.77 916.83 925.33 850.68 925.33"/>
        </g>
        <polygon points="831.68 796.15 831.68 787.12 838.14 787.12 846.29 768.32 854.52 768.32 912.25 768.32 920.48 768.32 928.63 787.12 935.09 787.12 935.09 796.15 926.43 796.15 840.34 796.15 831.68 796.15" style="fill: #49597d;"/>
        <polygon points="831.68 787.73 831.68 786.52 935.7 786.52 935.7 796.75 831.68 796.75 831.68 795.54 934.49 795.54 934.49 787.73 831.68 787.73"/>
        <polygon points="846.29 768.93 846.29 767.72 920.88 767.72 929.18 786.88 928.07 787.36 920.09 768.93 846.29 768.93"/>
        <rect x="844.02" y="776.18" width="8.01" height="1.21" transform="translate(-295.29 900.79) rotate(-48.68)"/>
        <rect x="848.36" y="778.05" width="8.01" height="1.21" transform="translate(-295.23 904.55) rotate(-48.67)"/>
      </g>
      <g>
        <path d="M827.21,872.6s7.92-16.87,11.48-23.65c3.56-6.78,7.11-4.35,7.45-2.48.21,1.1,2.25,10.85,3.89,18.64l.16-.42s4.01,3.82,13.29,3.49c14.9-8.91,39.54-23.03,39.54-23.03,0,0,5.55,4.5,4.98,15.22,0,0,7.81,7.46,2.38,15.49,0,0,8.04,5.95,2.85,15.26,0,0,3.19,6.32-4.43,15.47-7.63,9.15-36.6,21.95-45.43,22.95-8.82,1-66.9,3.56-66.9,3.56l5.67-58.31,25.07-2.19Z" style="fill: #fe9f73;"/>
        <path d="M890.01,872.03c7.26-3.94,17.2-12.39,17.29-12.48.45-.38,1.12-.33,1.51.12.38.45.33,1.12-.12,1.51-.41.35-10.2,8.68-17.66,12.73-.1.06-.21.09-.31.11-.44.08-.91-.12-1.13-.54-.28-.52-.09-1.17.43-1.45Z" style="fill: #f07162;"/>
        <path d="M892.62,885.26c9.38-3.62,16.99-10.15,17.07-10.21.45-.39,1.12-.34,1.51.11.39.45.34,1.12-.11,1.51-.32.28-7.95,6.83-17.69,10.59-.06.02-.13.04-.19.05-.5.09-1-.18-1.19-.67-.21-.55.06-1.17.61-1.38Z" style="fill: #f07162;"/>
        <path d="M897.75,900c8.01-3.36,14.68-9.6,14.75-9.66.43-.41,1.1-.38,1.51.05.4.43.38,1.1-.05,1.51-.28.27-7.02,6.56-15.39,10.07-.07.03-.14.05-.22.06-.48.09-.98-.16-1.18-.64-.23-.54.03-1.17.57-1.4Z" style="fill: #f07162;"/>
      </g>
      <path d="M785.38,846.88l25.49-3.13s15.26,32.38,19.1,58.97c3.84,26.59,6.14,29.94,6.14,29.94l-85.69,2.86,10.12-55.71,24.84-32.93Z" style="fill: #8baee8;"/>
      <path d="M621.15,879.57l23.46-8.35,167.95-30.54.42,1.02c.22.54,22.12,54.43,23.18,92.39l.03.95-.88.35c-.91.37-91.44,36.64-113.11,43.39-.27.08-.54.08-.79,0-.42-.12-.78-.45-.92-.9-.22-.72.18-1.48.89-1.7,20.41-6.36,102.55-39.17,112.02-42.96-1.28-34.51-19.55-81.93-22.54-89.46l-165.66,30.12-23.14,8.25c-.71.25-1.49-.12-1.74-.82-.25-.71.12-1.49.82-1.74Z" style="fill: #21111d;"/>
    </g>
  </g>
  <rect x="98.84" y="1554.33" width="2426.42" height="9.66"/>
</svg>