<?xml version="1.0" encoding="UTF-8"?>
<svg xmlns="http://www.w3.org/2000/svg" xmlns:xlink="http://www.w3.org/1999/xlink" viewBox="0 0 673.47 371.9">
  <defs>
    <clipPath id="clippath">
      <path d="M374.04,84.89c-5.73,17.11.65,38.11,10.71,41.47,14.09,4.72,34.45-5.64,40.18-22.75,5.73-17.11.52-36.02-13.57-40.74-14.09-4.72-31.59,4.91-37.32,22.02Z" style="fill: #b27449;"/>
    </clipPath>
    <radialGradient id="Degradado_sin_nombre_4" data-name="Degradado sin nombre 4" cx="585.93" cy="405.54" fx="585.93" fy="405.54" r="8.43" gradientTransform="translate(1089.52 -86.67) rotate(-161.49) scale(1 -1)" gradientUnits="userSpaceOnUse">
      <stop offset="0" stop-color="#a55d47"/>
      <stop offset="1" stop-color="#b27449"/>
    </radialGradient>
    <radialGradient id="Degradado_sin_nombre_4-2" data-name="Degradado sin nombre 4" cx="618.8" cy="414.41" fx="618.8" fy="414.41" r="8.43" xlink:href="#Degradado_sin_nombre_4"/>
    <clipPath id="clippath-1">
      <path d="M397.5,112.11s-1.94,5.97-7.21,6.5c-5.27.53-8.55-4.17-8.55-4.17,0,0,5.73-1.6,15.76-2.33Z"/>
    </clipPath>
    <linearGradient id="Degradado_sin_nombre_9" data-name="Degradado sin nombre 9" x1="609.01" y1="410.6" x2="607.03" y2="403.01" gradientTransform="translate(1089.52 -86.67) rotate(-161.49) scale(1 -1)" gradientUnits="userSpaceOnUse">
      <stop offset="0" stop-color="#9a5331"/>
      <stop offset="1" stop-color="#b27449"/>
    </linearGradient>
    <clipPath id="clippath-2">
      <path d="M502.42,92.05c-5.09,17.76,2.37,38.95,12.8,41.94,14.62,4.19,34.99-7.31,40.08-25.07,5.09-17.76-1.08-36.87-15.7-41.06-14.62-4.19-32.09,6.43-37.18,24.19Z" style="fill: #f2b27e;"/>
    </clipPath>
    <radialGradient id="Degradado_sin_nombre_21" data-name="Degradado sin nombre 21" cx="593.3" cy="257.83" fx="593.3" fy="257.83" r="8.63" gradientTransform="translate(1176.86 33.98) rotate(-164) scale(1 -1)" gradientUnits="userSpaceOnUse">
      <stop offset="0" stop-color="#e89575"/>
      <stop offset="1" stop-color="#f2b27e"/>
    </radialGradient>
    <radialGradient id="Degradado_sin_nombre_21-2" data-name="Degradado sin nombre 21" cx="626.94" cy="266.91" fx="626.94" fy="266.91" r="8.63" xlink:href="#Degradado_sin_nombre_21"/>
    <linearGradient id="Degradado_sin_nombre_29" data-name="Degradado sin nombre 29" x1="616.92" y1="263.01" x2="614.9" y2="255.23" gradientTransform="translate(1176.86 33.98) rotate(-164) scale(1 -1)" gradientUnits="userSpaceOnUse">
      <stop offset="0" stop-color="#db8965"/>
      <stop offset="1" stop-color="#f2b27e"/>
    </linearGradient>
    <clipPath id="clippath-3">
      <path d="M166.66,93.55c5.05,17.61-2.35,38.62-12.7,41.59-14.5,4.16-34.7-7.25-39.74-24.86-5.05-17.61,1.07-36.56,15.57-40.72,14.5-4.16,31.82,6.38,36.87,23.99Z" style="fill: #f2b27e;"/>
    </clipPath>
    <radialGradient id="Degradado_sin_nombre_21-3" data-name="Degradado sin nombre 21" cx="143.44" cy="130.18" fx="143.44" fy="130.18" r="8.56" gradientTransform="translate(-39.88 33.98) rotate(-16)" xlink:href="#Degradado_sin_nombre_21"/>
    <radialGradient id="Degradado_sin_nombre_21-4" data-name="Degradado sin nombre 21" cx="176.81" cy="139.19" fx="176.81" fy="139.19" r="8.56" gradientTransform="translate(-39.88 33.98) rotate(-16)" xlink:href="#Degradado_sin_nombre_21"/>
    <linearGradient id="Degradado_sin_nombre_29-2" data-name="Degradado sin nombre 29" x1="166.87" y1="135.32" x2="164.87" y2="127.61" gradientTransform="translate(-39.88 33.98) rotate(-16)" xlink:href="#Degradado_sin_nombre_29"/>
  </defs>
  <g style="isolation: isolate;">
    <g id="BACKGROUND">
      <line x1=".25" y1="290.67" x2="673.22" y2="290.67" style="fill: none; stroke: #000; stroke-linecap: round; stroke-linejoin: round; stroke-width: .5px;"/>
      <path d="M611.49,54.65c-23.59-10.57-50.39-14.18-75.39-21.92-24.31-7.52-46.88-18.94-71.48-25.71-28.77-7.91-59.91-9.17-89.4-3.62-20.49,3.85-40.08,10.9-60.71,14.14-40.84,6.41-82.73-2.48-124.21-1.33-12.86.36-26,1.77-37.47,6.84-20.09,8.9-32.01,27.56-50.57,38.69-11.58,6.95-25.26,10.68-37.69,16.41-24.57,11.34-44.36,31.51-49.89,55.2-5.53,23.69,4.84,50.38,27.8,64.04,23.85,14.19,55.47,12.74,82.57,21.47,23.94,7.7,43.48,23.04,65.96,33.54,29.35,13.71,62.92,18.83,95.99,22.41,26.67,2.89,53.83,4.91,80.32.96,31.7-4.73,60.55-17.72,88.6-30.79,6.85-3.19,14.69-5.96,20.96-9.96,4.35-2.78,7.46-6.59,11.84-9.38,12.73-8.1,27.87-14.39,41.97-20.48,9.87-4.26,19.99-8.26,30.71-10.48,8.88-1.84,18.05-2.43,26.99-4.05,25.64-4.66,49.35-18.48,62.15-38.34,16.7-25.92,10.77-53.58-9.04-76.21-7.88-9.01-18.46-16.28-30.01-21.45Z" style="fill: #e6d2ff;"/>
      <g>
        <path d="M342.68,116.45c0,2.76-2.24,5-5,5s-5-2.24-5-5,2.24-5,5-5,5,2.24,5,5Z" style="fill: none; stroke: #000; stroke-linecap: round; stroke-linejoin: round; stroke-width: .5px;"/>
        <path d="M587.73,34c0,2.76-2.24,5-5,5s-5-2.24-5-5,2.24-5,5-5,5,2.24,5,5Z" style="fill: none; stroke: #000; stroke-linecap: round; stroke-linejoin: round; stroke-width: .5px;"/>
        <path d="M426.32,12.62c0,2.76-2.24,5-5,5s-5-2.24-5-5,2.24-5,5-5,5,2.24,5,5Z" style="fill: none; stroke: #000; stroke-linecap: round; stroke-linejoin: round; stroke-width: .5px;"/>
        <circle cx="54.49" cy="82.25" r="5" style="fill: none; stroke: #000; stroke-linecap: round; stroke-linejoin: round; stroke-width: .5px;"/>
        <path d="M302.96,77.24c0,1.38-1.12,2.51-2.51,2.51s-2.51-1.12-2.51-2.51,1.12-2.51,2.51-2.51,2.51,1.12,2.51,2.51Z"/>
        <circle cx="214.65" cy="130.44" r="2.51"/>
        <circle cx="467.76" cy="64.06" r="2.51"/>
        <circle cx="622.56" cy="101.38" r="2.51"/>
      </g>
    </g>
    <g id="OBJECTS">
      <g>
        <g>
          <g>
            <polygon points="589.91 354.86 583.85 354.86 580.01 306.42 593.75 306.42 589.91 354.86" style="fill: #9b5b2f;"/>
            <polygon points="319.57 345.26 313.51 345.26 309.67 305.42 323.41 305.42 319.57 345.26" style="fill: #9b5b2f;"/>
            <polygon points="632.45 335.67 626.39 335.67 622.56 296.83 636.29 296.83 632.45 335.67" style="fill: #9b5b2f;"/>
            <polygon points="384.64 335.67 378.58 335.67 374.74 296.83 388.47 296.83 384.64 335.67" style="fill: #9b5b2f;"/>
          </g>
          <path d="M299.88,277.29h345.76v12.68c0,10.09-8.19,18.27-18.27,18.27h-309.21c-10.09,0-18.27-8.19-18.27-18.27v-12.68h0Z" style="fill: #8d59d8;"/>
          <g>
            <path d="M412.59,128.17h82.17c13.58,0,24.6,11.02,24.6,24.6v115.02h-131.38v-115.02c0-13.58,11.02-24.6,24.6-24.6Z" style="fill: #6733b2;"/>
            <path d="M543.97,128.17h82.17c13.58,0,24.6,11.02,24.6,24.6v115.02h-131.38v-115.02c0-13.58,11.02-24.6,24.6-24.6Z" style="fill: #6733b2;"/>
          </g>
          <g>
            <rect x="313.89" y="198.3" width="124.67" height="81.3" style="fill: #6733b2;"/>
            <path d="M314.17,198.3h23.59c3.84,0,6.95,3.12,6.95,6.95v72.48c0,6.11-4.96,11.07-11.07,11.07h-26.42v-83.55c0-3.84,3.12-6.95,6.95-6.95Z" style="fill: #9966e5;"/>
          </g>
          <path d="M318.45,243.74h255.42c12.94,0,23.44,10.5,23.44,23.44v11.58c0,5.54-4.5,10.04-10.04,10.04h-282.22c-5.54,0-10.04-4.5-10.04-10.04v-11.58c0-12.94,10.5-23.44,23.44-23.44Z" style="fill: #9966e5;"/>
        </g>
        <g>
          <path d="M436.07,116.19c1.12,5.24-3.14,10.59-9.51,11.96-6.38,1.36-12.45-1.78-13.58-7.02-1.12-5.24,3.14-10.6,9.51-11.96,6.38-1.36,12.45,1.78,13.58,7.02Z" style="fill: #cc9864;"/>
          <path d="M442.83,82.15c-.14-2.3-.53-4.6-1.47-6.7-2.23-4.99-7.24-8.09-12.65-9.37-2.39-4.59-6.39-9.26-10.99-11.74-6.21-3.34-14.63-3.02-21.35-1.66-7.02,1.41-13.69,4.49-19.4,8.8-9.21,6.95-13.11,21.12-9.99,32.16,1.16,4.09,2.98,6.9,6.33,9.56,3.24,2.56,7.01,4.39,10.89,5.73,1.09.38,2.19.71,3.31,1.02,2.53.69,5.11,1.23,7.55,2.2,3.21,1.29,6.08,3.3,9.27,4.63,2.91,1.22,6.06,1.85,9.21,1.86,2.7,0,5.42-.46,7.92-1.48,2.25-.92,4.29-2.29,6.2-3.8,9.43-7.45,15.86-19.2,15.15-31.2Z" style="fill: #38322e;"/>
          <g>
            <path d="M389.5,138.88c-4.93,1.3-10.62,4.75-12.8,9.42-2.18,4.67-8.2,32.71-8.2,32.71l-23.7-17.4s-4.28-3.95-6.31-6.03c-3.28-3.35-6.94-6.98-11.16-9.12-2.46-1.25-5.26-1.61-8-1.95-.77-.1-1.81-.01-1.98.74-.1.44.19.87.49,1.21,1.94,2.19,4.87,3.28,6.87,5.41.48.51.92,1.27-.05,1.53-.32.09-.67.05-1,0-3.86-.5-7.9-1.08-11.03-3.39-.93-.69-1.77-1.53-2.81-2.05-.83-.42-3.92-.91-3.83.77-.56.05-1.14.13-1.61.43-.48.3-.83.86-.71,1.41.03.15.1.3.1.45,0,.18-.1.35-.17.51-.34.78-.16,1.71.26,2.46.42.74,1.05,1.34,1.68,1.92-.25.73,0,1.55.45,2.18.45.62,1.09,1.09,1.71,1.54,1.99,1.44,3.98,2.87,5.97,4.31,1.68,1.21,3.45,2.06,5.35,2.86,2.48,1.04,5.2,1.5,7.87,1.68,2.02.13,6.54,1.31,8.55,1.51,2,.2,23.51,33.88,36.81,33s25.36-46.4,25.36-46.4c0,0-3.17-21.02-8.1-19.72Z" style="fill: #b27449;"/>
            <g>
              <path d="M331.84,165.24c-3.42-1.56-7.29-2.12-11.01-1.6" style="fill: none; stroke: #333; stroke-linecap: round; stroke-linejoin: round; stroke-width: .5px;"/>
              <path d="M305.67,157.85c1.22-.14,2.32.65,3.3,1.38,2.1,1.56,4.28,3.05,6.67,4.12" style="fill: none; stroke: #333; stroke-linecap: round; stroke-linejoin: round; stroke-width: .5px;"/>
              <path d="M304.07,152.84c1.91.13,3.52,1.42,5.04,2.59,2.33,1.79,4.78,3.41,7.34,4.85" style="fill: none; stroke: #333; stroke-linecap: round; stroke-linejoin: round; stroke-width: .5px;"/>
              <path d="M306.43,150.81c1.42.37,2.58,1.36,3.75,2.26,2.17,1.67,4.53,3.08,7.02,4.2" style="fill: none; stroke: #333; stroke-linecap: round; stroke-linejoin: round; stroke-width: .5px;"/>
              <path d="M368.7,180.76c3.54,2.55,6.6,5.77,8.97,9.43" style="fill: none; stroke: #333; stroke-linecap: round; stroke-linejoin: round; stroke-width: .5px;"/>
            </g>
            <path d="M388.06,138.51s-6.33,1.31-10.9,7.98c-4.57,6.67-6.43,17.87-6.43,17.87,0,0,10.53,16.66,29.64,13.12,0,0,11.83-34.13-12.31-38.96Z" style="fill: #cc80ff;"/>
          </g>
          <g>
            <g>
              <path d="M321.57,332.79c1.96,1.69,3.04,4.53,2.17,6.97,4.5.12,9.01-.7,13.2-2.35-.04-.35-.09-.7-.14-1.08-.04-.35-.09-.71-.14-1.08-.68-5.39-1.46-12.31-1.15-15.31.43-4.22.87-8.04,1.3-11.61l-18,.38c.09,2.49.13,4.44.11,5.62-.06,3.41-.19,6.88-1.36,10.08-.85,2.32-2.27,3.94-3.93,5.4-.26.23-.53.44-.8.67.51-.06,1.02-.09,1.52-.09,2.59.04,5.25.71,7.21,2.4Z" style="fill: #b27449;"/>
              <path d="M336.94,337.41c-4.19,1.65-8.7,2.47-13.2,2.35.87-2.44-.21-5.28-2.17-6.97-1.96-1.69-4.63-2.36-7.21-2.4-.51,0-1.02.02-1.52.09-.52.43-1.05.85-1.6,1.27-.32.24-.63.49-.95.73-1.92,1.49-5.74,3.41-9.4,5.27-3.78,1.92-7.38,3.79-8.49,5.05-1.76,2.02-2.49,5.13.22,6.54,4.31,2.23,10.7,2.08,15.35,1.37,5.48-.84,10.76-2.66,16.26-3.41,3.33-.45,13.16.13,13.3-4.93,0-.19-.05-.72-.14-1.46-.1-.88-.26-2.1-.44-3.5Z" style="fill: #994ce5;"/>
              <path d="M291.02,345.21c.15.92.68,1.74,1.75,2.3,4.31,2.23,10.7,2.08,15.35,1.37,5.48-.84,10.76-2.66,16.26-3.41,3.07-.42,11.71.05,13.11-3.87" style="fill: none; stroke: #000; stroke-linecap: round; stroke-linejoin: round; stroke-width: .5px;"/>
              <path d="M332.54,330.03c-.46,1.9-1.8,3.56-3.56,4.42" style="fill: none; stroke: #000; stroke-linecap: round; stroke-linejoin: round; stroke-width: .5px;"/>
              <path d="M298.28,339.3c-.71.88-.18,2.29.78,2.89.96.6,2.16.59,3.29.55,7.15-.3,14.21-1.66,21.24-3.02" style="fill: none; stroke: #000; stroke-linecap: round; stroke-linejoin: round; stroke-width: .5px;"/>
              <path d="M318.7,340.36c-2.08-3.69-6.03-6.25-10.25-6.64" style="fill: none; stroke: #000; stroke-linecap: round; stroke-linejoin: round; stroke-width: .5px;"/>
            </g>
            <path d="M417.25,231.9s-6.63,21.23-33.71,23.76c-27.08,2.53-41.61,1.3-41.61,1.3,0,0,.55,5.89.88,23.59.33,17.78-6.12,43.52-6.12,43.52,0,0-3.32,4.37-10.98,5.25-7.67.88-11-2.92-11-2.92,0,0-6.35-72.91-1.42-84.41,4.92-11.5,46.88-22.54,61.26-25.23,14.37-2.69,43.02-4.73,43.02-4.73l-.31,19.87Z" style="fill: #e599ff;"/>
            <path d="M414.2,228.86s-6.63,21.23-33.71,23.76c-27.08,2.53-42.03,1.78-42.03,1.78,0,0,.55,5.89.88,23.59.33,17.78-7.23,49.51-7.23,49.51" style="fill: none; stroke: #000; stroke-linecap: round; stroke-linejoin: round; stroke-width: .5px;"/>
          </g>
          <g>
            <g>
              <path d="M354.69,342.12c2.08,1.54,3.36,4.3,2.68,6.79,4.5-.21,8.94-1.36,12.99-3.31-.07-.35-.14-.7-.22-1.07-.07-.35-.14-.7-.22-1.07-1.07-5.32-2.36-12.17-2.27-15.18.12-4.24.28-8.09.44-11.67l-17.93,1.7c.27,2.48.46,4.42.53,5.59.19,3.4.32,6.88-.62,10.15-.68,2.38-1.97,4.1-3.53,5.67-.24.24-.5.48-.75.72.5-.1,1.01-.17,1.51-.2,2.58-.15,5.29.32,7.37,1.86Z" style="fill: #b27449;"/>
              <path d="M370.36,345.6c-4.05,1.95-8.5,3.1-12.99,3.31.68-2.49-.6-5.25-2.68-6.79-2.08-1.54-4.79-2.01-7.37-1.86-.51.03-1.01.1-1.51.2-.49.46-.98.92-1.5,1.38-.3.26-.6.53-.9.8-1.8,1.63-5.48,3.82-8.99,5.94-3.63,2.2-7.08,4.32-8.1,5.66-1.61,2.14-2.11,5.3.7,6.51,4.46,1.91,10.82,1.29,15.41.24,5.4-1.24,10.54-3.44,15.96-4.59,3.28-.7,13.14-.84,12.9-5.89,0-.19-.1-.71-.24-1.45-.17-.87-.42-2.07-.7-3.46Z" style="fill: #994ce5;"/>
              <path d="M325.13,356.74c.21.9.81,1.69,1.92,2.16,4.46,1.91,10.82,1.29,15.41.24,5.4-1.24,10.54-3.44,15.96-4.59,3.04-.64,11.68-.81,12.79-4.82" style="fill: none; stroke: #000; stroke-linecap: round; stroke-linejoin: round; stroke-width: .5px;"/>
              <path d="M365.43,338.56c-.32,1.93-1.54,3.69-3.23,4.66" style="fill: none; stroke: #000; stroke-linecap: round; stroke-linejoin: round; stroke-width: .5px;"/>
              <path d="M331.93,350.31c-.65.93-.01,2.3.99,2.82,1,.52,2.2.43,3.32.3,7.11-.82,14.05-2.7,20.96-4.57" style="fill: none; stroke: #000; stroke-linecap: round; stroke-linejoin: round; stroke-width: .5px;"/>
              <path d="M352.39,349.87c-2.34-3.53-6.47-5.79-10.7-5.87" style="fill: none; stroke: #000; stroke-linecap: round; stroke-linejoin: round; stroke-width: .5px;"/>
            </g>
            <g>
              <path d="M438.25,240.31s-9.99,17.86-37.07,20.39c-27.08,2.53-36.23,4.97-36.23,4.97,0,0,3.07,9.28,3.94,21.27.87,12,.48,43.64.48,43.64,0,0-1.11,4.07-8.56,6.1s-13.23-1.22-13.23-1.22c0,0-20.41-83.12-13.85-93.77,6.56-10.65,59.29-24.93,59.29-24.93l45.54,3.67-.31,19.87Z" style="fill: #e599ff;"/>
              <g>
                <path d="M367.05,333.65s.01-37.4-.86-49.4c-.88-12-3.94-21.27-3.94-21.27,0,0,9.15-2.44,36.23-4.97,27.08-2.53,37.07-20.39,37.07-20.39,0,0,3.56-5.46,4.49-11.56" style="fill: none; stroke: #000; stroke-linecap: round; stroke-linejoin: round; stroke-width: .5px;"/>
                <path d="M364.65,265.08c-2.75-2.87-6.04-5.21-9.65-6.87" style="fill: none; stroke: #000; stroke-linecap: round; stroke-linejoin: round; stroke-width: .5px;"/>
                <path d="M422.51,250.49c-2.25-.71-3.82-2.74-5-4.79-3.04-5.3-4.44-11.52-3.96-17.61" style="fill: none; stroke: #000; stroke-linecap: round; stroke-linejoin: round; stroke-width: .5px;"/>
                <path d="M340.15,301.44c-7.29-32.99-9.45-54.85-6.43-59.74,4.77-7.75,33.99-17.42,49.55-22.11" style="fill: none; stroke: #000; stroke-linecap: round; stroke-linejoin: round; stroke-width: .5px;"/>
              </g>
            </g>
          </g>
          <g>
            <g>
              <path d="M394.29,140.95c1.02,1.62,2.7,2.82,4.56,3.26,3.37.8,6.81-.81,9.75-2.64,3.75-2.34,7.22-5.14,10.32-8.31-.06-.03-.13-.06-.19-.09-1.06-.52-1.9-1.07-2.4-1.71-3.32-4.17-1.54-15.01-1.54-15.01l-16.73,4.35s1.93,9.91.66,12.89c-.25.59-.83,1.02-1.61,1.36-.91.4-2.33.88-3.94,1.45-.09,1.55.29,3.13,1.12,4.44Z" style="fill: #b27449;"/>
              <path d="M441.57,198.23c.16-3.13.61-6.2,1.05-9.33,1.14-8.19,2.16-16.41,2.71-24.66.35-5.21,1.52-12.61-.86-17.53-3.5-7.23-19.58-10.62-25.55-13.44-3.1,3.16-6.56,5.96-10.32,8.31-2.93,1.83-6.38,3.44-9.75,2.64-1.86-.44-3.54-1.64-4.56-3.26-.83-1.31-1.21-2.89-1.12-4.44-3.88,1.37-8.87,3.24-10.57,5.56-1.45,1.97-2.98,18.52-1.56,31.65.68,6.32,4.64,14.3,4.64,14.3.81,6.23,1.31,17.01,1.31,17.01,0,0-4.54,6.16-11.8,10.53,0,0-3.79,9.96,18.84,14.19,22.63,4.23,35.57,5.93,42.06,13.61,0,0,8.15-5.57,7.88-22.36-.19-11.95-2.41-22.76-2.41-22.76Z" style="fill: #994ce5;"/>
              <path d="M401.88,197.61c1.27-.05,2.48-.47,3.67-.91,13.49-4.92,26.42-11.34,38.52-19.06.52-4.46.96-8.93,1.26-13.41.35-5.21,1.52-12.61-.86-17.53-3.5-7.23-19.58-10.62-25.55-13.44-3.1,3.16-6.56,5.96-10.32,8.31-2.93,1.83-6.38,3.44-9.75,2.64-1.86-.44-3.54-1.64-4.56-3.26-.83-1.31-1.21-2.89-1.12-4.44-3.88,1.37-8.87,3.24-10.57,5.56-1.45,1.97-2.98,18.52-1.56,31.65.68,6.32,4.64,14.3,4.64,14.3.11.83.21,1.74.31,2.69,3.34,2.35,7.11,4.11,10.9,5.68,1.59.66,3.26,1.3,4.98,1.24Z" style="fill: #cc80ff;"/>
            </g>
            <path d="M398.05,120.81l16.73-4.35s-.59,3.59-.46,7.43c-3.48,5.04-9.89,12.59-15.76,10.06.05-.08.11-.16.15-.25,1.27-2.98-.66-12.89-.66-12.89Z" style="fill: #f2b27e; mix-blend-mode: multiply; opacity: .7;"/>
            <path d="M391.11,199.1c2.17,1.03,4.59,1.39,6.98,1.63,6.35.64,12.78.57,19.12-.23" style="fill: none; stroke: #000; stroke-linecap: round; stroke-linejoin: round; stroke-width: .5px;"/>
            <path d="M380.73,153.93c-.35,5.69-.39,12.59.21,18.82" style="fill: none; stroke: #333; stroke-linecap: round; stroke-linejoin: round; stroke-width: .5px;"/>
          </g>
          <g>
            <g>
              <g>
                <path d="M374.04,84.89c-5.73,17.11.65,38.11,10.71,41.47,14.09,4.72,34.45-5.64,40.18-22.75,5.73-17.11.52-36.02-13.57-40.74-14.09-4.72-31.59,4.91-37.32,22.02Z" style="fill: #b27449;"/>
                <g style="clip-path: url(#clippath);">
                  <path d="M413.16,114.61c-1.48,4.42-6.26,6.8-10.67,5.32-4.42-1.48-6.8-6.26-5.32-10.67,1.48-4.42,6.25-6.8,10.67-5.32,4.42,1.48,6.8,6.25,5.32,10.67Z" style="fill: url(#Degradado_sin_nombre_4);"/>
                  <path d="M379.17,112.59c-1.48,4.42-6.25,6.8-10.67,5.32-4.42-1.48-6.8-6.25-5.32-10.67,1.48-4.42,6.25-6.8,10.67-5.32s6.8,6.26,5.32,10.67Z" style="fill: url(#Degradado_sin_nombre_4-2);"/>
                </g>
              </g>
              <g>
                <path d="M397.5,112.11s-1.94,5.97-7.21,6.5c-5.27.53-8.55-4.17-8.55-4.17,0,0,5.73-1.6,15.76-2.33Z"/>
                <g style="clip-path: url(#clippath-1);">
                  <path d="M385.05,120.51c.84,2.35,5.87,2.7,11.22.79,5.36-1.92,9.02-5.38,8.18-7.73-.84-2.35-5.87-2.7-11.23-.79-5.36,1.92-9.02,5.38-8.18,7.73Z" style="fill: #d8714c;"/>
                  <path d="M398.26,113.04s-9.46,1.9-12.62,2.03c-3.15.13-5.16-3.51-5.16-3.51l16.52-2.67,1.26,4.14Z" style="fill: #fff;"/>
                </g>
              </g>
              <path d="M392.36,99.07c-.53,1.57.32,3.27,1.89,3.79,1.57.53,3.27-.32,3.79-1.89.53-1.57-.32-3.27-1.89-3.79-1.57-.53-3.27.32-3.79,1.89Z"/>
              <path d="M375.77,97.98c-.53,1.57.32,3.27,1.89,3.79,1.57.53,3.27-.32,3.79-1.89.53-1.57-.32-3.27-1.89-3.79-1.57-.53-3.27.32-3.79,1.89Z"/>
              <path d="M390.92,92.81c1.06-.94,2.2-1.72,3.41-2.28,1.21-.54,2.49-.83,3.76-.72,1.28.07,2.53.51,3.72,1.13,1.2.62,2.32,1.43,3.48,2.26-.76-1.2-1.75-2.28-2.95-3.12-.59-.44-1.26-.77-1.95-1.07-.71-.26-1.45-.43-2.21-.49-1.53-.11-3.07.33-4.32,1.13-1.25.8-2.28,1.88-2.93,3.16Z" style="fill: #38322e;"/>
              <path d="M382.45,91.51c-.38-1-1.01-1.89-1.78-2.66-.77-.76-1.73-1.4-2.82-1.74-.53-.17-1.15-.28-1.76-.22-.61.07-1.2.27-1.69.61-.98.67-1.57,1.71-1.75,2.76.68-.82,1.43-1.5,2.26-1.86.83-.37,1.67-.35,2.57-.07.89.26,1.75.72,2.57,1.26.82.56,1.61,1.2,2.4,1.91Z" style="fill: #38322e;"/>
              <path d="M399.18,97.9s-3.36-2.61-6.84.47" style="fill: none; stroke: #000; stroke-linecap: round; stroke-linejoin: round; stroke-width: .5px;"/>
              <path d="M382.07,96.88s-2.83-2.7-6.05.17" style="fill: none; stroke: #000; stroke-linecap: round; stroke-linejoin: round; stroke-width: .5px;"/>
              <g>
                <path d="M384.23,98.63c.49,1.71-.08,3.68-1.4,4.87-.77.7-1.79,1.17-2.3,2.07-.47.82-.41,1.87-.01,2.72.4.85,1.11,1.53,1.89,2.06,0,0,2.51.6,4.32-1.87,1.81-2.47,1.38-6.51.51-9.1s-3-.76-3-.76Z" style="fill: url(#Degradado_sin_nombre_9);"/>
                <path d="M384.23,98.63c.49,1.71-.08,3.68-1.4,4.87-.77.7-1.79,1.17-2.3,2.07-.47.82-.41,1.87-.01,2.72.4.85,1.11,1.53,1.89,2.06" style="fill: none; stroke: #000; stroke-linecap: round; stroke-linejoin: round; stroke-width: .5px;"/>
              </g>
              <path d="M396.52,111.63c1.07.14,2.07.69,2.77,1.5" style="fill: none; stroke: #000; stroke-linecap: round; stroke-linejoin: round; stroke-width: .5px;"/>
            </g>
            <path d="M375.55,86.19c2.86-2.39,6.18-4.34,8.31-7.39-1.12,3.23-.8,6.92.86,9.91s4.63,5.21,7.96,5.96c-2.08-3.49-2.94-7.7-2.39-11.73,2.81,3.71,7.24,5.84,11.67,7.25s9.06,2.27,13.33,4.11,8.3,4.92,9.9,9.29c5.56-5.61,6.94-14.17,6.61-22.06-.12-2.79-.41-5.59-1.23-8.26-2.92-9.61-10.75-13.93-20.27-14.51-7.76-.47-15.75-.12-22.97,2.78-10.15,4.07-15.47,12.36-17.34,22.82-.19,1.06-1.56,9.89.44,9.02.52-.23,1.5-3.25,1.96-3.89.89-1.24,1.98-2.33,3.15-3.31Z" style="fill: #38322e;"/>
            <g>
              <path d="M420.56,101.51c-3.22,4.56-4.19,9.2-.96,11.48,3.23,2.28,9.45,1.35,12.66-3.21,3.22-4.56,3.21-10.1-.02-12.39-3.23-2.28-8.46-.44-11.68,4.12Z" style="fill: #b27449;"/>
              <path d="M434.27,100.2s-6.57-.71-14.03,9.11" style="fill: none; stroke: #000; stroke-linecap: round; stroke-linejoin: round; stroke-width: .5px;"/>
            </g>
            <path d="M441.36,75.45c-.45-1-1.01-1.93-1.67-2.78-4.86,1.05-9.9,1.31-14.84.73-2.88-.34-5.75-.96-8.43-2.07-6.32-2.62-11.21-7.78-17.1-11.25-3.77-2.22-7.96-3.72-12.28-4.45-3.57,1.55-6.96,3.51-10.06,5.85-2.88,2.18-5.24,5.06-7.03,8.33,5.75-3.19,12.52-4.56,19.11-4.17,8.39.49,16.5,3.67,23.51,8.32,2.32,1.54,4.54,3.24,6.91,4.69,6.96,4.26,15.27,6.23,23.4,5.66,0-.72,0-1.44-.05-2.16-.14-2.3-.53-4.6-1.47-6.7Z" style="fill: #38322e; mix-blend-mode: screen;"/>
          </g>
          <g>
            <g>
              <path d="M449.84,154.76c-4.97-12.34-11.5-13.53-16.89-12.71-5.39.82-7.23,8.35-5.93,18.77,1.3,10.42,9.04,35.75,9.04,35.75l-37.49,19.74c-5.19.75-10.62.17-15.74,1.32-5.69,1.28-11.24,4.25-15.94,7.64-1.65,1.19-3.34,2.7-3.52,4.72-.02.26-.02.53-.1.78-.09.29-.29.53-.48.76-1.16,1.47-1.12,2.67-1.25,4.36-.1,1.26.13,2.94,1.84,2.97-.31,1.19,1.08,2.26,2.3,2.14,1.23-.11,2.24-.96,3.2-1.73,1.34-1.08,2.75-2.08,4.2-3,.8-.5,1.62-.99,2.52-1.28,1.83-.59,3.82-.33,5.74-.44,5.38-.32,10.63-2.26,15.16-5.15,1.26-.8,4.4-2.68,4.4-2.68,0,0,46.1-7.93,53.2-18.38s.71-41.24-4.26-53.59Z" style="fill: #b27449;"/>
              <path d="M436.31,196.38c3.74-.85,7.7-.68,11.35.49" style="fill: none; stroke: #000; stroke-linecap: round; stroke-linejoin: round; stroke-width: .5px;"/>
              <g>
                <path d="M363.88,231.13c2.92-2.51,6.05-4.77,9.34-6.76" style="fill: none; stroke: #333; stroke-linecap: round; stroke-linejoin: round; stroke-width: .5px;"/>
                <path d="M362.81,235.68c3.16-2.91,6.57-5.56,10.18-7.9" style="fill: none; stroke: #333; stroke-linecap: round; stroke-linejoin: round; stroke-width: .5px;"/>
                <path d="M364.06,238.66c2.98-2.93,6.36-5.46,10.03-7.47" style="fill: none; stroke: #333; stroke-linecap: round; stroke-linejoin: round; stroke-width: .5px;"/>
              </g>
            </g>
            <g>
              <path d="M436.3,140.18s12.09,3.91,14.57,12.87c2.48,8.96,5.14,17.92,5.14,17.92,0,0-7.27,7.4-29.5,6.14,0,0-8.51-36.38,9.8-36.93Z" style="fill: #cc80ff;"/>
              <path d="M430.59,177.25c-1.3-.01-2.66-.06-4.09-.14,0,0-3.89-16.61-.76-27.56" style="fill: none; stroke: #000; stroke-linecap: round; stroke-linejoin: round; stroke-width: .5px;"/>
            </g>
          </g>
          <path d="M419.81,128.34c-.79,4.88-5.33,8.06-8.53,11.83-2.9,3.42-4.85,7.7-5.21,12.17-.35,4.47.96,9.11,3.86,12.53-.06-2.73-.11-5.46-.17-8.19.02,2.46,1.59,4.64,3.39,6.32,2.89,2.7,6.54,4.57,10.41,5.34-3.04-5.2-2.51-12.25,1.27-16.94,3-3.72,7.74-5.96,10.06-10.14,1.63-2.95,1.83-6.47,1.7-9.84-.2-5.29-2.13-11.73-7.71-13.59-1.8-.6-3.84-.61-5.55.22-4.19,2.03-2.94,6.59-3.53,10.29Z" style="fill: #38322e;"/>
        </g>
        <g>
          <g>
            <path d="M519.21,145.6c-4.93,1.3-10.62,4.75-12.8,9.42-2.18,4.67-8.2,32.71-8.2,32.71l-23.7-17.4s-4.28-3.95-6.31-6.03c-3.28-3.35-6.94-6.98-11.16-9.12-2.46-1.25-5.26-1.61-8-1.95-.77-.1-1.81-.01-1.98.74-.1.44.19.87.49,1.21,1.94,2.19,4.87,3.28,6.87,5.41.48.51.92,1.27-.05,1.53-.32.09-.67.05-1,0-3.86-.5-7.9-1.08-11.03-3.39-.93-.69-1.77-1.53-2.81-2.05-.83-.42-3.92-.91-3.83.77-.56.05-1.14.13-1.61.43-.48.3-.83.86-.71,1.41.03.15.1.3.1.45,0,.18-.1.35-.17.51-.34.78-.16,1.71.26,2.46.42.74,1.05,1.34,1.68,1.92-.25.73,0,1.55.45,2.18.45.62,1.09,1.09,1.71,1.54,1.99,1.44,3.98,2.87,5.97,4.31,1.68,1.21,3.45,2.06,5.35,2.86,2.48,1.04,5.2,1.5,7.87,1.68,2.02.13,6.54,1.31,8.55,1.51,2,.2,23.51,33.88,36.81,33,13.3-.88,25.36-46.4,25.36-46.4,0,0-3.17-21.02-8.1-19.72Z" style="fill: #f2b27e;"/>
            <g>
              <path d="M461.55,171.95c-3.42-1.56-7.29-2.12-11.01-1.6" style="fill: none; stroke: #333; stroke-linecap: round; stroke-linejoin: round; stroke-width: .5px;"/>
              <path d="M435.38,164.56c1.22-.14,2.32.65,3.3,1.38,2.1,1.56,4.28,3.05,6.67,4.12" style="fill: none; stroke: #333; stroke-linecap: round; stroke-linejoin: round; stroke-width: .5px;"/>
              <path d="M433.78,159.55c1.91.13,3.52,1.42,5.04,2.59,2.33,1.79,4.78,3.41,7.34,4.85" style="fill: none; stroke: #333; stroke-linecap: round; stroke-linejoin: round; stroke-width: .5px;"/>
              <path d="M436.14,157.52c1.42.37,2.58,1.36,3.75,2.26,2.17,1.67,4.53,3.08,7.02,4.2" style="fill: none; stroke: #333; stroke-linecap: round; stroke-linejoin: round; stroke-width: .5px;"/>
              <path d="M498.41,187.48c3.54,2.55,6.6,5.77,8.97,9.43" style="fill: none; stroke: #333; stroke-linecap: round; stroke-linejoin: round; stroke-width: .5px;"/>
            </g>
            <g>
              <path d="M517.76,145.22s-6.33,1.31-10.9,7.98c-4.57,6.67-10.26,26.5-10.26,26.5,0,0,13.41,13.78,32.52,10.24,0,0,12.79-39.89-11.36-44.72Z" style="fill: #cc80ff;"/>
              <path d="M498.03,174.98c-.89,2.82-1.43,4.72-1.43,4.72,0,0,13.41,13.78,32.52,10.24,0,0,.55-1.73,1.21-4.51-16.43,2.73-29.3-7.75-32.3-10.45Z" style="fill: #994ce5;"/>
            </g>
          </g>
          <g>
            <g>
              <path d="M451.95,344.22c-.41,0-.85-.03-1.2-.24-.34-.2-.57-.55-.78-.89-1.85-2.82-4.36-5.26-7.32-6.83,1.66-1.47,3.07-3.1,3.91-5.44,1.15-3.22,1.26-6.7,1.29-10.12.01-1.18-.05-3.14-.15-5.63l18.06-.51c-.4,3.58-.82,7.42-1.22,11.65-.29,3.01.55,9.95,1.26,15.35-4.36,1.83-9.11,2.75-13.84,2.66Z" style="fill: #f2b27e;"/>
              <path d="M457.76,350.23c-5.64,1-11.27,2-16.95,2.76-1.93.26-3.88.49-5.81.2-.99-3.32-2.41-6.77-5.09-8.88,3.66-1.89,7.48-3.84,9.4-5.35.32-.25.64-.5.95-.74.83-.65,1.63-1.29,2.39-1.96,2.96,1.57,5.47,4.02,7.32,6.83.22.33.44.68.78.89.36.21.79.23,1.2.24,4.73.09,9.48-.83,13.84-2.66.05.37.1.73.14,1.08.25,1.88.48,3.49.61,4.59-1.01.67-2.08,1.23-3.21,1.65-1.8.67-3.7,1.01-5.59,1.35Z" style="fill: #994ce5;"/>
              <path d="M421.43,349.44c1.1-1.28,4.7-3.17,8.48-5.13,2.67,2.12,4.1,5.56,5.09,8.88,1.92.29,3.88.06,5.81-.2,5.67-.76,11.31-1.76,16.95-2.76,1.89-.34,3.79-.67,5.59-1.35,1.13-.42,2.21-.99,3.21-1.65.09.75.15,1.27.15,1.47-.1,5.07-9.97,4.56-13.3,5.03-5.51.79-10.79,2.65-16.28,3.53-4.66.75-11.08.94-15.41-1.27-2.73-1.39-2.03-4.52-.27-6.56Z" style="fill: #b266ff;"/>
              <path d="M460.3,337.46c-.45,1.91-1.78,3.59-3.54,4.45" style="fill: none; stroke: #000; stroke-linecap: round; stroke-linejoin: round; stroke-width: .5px;"/>
              <path d="M439.81,338.55c.54.13,1.01.46,1.44.8,1.14.89,2.2,1.89,3.15,2.99" style="fill: none; stroke: #000; stroke-linecap: round; stroke-linejoin: round; stroke-width: .5px;"/>
              <path d="M437.61,340.19c1.53.84,2.83,2.1,3.72,3.61" style="fill: none; stroke: #000; stroke-linecap: round; stroke-linejoin: round; stroke-width: .5px;"/>
            </g>
            <path d="M546.95,238.62s-6.63,21.23-33.71,23.76c-27.08,2.53-41.61,1.3-41.61,1.3,0,0,.55,5.89.88,23.59.33,17.78-6.12,43.52-6.12,43.52,0,0-3.32,4.37-10.98,5.25-7.67.88-11-2.92-11-2.92,0,0-6.35-72.91-1.42-84.41,4.92-11.5,46.88-22.54,61.26-25.24,14.37-2.69,43.02-4.73,43.02-4.73l-.31,19.87Z" style="fill: #cc9864;"/>
            <path d="M543.91,235.57s-6.63,21.23-33.71,23.76c-27.08,2.53-42.03,1.78-42.03,1.78,0,0,.55,5.89.88,23.59.33,17.78-7.23,49.51-7.23,49.51" style="fill: none; stroke: #000; stroke-linecap: round; stroke-linejoin: round; stroke-width: .5px;"/>
          </g>
          <g>
            <g>
              <path d="M486.07,353.75c-.41.02-.85.03-1.21-.16-.36-.18-.6-.51-.84-.83-2.04-2.68-4.72-4.95-7.77-6.31,1.55-1.58,2.85-3.31,3.52-5.7.93-3.29.79-6.78.59-10.19-.07-1.18-.26-3.13-.54-5.61l17.98-1.75c-.16,3.59-.3,7.46-.41,11.71-.08,3.03,1.23,9.89,2.32,15.23-4.23,2.13-8.9,3.38-13.62,3.61Z" style="fill: #f2b27e;"/>
              <path d="M492.27,359.35c-5.55,1.39-11.11,2.78-16.72,3.93-1.9.39-3.84.76-5.78.6-1.22-3.25-2.87-6.58-5.69-8.51,3.52-2.14,7.2-4.35,9-5.99.3-.27.6-.54.9-.81.78-.7,1.54-1.4,2.25-2.12,3.06,1.36,5.74,3.63,7.77,6.31.24.32.49.65.84.83.37.19.8.18,1.21.16,4.73-.24,9.4-1.48,13.62-3.61.07.36.15.72.22,1.07.38,1.85.72,3.45.93,4.54-.96.74-1.99,1.37-3.09,1.87-1.75.79-3.62,1.26-5.48,1.73Z" style="fill: #994ce5;"/>
              <path d="M455.98,361.07c1.01-1.35,4.47-3.49,8.11-5.7,2.81,1.93,4.47,5.26,5.69,8.51,1.94.16,3.87-.21,5.78-.6,5.61-1.15,11.16-2.54,16.72-3.93,1.86-.47,3.73-.93,5.48-1.73,1.1-.5,2.13-1.14,3.09-1.87.15.74.24,1.26.25,1.45.25,5.06-9.63,5.23-12.93,5.94-5.44,1.17-10.58,3.39-16,4.65-4.6,1.07-10.98,1.71-15.46-.2-2.82-1.2-2.33-4.37-.72-6.52Z" style="fill: #b266ff;"/>
              <path d="M493.92,346.44c-.32,1.93-1.53,3.7-3.22,4.69" style="fill: none; stroke: #000; stroke-linecap: round; stroke-linejoin: round; stroke-width: .5px;"/>
              <path d="M473.56,348.94c.55.09,1.04.39,1.5.7,1.2.81,2.32,1.74,3.35,2.76" style="fill: none; stroke: #000; stroke-linecap: round; stroke-linejoin: round; stroke-width: .5px;"/>
              <path d="M471.48,350.73c1.59.73,2.97,1.9,3.96,3.34" style="fill: none; stroke: #000; stroke-linecap: round; stroke-linejoin: round; stroke-width: .5px;"/>
            </g>
            <g>
              <path d="M567.96,247.03s-9.99,17.86-37.07,20.39c-27.08,2.53-36.23,4.97-36.23,4.97,0,0,3.07,9.28,3.94,21.27.87,12,.48,43.64.48,43.64,0,0-1.11,4.07-8.56,6.1s-13.23-1.22-13.23-1.22c0,0-20.41-83.12-13.85-93.77,6.56-10.65,59.29-24.93,59.29-24.93l45.54,3.67-.31,19.87Z" style="fill: #cc9864;"/>
              <g>
                <path d="M496.75,340.37s.01-37.4-.86-49.4c-.88-12-3.94-21.27-3.94-21.27,0,0,9.15-2.44,36.23-4.97,27.08-2.53,37.07-20.39,37.07-20.39,0,0,3.56-5.46,4.49-11.56" style="fill: none; stroke: #000; stroke-linecap: round; stroke-linejoin: round; stroke-width: .5px;"/>
                <path d="M494.36,271.79c-2.75-2.87-6.04-5.21-9.65-6.87" style="fill: none; stroke: #000; stroke-linecap: round; stroke-linejoin: round; stroke-width: .5px;"/>
                <path d="M552.22,257.21c-2.25-.71-3.82-2.74-5-4.79-3.04-5.3-4.44-11.52-3.96-17.61" style="fill: none; stroke: #000; stroke-linecap: round; stroke-linejoin: round; stroke-width: .5px;"/>
                <path d="M469.86,308.16c-7.29-32.99-9.45-54.85-6.43-59.74,4.77-7.75,33.99-17.42,49.55-22.11" style="fill: none; stroke: #000; stroke-linecap: round; stroke-linejoin: round; stroke-width: .5px;"/>
              </g>
            </g>
          </g>
          <g>
            <g>
              <path d="M524,147.66c1.02,1.62,2.7,2.82,4.56,3.26,3.37.8,6.81-.81,9.75-2.64,3.75-2.34,7.22-5.14,10.32-8.31-.06-.03-.13-.06-.19-.09-1.06-.52-1.9-1.07-2.4-1.71-3.32-4.17-1.54-15.01-1.54-15.01l-16.73,4.35s1.93,9.91.66,12.89c-.25.59-.83,1.02-1.61,1.36-.91.4-2.33.88-3.94,1.45-.09,1.55.29,3.13,1.12,4.44Z" style="fill: #f2b27e;"/>
              <path d="M571.28,204.94c.16-3.13.61-6.2,1.05-9.33,1.14-8.19,2.16-16.41,2.71-24.66.35-5.21,1.52-12.61-.86-17.53-3.5-7.23-19.58-10.62-25.55-13.44-3.1,3.16-6.56,5.96-10.32,8.31-2.93,1.83-6.38,3.44-9.75,2.64-1.86-.44-3.54-1.64-4.56-3.26-.83-1.31-1.21-2.89-1.12-4.44-3.88,1.37-8.87,3.24-10.57,5.56-1.45,1.97-2.9,16.9-.75,32.52,2.15,15.61,5.15,30.44,5.15,30.44,0,0-4.54,6.16-11.8,10.53,0,0-3.79,9.96,18.84,14.19,22.63,4.23,35.57,5.93,42.06,13.61,0,0,8.15-5.57,7.88-22.36-.19-11.95-2.41-22.76-2.41-22.76Z" style="fill: #cc80ff;"/>
            </g>
            <path d="M527.76,127.52l16.73-4.35s-.59,3.59-.46,7.43c-3.48,5.04-9.89,12.59-15.76,10.06.05-.08.11-.16.15-.25,1.27-2.98-.66-12.89-.66-12.89Z" style="fill: #f2b27e; mix-blend-mode: multiply; opacity: .7;"/>
            <path d="M520.21,211.48c2.67,2.01,6.29,2.09,9.62,1.88,8.15-.51,16.23-2.23,23.88-5.09" style="fill: none; stroke: #000; stroke-linecap: round; stroke-linejoin: round; stroke-width: .5px;"/>
            <path d="M510.48,163.3c-.08,5.32.2,11.6,1.07,17.99.1.7.19,1.4.29,2.1" style="fill: none; stroke: #000; stroke-linecap: round; stroke-linejoin: round; stroke-width: .5px;"/>
            <path d="M524,147.66c1.02,1.62,2.7,2.82,4.56,3.26,3.37.8,6.81-.81,9.75-2.64,3.75-2.34,7.22-5.14,10.32-8.31-.06-.03-.13-.06-.19-.09-.78-.38-1.44-.78-1.93-1.22-2.44,2.21-5.07,4.21-7.86,5.95-2.93,1.83-6.38,3.44-9.75,2.64-1.87-.44-3.54-1.64-4.56-3.26-.22-.35-.4-.71-.56-1.09-.29.1-.58.21-.89.31-.09,1.55.29,3.13,1.12,4.44Z" style="fill: #994ce5;"/>
          </g>
          <g>
            <path d="M568.83,148.42c5.69,2.24,6.11,7.99,6.13,7.8,0,0,11.33,33.28,12.41,37.02,4.67,16.13-13.01,17.66-13.01,17.66-8.39-9.36-13.89-30.87-15.42-41.16-2.08-14,4.19-23.56,9.88-21.33Z" style="fill: #f2b27e;"/>
            <g>
              <path d="M563.52,145.54s10.25,3.69,12.82,8.8c2.57,5.11,10.12,23.08,10.12,23.08,0,0-8.75,12.75-27.91,12.4,0,0-16.88-35.73,4.98-44.27Z" style="fill: #cc80ff;"/>
              <path d="M584.62,173.08c-.54.75-9.33,12.7-27.88,12.36,1.01,2.7,1.8,4.37,1.8,4.37,19.16.36,27.91-12.4,27.91-12.4,0,0-.74-1.76-1.83-4.33Z" style="fill: #994ce5;"/>
              <path d="M556.74,185.44c-2.02-5.37-4.93-14.82-4.34-23.36" style="fill: none; stroke: #333; stroke-linecap: round; stroke-linejoin: round; stroke-width: .5px;"/>
            </g>
            <g>
              <g>
                <path d="M578.34,176.05c.95-2.77,1.94-5.53,2.67-8.37.94-3.62,1.46-7.32,1.99-11.02l.08-.68c1.1-3.82,2.4-7.93,4.67-11.2,1.38-2,3.41-3.45,5.38-4.87.56-.4,1.4-.77,1.84-.25.26.3.21.76.12,1.14-.59,2.51-2.4,4.58-3.05,7.07-.16.6-.18,1.37.68,1.17.29-.07.54-.25.78-.42,2.78-2.01,5.67-4.15,7.12-7.25.43-.93.73-1.93,1.32-2.77.47-.68,2.66-2.35,3.29-1.01.45-.19.94-.37,1.43-.34.49.03,1,.32,1.14.8.04.13.05.27.11.39.08.14.22.23.35.33.59.47.84,1.26.83,2.01-.01.75-.25,1.48-.49,2.19.5.46.65,1.2.56,1.88-.09.67-.39,1.3-.68,1.91-.94,1.95-1.88,3.89-2.82,5.84-.79,1.65-1.81,3.05-2.95,4.46-1.48,1.85-3.4,3.34-5.39,4.6-1.51.95-2.91,2.05-4.39,3.05-1.47,1-2.77,3.74-2.77,3.74,0,0,7.42,46.25-6.98,47.29-3.81.28-7.09-2.5-9.83-6.03-.78-2.61-.64-4.12-.64-4.12-.49-10.07,2.35-19.99,5.62-29.53Z" style="fill: #f2b27e;"/>
                <g>
                  <path d="M591.29,159.66c2-2.64,4.76-4.7,7.86-5.86" style="fill: none; stroke: #333; stroke-linecap: round; stroke-linejoin: round; stroke-width: .5px;"/>
                  <path d="M608.47,142.97c-1,.4-1.53,1.47-1.98,2.45-.97,2.09-2.03,4.16-3.44,5.99" style="fill: none; stroke: #333; stroke-linecap: round; stroke-linejoin: round; stroke-width: .5px;"/>
                  <path d="M607.61,138.41c-1.43.9-2.13,2.57-2.82,4.12-1.06,2.36-2.28,4.65-3.65,6.84" style="fill: none; stroke: #333; stroke-linecap: round; stroke-linejoin: round; stroke-width: .5px;"/>
                  <path d="M604.93,137.83c-.95.88-1.43,2.14-1.96,3.32-.98,2.2-2.22,4.29-3.68,6.2" style="fill: none; stroke: #333; stroke-linecap: round; stroke-linejoin: round; stroke-width: .5px;"/>
                </g>
              </g>
              <path d="M572.72,205.57c-.49-10.07,2.35-19.99,5.62-29.53.56-1.65,1.14-3.29,1.67-4.95" style="fill: none; stroke: #333; stroke-linecap: round; stroke-linejoin: round; stroke-width: .5px;"/>
            </g>
          </g>
          <g>
            <path d="M573.58,77.23c-1.41-3.68-4.41-6.64-7.98-8.31-1.85-.87-3.84-1.39-5.87-1.61-1.68-3.97-5.4-6.95-9.47-8.51-4.57-1.74-9.56-1.94-14.45-1.88-8.7.1-17.71,1.03-25.21,5.43-5.85,3.44-10.47,8.92-12.86,15.28-1.44,3.84-2.08,7.93-3.33,11.83s-3.24,7.78-6.64,10.08c2.22,2.25,5.63,3.27,8.73,2.6-.72,1.82-1.94,3.44-3.5,4.62,9.01,4.23,19.57,2.84,29.31.82,2.83-.59,5.86-.23,8.25,1.38,1.59,1.07,2.62,2.78,4,4.11,2.5,2.39,6.03,3.38,9.46,3.73,4.47.44,9.09-.11,13.19-1.95,4.1-1.84,7.65-5.01,9.62-9.05,1.64-3.37,2.13-7.17,2.55-10.9,1.76,1.97,4.57,2.95,7.17,2.52-3.02-6.14-.53-13.78-2.98-20.17Z" style="fill: #9b5b2f;"/>
            <g>
              <g>
                <path d="M502.42,92.05c-5.09,17.76,2.37,38.95,12.8,41.94,14.62,4.19,34.99-7.31,40.08-25.07,5.09-17.76-1.08-36.87-15.7-41.06-14.62-4.19-32.09,6.43-37.18,24.19Z" style="fill: #f2b27e;"/>
                <g style="clip-path: url(#clippath-2);">
                  <path d="M543.77,120.7c-1.31,4.58-6.09,7.23-10.68,5.92-4.58-1.31-7.23-6.09-5.92-10.68,1.31-4.58,6.09-7.23,10.68-5.92s7.23,6.09,5.92,10.68Z" style="fill: url(#Degradado_sin_nombre_21);"/>
                  <path d="M508.92,120.16c-1.31,4.58-6.09,7.23-10.68,5.92-4.58-1.31-7.23-6.09-5.92-10.68,1.31-4.58,6.09-7.23,10.68-5.92,4.58,1.31,7.23,6.09,5.92,10.68Z" style="fill: url(#Degradado_sin_nombre_21-2);"/>
                </g>
              </g>
              <path d="M523.61,120.47s-2.02,3.25-5.58,3.25c-3.56,0-5.12-2.77-5.12-2.77" style="fill: none; stroke: #000; stroke-linecap: round; stroke-linejoin: round; stroke-width: .5px;"/>
              <path d="M521.74,105.66c-.47,1.63.47,3.33,2.1,3.79,1.63.47,3.33-.47,3.79-2.1.47-1.63-.47-3.33-2.1-3.79-1.63-.47-3.33.47-3.79,2.1Z"/>
              <path d="M504.93,105.34c-.47,1.63.47,3.33,2.1,3.79,1.63.47,3.33-.47,3.79-2.1.47-1.63-.47-3.33-2.1-3.79-1.63-.47-3.33.47-3.79,2.1Z"/>
              <path d="M520.05,99.4c1.04-1.01,2.17-1.86,3.38-2.48,1.21-.6,2.51-.97,3.82-.91,1.31.01,2.61.41,3.85.99,1.25.58,2.44,1.36,3.66,2.16-.84-1.2-1.89-2.25-3.16-3.06-.62-.43-1.32-.73-2.04-1-.73-.23-1.5-.37-2.29-.4-1.57-.04-3.13.48-4.37,1.35-1.24.87-2.25,2.03-2.85,3.36Z" style="fill: #9b5b2f;"/>
              <path d="M511.32,98.45c-.43-1.01-1.12-1.89-1.94-2.64-.83-.74-1.83-1.36-2.97-1.65-.55-.15-1.19-.23-1.81-.14-.62.09-1.22.33-1.7.7-.98.73-1.53,1.82-1.66,2.91.66-.87,1.4-1.6,2.23-2.01.83-.41,1.7-.43,2.62-.18.93.22,1.82.66,2.69,1.18.87.53,1.7,1.16,2.54,1.84Z" style="fill: #9b5b2f;"/>
              <path d="M528.72,104.24s-3.55-2.52-6.97.79" style="fill: none; stroke: #000; stroke-linecap: round; stroke-linejoin: round; stroke-width: .5px;"/>
              <path d="M511.18,103.95s-3.02-2.63-6.18.45" style="fill: none; stroke: #000; stroke-linecap: round; stroke-linejoin: round; stroke-width: .5px;"/>
              <g>
                <path d="M513.47,105.65c.57,1.73.08,3.76-1.21,5.04-.76.75-1.78,1.27-2.26,2.22-.44.86-.34,1.93.11,2.79.45.86,1.2,1.52,2.02,2.03,0,0,2.6.5,4.33-2.11,1.74-2.61,1.12-6.72.11-9.33-1.01-2.6-3.1-.64-3.1-.64Z" style="fill: url(#Degradado_sin_nombre_29);"/>
                <path d="M513.47,105.65c.57,1.73.08,3.76-1.21,5.04-.76.75-1.78,1.27-2.26,2.22-.44.86-.34,1.93.11,2.79.45.86,1.2,1.52,2.02,2.03" style="fill: none; stroke: #000; stroke-linecap: round; stroke-linejoin: round; stroke-width: .5px;"/>
              </g>
            </g>
            <path d="M527.79,77.4c-1.53.7-2.52,2.22-3.21,3.76s-1.19,3.18-2.17,4.55c-1.52,2.12-4,3.32-6.48,4.13,1.12-1.24,1.66-2.97,1.45-4.63-3.95,3.28-8.48,6.76-13.59,6.31,1.47-1.09,2.6-2.63,3.19-4.37-2.64,2.24-5.86,3.79-9.26,4.43,1.91-3.93,2.88-8.26,4.82-12.18,4.04-8.16,12.25-13.93,21.18-15.73,3.52-.71,7.13-.85,10.71-.89,3.16-.03,6.38.02,9.4.93,2.75.83,5.26,2.36,7.53,4.12,2.47,1.91,4.73,4.13,6.42,6.75,3.33,5.17,4.22,11.63,3.49,17.74-.73,6.1-2.98,11.92-5.54,17.51-1.91-.24-3.84-.27-5.76-.08.21-5.24-.31-10.51-1.53-15.6-.18,1.07-.17,2.17.01,3.23-2.96-.25-5.74-2.09-7.13-4.71.16,1.23.77,2.4,1.69,3.24-1.97-.12-4.01-.76-5.27-2.28-1.36-1.63-1.56-3.93-1.33-6.04.23-2.11.83-4.18.84-6.3,0-1.19-.33-2.59-1.44-3.03-1.64-.65-2.76,1.15-3.74,2.09-.86-1.92-1.12-4.41-4.31-2.97Z" style="fill: #9b5b2f;"/>
            <g>
              <path d="M550.75,106.98c-3.09,4.81-3.87,9.6-.47,11.79,3.41,2.19,9.72.95,12.81-3.85,3.09-4.8,2.83-10.48-.58-12.67-3.41-2.19-8.68-.07-11.77,4.73Z" style="fill: #f2b27e;"/>
              <path d="M564.72,105.02s-6.75-.44-13.94,9.95" style="fill: none; stroke: #000; stroke-linecap: round; stroke-linejoin: round; stroke-width: .5px;"/>
            </g>
            <path d="M568.92,71c-7.8,1.95-16.06,1.77-23.33-1.51-3.74-1.69-7.1-4.13-10.7-6.11-4.3-2.37-8.97-4.06-13.79-5.03-3.69.82-7.24,2.08-10.51,4-4.51,2.65-8.27,6.52-10.86,11.06,10.58-6,23.66-7.58,35.29-3.94,7.67,2.4,14.54,6.84,22.01,9.83,5.55,2.23,11.8,3.59,17.59,2.64-.16-1.62-.46-3.2-1.04-4.72-.94-2.45-2.6-4.58-4.66-6.23Z" style="fill: #9b5b2f; mix-blend-mode: screen; opacity: .7;"/>
          </g>
        </g>
        <g>
          <path d="M571.6,198.3h79.14v76.08c0,7.96-6.46,14.42-14.42,14.42h-64.72v-90.5h0Z" style="fill: #6733b2;"/>
          <path d="M575.22,198.3h23.59c3.84,0,6.95,3.12,6.95,6.95v72.48c0,6.11-4.96,11.07-11.07,11.07h-26.42v-83.55c0-3.84,3.12-6.95,6.95-6.95Z" style="fill: #9966e5;"/>
        </g>
      </g>
      <g>
        <g>
          <g>
            <polygon points="83.56 365.67 89.62 365.67 93.46 317.24 79.72 317.24 83.56 365.67" style="fill: #9b5b2f;"/>
            <polygon points="252.07 356.08 258.13 356.08 261.97 317.24 248.23 317.24 252.07 356.08" style="fill: #9b5b2f;"/>
            <polygon points="41.02 346.49 47.08 346.49 50.92 307.65 37.18 307.65 41.02 346.49" style="fill: #9b5b2f;"/>
            <polygon points="187 346.49 193.06 346.49 196.9 307.65 183.17 307.65 187 346.49" style="fill: #9b5b2f;"/>
          </g>
          <path d="M46.11,288.11h207.38c10.09,0,18.27,8.19,18.27,18.27v12.68H27.83v-12.68c0-10.09,8.19-18.27,18.27-18.27Z" transform="translate(299.59 607.18) rotate(180)" style="fill: #8d59d8;"/>
          <path d="M22.73,142.99h160.92v115.02c0,13.58-11.02,24.6-24.6,24.6H47.34c-13.58,0-24.6-11.02-24.6-24.6v-115.02h0Z" transform="translate(206.39 425.6) rotate(180)" style="fill: #6733b2;"/>
          <g>
            <rect x="133.08" y="209.12" width="124.67" height="81.3" transform="translate(390.83 499.53) rotate(180)" style="fill: #6733b2;"/>
            <path d="M226.93,209.12h26.42c6.11,0,11.07,4.96,11.07,11.07v72.49c0,3.84-3.12,6.95-6.95,6.95h-23.59c-3.84,0-6.95-3.12-6.95-6.95v-83.55h0Z" transform="translate(491.34 508.74) rotate(180)" style="fill: #9966e5;"/>
          </g>
          <path d="M86.21,254.55h180.38c5.54,0,10.04,4.5,10.04,10.04v11.58c0,12.94-10.5,23.44-23.44,23.44H99.61c-12.94,0-23.44-10.5-23.44-23.44v-11.58c0-5.54,4.5-10.04,10.04-10.04Z" transform="translate(352.8 554.18) rotate(180)" style="fill: #9966e5;"/>
        </g>
        <g>
          <g>
            <g>
              <path d="M233.65,343.19c-1.88,1.63-2.9,4.36-2.07,6.69-4.32.13-8.65-.64-12.67-2.22.04-.34.08-.68.13-1.04.04-.34.09-.68.13-1.04.63-5.17,1.37-11.82,1.06-14.7-.43-4.04-.86-7.72-1.28-11.13l17.28.32c-.08,2.39-.12,4.26-.09,5.39.06,3.27.2,6.6,1.33,9.67.82,2.23,2.19,3.78,3.79,5.17.25.22.51.43.77.64-.49-.06-.98-.09-1.46-.08-2.48.05-5.04.69-6.92,2.32Z" style="fill: #f2b27e;"/>
              <path d="M218.91,347.66c4.02,1.57,8.36,2.35,12.67,2.22-.84-2.34.19-5.07,2.07-6.69,1.88-1.63,4.43-2.27,6.92-2.32.49,0,.98.02,1.46.08.5.41,1.01.81,1.54,1.21.3.23.61.46.92.7,1.84,1.43,5.52,3.26,9.04,5.03,3.64,1.84,7.09,3.61,8.16,4.83,1.7,1.93,2.4,4.92-.2,6.28-4.13,2.16-10.26,2.03-14.73,1.35-5.26-.79-10.33-2.52-15.61-3.23-3.19-.43-12.63.16-12.77-4.69,0-.19.04-.69.13-1.4.1-.85.25-2.02.42-3.37Z" style="fill: #cc9864;"/>
              <path d="M263,355.02c-.14.88-.65,1.67-1.68,2.21-4.13,2.16-10.26,2.03-14.73,1.35-5.26-.79-10.33-2.52-15.61-3.23-2.95-.39-11.24.08-12.59-3.68" style="fill: none; stroke: #000; stroke-linecap: round; stroke-linejoin: round; stroke-width: .5px;"/>
              <path d="M223.11,340.56c.45,1.82,1.74,3.42,3.43,4.23" style="fill: none; stroke: #000; stroke-linecap: round; stroke-linejoin: round; stroke-width: .5px;"/>
            </g>
            <g>
              <path d="M127.24,241.5s6.63,21.23,33.71,23.76c27.08,2.53,42.16,3.37,42.16,3.37,0,0,.32,5.91,2.6,23.46,2.29,17.64,9.56,47.91,9.56,47.91,0,0,6.8,2.87,14.51,2.62,7.71-.26,11.41-4.5,11.41-4.5,0,0-5.38-77.85-11.94-88.5-6.56-10.65-44.92-20.56-59.29-23.26-14.37-2.69-43.02-4.73-43.02-4.73l.31,19.87Z" style="fill: #cc80ff;"/>
              <path d="M130.29,238.45s6.63,21.23,33.71,23.76c27.08,2.53,42.16,3.37,42.16,3.37,0,0,.32,5.91,2.6,23.46,2.29,17.64,11.23,52.45,11.23,52.45" style="fill: none; stroke: #000; stroke-linecap: round; stroke-linejoin: round; stroke-width: .5px;"/>
            </g>
          </g>
          <g>
            <g>
              <path d="M190.61,353.14c-1.97,1.51-3.16,4.17-2.47,6.55-4.32-.13-8.6-1.17-12.52-2.98.06-.33.13-.67.19-1.03.06-.33.13-.68.19-1.03.95-5.12,2.08-11.71,1.95-14.6-.18-4.06-.39-7.76-.6-11.19l17.23,1.36c-.22,2.38-.37,4.25-.42,5.38-.13,3.27-.2,6.6.74,9.74.69,2.27,1.95,3.9,3.47,5.39.24.23.48.46.73.68-.48-.09-.97-.15-1.46-.17-2.48-.11-5.07.39-7.04,1.9Z" style="fill: #f2b27e;"/>
              <path d="M175.63,356.71c3.92,1.81,8.2,2.85,12.52,2.98-.69-2.38.5-5.05,2.47-6.55s4.56-2,7.04-1.9c.49.02.97.08,1.46.17.47.44.96.87,1.46,1.3.29.25.58.5.87.76,1.75,1.53,5.32,3.58,8.72,5.57,3.52,2.05,6.86,4.04,7.85,5.31,1.58,2.03,2.1,5.05-.58,6.25-4.25,1.9-10.37,1.4-14.79.46-5.2-1.11-10.16-3.15-15.39-4.17-3.16-.62-12.62-.61-12.47-5.46,0-.19.09-.68.21-1.39.15-.84.37-2,.62-3.33Z" style="fill: #cc9864;"/>
              <path d="M219.19,366.73c-.19.87-.75,1.63-1.81,2.11-4.25,1.9-10.37,1.4-14.79.46-5.2-1.11-10.16-3.15-15.39-4.17-2.92-.57-11.22-.61-12.34-4.43" style="fill: none; stroke: #000; stroke-linecap: round; stroke-linejoin: round; stroke-width: .5px;"/>
              <path d="M180.26,349.88c.33,1.84,1.53,3.51,3.17,4.43" style="fill: none; stroke: #000; stroke-linecap: round; stroke-linejoin: round; stroke-width: .5px;"/>
            </g>
            <g>
              <path d="M106.32,249.91s9.99,17.86,37.07,20.39c27.08,2.53,36.23,4.97,36.23,4.97,0,0-3.07,9.28-3.94,21.27-.87,12-1.44,47.48-1.44,47.48,0,0,.88,4.52,9.51,6.1,7.59,1.39,12.27-2.18,12.27-2.18,0,0,21.37-86,14.81-96.65-6.56-10.65-59.29-24.93-59.29-24.93l-45.54,3.67.31,19.87Z" style="fill: #cc80ff;"/>
              <g>
                <path d="M176.57,347.08s.94-41.24,1.82-53.24c.87-12,3.94-21.27,3.94-21.27,0,0-9.15-2.44-36.23-4.97-27.08-2.53-37.07-20.39-37.07-20.39,0,0-3.56-5.46-4.49-11.56" style="fill: none; stroke: #000; stroke-linecap: round; stroke-linejoin: round; stroke-width: .5px;"/>
                <path d="M179.92,274.67c2.75-2.87,6.04-5.21,9.65-6.87" style="fill: none; stroke: #000; stroke-linecap: round; stroke-linejoin: round; stroke-width: .5px;"/>
                <path d="M122.06,260.09c2.25-.71,3.82-2.74,5-4.79,3.04-5.3,4.44-11.52,3.96-17.61" style="fill: none; stroke: #000; stroke-linecap: round; stroke-linejoin: round; stroke-width: .5px;"/>
                <path d="M206.47,296.87c5.08-25.04,6.94-41.42,4.38-45.58-4.77-7.75-33.99-17.42-49.55-22.11" style="fill: none; stroke: #000; stroke-linecap: round; stroke-linejoin: round; stroke-width: .5px;"/>
              </g>
            </g>
          </g>
          <g>
            <path d="M156.99,148.86c4.93,1.3,10.62,4.75,12.8,9.42,2.18,4.67,8.2,32.71,8.2,32.71l23.7-17.4s4.28-3.95,6.31-6.03c3.28-3.35,6.94-6.98,11.16-9.12,2.46-1.25,5.26-1.61,8-1.95.77-.1,1.81-.01,1.98.74.1.44-.19.87-.49,1.21-1.94,2.19-4.87,3.28-6.87,5.41-.48.51-.92,1.27.05,1.53.32.09.67.05,1,0,3.86-.5,7.9-1.08,11.03-3.39.93-.69,1.77-1.53,2.81-2.05.83-.42,3.92-.91,3.83.77.56.05,1.14.13,1.61.43.48.3.83.86.71,1.41-.03.15-.1.3-.1.45,0,.18.1.35.17.51.34.78.16,1.71-.26,2.46-.42.74-1.05,1.34-1.68,1.92.25.73,0,1.55-.45,2.18-.45.62-1.09,1.09-1.71,1.54-1.99,1.44-3.98,2.87-5.97,4.31-1.68,1.21-3.45,2.06-5.35,2.86-2.48,1.04-5.2,1.5-7.87,1.68-2.02.13-6.54,1.31-8.55,1.51-2,.2-23.51,33.88-36.81,33-13.3-.88-25.36-46.4-25.36-46.4,0,0,3.17-21.02,8.1-19.72Z" style="fill: #f2b27e;"/>
            <g>
              <path d="M214.65,175.22c3.42-1.56,7.29-2.12,11.01-1.6" style="fill: none; stroke: #333; stroke-linecap: round; stroke-linejoin: round; stroke-width: .5px;"/>
              <path d="M240.82,167.83c-1.22-.14-2.32.65-3.3,1.38-2.1,1.56-4.28,3.05-6.67,4.12" style="fill: none; stroke: #333; stroke-linecap: round; stroke-linejoin: round; stroke-width: .5px;"/>
              <path d="M242.42,162.81c-1.91.13-3.52,1.42-5.04,2.59-2.33,1.79-4.78,3.41-7.34,4.85" style="fill: none; stroke: #333; stroke-linecap: round; stroke-linejoin: round; stroke-width: .5px;"/>
              <path d="M240.06,160.79c-1.42.37-2.58,1.36-3.75,2.26-2.17,1.67-4.53,3.08-7.02,4.2" style="fill: none; stroke: #333; stroke-linecap: round; stroke-linejoin: round; stroke-width: .5px;"/>
              <path d="M177.79,190.74c-3.54,2.55-6.6,5.77-8.97,9.43" style="fill: none; stroke: #333; stroke-linecap: round; stroke-linejoin: round; stroke-width: .5px;"/>
            </g>
            <path d="M158.44,148.48s6.33,1.31,10.9,7.98c4.57,6.67,11.22,26.5,11.22,26.5,0,0-15.33,14.74-34.44,11.2,0,0-11.83-40.85,12.31-45.68Z" style="fill: #994ce5;"/>
          </g>
          <g>
            <g>
              <path d="M141.45,158.42s-14.06-6.25-19.86-13.42c1.12-.46,2.15-.91,3.02-1.38.06-.03.13-.07.19-.1,1.03-.57,1.83-1.18,2.31-1.84,3.09-4.35.72-15.07.72-15.07l16.94,3.44s-1.39,10,.04,12.91c.29.58.88.97,1.68,1.27.93.35,2.38.75,4.01,1.23.08.02.16.05.24.07-.99,3.43-3.65,10.44-9.29,12.89Z" style="fill: #f2b27e;"/>
              <path d="M103.09,156.58c1.8-4.31,6.81-6.92,11.83-8.97,2.33-.95,4.66-1.78,6.67-2.6,5.8,7.16,19.86,13.42,19.86,13.42,5.64-2.45,8.29-9.46,9.29-12.89,2.16.64,4.63,1.4,6.71,2.33,1.68.75,3.11,1.6,3.91,2.58,1.65,2.01,2.16,18.98,1.37,32.94-.76,13.32-3.75,26.57-3.75,26.57,0,0,9.26,15.48,9.32,15.56,0,0-11.33,13.22-30.66,20.14-19.33,6.93-31.7,4.65-31.7,4.65,0,0-3.53-9.7-3.38-33.38.12-19.29-3.15-51.51.55-60.36Z" style="fill: #994ce5;"/>
            </g>
            <path d="M155.96,207.85c-2.11,1.15-4.51,1.63-6.88,2.01-6.31.99-12.73,1.26-19.1.81" style="fill: none; stroke: #000; stroke-linecap: round; stroke-linejoin: round; stroke-width: .5px;"/>
            <path d="M128.64,132.83c-.19-3.36-.82-6.21-.82-6.21l16.94,3.44s-1.31,9.45-.07,12.65c-5.79,2.03-12.24-4.81-16.05-9.87Z" style="fill: #f2b27e; mix-blend-mode: multiply; opacity: .7;"/>
            <path d="M161.79,193.36s2.08-12.49,1.3-24.99" style="fill: none; stroke: #000; stroke-linecap: round; stroke-linejoin: round; stroke-width: .5px;"/>
          </g>
          <g>
            <path d="M113.7,149.89c-5.02-.94-10.09,3.87-12.27,8.55-2.18,4.67-8.2,32.71-8.2,32.71l-23.7-17.4s-4.28-3.95-6.31-6.03c-3.28-3.35-6.94-6.98-11.16-9.12-2.46-1.25-5.26-1.61-8-1.95-.77-.1-1.81-.01-1.98.74-.1.44.19.87.49,1.21,1.94,2.19,4.87,3.28,6.87,5.41.48.51.92,1.27-.05,1.53-.32.09-.67.05-1,0-3.86-.5-7.9-1.08-11.03-3.39-.93-.69-1.77-1.53-2.81-2.05-.83-.42-3.92-.91-3.83.77-.56.05-1.14.13-1.61.43-.48.3-.83.86-.71,1.41.03.15.1.3.1.45,0,.18-.1.35-.17.51-.34.78-.16,1.71.26,2.46.42.74,1.05,1.34,1.68,1.92-.25.73,0,1.55.45,2.18.45.62,1.09,1.09,1.71,1.54,1.99,1.44,3.98,2.87,5.97,4.31,1.68,1.21,3.45,2.06,5.35,2.86,2.48,1.04,5.2,1.5,7.87,1.68,2.02.13,6.54,1.31,8.55,1.51,2,.2,23.51,33.88,36.81,33,13.3-.88,25.36-46.4,25.36-46.4,0,0,2.67-16.73-8.63-18.84Z" style="fill: #f2b27e;"/>
            <g>
              <path d="M56.56,175.37c-3.42-1.56-7.29-2.12-11.01-1.6" style="fill: none; stroke: #333; stroke-linecap: round; stroke-linejoin: round; stroke-width: .5px;"/>
              <path d="M30.4,167.99c1.22-.14,2.32.65,3.3,1.38,2.1,1.56,4.28,3.05,6.67,4.12" style="fill: none; stroke: #333; stroke-linecap: round; stroke-linejoin: round; stroke-width: .5px;"/>
              <path d="M28.79,162.97c1.91.13,3.52,1.42,5.04,2.59,2.33,1.79,4.78,3.41,7.34,4.85" style="fill: none; stroke: #333; stroke-linecap: round; stroke-linejoin: round; stroke-width: .5px;"/>
              <path d="M31.15,160.94c1.42.37,2.58,1.36,3.75,2.26,2.17,1.67,4.53,3.08,7.02,4.2" style="fill: none; stroke: #333; stroke-linecap: round; stroke-linejoin: round; stroke-width: .5px;"/>
              <path d="M93.43,190.9c3.54,2.55,6.6,5.77,8.97,9.43" style="fill: none; stroke: #333; stroke-linecap: round; stroke-linejoin: round; stroke-width: .5px;"/>
            </g>
            <path d="M112.78,148.64s-6.33,1.31-10.9,7.98c-4.57,6.67-9.3,26.5-9.3,26.5,0,0,12.45,14.74,31.56,11.2,0,0,12.79-40.85-11.36-45.68Z" style="fill: #994ce5;"/>
            <path d="M113.36,194.49c3.28.51,6.89.55,10.77-.17,0,0,3.79-12.1,3.35-23.91" style="fill: none; stroke: #000; stroke-linecap: round; stroke-linejoin: round; stroke-width: .5px;"/>
          </g>
          <g>
            <path d="M97.61,89.27c.39-5.39,3.16-10.79,7.9-13.39,1.39-.76,2.89-1.26,4.42-1.65-.18-2.86,1.21-5.82,3.37-7.8,2.63-2.42,6.19-3.6,9.72-4.2,3.53-.6,7.13-.69,10.66-1.29,4.87-.83,9.58-2.65,13.74-5.32-.08,3.59-1.69,7.13-4.35,9.55,6.44-.46,12.8-2.16,18.61-4.98.4,3.28-.92,6.72-3.4,8.91,5.49,1.18,9.8,5.27,13.94,9.05,4.14,3.78,8.83,7.6,14.43,8.02-2.93,5.05-8.81,8.22-14.64,7.91,1.43,2.61,3.84,4.67,6.64,5.67-3.09,5.58-8.63,9.55-14.66,11.65-6.03,2.1-12.54,2.46-18.91,2.09-2.53,6.34-7.41,11.71-13.48,14.82-6.07,3.11-13.28,3.95-19.9,2.3,1.6-1.55,1.98-4.05,1.49-6.23s-1.71-4.11-2.96-5.96c-3.01-4.49-6.29-8.82-8.79-13.61-2.5-4.79-4.22-10.15-3.83-15.54Z" style="fill: #5e4028;"/>
            <g>
              <g>
                <path d="M166.66,93.55c5.05,17.61-2.35,38.62-12.7,41.59-14.5,4.16-34.7-7.25-39.74-24.86-5.05-17.61,1.07-36.56,15.57-40.72,14.5-4.16,31.82,6.38,36.87,23.99Z" style="fill: #f2b27e;"/>
                <g style="clip-path: url(#clippath-3);">
                  <path d="M125.66,121.95c1.3,4.54,6.04,7.17,10.59,5.87,4.54-1.3,7.17-6.04,5.87-10.59-1.3-4.54-6.04-7.17-10.59-5.87-4.54,1.3-7.17,6.04-5.87,10.59Z" style="fill: url(#Degradado_sin_nombre_21-3);"/>
                  <path d="M160.22,121.42c1.3,4.54,6.04,7.17,10.59,5.87,4.54-1.3,7.17-6.04,5.87-10.59-1.3-4.54-6.04-7.17-10.59-5.87s-7.17,6.04-5.87,10.59Z" style="fill: url(#Degradado_sin_nombre_21-4);"/>
                </g>
              </g>
              <path d="M155.99,125.35s-1.57-2.09-5.05-2.08c-3.48,0-5.36,1.78-5.36,1.78" style="fill: none; stroke: #000; stroke-linecap: round; stroke-linejoin: round; stroke-width: .5px;"/>
              <path d="M147.49,107.02c.46,1.62-.47,3.3-2.09,3.76-1.62.46-3.3-.47-3.76-2.09-.46-1.62.47-3.3,2.09-3.76,1.62-.46,3.3.47,3.76,2.09Z"/>
              <path d="M164.27,106.65c.46,1.62-.47,3.3-2.09,3.76-1.62.46-3.3-.47-3.76-2.09-.46-1.62.47-3.3,2.09-3.76,1.62-.46,3.3.47,3.76,2.09Z"/>
              <path d="M157.83,99.89c.43-1,1.11-1.88,1.93-2.62.82-.74,1.81-1.34,2.94-1.64.55-.15,1.18-.23,1.79-.14.61.09,1.21.33,1.69.7.97.73,1.52,1.8,1.65,2.88-.65-.86-1.39-1.59-2.21-1.99-.82-.41-1.68-.43-2.6-.18-.92.22-1.81.65-2.67,1.17-.86.53-1.68,1.15-2.52,1.83Z" style="fill: #5e4028;"/>
              <path d="M140.58,105.63s3.52-2.5,6.91.78" style="fill: none; stroke: #000; stroke-linecap: round; stroke-linejoin: round; stroke-width: .5px;"/>
              <path d="M157.98,105.35s2.99-2.61,6.13.44" style="fill: none; stroke: #000; stroke-linecap: round; stroke-linejoin: round; stroke-width: .5px;"/>
              <g>
                <path d="M155.71,107.03c-.57,1.71-.08,3.73,1.2,5,.75.74,1.76,1.26,2.24,2.2.44.85.34,1.91-.11,2.76-.44.85-1.19,1.51-2.01,2.01,0,0-2.58.5-4.3-2.09-1.72-2.59-1.11-6.67-.11-9.25,1-2.58,3.08-.63,3.08-.63Z" style="fill: url(#Degradado_sin_nombre_29-2);"/>
                <path d="M155.71,107.03c-.57,1.71-.08,3.73,1.2,5,.75.74,1.76,1.26,2.24,2.2.44.85.34,1.91-.11,2.76-.44.85-1.19,1.51-2.01,2.01" style="fill: none; stroke: #000; stroke-linecap: round; stroke-linejoin: round; stroke-width: .5px;"/>
              </g>
              <path d="M137.69,100.18c1.16.25,2.34.3,3.51.22,1.17-.07,2.34-.29,3.47-.61,1.13-.32,2.23-.76,3.27-1.32,1.04-.55,2.02-1.22,2.86-2.06-1.14.32-2.22.68-3.3,1.02-1.08.33-2.15.66-3.22.97-1.08.31-2.16.59-3.25.88-1.1.28-2.2.55-3.34.89Z" style="fill: #5e4028;"/>
              <path d="M151.22,99.95c1.17-.51,2.06-1.6,2.33-2.84" style="fill: none; stroke: #000; stroke-linecap: round; stroke-linejoin: round; stroke-width: .5px;"/>
            </g>
            <path d="M148.43,81.98c1.8,4.51,5.73,8.11,10.38,9.51-3.71,1.21-7.7,1.31-11.6,1.14-2.5-.11-5.03-.34-7.38-1.21-2.35-.86-4.52-2.43-5.66-4.66.83,3.06,1.97,6.4,4.74,7.95-1.97.19-3.98.39-5.93.03-1.95-.35-3.88-1.33-4.93-3.01-1.55,8.57-8.77,15.82-17.34,17.41-.86-5.92-1.02-11.94-.5-17.9.43-4.83.78-9.2,3.56-13.36,2.63-3.95,6.53-7.04,10.88-8.89,5.84-2.49,12.33-2.96,18.6-2.4,5.79.52,11.07,3.6,15.33,7.55,4.47,4.15,7.75,9.58,9.34,15.48.31,1.14,1.69,5.45-.14,5.87-1.38.31-3.51-2.35-4.57-3.02-2.46-1.55-5.1-2.8-7.61-4.27-2.75-1.61-5.41-3.51-7.18-6.22Z" style="fill: #5e4028;"/>
            <g>
              <path d="M118.74,108.35c3.06,4.77,3.84,9.52.46,11.69-3.38,2.17-9.64.95-12.7-3.82-3.06-4.77-2.81-10.39.57-12.56,3.38-2.17,8.6-.07,11.67,4.69Z" style="fill: #f2b27e;"/>
              <path d="M104.89,106.41s6.7-.43,13.83,9.86" style="fill: none; stroke: #000; stroke-linecap: round; stroke-linejoin: round; stroke-width: .5px;"/>
            </g>
            <path d="M97.61,89.27c.25-3.45,1.48-6.91,3.57-9.63,4.59,1.48,9.37,2.34,14.19,2.44,7.71.17,15.51-1.64,22.18-5.52,2.4-1.4,4.66-3.06,7.12-4.35,4.2-2.2,8.99-3.26,13.73-3.09,4.79,1.07,8.69,4.36,12.37,7.7-8.21-1.64-16.79-2.06-24.73.49-2.9.93-5.66,2.25-8.36,3.66-7.05,3.7-13.76,8.15-21.21,10.95-5.93,2.23-12.56,3.32-18.68,2.02-.21-1.55-.29-3.12-.18-4.69Z" style="fill: #5e4028; mix-blend-mode: screen;"/>
          </g>
        </g>
        <g>
          <path d="M22.73,205.12h81.03c7.96,0,14.42,6.46,14.42,14.42v76.08H34c-6.22,0-11.26-5.05-11.26-11.26v-79.24h0Z" transform="translate(140.91 500.74) rotate(180)" style="fill: #6733b2;"/>
          <path d="M84.02,205.12h26.43c6.11,0,11.07,4.96,11.07,11.07v72.49c0,3.84-3.12,6.95-6.95,6.95h-23.59c-3.84,0-6.95-3.12-6.95-6.95v-83.55h0Z" transform="translate(205.54 500.74) rotate(180)" style="fill: #9966e5;"/>
        </g>
        <g>
          <path d="M206.2,34.13c6.7,3.6,9.44,9.73,5.84,16.44-3.34,6.22-9.64,7.19-15.99,3.84l-2.18,3.49-7.24-3.89,4.58-9.1,2.89,1.55c4.53,2.44,8.11,3.3,9.95-.25,1.17-2.17.54-4.25-1.58-5.39-2.36-1.27-4.44-.52-5.63,1.7l-7.77-4.17c2.96-5.87,9.5-8.32,17.12-4.23ZM183.61,68.55c-2.94-1.58-3.86-4.62-2.54-7.08,1.37-2.56,4.41-3.47,7.36-1.89,2.89,1.55,3.81,4.59,2.44,7.15-1.32,2.46-4.36,3.38-7.26,1.82Z" style="fill: #6733b2;"/>
          <path d="M76.76,29.22c6.19-4.43,12.9-4.19,17.33,2,4.11,5.74,2.2,11.82-3.6,16.04l2.17,3.5-6.68,4.78-6.15-8.12,2.67-1.91c4.18-3,6.54-5.83,4.16-9.04-1.43-2-3.57-2.36-5.53-.95-2.18,1.56-2.43,3.76-.96,5.81l-7.17,5.13c-3.96-5.25-3.28-12.2,3.75-17.23ZM97.7,64.67c-2.72,1.94-5.85,1.43-7.47-.84-1.69-2.36-1.17-5.49,1.54-7.44,2.67-1.91,5.8-1.39,7.49.96,1.63,2.27,1.11,5.4-1.56,7.32Z" style="fill: #6733b2;"/>
          <path d="M143.24,6.74c7.59-.54,13.18,3.18,13.72,10.77.5,7.05-4.3,11.23-11.46,11.79l.02,4.12-8.19.58-1-10.14,3.28-.23c5.13-.37,8.62-1.55,8.28-5.53-.18-2.46-1.81-3.88-4.22-3.71-2.68.19-4.03,1.93-3.86,4.45l-8.79.63c-.63-6.54,3.58-12.11,12.21-12.73ZM142.55,47.9c-3.33.24-5.73-1.84-5.93-4.63-.21-2.89,1.87-5.29,5.21-5.53,3.28-.23,5.68,1.85,5.88,4.74.2,2.79-1.88,5.18-5.16,5.42Z" style="fill: #6733b2;"/>
        </g>
      </g>
    </g>
  </g>
</svg>