<?xml version="1.0" encoding="UTF-8"?>
<svg xmlns="http://www.w3.org/2000/svg" xmlns:xlink="http://www.w3.org/1999/xlink" viewBox="0 0 2800 2744.18">
  <defs>
    <linearGradient id="linear-gradient" x1="833.03" y1="332.2" x2="1014.46" y2="2279.03" gradientUnits="userSpaceOnUse">
      <stop offset="0" stop-color="#ff9085"/>
      <stop offset="1" stop-color="#fb6fbb"/>
    </linearGradient>
    <linearGradient id="linear-gradient-2" x1="965.05" y1="614.93" x2="1051.49" y2="967.9" gradientUnits="userSpaceOnUse">
      <stop offset="0" stop-color="#ffc444"/>
      <stop offset="1" stop-color="#f36f56"/>
    </linearGradient>
    <linearGradient id="linear-gradient-3" x1="957.62" y1="616.75" x2="1044.06" y2="969.71" xlink:href="#linear-gradient-2"/>
    <linearGradient id="linear-gradient-4" x1="962.73" y1="502.34" x2="1101.22" y2="1988.42" xlink:href="#linear-gradient"/>
    <linearGradient id="linear-gradient-5" x1="411.25" y1="2320.48" x2="359.02" y2="2012.93" gradientUnits="userSpaceOnUse">
      <stop offset="0" stop-color="#aa80f9"/>
      <stop offset="1" stop-color="#6165d7"/>
    </linearGradient>
    <linearGradient id="linear-gradient-6" x1="380.39" y1="2201.1" x2="397.8" y2="2019.27" xlink:href="#linear-gradient-2"/>
    <linearGradient id="linear-gradient-7" x1="696.28" y1="2272.08" x2="644.05" y2="1964.53" xlink:href="#linear-gradient-5"/>
    <linearGradient id="linear-gradient-8" x1="657.47" y1="2227.63" x2="674.88" y2="2045.81" xlink:href="#linear-gradient-2"/>
    <linearGradient id="linear-gradient-9" x1="432.58" y1="2177.36" x2="703.39" y2="1159.92" gradientUnits="userSpaceOnUse">
      <stop offset="0" stop-color="#444b8c"/>
      <stop offset="1" stop-color="#26264f"/>
    </linearGradient>
    <linearGradient id="linear-gradient-10" x1="343.42" y1="2153.63" x2="614.22" y2="1136.19" xlink:href="#linear-gradient-9"/>
    <linearGradient id="linear-gradient-11" x1="428.82" y1="537.49" x2="840.44" y2="1978.16" xlink:href="#linear-gradient"/>
    <linearGradient id="linear-gradient-12" x1="-1603.88" y1="1365.24" x2="-1603.88" y2="1144.75" gradientTransform="translate(-1498.48 461.29) rotate(145.79) scale(1 -1)" xlink:href="#linear-gradient-2"/>
    <linearGradient id="linear-gradient-13" x1="-4569.77" y1="-94.52" x2="-4642.62" y2="-279.53" gradientTransform="translate(-3969.45 -163.37) rotate(-168.5) scale(1 -1)" gradientUnits="userSpaceOnUse">
      <stop offset="0" stop-color="#444b8c"/>
      <stop offset="1" stop-color="#3e4177"/>
    </linearGradient>
    <linearGradient id="linear-gradient-14" x1="-2759.82" y1="2080.64" x2="-2656.73" y2="1880.19" gradientTransform="translate(-2539.3 -532.08) rotate(163) scale(1 -1)" xlink:href="#linear-gradient-2"/>
    <linearGradient id="linear-gradient-15" x1="4498.98" y1="2089.86" x2="4442.78" y2="1947.12" gradientTransform="translate(-4225.8 -17.18) rotate(-17)" xlink:href="#linear-gradient-13"/>
    <linearGradient id="linear-gradient-16" x1="265.97" y1="294.72" x2="1123.54" y2="3296.22" xlink:href="#linear-gradient"/>
    <linearGradient id="linear-gradient-17" x1="606.45" y1="1104.14" x2="400.92" y2="1252.23" xlink:href="#linear-gradient-2"/>
    <linearGradient id="linear-gradient-18" x1="605.89" y1="1103.37" x2="400.37" y2="1251.46" xlink:href="#linear-gradient-2"/>
    <linearGradient id="linear-gradient-19" x1="1357.24" y1="1157.92" x2="1151.71" y2="1306.01" gradientTransform="translate(-680.37 -283.48) rotate(9.66) scale(1.11 1)" xlink:href="#linear-gradient-2"/>
    <linearGradient id="linear-gradient-20" x1="159.6" y1="470.77" x2="571.23" y2="1911.49" xlink:href="#linear-gradient"/>
    <linearGradient id="linear-gradient-21" x1="2529.89" y1="2208.66" x2="2548.5" y2="2445.4" gradientTransform="translate(-626.26)" gradientUnits="userSpaceOnUse">
      <stop offset="0" stop-color="#26264f"/>
      <stop offset="1" stop-color="#444b8c"/>
    </linearGradient>
    <linearGradient id="linear-gradient-22" x1="1592.11" y1="2063.02" x2="1588.2" y2="1779.85" gradientTransform="translate(731.39 34.5) rotate(9.85)" xlink:href="#linear-gradient-2"/>
    <linearGradient id="linear-gradient-23" x1="2297.24" y1="2192.83" x2="2315.84" y2="2429.57" xlink:href="#linear-gradient-21"/>
    <linearGradient id="linear-gradient-24" x1="1360.17" y1="2087.2" x2="1356.27" y2="1804.04" gradientTransform="translate(731.39 34.5) rotate(9.85)" xlink:href="#linear-gradient-2"/>
    <linearGradient id="linear-gradient-25" x1="1905.23" y1="2030.75" x2="2528.71" y2="2030.75" xlink:href="#linear-gradient-9"/>
    <linearGradient id="linear-gradient-26" x1="1692.8" y1="2053.91" x2="2455.11" y2="2053.91" xlink:href="#linear-gradient-9"/>
    <linearGradient id="linear-gradient-27" x1="2100.43" y1="1481.84" x2="2439.74" y2="1805.84" gradientUnits="userSpaceOnUse">
      <stop offset="0" stop-color="#e38ddd"/>
      <stop offset="1" stop-color="#9571f6"/>
    </linearGradient>
    <linearGradient id="linear-gradient-28" x1="5355.66" y1="569.86" x2="5567.27" y2="836.1" gradientTransform="translate(-2884.07 -822.91) rotate(14.93)" xlink:href="#linear-gradient-2"/>
    <linearGradient id="linear-gradient-29" x1="5365.79" y1="556.47" x2="5602.05" y2="853.72" gradientTransform="translate(-2884.07 -822.91) rotate(14.93)" xlink:href="#linear-gradient-2"/>
    <linearGradient id="linear-gradient-30" x1="2007.59" y1="1579.02" x2="2346.81" y2="1902.94" xlink:href="#linear-gradient-27"/>
    <linearGradient id="linear-gradient-31" x1="810.1" y1="1271.16" x2="883.99" y2="1572.86" gradientTransform="translate(2727.62) rotate(-180) scale(1 -1)" xlink:href="#linear-gradient-2"/>
    <linearGradient id="linear-gradient-32" x1="803.76" y1="1272.72" x2="877.65" y2="1574.42" gradientTransform="translate(2727.62) rotate(-180) scale(1 -1)" xlink:href="#linear-gradient-2"/>
    <linearGradient id="linear-gradient-33" x1="2038.27" y1="1331.15" x2="1912.35" y2="1905.99" xlink:href="#linear-gradient-27"/>
    <linearGradient id="linear-gradient-34" x1="-954.48" y1="2182.91" x2="-906.49" y2="2225.59" gradientTransform="translate(1715.03 138.51) rotate(-8.05)" xlink:href="#linear-gradient-9"/>
    <linearGradient id="linear-gradient-35" x1="-1227.81" y1="3040.55" x2="-1227.81" y2="2956.95" gradientTransform="translate(2503.73 -506.71) rotate(2.85)" xlink:href="#linear-gradient-2"/>
    <linearGradient id="linear-gradient-36" x1="-949.65" y1="2177.49" x2="-901.67" y2="2220.17" gradientTransform="translate(1715.03 138.51) rotate(-8.05)" xlink:href="#linear-gradient-9"/>
    <linearGradient id="linear-gradient-37" x1="-829.48" y1="2462.61" x2="-781.49" y2="2505.3" gradientTransform="translate(1754.72)" xlink:href="#linear-gradient-9"/>
    <linearGradient id="linear-gradient-38" x1="-970.39" y1="3259.24" x2="-970.39" y2="3175.64" gradientTransform="translate(2553.43 -503.41) rotate(11.1)" xlink:href="#linear-gradient-2"/>
    <linearGradient id="linear-gradient-39" x1="-824.65" y1="2457.19" x2="-776.67" y2="2499.88" gradientTransform="translate(1754.72)" xlink:href="#linear-gradient-9"/>
    <linearGradient id="linear-gradient-40" x1="-2828.66" y1="1936.07" x2="-3106.73" y2="2134.7" gradientTransform="translate(4363.8)" xlink:href="#linear-gradient-9"/>
    <linearGradient id="linear-gradient-41" x1="-3428.39" y1="2179.29" x2="-2739.76" y2="2179.29" gradientTransform="translate(4363.8)" xlink:href="#linear-gradient-9"/>
    <linearGradient id="linear-gradient-42" x1="1641.29" y1="1374.07" x2="1715.17" y2="1675.77" gradientTransform="translate(2727.62) rotate(-180) scale(1 -1)" xlink:href="#linear-gradient-2"/>
    <linearGradient id="linear-gradient-43" x1="1634.94" y1="1375.63" x2="1708.83" y2="1677.32" gradientTransform="translate(2727.62) rotate(-180) scale(1 -1)" xlink:href="#linear-gradient-2"/>
    <linearGradient id="linear-gradient-44" x1="-3062.05" y1="1553.86" x2="-2722.83" y2="1877.78" gradientTransform="translate(4363.8)" xlink:href="#linear-gradient-2"/>
    <linearGradient id="linear-gradient-45" x1="430.77" y1="1980.67" x2="642.38" y2="2246.91" gradientTransform="translate(1479.73 -822.91) rotate(14.93)" xlink:href="#linear-gradient-2"/>
    <linearGradient id="linear-gradient-46" x1="440.9" y1="1967.28" x2="677.16" y2="2264.52" gradientTransform="translate(1479.73 -822.91) rotate(14.93)" xlink:href="#linear-gradient-2"/>
    <linearGradient id="linear-gradient-47" x1="-3187.28" y1="1685" x2="-2848.06" y2="2008.92" gradientTransform="translate(4363.8)" xlink:href="#linear-gradient-2"/>
    <linearGradient id="linear-gradient-48" x1="1207.09" y1="1434.06" x2="1081.17" y2="2008.9" xlink:href="#linear-gradient-2"/>
    <linearGradient id="linear-gradient-49" x1="1252.98" y1="2582.69" x2="1768.57" y2="2582.69" xlink:href="#linear-gradient-5"/>
    <linearGradient id="linear-gradient-50" x1="-3492.29" y1="2557.4" x2="-3059.06" y2="2557.4" gradientTransform="translate(4827.63)" xlink:href="#linear-gradient-5"/>
    <linearGradient id="linear-gradient-51" x1="-3345.52" y1="2357.17" x2="-3288.19" y2="2357.17" gradientTransform="translate(4827.63)" xlink:href="#linear-gradient-5"/>
    <linearGradient id="linear-gradient-52" x1="-3032.28" y1="2296.22" x2="-3137.38" y2="2159.27" gradientTransform="translate(4827.63)" gradientUnits="userSpaceOnUse">
      <stop offset="0" stop-color="#311944"/>
      <stop offset="1" stop-color="#893976"/>
    </linearGradient>
    <linearGradient id="linear-gradient-53" x1="2009.8" y1="2456.98" x2="2525.39" y2="2456.98" xlink:href="#linear-gradient-5"/>
    <linearGradient id="linear-gradient-54" x1="2166.49" y1="2431.69" x2="2599.72" y2="2431.69" gradientTransform="translate(-74.33)" xlink:href="#linear-gradient-5"/>
    <linearGradient id="linear-gradient-55" x1="2313.26" y1="2231.47" x2="2370.58" y2="2231.47" gradientTransform="translate(-74.33)" xlink:href="#linear-gradient-5"/>
    <linearGradient id="linear-gradient-56" x1="2626.49" y1="2170.51" x2="2521.39" y2="2033.56" gradientTransform="translate(-74.33)" xlink:href="#linear-gradient-52"/>
    <linearGradient id="linear-gradient-57" x1="1804.86" y1="555.33" x2="1439.79" y2="1073.49" gradientTransform="translate(919.11 -1117.05) rotate(45)" xlink:href="#linear-gradient-9"/>
    <linearGradient id="linear-gradient-58" x1="2507.33" y1="-196.95" x2="1270.82" y2="1051.33" gradientUnits="userSpaceOnUse">
      <stop offset="0" stop-color="#e38ddd"/>
      <stop offset="1" stop-color="#9571f6"/>
    </linearGradient>
    <linearGradient id="linear-gradient-59" x1="1763.17" y1="555.66" x2="856.35" y2="1843.26" xlink:href="#linear-gradient-58"/>
    <linearGradient id="linear-gradient-60" x1="1751.19" y1="1827.53" x2="1488.27" y2="3863.02" gradientTransform="translate(2337.67) rotate(-180) scale(1 -1)" xlink:href="#linear-gradient"/>
    <linearGradient id="linear-gradient-61" x1="1593.77" y1="2135.52" x2="1424.05" y2="3449.45" gradientTransform="translate(2337.67) rotate(-180) scale(1 -1)" xlink:href="#linear-gradient-5"/>
  </defs>
  <g style="isolation: isolate;">
    <g id="Illustration">
      <g>
        <path d="M2538.98,2145c-566.1,724.1-1891.83,735.73-2258.84,333.52-146.48-160.5-185.15-436.17-242-841.1-27.37-194.92-31.29-352.05-33.61-459.85C-3.48,810.87-7.47,627.5,51.57,502.76,220.66,145.67,808.05,6.7,1187.72.25c26.5-.46,53.24-.28,80.19.53,444.56,13.25,946.21,198.31,1255.6,593.75,31.98,40.8,61.84,83.85,89.42,129.19,282.41,464.39,234.89,1026.3-73.95,1421.29Z" style="fill: #f4f7fa;"/>
        <g>
          <path d="M997.96,1077.91c-113.18-5.87-220.52-163.97-220.52-163.97l-.17-1.72-57.54-234.87s114.29,1.61,265.13,259.78c0,0,56.37,65.49,60.01,107.18,1.83,20.69-9.38,35.53-46.91,33.59Z" style="fill: url(#linear-gradient);"/>
          <g>
            <path d="M1019.38,631.18c-9.28-5.91-22.78,45.99-22.78,45.99,0,0,4.92-60.76-2.95-60.48-7.88.28-7.88,49.51-7.88,49.51,0,0-14.06-46.97-14.63-55.13-.56-8.16-10.97,1.41-8.16,16.6,2.81,15.19,5.91,39.66,5.91,39.66,0,0-12.38-10.97-20.25-1.41-6.84,8.31-11.34,21.49-7.25,23.33-.87.02-1.89.6-3.16,1.98-6.47,7.03-3.38,24.75,16.6,31.78s14.35,17.44,26.44,17.72c12.09.28,22.92-7.03,22.92-7.03,0,0,24.47-96.62,15.19-102.53ZM948.92,702.48c-2.87-3.49-3.8-11.62-6.61-13.02.45.03.96-.03,1.55-.2,7.88-2.25,16.31-14.63,17.44-4.5,1.13,10.13-8.44,22.5-12.38,17.72Z" style="fill: url(#linear-gradient-2);"/>
            <polygon points="1005.47 728.54 1010.68 772.93 973.64 765.73 972.22 736.05 1005.47 728.54" style="fill: url(#linear-gradient-3);"/>
          </g>
          <path d="M972.17,756.86s-48.74,303.93,20.23,317.34c0,0,67.93,36.78,65.19-87.24-2.74-124.02-39.73-230.1-39.73-230.1h-45.69Z" style="fill: url(#linear-gradient-4);"/>
          <g>
            <path d="M365.18,2207.51c-1.4-5.77-.46-13.5,4.57-18.68,6.79-6.98,18.15-6.39,25.28-3.16,4.16,1.88,7.39,4.89,18.81,28.7,12.07,25.17,12.02,29.22,10.07,31.52-3.95,4.67-15.02,1.22-17.41.48-7.93-2.47-9.87-6.23-26.22-21.54-11.08-10.38-13.83-12.06-15.11-17.33Z" style="fill: url(#linear-gradient-5);"/>
            <path d="M372.9,2168.18l2.77,29.17c6.64,3.45,10.77,3.18,12.94,0l5.58-29.17h-21.28Z" style="fill: url(#linear-gradient-6);"/>
            <path d="M651.83,2203.87c-3.9-4.48-6.63-11.77-4.55-18.68,2.8-9.32,13.16-14.04,20.98-14.46,4.56-.25,8.81.94,29.92,16.8,22.31,16.77,24.13,20.4,23.47,23.33-1.35,5.96-12.77,8.01-15.23,8.45-8.18,1.47-11.63-.98-33.19-7.03-14.61-4.1-17.83-4.33-21.39-8.42Z" style="fill: url(#linear-gradient-7);"/>
            <path d="M653.77,2155.16l2.77,29.17c6.64,3.45,10.77,3.17,12.94,0l5.58-29.17h-21.28Z" style="fill: url(#linear-gradient-8);"/>
            <path d="M365.44,2173.89c10.49.63,20.99,1.26,31.49,1.9,22.22-108.4,46.62-219.34,73.42-332.64,29.37-124.18,60.06-244.56,91.68-361.05,10.02,44.34,19.95,96.2,27.76,154.49,11.6,86.53,13.95,152.83,14.51,171.19,2.86,93.86-5.32,104.95-1.45,163.55,3.04,46.07,13.02,113.76,46.42,195.98,10-.61,20.01-1.21,30.01-1.82,21.9-105.93,40.66-234.65,45.96-381.68,6.5-180.3-9.1-336.53-29.56-459.74-90.91,2.82-181.83,5.65-272.74,8.47-28.38,63.36-41.31,117.54-47.86,155.64-13.17,76.57-5.09,114.35-15,244.79-5.12,67.41-8.86,78.11-12.57,122.88-6.15,74.15-7.22,181.23,17.92,318.03Z" style="fill: url(#linear-gradient-9);"/>
            <path d="M425.85,1915.13c8.29-88.15-23.51-86.33-8.7-162.48,13.62-70.07,42.52-81.74,63.83-171.19,17.11-71.79,4.04-87.54,17.41-118.96,16.52-38.82,64.76-81.19,203.43-99.2-1.99-13.4-4.03-26.53-6.13-39.24-90.91,2.82-181.82,5.65-272.74,8.47-28.38,63.36-41.31,117.54-47.86,155.64-13.17,76.57-5.09,114.35-15,244.79-5.12,67.41-8.86,78.11-12.57,122.88-6.15,74.15-7.22,181.23,17.92,318.03,10.49.63,20.99,1.26,31.49,1.9.65-3.15,1.34-6.35,1.99-9.51-5.3-8.59-10.12-18.24-13.68-29.19-23.02-70.72,30.26-111.8,40.62-221.96Z" style="fill: url(#linear-gradient-10); mix-blend-mode: multiply; opacity: .3;"/>
          </g>
          <path d="M772.19,1023.18c-8.98,30.44-1.74,119.49-2.93,206.69-1.54,107.5-15.91,212.15-89.33,200.55-132.91-20.98-359.19,92.22-343.36-106.35,10.96-137.58-.24-351.47,1.94-495.78.43-29.09,1.42-55.33,3.24-77.58,2.97-36.26,29.33-66.34,64.91-73.94,83.51-17.89,244.76-41.36,349.45,13.34,146.45,76.51,36.1,265.07,16.07,333.07Z" style="fill: url(#linear-gradient-11);"/>
          <path d="M588.63,547.17s-5.33,42.36-21.08,73.15c-14.23,27.82-78.41,40.88-91.64,46.28-13.23,5.4,21.8,27.11,58.2,33.74,36.4,6.63,141.86,6.69,161.86-5.7,20.01-12.4-14.15-14.08-39.57-25.79-25.42-11.71-36.46-64.15-29.97-87.03,6.48-22.88-37.8-34.64-37.8-34.64Z" style="fill: url(#linear-gradient-12);"/>
          <g>
            <path d="M657.82,545.12c12.57-11.4,15.15-38.32,2.36-54.21-9.49-11.79-24.08-13.32-34.71-14.44-4.92-.52-39.6-3.75-54.54,18.09-4.75,6.94-6.91,17.39-5.87,26.32.54,4.6,2.32,10.6,6.72,22.31,3.9,10.39,3.56,9.99,4.8,13.03,2.96,7.32,9.05,19.91,21.98,36,2.03-4.28,4.85-9.51,8.75-15.01,1.5-2.12,7.47-10.36,15.22-16.62,15.73-12.7,25.47-6.57,35.3-15.48Z" style="fill: url(#linear-gradient-13);"/>
            <path d="M581.12,575.22s10.32,28.88,41.86,33.31c28.24,3.96,45.28-57.68,30.23-74.63-5.02-5.66-16.53-9.96-26.76-9.25-6.04.41-8.47,2.39-18.36,2.88-9.12.45-11.37-1.02-14.43.64-3.84,2.07-7.63,8.32-5.96,27.72-4.2-6.49-10.15-9.87-15.12-8.68-.79.19-2.98,1.1-4.46,2.85-5.38,6.33-.75,16.8,13,25.16Z" style="fill: url(#linear-gradient-14);"/>
            <path d="M585.71,538.82s4.88,24.78,9.71,31.77c4.83,6.99,18.25,14.49,34.56,11.2,16.31-3.29,26.26-8.02,26.26-8.02,0,0-3.4,31.19-8,33.75-4.6,2.56-35.2,10.34-42.25,6.94-7.05-3.41-20.59-23.56-21.97-33.87-1.39-10.31.84-35.28.84-35.28l.86-6.48Z" style="fill: url(#linear-gradient-15);"/>
          </g>
          <path d="M769.27,1229.86c-1.54,107.5-15.91,212.15-89.33,200.55-132.91-20.98-359.19,92.22-343.36-106.35,10.96-137.58-.24-351.47,1.94-495.78,3.36-14.96,26.08,99.31,26.08,99.31,0,0,151.39-75.2,145.46,67.29-5.94,142.49-10.41,219.67,146.17,211.75,46.03-2.34,84.35,6.97,113.04,23.23Z" style="fill: url(#linear-gradient-16); mix-blend-mode: multiply; opacity: .4;"/>
          <g>
            <path d="M556.48,1100.36s20.07-6.57,26.3-9.34c6.23-2.77,16.26-9.69,25.95-4.5,9.69,5.19,21.8,46.02,11.76,48.09-10.03,2.08-53.98,2.77-64.01,2.42s-21.94-29.08,0-36.68Z" style="fill: url(#linear-gradient-17);"/>
            <g>
              <path d="M609.07,1092.48s41-22.84,42.04-15.83c1.04,7.01-38.41,24.13-38.41,24.13l-3.63-8.3Z" style="fill: url(#linear-gradient-18);"/>
              <path d="M615.25,1100.79s47.98-10.25,49.01-4.29c1.03,5.97-48.59,13.84-48.59,13.84l-.42-9.55Z" style="fill: url(#linear-gradient-19);"/>
            </g>
          </g>
          <path d="M292.36,1042.37c25.73-19.48,170.19-134.57,172.17-201.86,1.98-67.29-1.69-163.55-81-155,0,0-285.12,143.13-263.35,409.3,14.43,176.42,439.34,49.48,439.34,49.48l-7.92-51.45s-284.98-30.98-259.25-50.46Z" style="fill: url(#linear-gradient-20);"/>
        </g>
        <g>
          <path d="M1539.9,2364.76c-2.04,0-3.77-1.56-3.96-3.61l-72.15-779.74c-.2-2.19,1.41-4.13,3.6-4.33,2.18-.18,4.13,1.41,4.33,3.6l64.21,693.89v-710.78c0-2.2,1.78-3.98,3.98-3.98s3.98,1.78,3.98,3.98v797c0,2.13-1.67,3.88-3.8,3.98-.06,0-.12,0-.19,0Z" style="fill: #b7c0ce;"/>
          <g>
            <polygon points="2344.46 1649.07 1552.92 1562.35 32.24 1631.47 828.67 1726.84 2344.46 1649.07" style="fill: #fff;"/>
            <polygon points="828.67 1726.84 2344.46 1649.07 2344.46 1686.64 828.67 1764.4 32.24 1669.03 32.24 1631.47 828.67 1726.84" style="fill: #b7c0ce;"/>
          </g>
          <path d="M834.06,2636.72c-.05,0-.11,0-.16,0-2.14-.08-3.83-1.84-3.83-3.98v-877.47c0-2.2,1.78-3.98,3.98-3.98s3.98,1.78,3.98,3.98v775.5l60.66-775.81c.17-2.19,2.07-3.83,4.28-3.66,2.19.17,3.83,2.09,3.66,4.28l-68.61,877.47c-.16,2.08-1.9,3.67-3.97,3.67Z" style="fill: #b7c0ce;"/>
          <path d="M40.94,2480.84c-.05,0-.1,0-.16,0-2.14-.08-3.82-1.84-3.82-3.98v-809.9c0-2.2,1.78-3.98,3.98-3.98s3.98,1.78,3.98,3.98v708.35l55.64-708.66c.17-2.19,2.12-3.83,4.28-3.66,2.19.17,3.83,2.09,3.66,4.28l-63.59,809.9c-.16,2.08-1.9,3.67-3.97,3.67Z" style="fill: #b7c0ce;"/>
          <path d="M2336.96,2480.84c-2.06,0-3.79-1.58-3.97-3.65l-67.52-809.9c-.18-2.19,1.45-4.11,3.64-4.3,2.2-.18,4.12,1.45,4.3,3.64l59.58,714.57v-694.57c0-2.2,1.78-3.98,3.98-3.98s3.98,1.78,3.98,3.98v790.22c0,2.13-1.68,3.89-3.82,3.98-.06,0-.11,0-.17,0Z" style="fill: #b7c0ce;"/>
        </g>
        <g>
          <path d="M1942.94,2326.49s-83.19,5.78-84.41,11.21c-1.22,5.43,56.47,26.43,76.62,27.21,20.16.78,36.74-5.17,34.91-13.71-1.82-8.54-8.88-30.01-8.88-30.01l-18.24,5.3Z" style="fill: url(#linear-gradient-21);"/>
          <path d="M1939.01,2289.53l-1.48,39.26s12.65,7.14,22.7,3.04l11.17-41.4-32.39-.9Z" style="fill: url(#linear-gradient-22);"/>
          <path d="M1710.28,2310.66s-83.19,5.78-84.41,11.21c-1.22,5.43,56.47,26.43,76.62,27.21,20.16.78,36.74-5.17,34.91-13.71-1.83-8.54-8.88-30.01-8.88-30.01l-18.24,5.3Z" style="fill: url(#linear-gradient-23);"/>
          <path d="M1706.35,2273.7l-1.48,39.26s12.65,7.14,22.7,3.04l11.17-41.4-32.39-.9Z" style="fill: url(#linear-gradient-24);"/>
          <path d="M1930.17,2295.08c15.54,1.73,31.09,3.46,46.63,5.18,20.99-23.27,52.34-63.85,69.09-120.9,32.29-110-14.47-189.26,15.54-208.99,42.49-27.92,134.58,132.83,282.4,128.7,60.65-1.69,139.81-31.4,170.24-96.09,4.59-9.77,27.15-60.89,5.18-108.81-22.68-49.48-135.22-71.01-359.37-112.06-96.21-17.62-144.8-26.41-164.32-17.09-138.34,66.04-80.65,439.48-65.39,530.06Z" style="fill: url(#linear-gradient-25);"/>
          <path d="M1692.83,2295.74c16.08,2.8,32.16,5.6,48.24,8.39,19.53-28.77,49.09-73.84,82.14-131.02,68.9-119.21,67.64-143.43,99.48-158.77,67.39-32.48,118.31,55.26,284.98,79.45,54.52,7.91,175.56,25.49,224.53-39.73,19.85-26.44,31.26-71,15.54-108.81-28.17-67.79-120.95-59.65-426.61-119.17-119.2-23.22-135.45-27.35-164.32-17.09-161.25,57.34-164.39,408.44-163.99,486.75Z" style="fill: url(#linear-gradient-26);"/>
          <path d="M2026.75,1362.18c15.87-38.81,49.93-61.12,67.59-72.69,8.84-5.79,17.01-10.14,25.3-13.52,63.96-26.11,127.82-24.32,139.21-23.46,27.62,2.07,95.85,7.18,146.4,50.98,24.47,21.2,44.02,50.8,72.54,217.62,39.77,232.66,7.49,208.81,38.86,303.12,16.6,49.9,42.46,107.16,15.11,143.72-8.83,11.81-21.46,15.2-47.19,26.78-96.11,43.25-182.29,35.8-234.65,30.61-57.62-5.71-86.74-8.97-102.02-29.33-24.41-32.52.72-73.85,5.1-145.38,3.15-51.36-8.53-92.05-31.88-173.44-54.29-189.21-124.77-240.66-94.37-314.99Z" style="fill: url(#linear-gradient-27);"/>
          <g>
            <path d="M2162.61,1209.5c-10.33-15.61,5.13-45.63,11.25-57.5.21-.41.48-.95,1.06-2.01,9.39-17.33,11.8-19.7,16.28-22.7l6.23-3.85s.36-.14.74-.28c4-1.42,17.63-1.84,20.39-1.24,8.82,1.88,18.21,37.81,15.53,88.6.37,1.94.72,3.89,1.06,5.86,1.39,8.02,2.49,15.88,3.35,23.57.82,7.35,11.24,7.19,18.63,6.72,29.97-1.91,44.64.64,45.91,5.1,2.39,8.36-33.16,35.71-77.05,41.86-58.91.44-106.83-5.83-101.68-15.11,2.29-4.12,47.93-16.04,60.77-27.87,11.75-10.82,10.8-22,11.76-30-6.08.32-26.34.75-34.21-11.15Z" style="fill: url(#linear-gradient-28);"/>
            <path d="M2179.15,1109.01c-4.84,10.68,6.91,32.13,11.25,35.24.49.35,3.23,2.51,5.7,6.22.34.51.63,1.1.9,1.86,3.45,9.92-12.32,21.59-9.28,26.02,2.21,3.22,12.92-1.08,14.2,1.69,1.2,2.62-7.71,8.04-6.34,11.17,1.03,2.37,6.51.2,9.97,3.83,2.67,2.8,2.98,6.78,3.04,8.76.43,14.1-31.54,65.01-38.2,87.98-7.06,24.36,5.57,47.55,51.47,111.63,65.28,91.15,97.93,136.73,116.07,149.76,88.69,63.67,192.99,55.87,235.76,49.22,51.38-7.98,157.53-24.47,191.72-106.22,39.3-93.97-38.07-222.56-117.45-244.4-36.3-9.98-55.62,5.18-102.77-11.22-52.06-18.12-45.76-50.16-93.96-69.07-64.29-25.24-105.77,19.88-149.57-12.97-23.84-17.88-19.91-37.5-49.22-51.82-28.92-14.12-66.93-11.71-73.28,2.29Z" style="fill: #26264f;"/>
            <path d="M2193.37,1174.67c3.86-5.3,10.63-.32,10.67,6.54.04,6.86-6.6,13.99-13.05,12.63-6.45-1.35-2.82-12.04,2.38-19.17Z" style="fill: url(#linear-gradient-29);"/>
          </g>
          <path d="M2299.66,1957.74c-16.95-33.75,24.59-78.62-2.55-130.08-23.05-43.7-64.92-33.91-84.17-73.97-23.25-48.38,27.32-84.54,25.51-158.14-2.17-87.99-77.87-176.06-122.43-168.34-28.83,5-32.53,48-52.81,95.09,17.95,39.35,38.92,88.66,57.91,154.87,23.35,81.39,35.03,122.08,31.88,173.44-4.38,71.53-29.51,112.86-5.1,145.38,15.28,20.36,44.4,23.63,102.02,29.33,52.36,5.18,138.54,12.64,234.65-30.61,12.17-5.47,21.27-9.57,28.7-13.62-150.16,22.55-200.17,3.41-213.62-23.36Z" style="fill: url(#linear-gradient-30); mix-blend-mode: multiply; opacity: .4;"/>
          <g>
            <path d="M1884.06,1372.68s9.26,6.25,19.59,6.01c10.34-.24,5.53-9.14,22.6-15.15,17.07-6.01,19.72-21.16,14.19-27.17-1.08-1.18-1.96-1.67-2.7-1.69,3.5-1.58-.35-12.85-6.19-19.95-6.73-8.17-17.31,1.2-17.31,1.2,0,0,2.64-20.92,5.05-33.9,2.4-12.98-6.49-21.16-6.97-14.19-.48,6.97-12.5,47.12-12.5,47.12,0,0,0-42.07-6.73-42.31-6.73-.24-6.13,48-6.13,48,0,0-7.94-40.67-15.87-35.62-7.93,5.05,12.98,87.64,12.98,87.64ZM1920.72,1330.85c.96-8.66,8.17,1.92,14.91,3.85.5.14.94.19,1.32.17-2.4,1.2-3.19,8.15-5.65,11.13-3.37,4.09-11.54-6.49-10.58-15.15Z" style="fill: url(#linear-gradient-31);"/>
            <polygon points="1882.97 1368.27 1878.51 1406.22 1910.18 1400.06 1911.39 1374.69 1882.97 1368.27" style="fill: url(#linear-gradient-32);"/>
          </g>
          <path d="M2112.31,1294.48c-9.24-2.26-16.92.93-28.06,5.74-19.93,8.61-59.5,32.4-94.37,124.98-8.25,21.9-13.82,41.25-18.06,58.02l-.25-.67s-24.92,98.29-39.44,53.43c-14.51-44.86-18.47-144.3-18.47-144.3l-44.39-6.93c-6.04,24.56-10.38,49.63-13.2,74.75-2.55,22.73-5.92,45.63-5.98,68.54-.06,22.82,2.69,46.08,6.08,68.63,5.09,33.9,32.12,66.41,59.27,85.88,32.02,22.95,72.14,26.09,109.07,14.36,7.46-2.37,14.87-5.26,21.97-8.56,7.48-3.48,12.87-6.59,15.45-8.08,75.11-43.46,88.29-135.03,95.01-181.73,11.93-82.88-2.13-193.65-44.63-204.04Z" style="fill: url(#linear-gradient-33);"/>
        </g>
        <g>
          <path d="M1089,2455.36c1.37-7.52,25.66-14.33,37.69-4.26,5.97,5,10.09,15.14,6.63,19.72-1.26,1.67,3.89,4.6-1.04,4.65-16.37.19-44.64-12.65-43.28-20.12Z" style="fill: url(#linear-gradient-34);"/>
          <path d="M1115.57,2455.4l25.2,1.26c-8.73-15.87,1.77-59.05,1.77-59.05l-27.21.8s.67,12.53,2.33,31.15c.57,6.37-.48,15.98-2.08,25.84Z" style="fill: url(#linear-gradient-35);"/>
          <path d="M1112.25,2455.02s30.08-6.93,33.33-.96c3.25,5.97,5.78,21.94-13.3,21.43-19.09-.52-21.72-15.4-20.03-20.46Z" style="fill: url(#linear-gradient-36);"/>
          <path d="M935.56,2486c2.41-7.26,27.41-10.6,37.91,1.06,5.21,5.79,7.87,16.41,3.8,20.46-1.48,1.48,3.21,5.1-1.68,4.46-16.23-2.1-42.42-18.77-40.03-25.98Z" style="fill: url(#linear-gradient-37);"/>
          <path d="M965.11,2492.99l24.76,4.86c-6.36-16.96,10.22-58.18,10.22-58.18l-27.05-3.11s-1.14,12.5-2.16,31.17c-.35,6.39-2.77,15.74-5.77,25.27Z" style="fill: url(#linear-gradient-38);"/>
          <path d="M958.63,2488.92s30.75-2.65,33.14,3.71c2.39,6.36,2.65,22.53-16.17,19.35-18.82-3.18-19.35-18.29-16.97-23.07Z" style="fill: url(#linear-gradient-39);"/>
          <path d="M1099.1,2401.06c15.54,1.73,31.09,3.46,46.63,5.18,20.99-23.27,52.34-63.85,69.09-120.9,32.09-109.29-18.15-181.03,15.54-208.99,38.85-32.24,115.58,54.86,284.98,79.45,54.52,7.91,175.56,25.49,224.53-39.73,19.85-26.44,31.26-71,15.54-108.81-28.17-67.79-120.95-59.65-426.61-119.17-117.74-22.93-136.35-30.44-164.32-17.09-138.34,66.04-80.65,439.48-65.39,530.06Z" style="fill: url(#linear-gradient-40);"/>
          <path d="M960.35,2445.03c15.54,1.73,31.09,3.46,46.63,5.18,20.99-23.27,52.34-63.85,69.09-120.9,32.09-109.29-18.15-181.03,15.54-208.99,38.85-32.24,115.58,54.86,284.98,79.45,54.52,7.91,175.56,25.49,224.53-39.73,19.85-26.44,31.26-71,15.54-108.81-28.17-67.79-120.95-59.65-426.61-119.17-117.74-22.93-136.35-30.44-164.32-17.09-138.34,66.04-80.65,439.48-65.39,530.06Z" style="fill: url(#linear-gradient-41);"/>
          <g>
            <path d="M1052.88,1475.59s9.26,6.25,19.59,6.01c10.34-.24,5.53-9.14,22.6-15.15,17.07-6.01,19.72-21.16,14.19-27.17-1.08-1.18-1.96-1.67-2.7-1.69,3.5-1.58-.35-12.85-6.19-19.95-6.73-8.17-17.31,1.2-17.31,1.2,0,0,2.64-20.92,5.05-33.9,2.4-12.98-6.49-21.16-6.97-14.19-.48,6.97-12.5,47.12-12.5,47.12,0,0,0-42.07-6.73-42.31-6.73-.24-6.13,48-6.13,48,0,0-7.94-40.67-15.87-35.62-7.93,5.05,12.98,87.64,12.98,87.64ZM1089.54,1433.76c.96-8.66,8.17,1.92,14.91,3.85.5.14.94.19,1.32.17-2.4,1.2-3.19,8.15-5.65,11.13-3.37,4.09-11.54-6.49-10.58-15.15Z" style="fill: url(#linear-gradient-42);"/>
            <polygon points="1051.78 1471.18 1047.33 1509.13 1078.99 1502.97 1080.2 1477.6 1051.78 1471.18" style="fill: url(#linear-gradient-43);"/>
          </g>
          <path d="M1195.68,1468.16c15.87-38.8,49.93-61.12,67.59-72.69,41.79-27.38,68.54-22.38,164.51-36.98,127.9-19.46,143.21-37.9,186.19-22.95,56.46,19.63,85.96,70.88,99.47,94.37,68.14,118.41-11.53,178.59,8.93,414.47,8.35,96.33,29.77,180.04-21.68,229.55-10.83,10.42-22.95,15.88-47.19,26.78-96.11,43.25-182.29,35.79-234.65,30.61-57.62-5.7-86.74-8.97-102.02-29.33-24.41-32.52.72-73.85,5.1-145.38,3.15-51.35-8.53-92.05-31.88-173.44-54.29-189.21-124.77-240.65-94.37-314.99Z" style="fill: url(#linear-gradient-44);"/>
          <g>
            <path d="M1409.76,1288.69c-5.82-20.74,4.36-39.95,6.6-44.09,9.39-17.33,11.8-19.7,16.28-22.7l6.23-3.84s.36-.14.74-.28c4-1.42,17.63-1.84,20.39-1.25,8.82,1.88,18.21,37.81,15.53,88.61.37,1.94.72,3.89,1.06,5.86,1.39,8.02,2.49,15.88,3.35,23.57.82,7.35,11.24,7.18,18.63,6.71,29.97-1.91,44.63.64,45.91,5.1,2.39,8.36-33.16,35.71-77.05,41.86-58.91.44-106.83-5.83-101.68-15.11,2.29-4.12,47.93-16.04,60.77-27.87,11.75-10.82,10.8-22,11.76-30-3.56-1.85-24.22-11.28-28.51-26.57Z" style="fill: url(#linear-gradient-45);"/>
            <path d="M1420.6,1203.63c.05,15.74,7.47,32.54,11.24,35.24.49.35,3.23,2.52,5.7,6.23.34.5.63,1.09.9,1.86,3.45,9.92-12.32,21.59-9.28,26.03,2.21,3.22,12.92-1.09,14.2,1.7,1.2,2.62-7.71,8.04-6.34,11.17,1.03,2.37,6.51.2,9.97,3.83,1.72,1.81,1.22,3.24,3.04,8.76,1.03,3.12,2.48,6.54,3.6,8.44,5.44,9.24,20.84,12.61,23.81,8.92.82-1.03.12-1.9.96-5.35,0,0,.78-3.21,3.01-6.91,3.19-5.29,10.88-9.08,18.64-14.67,14.37-10.35,18.28-19.17,19.45-22.15.42-1.06.68-1.86.86-2.44,3.74-11.6,3.75-28.64-1.46-39.11-8.73-17.55-28.44-9.22-44.57-26.61-18.61-20.06-7.53-47.49-17.62-50.52-11.13-3.34-36.19,26.5-36.1,55.6Z" style="fill: #26264f;"/>
            <path d="M1434.82,1269.28c3.86-5.3,10.63-.32,10.67,6.54.04,6.86-6.6,13.99-13.05,12.63-6.45-1.35-2.82-12.03,2.37-19.17Z" style="fill: url(#linear-gradient-46);"/>
          </g>
          <path d="M1468.59,2063.72c-16.95-33.75,24.59-78.62-2.55-130.08-23.05-43.7-64.92-33.91-84.17-73.97-23.25-48.38,27.32-84.54,25.5-158.14-2.16-87.99-77.87-176.06-122.43-168.34-28.83,5-32.53,48-52.81,95.09,17.95,39.36,38.92,88.66,57.91,154.87,23.35,81.39,35.03,122.08,31.88,173.44-4.38,71.53-29.51,112.86-5.1,145.38,15.28,20.36,44.4,23.63,102.02,29.33,52.36,5.18,138.54,12.64,234.65-30.61,12.17-5.47,21.27-9.57,28.7-13.62-150.16,22.55-200.17,3.41-213.62-23.36Z" style="fill: url(#linear-gradient-47); mix-blend-mode: multiply; opacity: .4;"/>
          <path d="M1281.13,1397.39c-9.24-2.26-16.92.93-28.06,5.74-19.93,8.61-59.5,32.4-94.37,124.98-8.25,21.9-13.82,41.25-18.06,58.02l-.25-.67s-24.93,98.29-39.44,53.43c-14.51-44.86-18.47-144.3-18.47-144.3l-44.39-6.93c-6.04,24.56-10.38,49.63-13.2,74.75-2.55,22.74-5.92,45.63-5.98,68.54-.06,22.82,2.69,46.08,6.08,68.63,5.09,33.9,32.12,66.41,59.27,85.88,32.02,22.95,72.14,26.09,109.07,14.36,7.46-2.37,14.87-5.26,21.97-8.56,7.48-3.48,12.87-6.59,15.45-8.08,75.11-43.46,88.29-135.03,95.01-181.73,11.93-82.88-2.13-193.65-44.63-204.04Z" style="fill: url(#linear-gradient-48);"/>
        </g>
        <g>
          <ellipse cx="1510.77" cy="2617.67" rx="257.8" ry="105.21" style="fill: #d8dee8;"/>
          <path d="M1768.57,2605.33c0,54.85-115.42,99.32-257.79,99.32s-257.8-44.47-257.8-99.32,115.42-144.6,257.8-144.6,257.79,89.75,257.79,144.6Z" style="fill: url(#linear-gradient-49);"/>
          <path d="M1768.57,2605.33c0-54.85-115.42-144.6-257.79-144.6-65.74,0-125.7,19.15-171.23,45.15-3.19,6.68-4.67,13.32-4.07,19.62,2.96,30.86,53.29,49.83,82.18,56.09,72.76,15.76,108.29-27.75,168.27-26.09,37.09,1.02,88.48,19.66,149.44,98.56,21.1-14.4,33.2-31.02,33.2-48.74Z" style="fill: url(#linear-gradient-50); mix-blend-mode: multiply; opacity: .3;"/>
          <path d="M1524.89,2510.55c-10.3,2.56-19.91,2.46-28.95.16-8.2-2.08-13.83-9.67-13.83-18.13v-290.69h57.32v290.34c0,8.72-6.08,16.2-14.54,18.31Z" style="fill: #fff;"/>
          <path d="M1524.89,2510.55c-10.3,2.56-19.91,2.46-28.95.16-8.2-2.08-13.83-9.67-13.83-18.13v-290.69h57.32v290.34c0,8.72-6.08,16.2-14.54,18.31Z" style="fill: url(#linear-gradient-51); mix-blend-mode: multiply; opacity: .65;"/>
          <path d="M1207.88,2079.56l87.57-55.36c3.64-20.68,44.92-237.02,212.51-304.96,68.15-27.63,141.49-24.35,181.74-22.55,80.35,3.59,137.66,6.15,165.22,44.47,35.4,49.21-23.97,93.84-11.68,234.62,5.01,57.41,17.76,82.9,1.88,120.93-19.02,45.56-63.13,70.81-97.43,85.02-41,23.81-112.38,57.73-206.66,65.99-158.81,13.92-277.37-54.21-318.14-80.27-18.13-5.72-31.75-20.79-35.61-39.41-3.91-18.88,4.29-38.2,20.59-48.5Z" style="fill: url(#linear-gradient-52);"/>
          <path d="M1248.14,2118.98c3.24-19.47,57.49-3.33,108.81-41.45,76.71-56.99,36.9-153.52,103.63-246.12,61.24-84.98,184.53-128.24,222.8-95.86,50.95,43.1-73.74,204.29,0,308.3,35.82,50.52,90.39,48.09,90.68,77.72.45,46.83-135.38,100.81-264.26,98.45-138.55-2.54-266.8-70.14-261.67-101.04Z" style="fill: #fff; mix-blend-mode: soft-light; opacity: .26;"/>
        </g>
        <g>
          <ellipse cx="2267.59" cy="2491.96" rx="257.8" ry="105.21" style="fill: #d8dee8;"/>
          <path d="M2525.39,2479.62c0,54.85-115.42,99.32-257.79,99.32s-257.8-44.47-257.8-99.32,115.42-144.6,257.8-144.6,257.79,89.75,257.79,144.6Z" style="fill: url(#linear-gradient-53);"/>
          <path d="M2525.39,2479.62c0-54.85-115.42-144.6-257.79-144.6-65.74,0-125.7,19.15-171.23,45.15-3.19,6.68-4.67,13.32-4.07,19.62,2.96,30.86,53.29,49.83,82.18,56.09,72.76,15.76,108.29-27.75,168.28-26.09,37.09,1.02,88.48,19.66,149.44,98.56,21.1-14.4,33.2-31.02,33.2-48.74Z" style="fill: url(#linear-gradient-54); mix-blend-mode: multiply; opacity: .3;"/>
          <path d="M2281.71,2384.84c-10.3,2.56-19.91,2.46-28.95.16-8.2-2.08-13.83-9.67-13.83-18.13v-290.69h57.32v290.34c0,8.72-6.08,16.2-14.54,18.31Z" style="fill: #fff;"/>
          <path d="M2281.71,2384.84c-10.3,2.56-19.91,2.46-28.95.16-8.2-2.08-13.83-9.67-13.83-18.13v-290.69h57.32v290.34c0,8.72-6.08,16.2-14.54,18.31Z" style="fill: url(#linear-gradient-55); mix-blend-mode: multiply; opacity: .65;"/>
          <path d="M1964.7,1953.85l87.57-55.36c3.64-20.68,44.92-237.02,212.51-304.96,68.15-27.63,141.49-24.35,181.74-22.55,80.35,3.59,137.66,6.15,165.22,44.47,35.4,49.21-23.97,93.84-11.68,234.62,5.01,57.41,17.76,82.9,1.88,120.93-19.02,45.56-63.13,70.81-97.43,85.02-41,23.81-112.38,57.73-206.66,65.99-158.81,13.92-277.37-54.21-318.14-80.27-18.13-5.72-31.75-20.79-35.61-39.41-3.91-18.88,4.29-38.2,20.59-48.5Z" style="fill: url(#linear-gradient-56);"/>
          <path d="M2004.96,1993.27c3.24-19.47,57.49-3.33,108.81-41.45,76.71-56.99,36.9-153.52,103.63-246.12,61.24-84.98,184.53-128.24,222.8-95.86,50.95,43.1-73.74,204.29,0,308.3,35.82,50.52,90.39,48.09,90.68,77.72.45,46.83-135.38,100.81-264.26,98.45-138.55-2.54-266.8-70.14-261.67-101.04Z" style="fill: #fff; mix-blend-mode: soft-light; opacity: .26;"/>
        </g>
        <g>
          <g>
            <circle cx="1807.95" cy="550.94" r="511.15" transform="translate(139.97 1439.78) rotate(-45)" style="fill: url(#linear-gradient-57);"/>
            <circle cx="1766.49" cy="550.94" r="511.15" style="fill: url(#linear-gradient-58);"/>
            <path d="M2220.56,550.94c0,103.48-34.62,198.83-92.88,275.19-82.95,108.74-213.91,178.89-361.2,178.89-250.77,0-454.03-203.31-454.03-454.08,0-192.98,120.36-357.82,290.14-423.54,50.84-19.71,106.11-30.5,163.89-30.5,250.77,0,454.08,203.27,454.08,454.04Z" style="fill: url(#linear-gradient-59);"/>
            <path d="M2127.69,826.12c-82.95,108.74-213.91,178.89-361.2,178.89-250.77,0-454.03-203.31-454.03-454.08,0-192.98,120.36-357.82,290.14-423.54-25.47,86.29-104.77,428.64,220.62,491.37,187.21,36.08,280.13,117.77,304.47,207.35Z" style="fill: #fff; mix-blend-mode: soft-light; opacity: .4;"/>
          </g>
          <g>
            <path d="M1707.57,365.33c-29.31-21.77-69.51-13.4-80.4-11.72-10.89,1.68-61.97,20.1-61.97,20.1l76.21-52.76s46.06-8.37,65.32-26.8c19.26-18.42-10.89-24.29-45.22-20.94-34.34,3.35-123.95,72.86-123.95,72.86l14.24-20.94s51.92-57.79,43.55-77.05c-8.37-19.26-76.21,61.97-97.15,97.15-20.94,35.17-67.84,77.05-66.58,126.04.93,36.15-29.61,65.46-45.68,78.35-6.22,4.98-9.9,12.47-10.06,20.43-.41,21,.1,63.23,8.63,100.96,11.93,52.76,56.53,23.87,68.46,7.54,11.93-16.33,68.46-1.88,84.79,8.79,16.33,10.68,109.92-35.17,126.88-37.06,16.96-1.88,35.17-15.07,42.71-35.8,7.54-20.73,18.22-47.74,9.42-59.04s-32.03,8.17-43.97,24.29c-11.93,16.12-42.29,3.35-74.95,0-32.66-3.35-33.5-38.52-29.31-54.44,4.19-15.91,65.32-47.74,72.02-42.71,6.7,5.02,42.71,18.42,42.71,18.42,0,0,15.91,36.85,32.66,42.71,16.75,5.86,15.91-40.2,6.7-63.65-9.21-23.45-50.25-50.25-71.19-53.6-20.94-3.35-81.24,15.91-81.24,15.91,0,0,34.34-31.82,51.92-45.22,17.59-13.4,61.13,3.78,61.13,3.78,0,0,34.34,16.32,47.85,16.32s5.75-30.15-23.57-51.92Z" style="fill: #fff;"/>
            <path d="M1777.61,762c29.31,21.77,69.51,13.4,80.4,11.72,10.89-1.68,61.97-20.1,61.97-20.1l-76.21,52.76s-46.06,8.37-65.32,26.8c-19.26,18.42,10.89,24.29,45.22,20.94,34.34-3.35,123.95-72.86,123.95-72.86l-14.24,20.94s-51.92,57.79-43.55,77.05c8.37,19.26,76.21-61.97,97.15-97.15,20.94-35.17,67.84-77.05,66.58-126.04-.93-36.15,29.61-65.46,45.68-78.35,6.22-4.98,9.9-12.47,10.06-20.43.41-20.99-.1-63.23-8.63-100.96-11.93-52.76-56.53-23.87-68.46-7.54-11.93,16.33-68.46,1.88-84.79-8.79-16.33-10.68-109.92,35.17-126.88,37.06-16.96,1.88-35.17,15.07-42.71,35.8-7.54,20.73-18.22,47.74-9.42,59.04,8.79,11.31,32.03-8.17,43.97-24.29,11.93-16.12,42.29-3.35,74.95,0,32.66,3.35,33.5,38.52,29.31,54.44-4.19,15.91-65.32,47.74-72.02,42.71-6.7-5.02-42.71-18.42-42.71-18.42,0,0-15.91-36.85-32.66-42.71-16.75-5.86-15.91,40.2-6.7,63.65,9.21,23.45,50.25,50.25,71.19,53.6,20.94,3.35,81.24-15.91,81.24-15.91,0,0-34.34,31.82-51.92,45.22-17.59,13.4-61.13-3.78-61.13-3.78,0,0-34.34-16.32-47.85-16.32s-5.75,30.15,23.57,51.92Z" style="fill: #fff;"/>
          </g>
        </g>
        <g>
          <g>
            <path d="M711.9,2684.67c-102.11-13.12-231.58-47.59-283.58-144.79-12.37-23.12-24.78-68.04,6.44-84.96,28.54-15.46,65.45.87,86.66,20.99,15.6,14.79,27.77,47.81,45.29,58.26,25.65,15.28,39.46-26.42,38.92-43.63-1.21-38.48-48.54-54.23-79.99-62.58-52.21-13.87-113-25.76-109.73-84.59,3.27-58.84,60.64-94.13,104.77-68.39,36.36,21.21,31.24,66.48,56.09,93.64,22.07,24.13,29.75-15.04,28.28-34.24-3.2-41.71-39.88-71.88-66.86-99.83-30.51-31.6-64.22-95.18-31.7-136.96,18.71-24.04,66.25-29.68,94.35-25.62,137.54,19.86,46.34,197.85,71.34,217.7,25.01,19.86,48.67-14.9,48.6-67.76-.06-52.86,8.03-91.84,63.19-74.92,55.16,16.92,65.66,154.98,2.68,208.04-62.99,53.06,3.95,110.95,20.86,72.92,12.21-27.46,22.94-99.36,58.22-107.24,58.79-13.12,57.92,106.92,41,134.86-23.72,39.16-77.34,47.67-107.29,81.46-8.7,9.82-28.34,34.13-20.71,48.47,10.64,20.01,40.33-1.4,51.24-10.67,24.52-20.85,58.47-91.7,93.02-44.65,42.66,58.1-28.68,144.24-211.09,154.49Z" style="fill: url(#linear-gradient-60);"/>
            <g style="mix-blend-mode: soft-light; opacity: .8;">
              <path d="M697.19,2674.73c2.4,0,4.37-2.1,4.41-4.51.04-2.09,2.88-211.49-88.53-460.43-.84-2.29-3.38-3.5-5.66-2.67-2.29.84-3.46,3.35-2.62,5.64,90.85,247.41,88.03,455.24,87.99,457.3-.05,2.44,1.89,4.66,4.33,4.66h.08Z" style="fill: #fff;"/>
            </g>
          </g>
          <path d="M659.64,2595.12c16.55-14.08,51.72,7.94,66.32,16.32,8.47,4.86,20.05,12.31,30.24,7.99,10.7-4.54,9.95-15.77,3.48-23.73-11.58-14.25-33.81-18.16-49.96-25.11-17.35-7.46-33.28-17.62-41.84-35.13-6.82-13.96-8.38-34.6-.7-48.35,21.25-38.06,52.19-8.36,69.49,14.34,8.39,11.01,27.2,29.99,41.45,17,15.16-13.82,2.15-38.45-9.61-49.31-15.37-14.2-33.98-24.06-50.72-36.4-15.09-11.13-30.6-27.07-20.55-46.79,7.76-15.24,27.3-23.67,43.98-22.38,38.57,2.99,44.59,59.3,69.99,80.93,8.98,7.65,29.4,13.72,40.11,6.22,10.9-7.65,3.82-25.15-.11-34.7-11.63-28.3-95.08-123.18-25.92-135.1,17.41-3,41.39,2.48,55.07,13.55,25.8,20.88,39.5,62.23,46.29,93.6,10.69,49.36,10.08,104.18-1.85,153.27-26.37,108.49-88.36,143.33-88.36,143.33-26.81,8.82-60.33,13.18-88.12,7.29-32.67-6.92-71.74-31.1-87.9-61.27-5.23-9.76-11.04-26.85-.78-35.57Z" style="fill: url(#linear-gradient-61);"/>
        </g>
      </g>
    </g>
  </g>
</svg>