<?xml version="1.0" encoding="UTF-8"?>
<svg xmlns="http://www.w3.org/2000/svg" viewBox="0 0 351.5 285.64">
  <g style="isolation: isolate;">
    <g id="Capa_1" data-name="Capa 1">
      <g>
        <path d="M156.86,273.53c0,5.47-18.32,9.9-40.93,9.9s-40.93-4.43-40.93-9.9,18.32-9.9,40.93-9.9,40.93,4.43,40.93,9.9Z" style="fill: #fcd2ac; mix-blend-mode: multiply;"/>
        <ellipse cx="206.94" cy="275.75" rx="40.93" ry="9.9" style="fill: #fcd2ac; mix-blend-mode: multiply;"/>
        <g>
          <g>
            <polygon points="191.45 252.37 185.42 252.07 185.42 142.04 198.46 142.04 191.45 252.37" style="fill: #160942;"/>
            <polygon points="339.13 252.37 345.16 252.07 345.16 142.04 332.12 142.04 339.13 252.37" style="fill: #160942;"/>
          </g>
          <rect x="179.08" y="136.31" width="172.42" height="11.99" style="fill: #80b9e4;"/>
        </g>
        <g>
          <path d="M202.33,135.07c0,.41.42.74.93.74h76.65c.51,0,.93-.33.93-.74v-4.6c0-.41-.42-.74-.93-.74h-76.65c-.51,0-.93.33-.93.74v4.6Z" style="fill: #2f3a7d;"/>
          <g>
            <path d="M203.3,87.88h56.52c1.52,0,2.75,1.23,2.75,2.75v42.47c0,1.52-1.23,2.75-2.75,2.75h-56.52c-1.52,0-2.75-1.23-2.75-2.75v-42.47c0-1.52,1.23-2.75,2.75-2.75Z" style="fill: #4750a2;"/>
            <path d="M225.14,113.44c0,3.54,2.87,6.42,6.42,6.42s6.42-2.87,6.42-6.42-2.87-6.41-6.42-6.41-6.42,2.87-6.42,6.41Z" style="fill: #80b9e4;"/>
          </g>
        </g>
        <g>
          <g>
            <rect x="273.71" y="189.46" width="5.27" height="61.54" style="fill: #8bacda;"/>
            <path d="M255.01,251.16h-4.91c1.3-5.27,5.23-11.16,9.83-14.56,4.62-3.41,10.44-5.28,16.37-5.28s11.75,1.88,16.37,5.28c4.61,3.4,8.52,9.29,9.82,14.56h-4.9c-2.19-8.88-11.15-15.34-21.29-15.34s-19.1,6.45-21.29,15.34Z" style="fill: #8bacda;"/>
            <path d="M256.37,250.81c0,2.63-2.07,4.76-4.63,4.76s-4.63-2.13-4.63-4.76,2.07-4.76,4.63-4.76,4.63,2.13,4.63,4.76Z" style="fill: #5f84c3;"/>
            <path d="M281.34,251c0,2.84-2.24,5.14-5,5.14s-5-2.3-5-5.14,2.24-5.15,5-5.15,5,2.3,5,5.15Z" style="fill: #5f84c3;"/>
            <path d="M304.95,250.81c0,2.63-2.07,4.76-4.63,4.76s-4.63-2.13-4.63-4.76,2.07-4.76,4.63-4.76,4.63,2.13,4.63,4.76Z" style="fill: #5f84c3;"/>
          </g>
          <path d="M308.26,192.11c0,2.15-1.57,3.9-3.51,3.9h-56.9c-1.94,0-3.51-1.75-3.51-3.9v-13.27c0-2.15,1.57-3.9,3.51-3.9h56.9c1.94,0,3.51,1.75,3.51,3.9v13.27Z" style="fill: #160942;"/>
        </g>
        <g>
          <path d="M172.5,112.23c-1.15.09-4.6.37-4.6.37-2.28.06-3.32-1.69-3.49-3.43-.08-.81.3-2.8,1.72-3.4,2.34-.98,6.16-.72,6.16-.74,0-.07-2.38-1.18-3.03-1.94,0,0-.49-.62-.1-1.23.31-.48.93-.66,1.43-.37l2.4,1.41c.22.09,5.38,3.03,7.24,2.11l.48,4.67s-.12-.39-2.9.89c-1.28.58-3.92,1.54-5.32,1.65Z" style="fill: #f6977e;"/>
          <path d="M212.81,40.66s-.68,6.45-6.18,6.45c-5.08,0-5.99-6.45-5.99-6.45v-6.58h12.17v6.58Z" style="fill: #f58b73;"/>
          <path d="M228.08,115.92l7.67-63.57c.16-4.82-1.88-7.38-4.56-8.47-4.41-1.79-18.36-3.36-18.36-3.36l-6.27,6.4-5.99-6.4s-11.64.11-16.87,2.29c-2.67,1.11-5.57,3.22-5.25,8.79,0,0,5.09,47.11,5.91,64.38l43.72-.06Z" style="fill: #8bacda;"/>
          <path d="M240.04,63.08c-2.1-14.46-7.19-18.23-7.19-18.23l-9.25,51.15-.02-.02-47.21,8.07.04,7.58s52.54.62,57.73-4.82c3.22-3.38,7.31-34.05,5.9-43.73Z" style="fill: #6491cb;"/>
          <polygon points="196.89 267.61 207.5 146.15 214.48 267.61 225.3 267.69 228.08 115.92 184.36 115.98 186.22 267.69 196.89 267.61" style="fill: #160942;"/>
          <path d="M217.22,35.09c-.44.94-7.79,5.93-10.84,5.66-3.14-.27-9.05-6.82-9.37-7.96-.84-3.06-1.5-15.16-.2-19.77,1.98-6.98,6.58-10.39,13.18-9.81,6.13.54,10.05,3.74,11.05,10.5.84,5.68-2.02,17.52-3.82,21.38Z" style="fill: #f6977e;"/>
          <g>
            <path d="M194.67,19.96l2.36,1.64s1.07-7.47,2.45-7.52c2.05-.08,3.39.57,7.78,1.03,0,0-2.09-1.89-2.11-2.57,0,0,3.71,1.83,6.21,1.81,0,0-1.06-.73-1.77-1.9,0,0,4.19,3.01,6.75,2.65,0,0-2.12-1.3-2.58-2.45,0,0,3.59,1.44,4.52,2.36,1.24,1.22,1.38,3.35,1.03,8.5l2.44-.85s2.75-17.52-10.37-19.6c0,0-15.41-3-16.7,16.89Z" style="fill: #160942;"/>
            <path d="M205.26,3.45s4.71-1.38,6.91-3.45c0,0,.19,2.44-.99,3.05,0,0,2.03-.22,2.88-1.62,0,0,.76,1.46-.2,2.33,0,0,2.52-.22,3.15-1.43,0,0,.67,1.57-.31,2.63" style="fill: #160942;"/>
          </g>
          <path d="M197.52,23.02c.02,1.82-1.4,3.21-2.55,3.22-1.15.01-1.6-1.35-1.62-3.17-.02-1.82.55-3.33,1.7-3.34,1.15-.01,2.44,1.47,2.47,3.3Z" style="fill: #f6977e;"/>
          <path d="M218.46,24.85c-.34,1.79.82,3.4,1.95,3.61,1.13.21,1.81-1.06,2.15-2.85.34-1.79.03-3.38-1.1-3.59-1.13-.21-2.66,1.03-3,2.82Z" style="fill: #f6977e;"/>
          <path d="M186.25,267.58s-17.68,8.29-15.7,12.27c1.88,3.78,26.05-5.79,26.05-5.79l.31-6.54-10.65.05Z" style="fill: #6491cb;"/>
          <path d="M225.1,267.5s17.68,8.3,15.71,12.27c-1.88,3.78-26.05-5.79-26.05-5.79l-.31-6.54,10.65.05Z" style="fill: #6491cb;"/>
          <path d="M223.11,41.09c.52-1.03,2.1-4.11,2.1-4.11.93-2.09-.3-3.71-1.84-4.53-.72-.38-2.71-.79-3.8.3-1.8,1.79-3.01,5.42-3.03,5.41-.06-.02-.19-2.65-.64-3.54,0,0-.39-.69-1.1-.56-.57.11-.97.61-.89,1.18l.39,2.76c0,.23.75,6.13-.81,7.5l4.14,2.22s-.31-.26,1.92-2.34c1.03-.96,2.92-3.03,3.55-4.29Z" style="fill: #f6977e;"/>
          <path d="M219.72,46.77l-5.9-3.22s-24.11,40.17-25.51,39.77c-.75-.21-6.38-39.61-6.38-39.61,0,0-6.68,3.76-7.67,14.74-.81,9.01,3.54,44.08,10.29,44.49,10.61.64,35.16-56.17,35.16-56.17Z" style="fill: #6491cb;"/>
        </g>
        <g>
          <path d="M55.94,96.24c26.59-3.86,76.76,13.08,104.41,117.92,5.11,19.37-9.65,42.1-104.2,39.88C10.48,252.97-1.74,218.23.19,187.36c1.93-30.87,26.61-86.89,55.74-91.12Z" style="fill: #4750a2;"/>
          <path d="M52.77,192.29c3.75,1.31,9.39,2.74,13.93,2.52,4.77-.24,9.46-.99,14.19-1.6,10.5-1.35,21.1-2.57,31.7-2.29,7.78.21,15.94.75,23.34,3.42-19.21-72.68-53.83-87.27-72.28-84.6-14.05,2.04-29.86,16.61-31.3,40.52-.25,4.17.95,35.2,20.42,42.02Z" style="fill: #353679;"/>
          <path d="M150.46,194.75c2.98-11.57-3.94-13.59-14.37-17.23-9.9-3.46-28.62-13.24-61.42-13.72-.42,0-6.22,13.36-6.22,19.77v.64c0,6.4,5.2,11.59,11.59,11.59h49.02c-2.21,11.26-13.34,69.81-13.34,69.81h9.83s20.64-54.28,24.91-70.87Z" style="fill: #0d0033;"/>
          <path d="M132.87,200.27c3.78-12.29,1.68-13.87-7.51-17.51-12.28-4.87-26-11.57-49.22-16.64-4.38-.96-12.75.64-18.16-.18-.42-.07-1.42,11.86-1.07,18.25.19,3.39,1.24,11.24,7.64,11.24l49.13,3.79c-2.2,11.26-12.78,65.95-12.64,66.39h9.83s16.97-48.98,22.01-65.34Z" style="fill: #160942;"/>
          <path d="M72.29,97.21v5.61s0,4.9,4.34,4.9,4.5-4.9,4.5-4.9v-5.61h-8.84Z" style="fill: #f58b73;"/>
          <path d="M86.38,92.86c-1.15,3.72-4.31,5.69-9.36,6.09-2.78.23-6.89-.84-9.41-4.58-1.57-2.33-2.92-11.84-2.26-16.03.99-6.35,4.67-9.84,10.54-10.04,5.45-.19,9.08,1.6,10.68,7.44,1.34,4.91,1.3,12.32-.18,17.12Z" style="fill: #f6977e;"/>
          <path d="M95.6,110.18c-.61-4.14-2.03-5.46-5.81-6.38-3.84-.93-8.67-1.66-8.67-1.66l-4.7,4.98-4.18-5.23s-4.39.67-8.31,1.23c-3.24.46-5.28,2.38-5.95,6.51-2.56,15.79-.79,25.09.03,39.61.54,9.54.67,11.99-.62,17.04l36.67.11s-1.13-6.81-.7-17.1c.61-14.53,4.4-24.55,2.25-39.13Z" style="fill: #ffda7e;"/>
          <g>
            <path d="M56.81,173.96c.56.87,2.39,3.1,2.39,3.1,1.27,1.6,3.07,1.3,4.36.42.6-.41,1.75-1.82,1.34-3.14-.67-2.17-3.06-4.63-3.05-4.65.04-.04,2.18.95,3.08.96,0,0,.71-.02.9-.64.15-.49-.08-1.02-.57-1.19l-2.35-.83c-.18-.1-5.18-1.94-5.62-3.75l-3.48,2.37s.33-.14,1.06,2.49c.34,1.21,1.01,3.4,1.95,4.86Z" style="fill: #f6977e;"/>
            <path d="M39.63,141.47c4.64,10.4,15.12,27.07,15.12,27.07l4.18-2.2-9.49-24.92-9.82.05Z" style="fill: #f6977e;"/>
            <path d="M49.68,139.22l5.28,14.56-8.25,3.55c-2.73-5.51-7.44-14.38-7.6-16.77-.29-4.17,7.67-21.24,11.23-26.56,7.21-10.81,12.44-10.61,12.44-10.61,0,0-5.67,6.09-5.8,15.32-.08,5.44-7.32,20.51-7.32,20.51h.02Z" style="fill: #f9af6c;"/>
            <path d="M46.13,155.86c-.56.24-.8.91-.55,1.5l.37.83c.26.58.91.86,1.47.61l8.02-3.52c.56-.24.8-.91.54-1.5l-.37-.83c-.26-.58-.91-.86-1.47-.61l-8.02,3.52Z" style="fill: #f9af6c;"/>
          </g>
          <path d="M80.01,77.93c-2.25,1.58-5.37,2.2-8.85,1.24,0,0,.78,3.41-1.35,6.73-1.86,2.91-1.88,7.5-.49,10.53,0,0-4.07-.97-4.54-15.98,0,0-.4-10.92,10.23-12.52,7.79-1.17,13.83,2.06,11.97,9.82-.23.95-3.44-2.3-6.97.18Z" style="fill: #160942;"/>
          <g>
            <path d="M150.05,118.77c.72-.65,2.88-2.59,2.88-2.59,1.36-1.35.89-3-.07-4.1-.45-.52-1.88-1.44-3.07-.92-1.95.86-3.99,3.34-4.01,3.33-.04-.04.65-2.13.57-2.97,0,0-.09-.66-.69-.77-.48-.09-.94.19-1.05.66l-.52,2.28c-.07.18-1.26,5.03-2.9,5.64l2.57,2.99s-.17-.3,2.21-1.25c1.09-.44,3.2-1.5,4.08-2.29Z" style="fill: #f6977e;"/>
            <path d="M126.38,138.72c9.55-7.16,19.3-17.5,19.3-17.5l-2.81-3.62-20.38,12.45,3.9,8.66Z" style="fill: #f6977e;"/>
            <path d="M123.74,129.03l-6.97,4.71s-9.37-16.83-21.51-27.34c-2.69-2.33-6.46-2.82-6.46-2.82,0,0,4.41,5.35,7.39,16.84,2.06,7.98,13.58,22.6,17.21,24.08,2.34.95,7.95-2.1,14.23-6.85l-3.89-8.63Z" style="fill: #f9af6c;"/>
            <path d="M128.61,137.03c.45.72.04,1.31-.68,1.76l-.44.27c-.72.45-1.49.59-1.93-.13l-4.7-7.64c-.45-.72-.1-1.45.63-1.9l.44-.27c.72-.45,1.54-.45,1.99.27l4.7,7.64Z" style="fill: #f9af6c;"/>
          </g>
          <g>
            <path d="M125.55,265.63s16.91,7.43,14.93,11.41c-1.88,3.78-24.71-6.06-24.71-6.06l-.05-5.36h9.83Z" style="fill: #f6977e;"/>
            <path d="M132.51,273.3c2.6.87,4.51,0,5.66-.6,1.82,1.56,2.92,3.11,2.32,4.34-1.88,3.78-24.71-6.06-24.71-6.06l-.05-5.36s11.72,5.99,16.79,7.68Z" style="fill: #6491cb;"/>
          </g>
          <g>
            <path d="M110.86,265.63s16.91,7.43,14.93,11.41c-1.88,3.78-24.71-6.06-24.71-6.06l-.05-5.36h9.83Z" style="fill: #f6977e;"/>
            <path d="M117.82,273.3c2.6.87,4.5,0,5.66-.6,1.82,1.56,2.92,3.11,2.32,4.34-1.88,3.78-24.71-6.06-24.71-6.06l-.05-5.36s11.72,5.99,16.79,7.68Z" style="fill: #6491cb;"/>
          </g>
          <path d="M78.66,67.62s-13.29-1.39-18.65,13.83c-5.36,15.22-2.57,17.37-6.43,18.01-3.86.64-5.15,15.76.64,13.83,5.79-1.93,9.37,8.83,11.47-.43,3.75-16.51,8.58-4.82,8.47-10.4-.1-5.23-5.47-8.58-4.39-10.18,1.07-1.61-1.93-5.15.43-9.54,2.36-4.39.75-5.04,6-7.61l2.47-7.5Z" style="fill: #160942;"/>
          <g>
            <path d="M71.44,86.84c.21,1.6-.89,2.97-1.9,3.11-1.01.13-1.55-1.02-1.76-2.62-.21-1.6.13-2.99,1.14-3.12,1.01-.14,2.31,1.04,2.52,2.63Z" style="fill: #f6977e;"/>
            <path d="M69.13,91.77c.71-.04,1.18-.58,1.14-1.33-.03-.61-.39-1.14-.9-1.3l-.15.45c.31.1.55.46.57.87.02.48-.25.81-.69.83-.14,0-.86,0-.9-.78-.02-.36.14-.72.41-.9l-.27-.39c-.4.27-.65.79-.62,1.31.04.89.73,1.26,1.4,1.23Z" style="fill: #fcc467;"/>
          </g>
        </g>
      </g>
    </g>
  </g>
</svg>